<svg id="Слой_1" data-name="Слой 1" xmlns="http://www.w3.org/2000/svg" viewBox="0 0 163.02 55.46"><title>btn_bg</title><path d="M107.48,4.86c0-.21-.09-.53.05-.54l-.47.23C107.29,4.51,107.37,4.71,107.48,4.86Z"/><path d="M111,.82a1.09,1.09,0,0,0-.3-.25A1.13,1.13,0,0,0,111,.82Z"/><path d="M110.67.58c0-.06-.06-.1-.05-.13l-.33,0A.69.69,0,0,1,110.67.58Z"/><path d="M113.85,4.59a.87.87,0,0,0-.1.4A1.15,1.15,0,0,1,113.85,4.59Z"/><path d="M66.87-3.67v0l0,0a2.68,2.68,0,0,1-1.12-.28,3.57,3.57,0,0,1,0,.57c.37-.15.85-.25.92.08-.1.56.12.92-.2,1.13-.12-.82-.32.1-.54-.16,0-.19-.2-.26-.36-.4a.62.62,0,0,1-.12.14c0,.17-.08.25-.27.13-.36.11-.78.16-1,.84l-.08-.22a1.61,1.61,0,0,1-.11.5v0h0a2.13,2.13,0,0,1-.18.39c0,.12,0,.18-.07.11a2.29,2.29,0,0,1-.15.23,5.12,5.12,0,0,1,.29.48c.24,0,.36-.34.49-.52L64.33-.8l.16.07c.08,0,.16,0,.27.13l-.23.21c.14.32.37.21.44.58-.23.21.22.88.17,1.14.28-.47.59,1.2.85.3-.11.21.16.95.34.79-.14-.32,0-.53-.22-.89a2.36,2.36,0,0,1,1-.25A3.16,3.16,0,0,0,66.7.09c.33.46.8.33.58-.45-.06.06-.11.21-.23.11.25.1.1-1.31.56-.66-.21.54.6,1,.75,1.26C67.75-.7,68.7,0,68.33-1c-.25-.38-.28.27-.37-.27a1.45,1.45,0,0,1-1-.66c.08.06.13,0,.18,0l-.08-.16.15,0c.08-.26.13-.68.21-1,0,0,0-.09,0-.13l0-.07,0,.05a1.27,1.27,0,0,1-.07-.24,1.7,1.7,0,0,0,.2.17c.08-.14.21-.14.4.11l0-.08a1.07,1.07,0,0,0,.8-.71A5.65,5.65,0,0,1,66.87-3.67ZM64.77-.88l.17.19.15.5Zm2.16.73c-.11-.49-.26-.45-.4-.51C66.67-.66,66.84-.76,66.93-.15Zm-.71-.45-.75.07.27-.27-.11-.13C65.81-.85,66-1.34,66.23-.61Zm.82-2-.13.08,0-.49Z"/><path d="M30.19,55.79a.66.66,0,0,1,.23.44,2.73,2.73,0,0,1,.58.64,1.85,1.85,0,0,0,0-.61c1.43.44,2-2.68,3.53-1.58a2.38,2.38,0,0,1,.55-.52.56.56,0,0,1-.29,0l-.1.21a1.13,1.13,0,0,1-.32-.3.69.69,0,0,0-.83.17l.06-.16c-.28.12-.67-.45-.85-.08.29-1.06.75-1,.3-2.73l-.62.6c-.38-.49.3-.53.45-.79-.48-.12-1.07.12-1.53-.59a.4.4,0,0,0,0-.11c-.1,0-.17,0-.1.33l.18.06c-.28.4-.29.88-.65.89L30.37,51l-.19.2c.1.46.34,1.12-.34,1l.16.2L29.67,52c-.31.3.07.79.35.85a.73.73,0,0,0-.32.7c.73,1.05.16-1,1.25.47L29.63,55.2c.27.34.22.5.07.62l.16.08C30,55.85,30.06,55.76,30.19,55.79Zm1.54-4.21.2.07-.1.59Zm-1,1.45c.45.38.28-.52.46-.59.27.2.08.63.25.93C31.26,53.21,30.89,53.33,30.72,53Zm1-.19c.19-.15.48.13.52.24l-.55.35C31.58,53.1,31.45,52.78,31.74,52.84Zm.42.45.44.13v.32ZM30.4,54.6l.8.07c-.19.38-.64-.33-.63.35Zm1.06,1.09a1.66,1.66,0,0,0-.15.22,2.9,2.9,0,0,0,.06-.45Z"/><path d="M147.37,53.23c-.13-.17-.23-.35-.74-.3-.2.1-.12.36-.15.25-.47.23-.22-.49-.67-.21l0-.38c-.31.22-.42-.15-.68-.26a.57.57,0,0,1-.16.5l-.09-.31h.23c.13-.6-.52-.22-.88-.4l-.26.43-.3-.27c.09-.22.37.24.53-.26,0-.19-.26-.11-.28.08.05-.09-.11-.12.09-.22-.6.3-1.06,0-1.63.62h0l.17.09h-.15c.07.08.26,0,.43,0a.64.64,0,0,0,0-.14l.26.11-.06.06c.06,0,.09.08.08.2h0l0,0c-.08.06-.13.06-.17,0a.44.44,0,0,1-.65-.29l-.75.06v.05c-.63,0-1.05-.6-1.67-.31,0,.06,0,.09-.15.07l.15-.07c0-.13,0-.36.28-.32-.09-.31-.55-.33-.9-.22.19-.15.14-.31.56-.45h0c-.14.1-.24-.07-.52.18l.24-.22a.63.63,0,0,0-.32.23.21.21,0,0,1-.28,0l-.1.38a.23.23,0,0,0-.08-.16c-.27.22-.17.44,0,.3-.09.13-.49.74-.55.44.26,0,.22-.22.27-.38-.07.07-.28.06-.37.18,0,0-.1,0-.2-.07-.56,0-1.14.31-1.63,0-.12-.08-.06-.25-.09-.42a.49.49,0,0,0,.11,0,.8.8,0,0,1-.18-.16c-.52,1,.78,1,.44,1.87l.12-.16,0,.13.15-.08-.08-.25a2.06,2.06,0,0,0,.35-.26c-.25.46.35.06-.06.53l-.36.09c-.07.22-.15-.21-.35.17-.15-.11-.24-.2-.24-.31s-.39,0-.15-.35a.66.66,0,0,0,.33.06l.13-.12c-.21-.09-.5-.25-.67.22a.55.55,0,0,0,0-.37.46.46,0,0,0-.27-.23.54.54,0,0,0,.1.21c-.28.08-.26-.08-.24-.24-.38-.08-.91,0-1.26-.12a.41.41,0,0,1,0,.12l-.15,0c-.45.26.06.49-.31.67-.07-.11-.27-.19-.49,0,.27,0,.11.23.08.42l0,.06h0c0,.09,0,.15.22.12,0,.05-.26.51-.43.39l.24-.27c0-.2-.17-.15-.25-.24s-.13,0-.15-.1c-.35-.14-.55-.19-.47-.5,0,0,0-.06,0-.14A1.64,1.64,0,0,0,131,53c0-.11,0-.25,0-.36l-.86-.16,0,.05-.13,0c0,.14.37.13.55.13.12.18.45.26.25.65-.57-.44-.7.75-1.22.22-.56-.11-.47-.71-.44-1.14l0-.06-.5.52-.5-.17L127.63,54l-.35-.06c.2-.19.5-.34.47-.63s-.87-.14-1.4,0c.34-.45-.4,0-.16-.37-.28-.06-.83-.31-.95.25l-.16-.24c-.12.05-.2.5.07.73.15.07.2.28.26.41a.37.37,0,0,0,.27-.21c-.12.43.42-.08.53.21a.36.36,0,0,0,0,.55c-.27.32-.07.64-.49.85-.18-.15-.08-.5-.28-.57-.32.49-.62-.12-1.17.4l-.13-.58c-.94.64-.27-.91-1.14-.53l0,.29-.25-.38c-.66.41-.55-1-1.51-.32l.43.21c-.24.24-.65.13-.58.09-.11-.42.54-.49,0-.68-.11.12-.29.07-.42.14.12,0,.33,0,.29.23l-.32.24c.15-.2,0-.31,0-.42a.39.39,0,0,0-.08.25.26.26,0,0,1-.08-.36l-.14-.07c.1-.09,0-.16,0-.3h.37a3.38,3.38,0,0,0,.23-.3.34.34,0,0,0,.2,0s0,0,0-.05.12-.18.21-.27c0,.06.27.11.22.23a.2.2,0,0,1,.16.09l-.06,0H122l-.39.21,0-.12c-.06,0-.08,0-.09-.11h0c-.25.32.14.55.48.5l0-.07-.1-.1c.38-.76.41.13.8-.25-.79-.09-1.07-.74-1.81-.63l-.67.45c-.27-.27-.46-.55-.71-.43l-.2.19c.48-.26.12.41.4.34l-1.13.38v0l0,0,.16.05c.28-.05.5.09.42.17s-.51.26-.44,0h0l-.21.59.22.31-.26.33-.21-1h0l0,.08c-.23-.15-.52.34-.79.16l.28-.25c-.27,0-.56-.12-.49-.38l-.06,0,0,.06h0l-.1.08v-.12l-.12-.05s.07,0,.12-.05V53c0-.06.21-.07.37-.11l0-.06,0,.05c.19,0,.36-.14.3-.41h0c-.08.21-.29.19-.31.09-.23.07-.42.11-.51,0a1,1,0,0,0,0-.84c.21-.4-.43.56-.58.24l.14-.27-.62-.26-.4.26,0-.36c-.16,0-.31,0-.4.19-.21-.09-.12-.54.07-.54l.17-.27c-.13,0-.44,0-.64.12.06-.26-.13-.49.15-.69-.26.33-.18-.23-.38-.37l-.14.48c-.41.14,0-.37,0-.59-.2.07-.4.05-.44-.11l-.43.56c-.06-.83-1.05-.11-1.35-.78-.48.48,1,.48,1,1.33l0-.3c-.3,0,.79-.32.43.32-.12-.15-.28-.13-.41.14l-.09,0a.22.22,0,0,1-.08.11.42.42,0,0,0,0-.16l-.21-.1c.05.49-.53.32-.49.9a3.14,3.14,0,0,1-.81.41,1.93,1.93,0,0,1,.59.38l0-.31c-.05.19.09.31-.18.41l.46.41a4.07,4.07,0,0,1,.88-.24l.06.4a1.28,1.28,0,0,1-.16.14c.35-.08.3.71.68.49l-.19.23.13.18c.79,0,1,.7,2,.66-.57.58-1.14-.41-1.49.35-.18-.24-.76-.2-.73-.58a.49.49,0,0,1,0-.14.36.36,0,0,0-.21,0s0,.09,0,.1l0-.09c-.13.06-.26.17-.39.22a.15.15,0,0,0,.29,0c-.23.29.46.33-.11.47,0-.19-.32-.14-.45,0s0,0,0,0c.2.43.8.22,1,.61-.7.5-1,.06-1.33-.22l.26.12.09-.52c-.06,0,0-.07,0-.12s-.06-.14-.13-.14-.23.29-.38.32,0-.16-.06-.22-.2,0-.24-.21c-.35.42.13.49,0,.63-.2-.48-.77-.11-1.12-.22.2-.61.56,0,.78-.53-.39.06-.64-.37-1.08-.05.11-.19-.13-.28.13-.48l.06.29.22-.24s0,0,0,0h0a1.31,1.31,0,0,1,.29-.25h0a.3.3,0,0,1,.38,0l.18-.32a.32.32,0,0,0,.11.06,2.08,2.08,0,0,0,.22-.4c-.16.07-.31.13-.41.07a.13.13,0,0,1,.08-.09s-.06-.09,0-.19a.51.51,0,0,1-.24-.14l-.49.28,0,.27.15-.15c.16,0,.1.15.09.28-.09-.22-.37.31-.48,0a.44.44,0,0,0-.12.15v.14a.14.14,0,0,1,0-.14,1.14,1.14,0,0,1,.24-.86c-.1,0-.15,0-.19,0v0h0c-.05.08-.08.24-.29.33-.11-.43-.53.21-.64-.22,0,0,0,0,0,0a1.12,1.12,0,0,0,0,.26c-.08,0,0-.16,0-.26s0-.21-.16-.12l.39-.49c.08-.31-.2-.3-.44-.39l-.42.45a.24.24,0,0,0,.16,0l0,0c.15-.13.29-.34.4-.24a1,1,0,0,1-.23.14.78.78,0,0,0-.19.4s.06,0,.07,0l.32-.28,0,.09c-.07.2-.19.26-.31.25l0,.06-.18.07-.08,0a.3.3,0,0,1-.05.09l-.05,0c-.51.3.48.09.13.53l.08-.08a.63.63,0,0,1-.1.3l.2,0,0,.14-.32-.09.05-.08h.06c0-.31-.17-.33-.4-.28l0,.8c0-.1,0-.24-.13-.24-.37.34-.07.63.14.59-.49.11-.26-.18-.46-.38a1,1,0,0,0-.13.71h-.16s0,.05-.06.08c.12.15.23,0,.34-.22-.14.26.08.41.05.65H108c.25-.19.57-.11.8-.35s-.25-.09-.28-.33a.86.86,0,0,1,.14-.19c-.1-.11.21-.26.35-.44a2.53,2.53,0,0,0-.26.36c.36-.24.76.23,1.13-.11l0,.25a.34.34,0,0,1-.33-.08c-.16.23-.58,0-.66.48.4-.15.72-.19.93.07-.14.14-.46.07-.38.39h.08c-.15.5-.51.48-.79.72,0,0,.1.07.21,0a.84.84,0,0,1-.4.25,1.06,1.06,0,0,0-.07.17.55.55,0,0,0-.27-.06v0l0,0a4.64,4.64,0,0,1-.83,0c-.05.08-.12.14-.2.09l.12-.13a.36.36,0,0,1-.17-.09s.2-.15.15-.23h0c-.17.1-.53,0-.53.27a.17.17,0,0,0,.1,0l-.42,0v.05l-.19,0,0,0c.07,0,.11,0,.07.12l-.07-.12-.16.08a5.88,5.88,0,0,1,1.47.65l-.39.27.06.07h0c1.34-.15,1.07.15.94.73l.09.18a.58.58,0,0,1,.51,0v-.28l.19.15c-.06,0-.19,0-.19.12a1.53,1.53,0,0,1,.24.2,1.35,1.35,0,0,1,.48-.28.15.15,0,0,1,.06-.12h0l0-.07h0l0-.22c.18,0,.15-.23.17-.32l.36.24c-.14.15-.25.12-.22.37-.06-.08-.1-.24-.22-.18l0,.12h0a.21.21,0,0,0,0,.17l0-.17-.08,0-.06.13h.14l.09.1v0h.05c0-.05,0-.15,0-.21l.28.12-.11.08s0,.08,0,.14a.25.25,0,0,0,.16-.07c.05.1.11.23.16.36h.1l0,.14,0,.07.45-.53c.27.13.2-.07.45.15,0-.09,0-.17,0-.16a.31.31,0,0,0,.43,0c.16-.23,0-.38-.23-.3.06-.15.27-.23.34-.32l0,0,.08,0s0-.07-.05-.11l.12.06a2.6,2.6,0,0,0,.18-.23.35.35,0,0,0,0,.44h0l.14.21.23-.11-.17.19a.54.54,0,0,0,.54.19c.08-.22,0-.38,0-.5.06.07.09.24.22.18s-.23-.3,0-.34a1.11,1.11,0,0,0,.72.2c.05-.39-.27-.59-.3-1l-.06,0c.06,0,.11-.1.14-.26l.07.33c.3-.17.78-.18.92,0l.06-.26c.31,0,.25-.11.56,0a1.15,1.15,0,0,0,0-.4.82.82,0,0,1-.08-.12c-.18.11-.39.25-.45,0-.06.08-.05.19-.11.33l-.18-.56.13-.05c0-.21-.11-.2-.24-.19a.24.24,0,0,1,0,.18l-.65-.47.07,0c.14.11.48.12.59.27.26,0,.49-.1.67.14a2.71,2.71,0,0,0-.13-1l-.08,0a.23.23,0,0,0,.06-.09c0-.08-.05-.17-.09-.24,0,.09.13.13.09.24l0,.06.85-.28c0,.36.29.23.32.56-.36-.26-.65.48-.8.26,0,.33,0,.41.19.67a.4.4,0,0,0-.16.08,1.12,1.12,0,0,1,0,.15c.2.23.51.36.1.77h.33l.15-.48a1.71,1.71,0,0,0,1.47,0c.27-.16.27-.36.2-.5a.61.61,0,0,1-.18-.16,2,2,0,0,1-.38,0,2,2,0,0,0,.07.49c-.4.13-.41-.12-.53-.4a.61.61,0,0,0,.39-.1.21.21,0,0,1-.13-.09.69.69,0,0,0,.15-.09c-.23-.15-.41,0-.45-.36l.32-.26-.15,0c.25-.21.26-.34.21-.45a3.5,3.5,0,0,1-.55-.32c1.19-.91-.51-.83.26-1.61l-.57.09.29-.31c.37,0,.46.14.57.36.33-.22-.2-.16.14-.46l0,.51a.16.16,0,0,0-.15,0,.93.93,0,0,0,.39.48c.12.18.25-.18.35-.1-.05.38-.42.13-.52.3s0,.1,0,.16v.05h0a1.47,1.47,0,0,0,0,.27,1.87,1.87,0,0,0,.24-.19l0,.33c.9-.75.12.64,1-.06-.45.35.43.23.32.61a1.3,1.3,0,0,1,1.06,0l.1-.26.19.28-.18,0,.36.15c-.3.46.25.58-.33.93a2.78,2.78,0,0,0-.77-.17l0,.26-.2-.29a3.35,3.35,0,0,1-.51-.08c.11.36.42.13.62.63.19-.15.1-.47.13-.36a4.54,4.54,0,0,1,1.32.52v-.05a.15.15,0,0,0,.05.08h0c.08.05.24,0,.36-.17.24.25-.06.2-.14.43a.55.55,0,0,1,.1.24l.47-.22c0,.12,0,.19.1.25a3.63,3.63,0,0,0,.71-.62l-.07-.1c-.25.57-.6-.07-.88.47.14-.27-.29-.44.08-.6.06.33.67-.19.36.31.17-.1.41-.46.21-.53.36-.12.26.21.37.37.1-.12.19-.23.27-.35a.35.35,0,0,1,0-.21h.09l.12-.2.15.33.09-.05-.05-.08.31.35a.39.39,0,0,0-.24,0,6.66,6.66,0,0,1,.33,1,1.82,1.82,0,0,1-.93.26.39.39,0,0,1,0,.09l0,.05,0,0c0,.12-.15.25-.27.19l.15-.28h-.12a.79.79,0,0,0-.13.15l0-.16a5.5,5.5,0,0,1-.56-.1l0,0,.09,0h.11l-.05,0,.08,0,0-.09.13.2c-.12.05-.17,0-.32,0,0,0-.09.22,0,.26h-.51a.22.22,0,0,1-.14.27c-.25,0-.11-.16,0-.27h-.23l0,.09c-.09-.37.46-.25.46-.51,0,.09.06.12.14.13l-.05-.21a3.7,3.7,0,0,1-.62.28,1.41,1.41,0,0,1-.1.28.24.24,0,0,0-.35-.05l0,.17a.12.12,0,0,1,0,.14c.16.12.31.35.56,0a.34.34,0,0,1-.16.44A.55.55,0,0,1,120,59l0,0,0,0c-.1,0-.19,0-.24,0,0,.22.12.47.38.44l.1-.1a.82.82,0,0,1,.16-.32.75.75,0,0,1-.16.32.24.24,0,0,0,0,.09h0l0,0c.06.18.46.1.6.16,0-.23.08-.58-.18-.44l.07-.06-.06,0,.27-.26-.14-.21h.05s0-.06,0-.09l.09.07.11,0a.34.34,0,0,1,0,.17h0l.21.24c.08,0,.15-.08.2-.23.53-.28.11.41.4.37l.1-.09a.21.21,0,0,0,0,.07h0c0-.08.07-.26,0-.29.12-.18.1,0,.12.07s0,.2-.12.32.08.08.15,0a.32.32,0,0,0,0-.25l.22.32v0l.24.34c.11-.16.26-.3.34-.46-.27-.19-.42.21-.42-.17l.27.06,0-.21c.2-.06.32,0,.49,0l.08-.28a1.74,1.74,0,0,0-.42,0l.47-.13,0,.15a3.6,3.6,0,0,1,.51.13l-.14-.09.07,0,.16.14a2.44,2.44,0,0,0,.95.24l.17.41c.1-.48.51.09.8-.19l-.17-.28h.39c-.07,0-.19.19-.12.44-.22-.11-.44.54-.41.08l-.17.35c.15-.14-.12-.46-.37-.22.08.12-.17.74.24.41-.12.18-.34.07-.48.08l.15-.14c.12-.69-.49.08-.66-.2l.2-.19c-.06-.16-.18-.12-.28,0l.12.09c-.06.08-.19.19-.11.33,0-.08-.12-.14-.15-.21a.58.58,0,0,0-.06.27c-.17,0,0-.34.09-.48s-.27-.32-.39,0l.12.07a1.44,1.44,0,0,1-.9.25.21.21,0,0,1-.12.14.33.33,0,0,0,0-.13.45.45,0,0,0-.31.15.59.59,0,0,1,0-.22c-.18.25-.31-.08-.52-.11l0,0s0,.07,0,.11h0c0,.12,0,.26.1.28l-.14,0,0,.06a.1.1,0,0,1-.13-.06.47.47,0,0,0-.33.15l.26-.32-.17,0-.1.11a.28.28,0,0,0,0-.1l-.16,0c0,.17,0,.43,0,.42-.35-.31-1.14.15-1.54-.23l0,.08c-.36.29-.25-.27-.57-.16-.22.39-.64.22-.79.49.05.15.12.32.39,0l-.38.37c.17-.06.17.07.18.2l0,0,.15,0,0,0c.14-.06.27-.05.4-.1l0,.08a2.54,2.54,0,0,1,1.09.12c.4-1,.57.41,1-.52.17.15.66.2.74.44l-.06-.59.33.37,0,0,.1.16-.14-.15c-.21,0,0,.26-.22.43.22.11.55-.22.91-.63l.08.63.15-.14-.19.44.22.11.14-.52a.33.33,0,0,1,.58,0s0,0,.06.13a.47.47,0,0,0-.06-.13c-.1,0-.32.36-.45,0-.14.14.05.21,0,.34l-.43.29c.39,0,.45.31.58.55,0-.14.11-.29.28-.14-.1.08-.15.18-.24.22a.3.3,0,0,0,.22.14c0-.38.19-.31.19-.56s0,.3,0,.46c.41-.59.58.21.77.28l-.22.27.26.19c-.07-.38.19-.18.31-.49,0,.08,0,.21.19.2.15-.27,0-.21,0-.34a.36.36,0,0,1-.1.61c.09.16.16.42.33.44,0-.3.31,0,.52-.12a.16.16,0,0,0,0-.08c.09.11,0,.34.33.35l-.22.4c.24-.1.53-.12.58-.3l-.05.3c.52-.12,1,.32,1.44.2,0-.21.08-.26.11-.47a.23.23,0,0,0,.14.13c.15-.14,0-.16,0-.24-.31,0-.18-.26-.17-.5.08.25.24.24.36.37a.26.26,0,0,1,.05-.15l0,.16h0c0,.14.3.05.28.13-.19-.09-.24.16-.33.27l.11,0c.21,0,.45.08.55.29,0-.26,0-.47.06-.63a1.07,1.07,0,0,0,.39.6,2,2,0,0,0,.7-.21c.14,0,0,.15,0,.25l0,.07h0l.18.25h.06l0,0,.07.1a.78.78,0,0,1,.4-.41l.2.14a1.77,1.77,0,0,1,.51-.39,2.16,2.16,0,0,1,0-.58c-.36-.1-.92-.16-1.05-.4,0,.13-.1.22-.18.35-.36-.2.36-.85.45-1.21,0,.18.08.31.27.23l0-.09a5.06,5.06,0,0,0,.34.46c.05,0,.11,0,.17-.19a.76.76,0,0,1,0,.31l.18.09a1.12,1.12,0,0,1,.12-.18.22.22,0,0,1,0-.15,1,1,0,0,1,.23-.07,2.06,2.06,0,0,1,.22-.18c.05-.11.08-.22.23-.2,0,0,0,.07-.05.1a4.16,4.16,0,0,1,.42-.22l.11.05.06-.06c-.22,0-.32-.45-.52-.14.08-.13.08-.26.2-.31l-.11-.21c.33-.06.56.23.92.08,0-.18.46-.3.64-.48a1.57,1.57,0,0,0-.3,0c0-.16.36-.49,0-.44a.29.29,0,0,0-.1.38c-.6.19.15-.57-.26-.58.06-.08-.86-.34-.77-.83a7,7,0,0,1,1.55.4c.25-.22.24-.33,0-.39l.8-.32c-.26.16.13.63.47.66a.31.31,0,0,0,0,.12c.26,0,.92-.55.87.11.45-.41-.07-.56,0-.95A1.91,1.91,0,0,0,138,60l-.13.18c.2.25.69-.37.79.27.45,0,.26-.36.5-.45-.06.3-.27.55-.12.76.11-.2.23-.41.18-.56.3-.09.33.07.35.26a1.15,1.15,0,0,0,.61-.14l.24.33L140,61h.14c-.49.75-.17-.34-.7.2h0c.07.09.46-.08.41.17a.85.85,0,0,0-.5.06l-.13.32-.24,0c-.11.22-.1.52,0,.56a3.67,3.67,0,0,0,.61-.67s0-.13-.11-.08c.5-.45-.06.3.25.21,0-.22.25-.35.4-.49,0,.21.13.3.31.31.34-.39.66-.84,1-1.29a.69.69,0,0,0,.68,0l.08-.16-.37-.14a3.42,3.42,0,0,0,.69-.33c0-.06,0-.16.06-.3l.09.19.11-.08a2.47,2.47,0,0,1-.34-.72c-.15.11-.26.31-.53.15,0,0,0,0,0,.05a.83.83,0,0,0,.13.2c-.12,0-.17-.09-.13-.2a.18.18,0,0,0-.07-.07l-.2.1a1.16,1.16,0,0,1-.32-.48l-.07.05-.07.09h0l-.13.15c0-.08.06-.18.11-.25l0-.2-.11,0-.2.61a.25.25,0,0,0,.22-.14c-.1.13-.16.26,0,.35s.31-.4.39-.1l-.15.14c-.71.76.48-.06.37.46,0-.09.08-.14,0-.13.16,0,.13.56.1.34-.48-.67-1.14.77-1.7.23.41-.49-.32-.2-.31-.46.1,0,.3-.14.57-.32l-.09-.07a.49.49,0,0,1-.16.14l-.13-.09a.36.36,0,0,0,.18-.14,1,1,0,0,0-.76,0v.07a.61.61,0,0,1,.18.17c.13-.1.26-.18.18.13s-.32.17-.4.08l-.34,0s0,0,0-.07l0,0,0,0c0-.12,0-.24,0-.35s.07,0,.11,0c-.19-.07-.46.06-.64,0a.19.19,0,0,0,0,.07c-.06-.15-.12-.27-.25-.19s0,.17,0,.3l-.28-.12,0,.09-.18-.34-.1.22c-.11-.21.42-.75,0-.64-.22.14-.88,0-1.26.27l.11-.35c-.37.28-.53-.45-.47-.88-.35-.11-.9.26-.93-.08h.29c.06-.18-.19-.21-.06-.39.21,0,.26-.25.35-.41a.14.14,0,0,1-.14-.11,1.12,1.12,0,0,0-.68.19c-.09-.25.25-.28.37-.44.3-.2.25.08.31.25a.17.17,0,0,1,.14.1.3.3,0,0,1,.1-.12c-.46.11.14-.69-.52-.4.2-.05.35-.45.14-.44-.06.18-.25.23-.28.44a3.36,3.36,0,0,1-.87-.21,1.19,1.19,0,0,0-.33.62.3.3,0,0,0-.48-.22l.08.14c.14,0,.22,0,.12.21l0,0c.09-.08.19-.21.37,0-.09.08-.23.09-.32.16l0,0,.06,0a.12.12,0,0,0,0,.06c.08.18.15.36.22.55a.4.4,0,0,1,.19-.16c.42.06.21.08.31.33l-.43-.17c.17.21.12.43.14.63l0,.14a.53.53,0,0,0,.33.28l.31-.36c-.45.41,1,.64-.09,1.18a2.44,2.44,0,0,0-1.47-.26c.3-.29-.44-.26,0-.67L133,58.5l-.21,0c-.1.14,0,.48-.43.57l-.41-.29a.25.25,0,0,1-.14.06c0,.09-.05.15,0,0,0-.33-.55,0-.64-.25l.37-.43-.26.07v0h-.08c0,.23-.23.57-.23.69a1,1,0,0,0,.35-.1c-.43.39.63.09.07.66h0c-.2.2-.1.3,0,.4l.3-.27a.41.41,0,0,1-.26.31v0l-.32.21-.32-.6-.17.08c0,.16.08.44,0,.29,0-.29-.4-.09-.57,0,.19-.19.18-.28.15-.35-.31,0-.6-.07-.85.37-.21-.37-.4-.7-.83-.67.18-.45.57-.55.87-.79v0h0a1,1,0,0,0,.27-.34s-.63-.17-.56.34c-.36,0-.62-.56-.82-.24l0,0c-.09-.17-.22-.24-.29-.37,0,.09,0,.17-.12.18,0-.3.4-.75-.07-.89l-.05.18,0-.34c.17,0,.08-.13.32-.23,0-.08-.07-.25-.22-.24s-.3.28-.37.41c0-.38-.39-.27-.52-.35l.22-.14c-.1,0-.07-.25-.27-.19a.54.54,0,0,1-.12.31c-.4,0-.47-.51-.74-.58.17,0,.32,0,.29-.28l.25.28c0-.32.21-.24.35-.31a.14.14,0,0,0,.08-.08l0,0-.2-.2.28.06v0c.35,0,.59.49,1.09.33.44.1.22-.52.45-.8l.24.41-.22,0c.09,0,.08.11.06.18s.12,0,.06.2h0s0,0,.07,0a2,2,0,0,0,.57-.46l0,.08.1-.22c-.15.39.34.19.12.46a4.33,4.33,0,0,0,.74,0h0l-.28-.11c.1-.18-.07-.44.13-.63l0-.16c-.13-.08-.28-.21-.36.08l.09-.49a.46.46,0,0,1,.33.09l0-.15c.35.19.72-.11.81.21l-.42.14c.25,0-.06.32.1.29a.67.67,0,0,0-.23.29s.06.06.14.12l-.16.14-.19.16c.09,0,.14,0,.17,0l.25,0c.15-.16.22-.13.27,0l.42-.08c0-.1,0-.24,0-.39l-.18.25c0-.07.13-.27.05-.34h0c-.06,0-.11,0,0-.18a.16.16,0,0,1,.09.12l.13-.14a5.26,5.26,0,0,1,.06-.59l.43.53a.61.61,0,0,0,.17-.11.49.49,0,0,1,0,.37l.14.2c.09,0,.09-.12.2-.22l.06.06c.34-.26.75-.47.48-.78.32.26,0,.57-.37.87l.23.2-.38-.06-.1.1.13.18c.14.11.26.23.67.06.15-.14,0-.35.08-.26.35-.32.28.37.61,0l0,.34c.23-.27.38,0,.62.05a.55.55,0,0,1,0-.47l.14.25-.19.05c0,.56.49.06.82.13l.14-.44.31.16c0,.22-.36-.11-.4.36,0,.17.24,0,.22-.14,0,.09.12.08,0,.22a1.57,1.57,0,0,1,.45-.28.8.8,0,0,1,.29-.24c.05-.48-.42-.1-.54-.41l-.08.07,0-.22v0c.6-.22-.16-.5.33-.72,0,0-.15,0,0-.22-.13.61.58-.35.7,0s.24.24-.12.56c.07.11.23.1.4.09-.34.08-.21.19-.25.34l.79-.31,0,0c.52-.18,1,.25,1.47-.15,0-.05,0-.09.11-.1l-.11.1c0,.12.11.31-.18.35.13.25.52.15.8,0-.13.18-.07.31-.39.53a.71.71,0,0,0,.25,0l.06-.12a.35.35,0,0,0,0,.07.74.74,0,0,0,.18-.25c.16-.27.48.07.69.19l-.41.06v.3l.11,0a.42.42,0,0,0,.25-.16.46.46,0,0,0,.06-.33,1.87,1.87,0,0,0,.32.07,1.15,1.15,0,0,1,.24-1.14.45.45,0,0,0-.61.14c0,.05,0,.16.08.14l0,0s0-.07.09-.08l-.09.08c0,.12.16.34-.2.44l0-.3c-.26.16-.78.44-.83-.06.05-.19.19-.14.31-.3.14,0,.34,0,.43.16l.28-.43v0c-.21-.09-.49-.27-.72,0-.16-.22.43-.58.68-.85l-.23-.25c.51-.38.05.55.49.08.16.33,0,.41-.35.71.12,0,.12.16.13.26h0l0,0a.17.17,0,0,0,.11.16c.64-.43-.09-.19.57-.41-.08-.09-.24-.36-.09-.31.16.22.34,0,.46-.19a.51.51,0,0,0,.76.14l-.42.68.4-.16c.15.11.2.66-.07.71.58-.36-.15.58.56.17,0,0,0-.18,0-.31a.6.6,0,0,1-.17-.24c.14,0,.16.1.17.24a.57.57,0,0,0,.87-.1l.24.3-.15-.11c-.34,0-.5.49-.74.82.16.22.63-.49.62,0a1.69,1.69,0,0,1,.87-.93l.4.57a5.09,5.09,0,0,0-1-.05c-.15.2-.3.56-.52.84h.08a.18.18,0,0,0-.08,0,.92.92,0,0,1-.52.38c0,.36,0,.74.42.74l.12-.22-.2.71c.13-.05.33-.14.25-.22.21,0-.23.44-.44.36.16.22.34.66.68.57l0-.16.29.22.06-.08.12,0a1.05,1.05,0,0,1,.06-.14l0,.14.22-.25a.28.28,0,0,1,0-.13h0v0l0,0c0-.22-.23-.17-.29-.3.08.06.39,0,.42.1L145,57a.2.2,0,0,1,.17.07l.15-.16-.05,0,.3-.8c-.06.1,0,.16.12.22l.06,0v0l.06,0a8.61,8.61,0,0,1,1.32-1.11l-.23.06c-.17-.1-.39-.28-.17-.57l-.32.28a6.53,6.53,0,0,1,.37-1.14,1,1,0,0,0,.7-.14l-.56-.32s0,0,0-.07A2.49,2.49,0,0,0,147.37,53.23ZM121,52.47a.35.35,0,0,1,.16.23Zm-.43.09,0,0,.19.28,0,0Zm-8.47.1c.16-.2,0-.27,0-.43C112.12,52.36,112.58,52.47,112.11,52.66Zm-1.87.64c-.28.25-.12.48-.35.52A.79.79,0,0,1,110.23,53.3Zm-1,2.76c-.18.49.36,0,.31.44C109.22,56.62,109,56.42,109.21,56.06Zm-.5.71-.36.14.32-.22Zm.64.78,0-.32.24-.16,0-.09a.12.12,0,0,0,0,.06c.07,0,.1,0,.25,0a.37.37,0,0,0,.13-.28V57s0,0,0,.12V57c-.07,0-.32.12-.37,0l-.05,0Zm2.22.6-.12,0c-.14.15-.31.36-.44.38,0-.37.27-.26.44-.38a4.22,4.22,0,0,0-.53-.07s0,0,0,.06.07.06,0,.19l0-.09a.27.27,0,0,1-.08.17.12.12,0,0,0-.1,0,.26.26,0,0,1-.16.11l0-.06c-.07,0-.14.06-.21,0a2.27,2.27,0,0,1,.16-.41l-.13-.07h0a.51.51,0,0,1-.18-.11c.45-.35-.35,0-.24-.36l.38-.38c-.17.41.11.47.45.45v-.11c.69.07.43.23,1.06.33Zm-.95-2c-.21,0-.2-.44-.6,0,.08.11.18-.07.27,0l-.4.3c-.09-.06-.24-.09-.21-.2s.08.11.21,0,.32-.59.24-.52C110.32,55.67,110.82,55.8,110.62,56.17Zm1.64,2.12-.09-.11c.07-.13,0-.16.13-.27Zm-3.07-4.9.21.25c-.29.31-.33,0-.42,0Zm.17.59c0-.08.1-.18.24-.33l-.08.31C109.4,54.06,109.42,54,109.37,54Zm4,4c0-.29-.41,0-.49-.1S113.63,57.9,113.38,58Zm-.64-.42s.1,0,.13.07c-.16-.11-.15.15-.39.26s0-.72.21-.49l0,.08c.21-.47.46-.07.64-.13C113.1,57.53,112.88,57.27,112.74,57.6Zm.81-2.47-.08.27.05-.38Zm1.69,1.65c.09.06.35-.32.41-.11C115.52,56.72,115.15,57.09,115.24,56.78Zm-.44-3.66-.26.16-.16-.22Zm-1.14-1.38.07,0,0,.44Zm-1,.62-.09-.11c.06-.13.24-.24.18-.32C113,52.06,112.72,52.18,112.69,52.35Zm.55.3c.17-.5.46,0,.84-.27C114.21,52.68,113.29,53.17,113.23,52.66Zm2.9,3,0-.27.31,0C116.3,55.43,116.35,55.65,116.13,55.64Zm-.3-.83-.17-.23.37.17Zm-.48-2.26.14-.11.15.22-.11,0,.29.17-.44,0,.12-.12c-.19.1-.38.15-.49.08l.32-.25c-.59.12-1,.18-.91-.61l.41,0-.33.13c.19,0,.29.36.52.11l0-.16c.09.06.36,0,.22.2l0,0-.17.23A.22.22,0,0,0,115.35,52.55Zm4.93,2.19-.3.3,0,0Zm-1-.13.08-.34,0,0-.19-.27.05,0,.17.25,0-.08c0,.14.11.13.13.23S119.42,54.6,119.27,54.61Zm1.52,1.16c-.18.12-.24.12-.28.09v0c.21.19.27-.19.32-.12l-.09.47c-.15-.11-.31-.35-.39-.34a.71.71,0,0,0,.06-.13s-.12,0-.29,0c.15-.13.2-.21.2-.27s-.16-.08-.19-.18-.1-.12,0-.25a2,2,0,0,0,.43-.21C120.84,55,120.3,55.81,120.78,55.77Zm.19-.84.1-.22.15.11Zm1.38,2.83c-.05.08-.09.1-.12.08S122.3,57.83,122.35,57.76Zm.44,1c-.19.15-.42.14-.39.24a.29.29,0,0,1-.14-.32l-.06.15-.06-.46c.15,0,.16.07.14.2a1.47,1.47,0,0,0,.15-.44c-.13,0-.32.19-.32-.05s.23,0,.33,0,0,0,0,0,.34-.08.45-.09C122.69,58.43,122.63,58.52,122.79,58.8Zm0-.89-.07-.26.41.11ZM124,62.21l-.12-.08.07-.39Zm.19-.83c.07-.39.36-.15.55-.47C124.68,61.17,124.2,61.38,124.2,61.38Zm.62-3.53c-.3-.23.41-.59.09-.86l.49-.08C125.28,57.21,125.28,57.85,124.82,57.84Zm3.1,4.61,0-.27c.17-.06.35.06.41,0C128.08,62.26,128.07,62.63,127.91,62.46Zm.66.08.31-.48c-.39.24-.15,0-.22-.15,1-.72.38.46.6.62C128.88,62.57,129.11,62.35,128.57,62.54Zm2.05.83-.29,0C130.58,63.16,130.54,63.2,130.63,63.37Zm-1.21-.48c0-.1.12-.23,0-.24l-.15.15c.15-.15.19-.63.56-.81C129.47,62.35,129.73,62.54,129.42,62.89Zm-3.06-5.67c-.12.05-.35-.06-.35-.06.22,0,.12-.31.17-.36Zm15.55,2.17.4.07c-.12.35-.34.18-.49.19Zm-3.55,0c.1.06.37,0,.12.23A.72.72,0,0,1,138.35,59.41Zm-1-.33c-.1.09-.28.31-.34.19C137.13,59,137.32,59,137.38,59.08Zm-.19.38.21.2-.28-.16Zm-2.71-3.08,0,.28-.35-.08C134.14,56.35,134.61,56.33,134.48,56.38Zm.64,1.78c.18.33.45-.41.48-.07-.15.26-.34.19-.49.32Zm.38,1.2.09,0c-.06,0-.07,0-.09,0l-.28-.15C135.5,58.94,135.47,59.22,135.51,59.36Zm-2.31.11.37.25-.26.16Zm-.58,1.3a2.62,2.62,0,0,0,1,.35c-.17.2-.38,0-.67.32.23-.29,0-.24-.22-.25L133,61c-.31,0-.56-.16-.76-.05a.22.22,0,0,1-.14.12.33.33,0,0,1,.14-.12C132.31,60.83,132.35,60.65,132.61,60.78Zm-1.17-.53c.42-.34.38.14.51.23-.07-.09-.23-.08-.35-.11a.21.21,0,0,0,.12.24l-.26-.12.1-.13A.15.15,0,0,1,131.44,60.24Zm-.5.45c0-.09.2-.18.15-.27l.11.21C131.11,60.73,130.91,60.91,130.94,60.7Zm1.16,1c-.07,0-.06.3,0,.34.11.34.8-.43.66.26-.39.11-1.1,0-1.25-.27Zm-1.88-1,0,0,.16.29,0,0Zm-2.57-5.14c-.25,0,.24-.46.33-.4Zm.64-.48c0,.14.07.33-.19.26h.08a1,1,0,0,1,.11-.25.14.14,0,0,1,.11-.15A.69.69,0,0,0,128.29,55.12Zm.46,0-.06-.66c.4-.11,0,.22.3.28l.12-.17C129,54.84,129.08,55,128.75,55.16Zm.89,0c-.27.11-.42-.11-.49-.09l.47-.19Zm1.46-.2c.08-.18.2-.2.29-.15Zm4.44.09c-.25-.21.07-.13.13-.33A.43.43,0,0,1,135.54,55.09Zm8.11,1.16c0-.05.15-.25.25-.42.45-.28,0,.05.54,0l-.3.27v-.24C144,55.84,143.88,56.25,143.65,56.25Zm.51.19,0-.33.22.14Zm.64-.56-.19.21c.09,0,.1.13.2.07l-.13-.06.13-.06.31.27-.3-.13-.18.28a.53.53,0,0,1-.16.19.85.85,0,0,0,.16-.19c.07-.18-.51,0-.17-.45a1.84,1.84,0,0,1,.32-.12l.2-.21C145,55.78,144.9,55.84,144.8,55.87Zm-1.11-3.12-.09.22,0-.16-.4.2Zm-.83.86.17-.39c.37-.14.19.08.47.2Zm.46.33.14-.3.09.17Zm2.32,2.27c-.23-.24.25-.22.37-.44C146.19,56.16,145.75,55.89,145.65,56.22Zm-1-3c-.26.22.23.3,0,.3l-.16-.27c-.13.29-.31.64,0,.68l-.7.07.15-.13a.54.54,0,0,1,0-.7.49.49,0,0,1,.25-.38c.07.1.08.15.06.17.44-.2.38,0,.26.29.46-.14.4-.05.69.16Z"/><path d="M100.66,55.66c-.16.16-.33.34-.49.48a1.91,1.91,0,0,0,.45.23.31.31,0,0,1,0-.09c.15-.3.86-.17,1.23-.54-.15.3,0,.71.3.69,0,0,0,0,0-.05l0-.1c0,.05,0,0,.07-.06h0a2.71,2.71,0,0,1,.29-.68.37.37,0,0,1,.1.37l.23-.41.07.25a.56.56,0,0,1,.28-.12l-.2-.08c.27-.26.67-.2.76-.45-.19.19,0,.42-.22.59.09,0,.19-.05.36-.28-.39,1.22.46.07.73.39l0,0c0-.11,0-.23,0,0h0a.2.2,0,0,0,0,.11.18.18,0,0,0-.06-.08c-.07.11,0,.42.07.45.34-.22,0-.61.29-.8a1,1,0,0,0,.8-.29v-.39l.2.12c0-.21.07-.56-.2-.57a.22.22,0,0,0,0,.3c-.47.19-.56-1-1.13-.43a1.31,1.31,0,0,1-.51.18v0h0c-.65.09-1.3-.24-1.79-.16,0-.46-.54,0-.38-.45l-.23.41c.07.07.07.15.17.07-.22.87-.4.24-.63,1l0-.52-.27.08a.55.55,0,0,1-.08.14s0,0,0-.1l-.12,0,.24.51a.75.75,0,0,0-.2.12,1,1,0,0,1-.21.37S100.64,55.78,100.66,55.66Zm4.48-1.12,0,0h0l0,.05c.07.09.17.18.09.32l-.09-.32,0,0-.19.25Zm-2.74,0a.58.58,0,0,1,.64.26c-.41-.21-.4.34-.7.32A1.47,1.47,0,0,1,102.4,54.55Z"/><path d="M110.67.43a3.48,3.48,0,0,1,.4.25L111,.86l0,0,0,0c0,.06,0,.07,0,0a1.47,1.47,0,0,1,.28.59h0l-.46,0a1.15,1.15,0,0,0-.88-.51c0-.26,0-.77.11-.55.16-.78-.67.44-.52.7-.18-.08-.42.24-.53.39v0l0-.08-.05,0a.56.56,0,0,1,.29-.71l-.69,0a1.1,1.1,0,0,0-1-.49c-.49-.24-.87-.44-.55-1.46,1.09.93,2.56,1.15,3.66,1.74l0,0Z"/><path d="M110.29,2l0,0C109.9,1.64,110,1.79,110.29,2Z"/><path d="M-1,52.59c.16-1,.24-2,.35-3.09a12.87,12.87,0,0,1,2.31-1.42c-.23-.5-.31-.79-.44-1.13a4.52,4.52,0,0,1-1.61-.2c.07-1.18.11-2.38.14-3.58,1.59.58,3.16,1.12,4.69,1.62l1.09,2.92C0,40.56,3.83,58.08-1,52.59Z"/><path d="M117,5.51a1.24,1.24,0,0,1-.2-.29,5.16,5.16,0,0,0,0-1.1c.13.07.28.14.37.1,0,.28.13.62.15.91l.24-.26a2.57,2.57,0,0,1-.31.64.58.58,0,0,0,.07-.38Z"/><path d="M117.06,5.6a.3.3,0,0,0,.2-.1l-.1.18Z"/><path d="M114.52,4.94a.57.57,0,0,0-.32-.47.75.75,0,0,1,.23-.42Z"/><path d="M119.57,4.17c-.37.16-.63,0-.88-.06,0-.27-.08-.54-.13-.8l1,.28a.49.49,0,0,0,0,.24A.46.46,0,0,0,119.57,4.17Z"/><path d="M117.78,3.35a9,9,0,0,0,.61.81.88.88,0,0,0-.35.35c.16.12,0,.29-.13.49a5.81,5.81,0,0,0-.33-.67,1,1,0,0,1,0,.42,1.5,1.5,0,0,1-.39-.56c.05,0,.09-.14.09-.33l-.51,0c0-.32-.07-.65-.12-1,.43.08.87.18,1.3.28Z"/><path d="M116.56,3.88h-.36c0-.26-.18-.24-.35-.11l-.12-.14a1,1,0,0,0-.12-.21l.07-.18-.08.17,0,0s0,0,0,.06v0a1.78,1.78,0,0,1-.21-.32,4.17,4.17,0,0,1,.36-.4l.34,0C116.34,3.1,116.69,3.47,116.56,3.88Z"/><path d="M112.6,5.33a2.05,2.05,0,0,1,0,.3c-.27-.17,0-.21,0-.3s0-.08,0-.12h0c0,.1.05.16,0,.1Z"/><path d="M112.23,2.87l.06,0,0,.44a1,1,0,0,0-.3.25H112c-.21-.18.16-.42,0-.8a.82.82,0,0,1,.19.07.15.15,0,0,1,0,0Z"/><polygon points="115.59 3.48 115.59 3.48 115.59 3.48 115.59 3.48"/><path d="M64.36,2.39c-.25-.16-.52-.7-.77-.36.16,1.29.34,0,.68,1L64,3.26c.08.76.4.19.32.72L64.4,4l-.09.15c0-.09,0-.15,0-.21-.52-.63-1.31-.62-1.76-2.08-.1.69-1-.27-.81.78-.11-.24-.36.13-.26-.49-.09.15-.42,0-.28.44A2.62,2.62,0,0,1,59.58,1.4h0c.1.2.19.46.26.59l.11.06s-.07,0-.11-.06l-.34-.19a2.21,2.21,0,0,0,.13.52,1.19,1.19,0,0,0-.32-.61l.28-.31v0l0,0L60,1A8.39,8.39,0,0,0,59.55.1c-.09.15,0,.22,0,.39-.25-.36-.2-.43-.2-.57l-.14-.14a10.16,10.16,0,0,0,.22,1.57C59.36,1,59.24.89,59.1.9c.06.21.13.4.26.37l-.41-.07,0,.18c-.06-.24-.15-.32-.25-.36a.3.3,0,0,1-.19,0,.57.57,0,0,1,0-.1.59.59,0,0,1-.26-.2,4,4,0,0,1,.11.73c-.58-.93-.63.31-1.14-.86l-.07.65c-.24.46-.31-.71-.6-.21.15.4,0,.31.15.71-.17,0-.52.95-1-.06.06-.24.17-.41.32.09a1.48,1.48,0,0,0-.3-1c-.32,0-.73-.73-.76.3-.15-.41-.2-.47-.36-.47,0,.17,0,.27.15.3L54.57,1l0,.16c-.14-.2-.36-.36-.43-.24-.1-.31-.42-.44-.33-.65A2.44,2.44,0,0,0,56-.48l-.09-.1h.26l0,.62c.44-.09.5-.34.48-1.33,0,.27.2.68.31.61,0-.28-.15-.41-.09-.54.42.42.72.12,1,.42.1.13-.24-1.26,0-1.52,0,0,.44.32.35-.23.13.12.28.26.44.42a1.2,1.2,0,0,1,.49.23,1.08,1.08,0,0,1-.06.29,1.55,1.55,0,0,1,.27.63l-.22,0c.07.48.14.65.21.69s0-.09-.07-.17a1.61,1.61,0,0,1,1.23-.43v-.2a2.35,2.35,0,0,0,.17.24c-.26-.51-.5-.53-.73-.89l.41,0a.93.93,0,0,0-.16-.4l.17.09-.06,0,.47,1.09c.39.35-.14-.82.08-.46a2.26,2.26,0,0,0,.4.89c0-.16.06-.24,0-.49.18,0,.47.21.78.41A.64.64,0,0,0,61.87-1l-.06,0c-.36-1.07.54-.16.89.11v.21c-.13,0-.1.13-.06.29a.5.5,0,0,0,.51-.24c-.39-.57.31.22,0-.6.23.26.93.56.77,1.24.18-.29.44-.24.5-.66,0,.87.82.91.44,1.22.38.67.06-.43.47,0L65.14.09c.47.52.23-.23.62-.15l.14.51L65.45.8l.25.64L65.23.92a6.36,6.36,0,0,0-.57,1.69l-.34-.5C64.38,2.18,64.37,2.28,64.36,2.39Z"/><path d="M111.55,3.43a1.83,1.83,0,0,0-.11-.53.8.8,0,0,1,.53-.13Z"/><path d="M112.42,5.66l.13,0v0Z"/><path d="M110.33,5.35l-.16.06a.67.67,0,0,1,0-.09l.21-.21Z"/><path d="M110.13,5.22a1.08,1.08,0,0,1,.32-.86s0,0,0,.06Z"/><path d="M107.58,4.73a.91.91,0,0,0,.51,0,2,2,0,0,0,0,.42c-.7.38-1.06-.67-1.54-.63l.58.49a1.11,1.11,0,0,1-.24.25,1.91,1.91,0,0,1-.59-.56,3.43,3.43,0,0,1,.8-.77C107.93,3.54,107.43,5,107.58,4.73Z"/><path d="M112.78,3.1,112.7,3l.2-.24.36,0A1.42,1.42,0,0,1,112.78,3.1Z"/><path d="M105.25.86l0-.37c.59-.14.81,0,.89.32l-.55.25V.85A1.23,1.23,0,0,0,105.25.86Z"/><path d="M104.69.91a.66.66,0,0,0-.15.16,2.86,2.86,0,0,1-1.24.29l-.06-.45c.22.33.4.54.47.07a1.54,1.54,0,0,0-.78-.51c.09.12.18.25.26.37-.25.09-.59-.12-.9-.24a.92.92,0,0,1,.64-.13c-.28-.36-.6-.58-.91,0l.06.08a.31.31,0,0,0-.4.27,1.67,1.67,0,0,0-.35-.76A14.09,14.09,0,0,0,104.18,0Z"/><path d="M28.31,52.11c-.44.3-1.1-.31-1.53.35l.21-.73a.61.61,0,0,1-.16-.12l.18,0,0,.09c.76.55.63-1.72,1.22-1.85,0,.87.48.71.76.88l.51-.77c.4,1.06.83.27,1.38.37a2.57,2.57,0,0,0,.24,1.4l-.55-.1c.71,1.85-1.09-.07-.47,1.77-.31-.92-.61.63-1.16.28a3.42,3.42,0,0,1-1.17,2.51c-.57-.71-1.08.18-1.3-1C27.3,54.16,27.34,52.93,28.31,52.11Z"/><path d="M-1.17,0C-.51-.12,0,.43.67.17c-.15-.48,2-.7,1.17-1.4l.38.39c.28-.73.7-.26,1-.92-.62-.06-1,.19-1.84-.19.94-1.31.57.71,1.84-.53-.37.33,0,.8.33,1-.09-.88.37-.33.61-1.14.33.3,1.93-1.11,1.89.26.85-.75-.19-1-.05-1.77a4.24,4.24,0,0,0,2.41.66l-.24.33c.42.47,1.33-.68,1.6.53.9.06.47-.65.94-.83-.09.56-.52,1.06-.14,1.45.71-1,1.51-.35,2.21-.85l.52.63-.76.66h.29c-.9,1.39-.38-.63-1.37.36L11.1-.1l-.47-.07c-.19.41-.15,1,0,1A6.19,6.19,0,0,0,11.8-.35c0-.08,0-.24-.24-.16.94-.82-.09.56.52.39-.09-.4.47-.65.75-.9,0,.54.59.7,1.08.52l0-.05s0,0,0,0a.89.89,0,0,0,.26-.13l.07.11c.28-.21.53-.59.46-.77L15-.43l.14-.15c0,.41.56.18,1.09,0a1.52,1.52,0,0,1,.6-.8L17-1a.9.9,0,0,0-.36.26c.4-.11.72-.06.71.49-.14-.49.56-.49.85-.74.25.14.13.39.11.59.39-.21,1-.56,1.17-.15-.1-.09-.29,0-.52.11a.62.62,0,0,0,.77-.08c-.14.61-.9.93-1.14,1.06l.1.08c-.22,0-.2,0-.1-.08L18.18.1s0,0,0,.08h0A.29.29,0,0,1,18,.4l-.17.26c.41.39,1.16-.16,1.46.13a2.39,2.39,0,0,0-.26.7l-1.1-.09v.15c-.53-.25-.06-.64-.14-1a.45.45,0,0,0,0,.28L17.26.65,17.11.9l-.3-.13L17.1.6c-.26-.08-.51-.16-.82-.28,0,.05,0,.1,0,.15a1,1,0,0,0,.41.57l.07-.27a1.45,1.45,0,0,0,.06.38A.68.68,0,0,1,17,2a4.4,4.4,0,0,0-.51-.43h0v0c-.09-.1-.14-.23-.23-.65l-.54.53C16.2.72,15.08,1,15,.59l0-.06L14.52.4c.3-.05.25.51.36.92l.13.19-.06,0c.1.18.26.28.58.15L14.6,2l0,.08L12.39,3.34c-.28,0-.23-.4,0-.72-.7.25-.7-.47-1.5-.13L11.46,2c-.61-.55-.75.66-1.64.11l-.1.57-.23-.4c-.38.33-.85,1.22-1.17.67l-.19.89c-.33-.07.05-.88-.37-.88-.33.17-.61.66-.47.9-.7,0-1.31-1.5-2.2-.35C5.37,3,4.71,3.11,5,2.86h.14C5.14,2.13,5,2,4.34,2l-.24.57c.24-.33-.14-.72-.75-1l0,.16V.25c-.56.26-.89.19-1.08.84s.43,0,.52.39c-.89.19-.75,1.39-1.35,2l-.1-1.36.57,0c.14-.25-.09-.4-.14-.47A1.49,1.49,0,0,0,.49,2.74L.3,1.7C-.27,2-.41,2-.65,1.57l.38-.33c-.42,0-.67-.86-1-.29.14-.24.13-.48.37-.57Z"/><path d="M126.83,1.59c0-.06-.18-.07-.08-.2a.38.38,0,0,0,.4-.33c-.11-.26-.38,0-.51.07l0,0a.68.68,0,0,1-.73.26l.16.17-.25.12,0-.2c-.2,0-.47-.18-.67.12-.19-.24.06-.14.14-.17-.22-.25-.09-.8-.31-1.05-.25.34-.64.63-1,1l-.06-.3c0,.22-.39.29-.4.56l-.2-.41c-.09.08-.08.24,0,.43l-.13-.16c.21.36,0,.83.33,1l.24-.29c.15,0-.12.23-.06.36.12-.23.29-.11.45-.37s.37.09.36.36c-.18.15-.49.19-.63.36L124,3c-.41.43-.3-.29-.6-.14v0c0,.11-.09.08-.13.06a.48.48,0,0,1,.12-.08c-.07-.47-.32.11-.44-.31-.09.07-.11.67-.28.33l.16,0c-.13-.16-.38-.47-.4-.37L122.24,2c.2,0,.35.19.58.17.35-.47.27-1.15.71-1.48h-.12l.36-.08c0-.44-.23,0-.43-.17,0,.43-.4.34-.62.48-.3.87-.4-.59-.82-.15l.41-.39c-.12.28.18.29.28.16l-.15-.23c.16.17.3-.16.24-.29A.25.25,0,0,0,122.6,0a.18.18,0,0,1-.11,0c-.13.12-.26.51-.49.27.16,0,.17-.1,0-.26l.44-.33-.05.31h.06s.07,0,.11,0a.15.15,0,0,0,.08-.05c-.15-.22.16-.27-.08-.41.14-.17.47-.48.64-.14,0-.15.09-.29,0-.37.4.32.44-.54.61-.42s.19.24.32.18l-.08-.2c.12,0,.06.13.12.21l-.28.05c.41.05.33.74.76.9l-.26.17c.32.34.69-.44,1,0-.47,0,.14.5-.14.6.19.46.76.25,1,.14.06.08.34-.19.46-.42.11,0,.16.39.29.11,0-.12-.08-.2-.2-.19.12-.45.3.28.46,0,0,.07.54-.44.8-.22,0,.15-.65.67-.84.87,0,.24.11.26.25.1l-.11.62C127.42,1.28,127,1.38,126.83,1.59Z"/><path d="M136.94.27l-.23-.15c0-.1,0-.2,0-.3l.07,0,.12.41L137,0l.63.41L137.6.5l.87.16c-.61.27-1.24.58-1.69.42a4.49,4.49,0,0,1-.07-.82l.44.13Z"/><path d="M150.08,9.31a1.37,1.37,0,0,0-.07-.15l.11.09Z"/><path d="M157,1.67a.69.69,0,0,0-.22-.18l0,0a.49.49,0,0,0,.16,0l-.32-.13-.5-.51c.22,0,.32-.11.37-.18a4.36,4.36,0,0,1,.91.55A2.13,2.13,0,0,1,157,1.67Z"/><path d="M157,1.67l0,0,0,0Z"/><path d="M148.21,1h0a.75.75,0,0,0,0-.08V.84Z"/><path d="M159.76,1c-.47-.14-.93-.28-1.1-.69a10.3,10.3,0,0,1,1.43.15C160,.68,159.88.94,159.76,1Z"/><path d="M157.66.57l0-.56a1.94,1.94,0,0,0,.69.23A1.25,1.25,0,0,1,157.66.57Z"/><path d="M139.57,1.14a1.35,1.35,0,0,0-.72.91,3.71,3.71,0,0,1,.43-1.48A.74.74,0,0,1,139.57,1.14Z"/><path d="M146.42,1.54l-.14-.15s0,.12.1.3l0,.14c-.1-.55-.26-1.18-.75-1.1a4.46,4.46,0,0,0,1-.56A12.72,12.72,0,0,1,146.42,1.54Z"/><path d="M139.57,1.07l-.34.16-.41-.48C140.14.08,139.82.5,139.57,1.07Z"/><path d="M141.57,1c0-.09-.06-.17-.08-.27l-.31.24a2.45,2.45,0,0,1-.89-.29,2.09,2.09,0,0,0,0-.34A11.55,11.55,0,0,1,142.84.1C142.73.71,142.18.95,141.57,1Z"/><path d="M152.33,1.23c-.82.55-2.59.21-3.4-.2-1.42.86.12,1.08.2,1.8l-1.62-.94c1.4-1.24,2.44-1.21,4.42-1.66l-.08.07A1.47,1.47,0,0,0,152.33,1.23Z"/><path d="M149.45,1.35a1.1,1.1,0,0,1,0-.47A4,4,0,0,0,149.45,1.35Z"/><path d="M121.64,3.29l-.07,0h0Z"/><path d="M123.06,4.34c.1-.09.21,0,.32.09Z"/><path d="M127.4,4.34a.57.57,0,0,0-.26.09A.83.83,0,0,1,127,4l.19,0h0A2.88,2.88,0,0,1,127.4,4.34Z"/><polygon points="124.39 3.94 124.39 3.94 124.4 3.93 124.39 3.94"/><path d="M124.21,3.72a2.15,2.15,0,0,1-.31-.65l.2,0a.8.8,0,0,1,.29.28Z"/><path d="M146.93,2.36l0,0,0-.05Z"/><path d="M145.28,2.12v0h0Z"/><path d="M148,1.5c-.18.18-.37.35-.57.51l-.15-.12c.13-.68.44-1.19,0-1.84A3.05,3.05,0,0,1,148,1.5Z"/><path d="M143.82-.86a2,2,0,0,1,.57,1.75c-1.06-.67-.49-1.27-.64-1.76Z"/><path d="M124.15,3.46l-.1,0,.06-.15Z"/><path d="M158.33,29.46a1,1,0,0,0-.19.16c.07.41.12.86.17,1.33h0a.6.6,0,0,1,.35.09v0l.06,0-.12-.59c.27.21.19.51.1.78a.56.56,0,0,0,.31.24l0-.36c.3-.85.54.32,1-.06,0,.81-.69.5-.68,1.12.22.07.54-.13.67.34-.19-.06-.28.13-.36.3a.45.45,0,0,0,0,.36l.27-.36a2.6,2.6,0,0,1-.55.85c0,.22.12.37.18.26a4.22,4.22,0,0,0-.19.78,1.75,1.75,0,0,1,.12.31,1.83,1.83,0,0,1,.07.17h0c.11.36.24.72.59.71a.3.3,0,0,1,0-.12,1.4,1.4,0,0,1-.17-.24l.4-.07,0,0a.55.55,0,0,0-.07-.2,1.42,1.42,0,0,0,.27.06.36.36,0,0,1,.45,0,5.14,5.14,0,0,0,.66-.13v-.12l.1.1.37-.08c-.17-.47-.44-.55-.52-1.33.37-.31.92.91,1.22.63,0,0,0-.08,0-.13l0,0,0,0c0-.22-.15-.42-.28-.37.13-.23.72-.8.89.21,0,.14-.2.17-.32.32.25.23.39.58.5.58.56-.31,0-1.06.18-1.17l.44,1.18c.46,0,.92.44,1.2-.1.09.48.38.66.36.94a1.81,1.81,0,0,1,.74.06c0-.28-.41-.47-.64-.57.42.21,1,.21,1.08-.43-.23,0-.62-.43-.67.11a.15.15,0,0,1,.11.21l-.55-.54c.12-.64.23-.85.71-.74,0-.53-.77-.85-.75-.32l-.11-.64h-.61c0-.16,0-.3-.06-.42-.32,0-.68-.11-.9-.13l0-.23c.38-.1,0-.51,0-.62.16.27.51-.12.87-.26a3.08,3.08,0,0,0-.2-.77c-.55.32-.34.64-.84.85l0-.74c-.25-.1-.23.85-.54.41a.32.32,0,0,1-.17-.28l-.32-.07s0,0,0-.05l-.18.7-.28-1c-.32-.07-.68-.16-.7-.52-.49-.2-.62.94-.95.27a2.48,2.48,0,0,1,.24-1.15l-.65-.64c.21.16.5.39.82.6,0,0,.07-.06.16,0a1.13,1.13,0,0,0,0,.16,2.7,2.7,0,0,0,.8.38l-.57.21.15.17.32-.29c0,.27-.22.51-.09.71.16-.67,1.33-.37.86-1.68l.3.56c-.57.18.32.84-.3.85.07,0,.09.14.12.3.13-.16.44,0,.5.34-.2-.64.68,0,.32-.73l.27.63a2.05,2.05,0,0,0,.35-.35l-.34-.75c.16-.29-.15-.48-.06-.81a1.07,1.07,0,0,0,.8,0,9.79,9.79,0,0,1,0-1.22c.44-.11.37.74.71.1l-.14-.31c.19-.22.57.2,1,.31-.07-1.16.81.2.48-1.07-.06.11-.63-.09-.58-.62.21-.85.73.19.75-.86-.08,0-.15,0-.13.1,0-1.2,1.46-.34,1.51-1.67a6.54,6.54,0,0,0-3.56,1.24,1.43,1.43,0,0,1,.89,0c-.51.4-1.45,1.07-2,.65a6.52,6.52,0,0,1-1.14.51l.29.36-.34-.07c0-.06,0-.16-.07-.25a4.41,4.41,0,0,1-1.75.23,4.21,4.21,0,0,0-.39-.61.94.94,0,0,0-.64.41,8,8,0,0,1-.87-.32c-1,.42-.1.59.44,1.15a4.81,4.81,0,0,0-.23.86l.41.14a.17.17,0,0,1,0,0,.94.94,0,0,1-.19.2c.24.51.27.84.53,1.5-.56.19-.61-.86-1.1-.25l.36-1.08c-.6.31-1.38-.23-1.86-.84a1.86,1.86,0,0,0-.24.1A5.3,5.3,0,0,0,158.33,29.46ZM160,34.12l.08-.34.22.06c0-.22.17-.21.23-.45,0,.43,0,.8-.24.62,0,0,0,0,0,0Zm4.72-.93v0c.6.15-.42.84.27,1.46l-.55-.11a9.17,9.17,0,0,1,.21-1h-.08l.15-.39-.07,0Zm-3.35.62-.24-.44c.1-.13.21,0,.27-.19C161.29,33.31,161.37,33.55,161.37,33.81Zm-.95-1.75-.14.94L160,31.94Zm2.14-.82c0,.53-.62.14-.65-.3C162.24,30.55,162.33,31.86,162.57,31.24Zm-.7-1,0,.13a.41.41,0,0,1,.4,0c-.09.11-.29.42-.45.23l0,.13c0,.16.21-.13.29-.09l-.16.29C161.76,30.65,161.4,30.32,161.87,30.2Zm-2.51-.28-.49.61.17-.73Zm3.58-1.15-.39.16C162.4,28.46,162.73,28.53,162.94,28.77Zm.7.92.06.6-.28-.61C163.41,29.41,163.53,29.81,163.63,29.69Z"/><path d="M39.4,54.54c-.16-.35-.82-.54-1.37-.82a1.4,1.4,0,0,1-.78-.75c-.46.25-1.14.85-1.38.46a2.2,2.2,0,0,0,1.25-1.08c-.48-.32-.81.27-1.15.66.33-.49-.26-.59.08-1.17-.23.07-.58.09-.34.3-.6-.52-1.32-1.07-1.36-1.85a.74.74,0,0,1-.38-.2l0,.15c-.23-.42.09-.29,0-.65a1.37,1.37,0,0,1,.41.24h0l.51.32H35a.3.3,0,0,0,.08-.18c0,.06.09.09.13.15a1.33,1.33,0,0,0,.41-.22c-.1-.43.55-1.09-.12-.93l-.15.65c-.39-.28.53-.88-.21-.85-.14.43-.54.38-.49.95-.07-.35-.46-.63-.36-.92-.42.16-.11.51-.61.74l.23-.72a1.35,1.35,0,0,1-.27,0,.44.44,0,0,1,0-.16h-.4c.49.2-.29,1.09.12,1.15l-.27.1s0,0,0,0l-.33.08.35-.13c.16-.26,0-.4-.12-.59.23-.43.15-.56-.05-.55-.2.23-.54.48-.77.72a.27.27,0,0,1,0,.14c-.06.1-.05,0,0-.09a.62.62,0,0,0-.19.49c.24-.15,1.22.17.34.83l-.05-.07a1.41,1.41,0,0,1,0,.26l.27.12.35-.16-.14.25.08,0h-.09l-.11.2-.12-.18-.24.09a1,1,0,0,0,.16.81c.22-.17.11-.32.1-.51.49.5,1.53.35,1.56,1.39l.11-.22c-.1.32.15.9.6.66-.31,1.43-1.42-.77-1.73.66.23-.17,0,.19.12.15-.12.13-.11.22-.34.3.22-.35-.48-.41.21-.64a1.29,1.29,0,0,0-1.17.1c0,.09.13.15.13.24l-.38-.06a1.76,1.76,0,0,1-.64,1.1c.33-.32.34-.09.38.09.09-.06.14,0,.07.15a.26.26,0,0,1-.07-.15c-.23.15-.75.77-.51.48-.21-.17.47-.76-.36-.51A.72.72,0,0,0,30,56l-.18-.26-.84,1c-.14-.11.36-.73-.22-.4l-.07.17c-.32-.14-.73,0-.7-.33l.78-.62c-.32-.15-.13-.36.11-.58-1.13.47-2.67.44-3.2,1.09,0,0,0,.06,0,.1h-.08a1.42,1.42,0,0,0,.11,1.3c.55.53,2.75,0,5-.5.1-.25.19-.5.4-.11l0,0c.67-.13,1.33-.24,1.95-.31l.25-.47-.22.46c1.9-.21,3.41,0,3.37,1.56A3.88,3.88,0,0,0,40,56.82c-.21-.11-.46-.21-.4-.55-.07.36-1,.45-1.38.38.72-1.24.76.57,1.4-.6-.48,0-.57-.43-1.08,0-.4-.06.78-.87.11-1,.08,0,.23,0,.36,0ZM33.74,49l-.06.41L33.43,49Zm-7.21,8.34c.13-.16.15-.37.27-.57-.09.26.51,0,.54.1C27.15,57.11,26.8,57.06,26.53,57.29Zm6.21-.78c-.34-.06-.52-.31-1,.07l.07.06c-.41.12.26-.7.29-1a1,1,0,0,0-.19.08c.24-.25.57-.61.22-.62L32,55.2l.23-.38-.45,0c1.23-.6.74.7.78,1.31.31-.09,1-.37.93-.51C33.48,55.75,32.94,56.22,32.74,56.51Zm.46-4.82-.08-.14c-.06-.36.08-.07.14-.44C33.5,51.33,33.3,51.41,33.2,51.69Zm4.07,5.86c.66-.41.29,0,.27.22Zm.55.22h0l-.11.11-.06,0,.16-.06c.14-.15.29-.27.26-.38A.45.45,0,0,1,37.82,57.77Zm-.25-2.11-.4-.57C37.58,54.95,37.59,55.45,37.57,55.67Zm.67.13-.11-.72h.24Z"/><path d="M150.07,52.61c-.28-.28-.44-.09-.72-.36.16.48-.11.93.22,1.22-.36.12-.3.59-.56.78,0,.27-.07.53.15.74-.67,0-.5.91-1.09,1.08l.16-.26c-.26.19-.57,0-.9,0,.32.31.06.57,0,.85.06,0,.15,0,.19.07l-.13.08s0-.06-.07-.1a.43.43,0,0,0,0,.11l-.19,0,0,0h0a2.9,2.9,0,0,0,.16.43c.51.17.22-.64.41-.91-.12-.11-.25-.21-.25-.32s.12-.1.17,0,.1.12.17.21a.15.15,0,0,1,.08,0c.25.07.73.35.93,0v.24a3.09,3.09,0,0,0,1.38-.29l0-.26c.69.49.87-.66,1.47.39v-.12l.15.09c.12,0,.24-.08.24-.24l0,0c-.26-.14-.51-.56-.8-.57.48-.39.5-1.26,1-1.25l-.16-.33s-.08,0-.12-.17h0l-.08-.17c-.16.6-.66.45-1,.57l.21.48c-.1,0-.26-.48-.6-.22l.14.34-.67-.36.09.34-.32-.62C149.83,53.61,150.26,53.29,150.07,52.61Zm.51,2.3-.06.27a.46.46,0,0,0-.18-.29A.53.53,0,0,0,150.58,54.91Zm-.72.14,0,0,0,0s-.08,0-.1-.12l.1.12h0a.29.29,0,0,1,.31-.18A3.21,3.21,0,0,0,149.86,55.05Z"/><path d="M41.43,56.49l.83-.21c0-.32-.18-1.08-.53-.93.55-.29.12-.34.1-1,.09.42.57.59.65.8.69.15.74-.21.79-.6a.92.92,0,0,1-.15-.2c-.18-.17.82-.72,0-1.09.36-.26.82-.24.91-.81-.27-.21-.53-.9-.81-.5a1.55,1.55,0,0,1-.29.7c.09.49,0,.69-.14.75-.13.48-.36.86-.83.49-.41-1,.43-.35.83-.49a4.81,4.81,0,0,0,.12-.72.1.1,0,0,1-.14,0,.28.28,0,0,0,.16-.11h0c.08-.13-.09-.32-.15-.62-.37.74-.56.69-.74,1.25-.63-.32-.64.77-1.36.18l-.07-.59c0,.12-.13.2-.36.13l.66,1c-.3.7-.14,1.34-1,1.55,1,1-.58.62.19,1.74.11-.35-.05-.55.51-.4.36.29.2.53.49.83.92.44.82-.65,1.34-.83C42.06,56.2,41.63,56.58,41.43,56.49Zm-.33-1.05c.08,0,0-.34.23-.25a.8.8,0,0,1,.25.41Z"/><path d="M150.15,9.65a1.64,1.64,0,0,0-.37.51A1.25,1.25,0,0,0,150.15,9.65Z"/><path d="M5.78,50.36A.83.83,0,0,1,5.72,50C5.59,50.19,5.53,50.31,5.78,50.36Z"/><path d="M131,30.44s-.11.05-.15.09S131,30.7,131,30.44Z"/><path d="M157.52,46l-.08-.67c1.46.24,1.13-.58,1.3-1.1l-2.54.67Z"/><path d="M4.52,7.92A5.58,5.58,0,0,0,2.19,7C3.31,7.85,4.21,9.19,4.52,7.92Z"/><path d="M67.29,39.35h-.06C67.43,39.64,67.39,39.59,67.29,39.35Z"/><path d="M5.18,53.82s.05-.06.08-.07l-.1-.06Z"/><path d="M2.61,54.88C3.75,53,4.35,53.26,5.16,53.69l-.7-4.44Z"/><path d="M3.85,10.71,2,11.19c-.2.6.31,1,1,.75C3.44,11.52,4.13,11.29,3.85,10.71Z"/><path d="M3.63,17.68c.2-.6,2.08-1.09.37-1.61C3.8,16.68,1.25,17.79,3.63,17.68Z"/><path d="M32.35,46.68c.54-.84-1.61-.93-1.06-1.65-1.37.86-2.05.34-1.51,2.72C32,48.68,30.38,45.55,32.35,46.68Z"/><path d="M31.3,45a4.83,4.83,0,0,0,.7-.52A2.19,2.19,0,0,0,31.3,45Z"/><polygon points="88.53 54.61 89.24 54.14 88.7 54.01 88.53 54.61"/><path d="M81.54,51.65a3.08,3.08,0,0,1-2.1.81,7.41,7.41,0,0,0,2.52.46C82.07,52.45,82.43,51.6,81.54,51.65Z"/><polygon points="71.91 52.71 71.93 52.44 71.78 52.43 71.91 52.71"/><path d="M73.2,50.78c-1,.68-1.19,1.2-1.27,1.67l2.92.21-.2.21.59-.17C74.57,52.44,74.09,51.88,73.2,50.78Z"/><polygon points="70.47 52.33 71.52 51.67 71.83 50.06 70.47 52.33"/><polygon points="67.78 51.29 68.47 51.85 68.59 50.45 67.78 51.29"/><path d="M56.38,51.38a3.23,3.23,0,0,0,.82.46A3,3,0,0,0,56.38,51.38Z"/><path d="M57.07,51.11c.22.07.4.11.56.15C57.72,51,57.65,50.85,57.07,51.11Z"/><path d="M62.92,50.39l-1,.31v-.15c-.89,0-1.53.67-.61,1,.21-.21.45,0,.66-.23l0-.5a2,2,0,0,1,.83.55C62.74,51,62.48,50.42,62.92,50.39Z"/><path d="M159.15,52.75a.38.38,0,0,1-.17,0c.29-2-.75-1.35-1.79-.69C157.29,53.5,158.17,53,159.15,52.75Z"/><path d="M159.38,52.71l.33,0c-.76.66-1.58,1.94.11,1.36.5.37.32-1.83.61-1.25.12-.4,0-.51-.16-.46C160.15,52.17,159.78,52.56,159.38,52.71Z"/><path d="M106.27,15.9h-.14C106.18,16,106.21,16.09,106.27,15.9Z"/><path d="M76.26,46.75l-.09-.33S76.17,46.58,76.26,46.75Z"/><path d="M42.21,24h-.05C42.35,24.28,42.32,24.22,42.21,24Z"/><path d="M96.71,7c.84-.07-.54-.83,0,0Z"/><polygon points="87.21 4.3 87.85 3.83 87.37 3.69 87.21 4.3"/><path d="M88.12,5.77,88,5.45S88,5.61,88.12,5.77Z"/><path d="M90.32,7.89l-.18.21a2.64,2.64,0,0,1-.41-.29L89.8,7l-.46.46a6.77,6.77,0,0,1-1.22-1.68,13.38,13.38,0,0,0,1.11,3.37c.18-.21.34-.82.93-.66.5.46,0,.73,0,1.23C90.53,9.32,91.42,8.64,90.32,7.89Z"/><path d="M81.36,6.83l1,1.33,0-.8a.88.88,0,0,0,.71,0,2.43,2.43,0,0,1,.76.53c0-.4-.29-1,.15-1l-.7.21c.1-.28.08-.67.16-1Z"/><path d="M159.43,7.86c0-.4-.25-1,.14-1l-1.25.42C158.93,7.21,159.13,7.59,159.43,7.86Z"/><path d="M162.36,13.26a.35.35,0,0,1-.15,0c.29-2-.65-1.35-1.58-.7C160.71,14,161.49,13.51,162.36,13.26Z"/><path d="M81.25.34a1.26,1.26,0,0,0-.26.74A1.67,1.67,0,0,1,81.25.34Z"/><path d="M79.24,2.56l1.45.52A.6.6,0,0,1,81,2.52c.12,0,.25,0,.37,0l0-.09a1.12,1.12,0,0,0,.84-.26,4.09,4.09,0,0,0-.81.13c.12-.47.27-1.09-.41-1.05a1.55,1.55,0,0,1-.18.16L80.71.56l-.5,1.31a5.12,5.12,0,0,1-1,.21,6.3,6.3,0,0,0,.69.22C79.49,2.26,79.23,2.28,79.24,2.56Z"/><polygon points="82.97 3.97 84.42 4.5 84 4.12 82.97 3.97"/><path d="M117.56,36.34l-.07,0C117.51,36.39,117.53,36.39,117.56,36.34Z"/><path d="M155.84,46.29a3.53,3.53,0,0,1-.37-.11C155.39,46.53,155.75,46.5,155.84,46.29Z"/><path d="M157.61,45.11a.38.38,0,0,0-.35.17A1.55,1.55,0,0,1,157.61,45.11Z"/><path d="M155.84,46.29l.22.07-.27-.36A.27.27,0,0,1,155.84,46.29Z"/><polygon points="124.33 5.77 123.41 5.63 124.2 5.99 124.33 5.77"/></svg>