<svg id="Layer_3" data-name="Layer 3" xmlns="http://www.w3.org/2000/svg" viewBox="0 0 101.56 104.33"><defs><style>.cls-1{fill:#1f344c;fill-rule:evenodd;}</style></defs><title>clock</title><path class="cls-1" d="M52.4,21.78a1.31,1.31,0,0,0,.66,2c.2,2.46-.85,3.66-.87,5.9H51.09V27c-.71.16-1,.78-1.53,1.09-1.44-.79-1.71-4.18-.87-5.9H50c0,.34-.1.83.22.87C51.11,22.81,50.93,21.47,52.4,21.78Z"/><path class="cls-1" d="M38.43,30.51c-1,1.62-2.61-.19-2.84-1.31C36.6,27.41,38.12,29.56,38.43,30.51Z"/><path class="cls-1" d="M27.29,36.85c.19,0,.21.09.22.22a9.76,9.76,0,0,1,2.84,1.53c0,.8-.61,1-.87,1.53-1.4-.06-1.33-1.36-2.62-.44A3.27,3.27,0,0,1,27.29,36.85Z"/><path class="cls-1" d="M80.8,49.73c-.66,1.41-.56,2.22-1.31,3.49a12.4,12.4,0,0,0-4.15,0c0-.56,0-1.12-.65-1.09,1.06-.3.39-1.76.65-2.4C76.95,49.67,79.51,48.72,80.8,49.73Z"/><path class="cls-1" d="M73.59,65.24c1-.16,1.5.25,2.4.22-.17,1,.29,1.31.22,2.18A2,2,0,0,1,73.59,65.24Z"/><path class="cls-1" d="M67.91,72a9.69,9.69,0,0,1,0,2.84c-1.1.3-1.15-.45-2-.44a13.17,13.17,0,0,1-.44-2.4A3.17,3.17,0,0,1,67.91,72Z"/><path class="cls-1" d="M52.84,75.06c0,.7.39.92.22,1.75.83.18.26-1.05,1.09-.87,2.27.34,2.21,3.71,1.75,6.12-.84.46-1.36-.27-1.75-.87a2.2,2.2,0,0,0-1.31,1.09c-1.07.12-.52-1.37-.65-2.18-.05-.56-.38.3-.87,0C51.19,78.57,50.15,74.48,52.84,75.06Z"/><path class="cls-1" d="M65.73,33.79c-.44-.07-.68,0-.66.44-.83-.45-.1-1.61-.44-2.19-4-5.65-8.57-10.79-12.67-16.38-1.48.13-3.67-.47-3.93.87-.72.07-1.34,0-1.53-.44-2.07.19-3.68.83-5.9.87-.66,1-2.45.9-3.06,2-5.21.9-7.89,4.33-11.57,6.77-3.74,5.22-8.17,9.74-10.48,16.38,2.06,3.48,4.8,6.27,7,9.61a4.72,4.72,0,0,1,2,.22,7.33,7.33,0,0,0,3.5,6.55c3.18,6.06,7.79,10.7,11.36,16.38h1.53c.12.71-.07,1.1-.44,1.31C42.68,79,44.75,82,47.16,84.68c-1.39.32-2-1.59-3.06-2.84-1.3-1.59-2.73-3.12-3.71-4.59-.82.18-1.55.69-2.4.22.07-.88.71-1.19,1.09-1.75-4.9-6.53-9.58-13.27-14.63-19.66a3,3,0,0,1-2.62.87c2.23,3.74,5.2,6.74,7.43,10.48,2.74,2.14,4.06,5.69,7,7.64-.18.62.31.57.22,1.09,3.92,2.85,5.78,7.76,10,10.27a1.86,1.86,0,0,0,.22,1.31c5.39.74,11.19-1.13,15.94-2.4,0-.52-.38-.64-.22-1.31,1-.12,1.53-.66,2.84-.44,2.39-1.33,4.16-3.26,6.33-4.8.82-1.47,2.49-2.4,3.49-3.71.31-.41.15-1.1.44-1.53.93-1.38,2.7-2.26,3.5-3.49.17-.26,0-1,.22-1.31a25.46,25.46,0,0,0,3.06-5c.64-1.79.2-4,1.53-5.24.5-3.29,1-6.6,1.75-9.61.12-.49-.42-.31-.44-.66a8.73,8.73,0,0,0-2-5.46c-1.32-1.9-2.66-3.8-4.15-5.9-.53-.74-1.47-1.24-2-2-.71-1-1-2.27-1.75-3.27A121.38,121.38,0,0,0,67,22c.29-1.45,2.08-1.72,3.28-1.09,1.38,3.42,4.55,5.06,5.9,8.52a12.89,12.89,0,0,1-3.93-3.71c-.64.19.13.7,0,1.09,4.63,4.84,8,11,12,16.38.94-.15.2-2,.44-2.84-2.45-5.42-6.09-9.63-9.39-14.2.28-.4,1-1,1.53-.44-1.45-1-2.67-2.28-4.59-2.84.49-1.73-1.46-1-1.75-2,1.15-.86,2.38.29,3.06.87.4.34,1.34.36,1.75.65s.37,1,.87,1.31,1.46.2,1.75.44.33,1.07.66,1.31c.72.52,1.87.42,2.4,1.09-.31,1.19.69,1.06.66,2,2.49.78,2.78,3.77,4.59,5.24,1,4,1.17,8.73,2.4,12.45-.24,2.26.32,5.28,0,7.86,0,.13-.82,2.28-1.09,3.5a59,59,0,0,1-1.31,6.33c-.43,1.25-1.54,2.43-2,3.71-.29.86-.14,2-.44,2.62-.12.25-.92.61-1.09.87-.87,1.28-1.13,2.24-2,3.71-.2.36-1,.69-1.31,1.09a23.17,23.17,0,0,1-4.59,4.8,35.81,35.81,0,0,1-9.39,6.12C62.79,87,60.94,88,58.08,88c-3.24,2.62-9.75.79-14.63,1.53C43.61,88,41.16,89.15,41,88A14.72,14.72,0,0,1,33,84.89c-7-.85-8.67-7.06-13.54-10,.1-1.26-1-1.38-1.09-2.4-.69.24-.5,0-1.31,0-2.34-3.26-3.91-7.3-5.46-11.36.44-2.17-.73-7.66-.22-9.83A30.74,30.74,0,0,1,12,41.87c.21-.89-.15-1.84.22-2.62.06-.13.65-.42.66-.44.44-1.43.32-2.7.87-3.93s2.32-2.56,3.06-3.93c.19-.35,0-1,.22-1.31s1-1.19,1.31-1.53a40.09,40.09,0,0,1,9.83-8.3V18.5c.31,0,.62,0,.66-.22.77-.34.13.74.65.66,7.85-5.08,23.28-8.93,32.1-2.4-2.3,1-5.09-2.28-8.08-1.31a14.36,14.36,0,0,0,4.81,6.55c1.88,3.58,4.56,6.36,6.77,9.61,1.26-.32.1-1.76.87-2.62h1.31c-2.68-3.72-5.93-6.89-8.52-10.7.37.08.41-.17.44-.44C60.39,19,61.91,20.13,62.67,22c3.5,3.35,5.91,7.77,9.17,11.36,0,.62.4.91.44,1.53a114.37,114.37,0,0,1,8.08,11.79c.33.25.53.63,1.09.65-.13,1.44,1.19,1.43,1.09,2.84-2.5-2.74-4.26-6.23-6.77-9-1.15,0-1.51.82-2.4,1.09s-.35-.82-1.09-.66c.64-.89.69-2.37,2.18-2.4a2.88,2.88,0,0,0-1.53-2c.18-.62-.31-.57-.22-1.09-1.83-1.23-2.2-3.92-4.15-5-.28,1-1.06,1.56-1.53,2.4,1.07,3.52,3.39,5.78,5,8.74C69.6,40.69,68,36.37,65.73,33.79ZM24.45,24.18a4.09,4.09,0,0,1-.66,1.31c-3.79,1.67-5.62,5.3-8.3,8.08-.33,2.29-2,3.25-1.75,6.11-.34,0-.17.56-.66.44.12,1.61-.86,4.33.22,5.46.93-4.32,2.89-7.6,3.93-11.79,1-.15,1.29-1,1.75-1.75a3.78,3.78,0,0,0,2.84-3.28c-1.36,1.41-3.15,3.55-4.8,3.93,2.72-3.61,7-6.85,9.61-9.83A5.07,5.07,0,0,1,24.45,24.18ZM83.2,34.44A22.43,22.43,0,0,0,78,27.24,46.54,46.54,0,0,0,83.2,34.44ZM67.47,30.08h.66q.06-.71-.66-.66ZM85.82,41.65c1.08-.38,0-3.64-.65-4.37C85.36,38.76,85.92,39.87,85.82,41.65Zm-67,11.14c.75-.42.84-1.49,2.4-1.09-2-2.69-3.52-5.8-6.33-7.64C13.78,48.68,16.82,50.52,18.77,52.79Zm68.36-5.68c.2.13.16-1.31-.44-1.09C86.79,46.43,86.4,47.33,87.13,47.11ZM12.44,48.86h.44V47.11C12,47,12.62,48.31,12.44,48.86Zm2.4,13.54a2.4,2.4,0,0,1,1.31,2.18,2.88,2.88,0,0,1,1.75,2.18,36.77,36.77,0,0,1,6.33,7.43,21.9,21.9,0,0,1,3.93,3.93c.22.41,1.14,0,.22,0-.72-1.83-2.1-3-3.28-4.37a6.88,6.88,0,0,0-1.75-2.4c-.9-1.94-2.4-3.28-3.71-4.81-1.66-4.09-4.4-7.1-5-12.23.22,0,.26-.18.44-.22,2.29.62,2.44,3.38,4.15,4.59.11.76.88.86.87,1.75,1,.14,1.33,1,1.53,2a8.3,8.3,0,0,1,2.84,3.71c1.27.33,1.38,1.82,2.4,2.4-.39-1.34.61-1.29,1.09-1.75-3.44-3.32-5.34-8.2-9.17-11.14h.44c-1.57-2.07-2.89-4.39-4.8-6.11C13,53.86,14.55,58,14.84,62.4ZM86.69,51c.64,4.54-1.28,8.22-2.4,10.48a52,52,0,0,0-2,5.46c-.39,1.06-1.46,2.08-2,3.28-1,2.38-1.15,4.42-2.62,5.68,3.4-2.72,4.65-7.58,7-11.36-.07-.87.39-1.21.22-2.18,1.68-2.94,2.56-8.4,2.19-12C87.11,50.73,87.16,51.14,86.69,51ZM16.15,58c1.39,1.45,1.47,4.21,3.06,5.46,3.57,7.21,9.41,12.14,13.54,18.78v1.31c-.26,0-.62,0-.66.22,3.25.75,5.27,2.74,9,3.06Q28.28,72.11,16.15,56.72ZM24,76.59c.54,2.23,3.48,2.05,3.5,4.8.48,0,.69.18.66.66a6.74,6.74,0,0,1,2.4.44C26,77.36,21.46,72.24,17,67A17.61,17.61,0,0,0,24,76.59Zm18.35,7.64a89.93,89.93,0,0,1-7.21-9c-.56,0-.76-.4-1.09-.66-1.84-1.54-3.11-6.54-6.12-4.8,4.49,6.07,9.71,11.4,14.41,17.25,1.58-.34,1.7.77,2.84.87C44.72,86.1,43.47,85.5,42.36,84.24Zm32.1-6.12c-.15-.81.77-.54,1.09-.87.63-1.92,2.32-2.78,2.84-4.8C76.86,74,74.91,76.24,74.46,78.12Z"/><path class="cls-1" d="M64.63,104.33c-1.06-.35-.69-.35-1.75,0-3.58-2.45-8.08-.59-12.45,0,.19-1,1.93-.4,2.4-1.09-4.91-.17-13.21-.18-17.47-2.4-.24.06-.15.43-.44.44-5.94-2.65-12.48-4.7-15.72-10a16,16,0,0,1-7.21-7C6.4,79.14,4.74,70.1,1.3,62.84c-.19-1.92.14-4.36-.87-5.46-.12-.49.42-.31.44-.66A37.69,37.69,0,0,1,.43,43c.16-1,1-1.83,1.31-2.84.54-1.82.58-3.66,1.09-5.46.24-.87,1-1.71,1.31-2.62.67-2,.92-3.89,2-5.46.31-.47,1.09-.71,1.53-1.31,1.18-1.64,2.32-4.19,3.71-5.9.34-.41,1.14-.64,1.53-1.09s.39-1.05.66-1.31c.77-.76,1.84-1,2.4-1.75.24-.31.16-.8.44-1.09s1-.32,1.31-.66.44-1.11.87-1.53,1.08-.67,1.53-1.09c1.86-1.74,4.36-3.34,6.55-5a2.54,2.54,0,0,0,2-.87,14.37,14.37,0,0,0,4.8-1.53c1,.12,1.36-.39,2.4-.22.53-.2.58-.88.66-1.53C40.15,1.4,46.16-.25,50.22.59c4.31-1,8.56-.42,13.32-.44a47,47,0,0,0,8.3,3.28c-.16.67.6.42.44,1.09C81.1,8.15,86.73,15,92.59,21.56c-.11,1.06.61,1.28.87,2a1.07,1.07,0,0,0,1.09.44c.5,1.54,1.57,2.51,1.75,4.37.65.23.55,1.19,1.31,1.31.09,4.79,2.54,7.21,2.62,12,1.61,3.32.11,8.45,1.31,12.23-.4.64.1,1.56,0,2.62-.2,2-1.16,4.6-.87,7-.86,1.11-.63,3.3-.87,5-.82-.17-.15,1.16-1.09.87-.65,3.06-1.93,5.49-2.84,8.3-1.64,3.75-5.43,5.34-6.33,9.83a14.37,14.37,0,0,0-3.06,4.15c-3,2.08-5.93,4.31-9.39,6.77-2.67,1.9-3.93,4.1-8.52,3.71C67.43,103,65.45,103.1,64.63,104.33ZM74.46,7.14c-2.87-1.94-7-2.59-9.83-4.59-2.34.23-3.9-1.48-5.9-.87C64.2,3.14,69.74,5.67,74.46,7.14ZM35.59,5.83c.81-.28,2.11-.08,2.4-.87A7.73,7.73,0,0,0,35.59,5.83Zm34.94,5.24c.35-1.07-1.13-.33-.87-1.31C65.2,8.69,61.78,6.57,57,5.83c-1-.29-.73.72-1.75.44-5.25-1.7-12.45-.4-17,.22-1.6,1.32-4,1-5.9,1.75-.58.23-1,1-1.75,1.31-2.51.95-4,2.47-5.9,3.71-.95.62-2.09.79-2.84,1.31-.36.25-.47,1-.87,1.31-.6.51-1.69.68-2.18,1.09-1,.82-1.73,2.37-2.84,3.49-.54.55-1.5.79-2,1.31-.22.24,0,.81-.22,1.09-.35.48-1.14.67-1.53,1.09a23.39,23.39,0,0,0-2.4,3.71c-.67,1.17-1.61,1.83-2.18,3.06-1.49,3.2-2.11,6.79-3.28,10.48-.09.52,1-.12.65.66-.85,2.86-1.39,6-2.18,9,1,1.57-.39,4.48,0,7.86.66.43.44,1.74.65,2.62a1.55,1.55,0,0,1,.66.44A30.11,30.11,0,0,0,12,77.9,10.48,10.48,0,0,0,18.33,84c1.61,3.26,6.27,3.48,7.64,7a49.51,49.51,0,0,1,10,3.06c1.23.15,2.49.27,2.62,1.53-3.45-.92-6.42-2.31-10.26-2.84,1.88.32,3.41,1.81,4.59,2.18.92.29,1.87-.12,3.06.22.7.2,1.27,1.06,2,1.31,4.34,1.58,8.49.49,13.76.66,3.69.12,7.54.7,10.48,0,1.46-.35,2.67-1.68,4.15-1.31.33-.84,1.38-.95,2.4-1.09,1.34-1.79,4-2.22,5.9-3.49,4.7-1.41,6.39-5.85,10-8.3-.22-.87.65-.66.44-1.53,3.51-3.69,6.57-8.51,6.33-15.29.84.18.26-1.05,1.09-.87A50.6,50.6,0,0,0,95,41.65c-3-9.42-6.19-18.56-13.1-24-.67-.16-.27.75-1.09.44-.87-2.77-3.52-3.76-6.11-4.81.18-.62-.31-.57-.22-1.09C72.81,12.15,72,11.3,70.53,11.07ZM31.66,7.14c-1.19.64,1.7-.62,0,0Zm51.11,6.11c.18-.62-.31-.57-.22-1.09-2.4-.87-3.81-2.74-5.9-3.93C77.84,10.75,81.14,11.16,82.76,13.26ZM24.23,9.33h.66V8.89h-.66ZM22,11.07a10.27,10.27,0,0,0,2-1.53C23.22,9.78,21.83,10.56,22,11.07Zm2.18,0c-1.32,1.67-4.5,2.63-4.8,4.59,2-2.09,4.82-3.33,7-5.24C25.55,10.5,25.26,11.16,24.23,11.07ZM85.6,15.66c-.05-.61-.69-.62-.87-1.09C84.87,15.09,85,15.59,85.6,15.66Zm2.62,2.84c0-.87-.8-.95-1.09-1.53A1.4,1.4,0,0,0,88.22,18.5Zm9.39,21.62a13.26,13.26,0,0,0-2.19-7.21A55.73,55.73,0,0,0,97.61,40.12Zm-1.31,14c1.07.08-.41.14,0,.87,1.25.38.58-3.25.44-2.84A2.54,2.54,0,0,1,96.3,54.1Zm3.06,2.62c.64.32.64-1,0-.66Zm0,3.49a15.63,15.63,0,0,0,.44-3.28h-.66C99.25,57.86,98.9,60.37,99.36,60.21Zm-4.8,12.23c1-.78,1-2.53,1.53-3.71h-.66C95.43,70.26,94.49,70.85,94.56,72.45ZM14.84,86c1.51-.12,1.49,2.44,2.84,1.75-1.2-.76-1.93-3.16-3.28-3.06C15,84.7,14.84,85.41,14.84,86Zm9.61,4.8c-1.35-1.06-2.55-3.42-4.8-2.84C21.31,88.69,22.19,91.37,24.45,90.79Zm51.11,5.68c1.89-1.09,4.1-1.87,5.9-3.06-.73.22-.72-.3-.66-.87,1.37-.31,2.7-1.81,2.4-3.06C81.14,92.29,77.94,94,75.55,96.47Zm-43.9-.87c-.53-.07-1.22-1.09-1.75-.44C30.4,95.27,31,96.39,31.66,95.6Zm2,2.4c-.67.14-1.88-.28-2.19.22a8.05,8.05,0,0,0,4.15.66,8.85,8.85,0,0,0-.22-2.18c-1.17.15-1.14-.9-2.4-.66C32.52,97.36,33.94,96.8,33.62,98Zm28,5.24c2.46,1.22,5-1.08,7-1.75,4.48,0,6.12-2.76,9-4.37C72.42,99.38,67,101.29,61.58,103.24Zm-12.67-4.8a15.21,15.21,0,0,0,5,.44C53.09,97.63,50.27,98.08,48.91,98.43Zm-4.37,1.31c-2.65.1-4.58-1.68-6.77-1.31C39,99.61,43,100.36,44.54,99.75Zm18.13-1.53c-2.33-.28-1.38.67,0,0Zm-6.11.87c3.08.16-1.2-.87-.22.44C56.38,99.36,56.34,99.1,56.56,99.09Zm-1.31,2.84c1.23-.26,2.3.67,2.62-.44C56.67,101.72,55.6,100.79,55.24,101.93Z"/><path class="cls-1" d="M54.59,27c.69.18,1.06.69,1.75.87.29,4.23-1.17,7.6-2,10.92-.87,3.64-1.47,7.42-3.28,10.7-.69.24-.49,0-1.31,0v-.87c-1.17.86-.38,2.2,0,3.28,5.62,1.15,10.24,3.3,13.76,6.55v1.31c-.16.35-1.07-.05-.87.66-.34-.09-.19-.69-.87-.44-.13.9.2,2.5,0,3.27.39,1.14,2,1.44,1.31,3.06h-.66c-1.72-2.36-3.53-4.62-7.21-5-.61-1-2.9-1.18-2.18-2.84a12.55,12.55,0,0,1,2.4,1.31c2-1.34,2.39,1.51,4.8,1.09-1.84-3.62-10.22-1.37-9-7.43-1,.1-1.15,1-2.62.66a5.83,5.83,0,0,0-1.09-2.18C48.23,46.37,51,41,52,35.54c.43-2.51.1-5.33,2.4-6.77-.14-.22-.5-.23-.44-.66C53.9,27.49,54.59,27.6,54.59,27ZM55.9,55.63c2.64,1.11.68-.58,0,0Z"/></svg>