<svg id="Layer_1" data-name="Layer 1" xmlns="http://www.w3.org/2000/svg" viewBox="0 0 101.27 112.7"><defs><style>.cls-1{fill:#756a4c;}</style></defs><title>eco</title><path class="cls-1" d="M58.12,56.3c3,1.09,5.94,2.49,9,2.82a45.85,45.85,0,0,0,11.06-.39A28.34,28.34,0,0,0,91.8,52.8c5.66-4.41,8.33-12.26,9.28-19.71a27.06,27.06,0,0,0,.05-5.88c-.09-6-2.07-11.65-2.63-17.53a25.36,25.36,0,0,1,.13-3.27c0-.07-.1-.11-.26-.12,0-.71,0-1.42.12-2.14s-1.79-.24-1.86.34a27.88,27.88,0,0,0,0,5.47C96.68,14.88,98,19.6,99,24.47c.1.52.18,1,.24,1.57a35,35,0,0,1-.11,4.5,20,20,0,0,1-4.52.6.34.34,0,0,0,.17-.14h0s0,0,0,0a.53.53,0,0,1,.1-.11s0,0-.11,0A5.81,5.81,0,0,1,95,29.53c.09-.47.16-.95.21-1.43,0-.07-.45,0-.47.14,0,.53-.14,1.06-.24,1.58-.06.34-.32,1-.19,1.32H93.1a1,1,0,0,0,.06-.29s0-.06-.06-.07c0-.21.09-.43.12-.57.06-.32.12-.63.17-.95,0-.15-.44-.05-.46.09-.06.39-.14.77-.21,1.15a3.22,3.22,0,0,0-.11.62h-.35l.08-.26c0-.08.08-.17.12-.26s0,0,0,0a7.77,7.77,0,0,0,.34-2c0-.09-.47,0-.47.14a8,8,0,0,1-.42,2.25s0,.1-.05.15l-.66,0a1,1,0,0,1,.11-.17s0-.06-.12-.05c.14-.54.25-1.1.37-1.65,0-.1-.43,0-.46.1-.12.58-.23,1.16-.39,1.74l-.47,0,0-.13c0-.08.08-.17.12-.26s0,0,0,0a7.23,7.23,0,0,0,.42-2c0-.06-.46,0-.47.14a8.07,8.07,0,0,1-.5,2.25l-.59-.05-.4,0a8.34,8.34,0,0,0,.56-1.68c0-.13-.42-.06-.46.09a9,9,0,0,1-.49,1.56l-.78,0c.47-1,1-1.92,1.35-2.93,0-.06-.41,0-.46.1-.38,1-.84,1.88-1.29,2.81l-.87,0a34.15,34.15,0,0,0,1.69-3.39c0-.07-.41,0-.46.1A32.39,32.39,0,0,1,86,30.7l-.91,0c.48-1.21,1.2-2.26,1.61-3.51.1-.29-.37-.3-.45-.07-.37,1.11-1,2.07-1.44,3.12a.26.26,0,0,0-.18.14.81.81,0,0,0-.06.29A19.35,19.35,0,0,1,80.65,30a6.42,6.42,0,0,0,.05-.67c0-.29-.47-.22-.48,0s0,.33,0,.5l-.2-.06c-.12,0-.54.17-.38.22l.54.16a3.18,3.18,0,0,1-.14.54,2.13,2.13,0,0,1-.3-.22.26.26,0,0,0-.41.23,6.13,6.13,0,0,1-.08,1.78.51.51,0,0,1-.21-.17c-.17-.17-.57.11-.36.32a.92.92,0,0,0,.74.31.27.27,0,0,0,.26-.22,8.54,8.54,0,0,0,.15-1.61l.17.1a.28.28,0,0,0,.36-.15,3,3,0,0,0,.26-.78,25.52,25.52,0,0,0,5.2.69,5.23,5.23,0,0,0-.27.55c0,.08.4,0,.46-.1l.22-.43.88,0-.41.84c0,.06.4,0,.46-.1s.21-.35.31-.53c0,0,0,0,0,0l.09-.18.75,0s-.05.1-.08.14.35.07.43,0l.05-.09,1.07.07,0,.09h0v0s.31,0,.42-.08l.32,0,.19,0v0c0,.06.15,0,.29,0a24.57,24.57,0,0,0,8.16-.54,39.46,39.46,0,0,1-2.77,11.11c-3.06,7.54-9.47,11.71-16.37,13.34C72.21,57,65.68,55.1,58.34,52.63a.58.58,0,0,0-.24,0,30.53,30.53,0,0,1,5.26-6.41,31.13,31.13,0,0,0-4.8,6c-.48.81,1.4.61,1.74,0,2.41-4.06,5.82-6.9,9-10.1a38.1,38.1,0,0,0,3.09-2.88c.17-.16,0-.28-.11-.29q2.93-3.26,5.62-6.8c.49-.64-1-.57-1.61-.16,1.49-1.74,2.9-3.51,4.26-5.19,3-3.74,6-7.52,8.84-11.42,2.7-3.7,4.67-8,7.54-11.54.77-1-1-1.05-1.53-.46-.17.21-.33.43-.5.65a1.56,1.56,0,0,0-.88.27c-9.32,8.26-22.06,7.18-32.15,14-3.61,2.44-7,5.54-8.27,10.27C52,34.71,52.9,42.34,54,48.48c.14.78,2,.24,1.87-.57a60.27,60.27,0,0,1-.65-18.07c.93-7.42,8.26-11.78,13.79-14.31a46.8,46.8,0,0,1,6.36-2.3A4.05,4.05,0,0,0,74,14.68c-.13.23.34.22.44,0C76,12,79.94,12.53,82.35,11.91a24.1,24.1,0,0,0,5.13-2.33,29,29,0,0,0,5.37-2.83c-4,5.49-7.46,11.48-11.62,16.84C76.28,30,70.49,38,63.37,41.13c-1.21.54-.12,1.43.77,1,4.4-2,8.26-5.68,11.71-9.66A106.4,106.4,0,0,1,67,42.58l-1,1a1.4,1.4,0,0,0-1.44,0C57.32,48.68,53,57.53,50.93,66.77,48.25,79,54.79,91,53.1,102.89a17.86,17.86,0,0,1-2.23.49,16.4,16.4,0,0,1-6-.34c.08-.74.14-1.47.15-2.22,0,0,0,0-.07,0h0c-.18-8.25-.06-16.3-2.08-24.3-2.33-9.22-5.9-17.89-9.72-26.41-.28-.62-2.08.11-1.87.57q1.29,2.86,2.51,5.75c-9.3-5.33-17.37-11.27-21.7-22.69C8,23,9.22,10.54,2.6,1.09a50.15,50.15,0,0,1,29,14.65c6.71,6.89,8.31,16.43,7.74,26-1.28-1.37-1.73-3.7-2.58-5.41-.07-.14-.51.06-.47.14.87,1.74,1.32,4.09,2.64,5.48.07.07.31,0,.41-.1A78,78,0,0,1,38.38,50l-.69-1.49c-1.61-3.53-3.92-6.3-5.91-9.51.05-.05.08-.1.07-.12-.28-.5-.56-1-.83-1.51,1.9-5.62.91-11.52.37-17.35a13.15,13.15,0,0,1,.79,4c0,.28.48.2.47,0A14.62,14.62,0,0,0,31.58,19a.22.22,0,0,0-.27-.1c0-.14,0-.28,0-.43s-.48,0-.47.14c.46,6.08,1.74,12.27-.05,18.19-2.46-4.6-4.61-9.41-7.66-13.51.12-3.75,1.34-7.29.23-11,0-.16-.51,0-.47.14,1,3.45,0,6.81-.19,10.28-.45-.57-.9-1.14-1.39-1.68-.1-.11-.35-.1-.61,0-2.85-3.92-6-7.56-8.89-11.52-.41-.56-2.21.2-1.74.83C14.21,16,19,21,22.53,27.26c3.35,6,6.57,12.17,9.78,18.3a26.84,26.84,0,0,1-6.7-1c.12,0,.23-.14.17-.25-.47-.88-1.07-1.67-1.54-2.55-.09-.17-.54,0-.43.22.47.86,1,1.64,1.51,2.5-.57-.17-1.13-.36-1.7-.58-.19-.08-.55.24-.27.35A25.84,25.84,0,0,0,32.5,46l1.34,2.56c1.19,2.28,2.35,4.61,3.47,7l-.25,1.13c-.05.23.39.27.86.18,5.24,11.4,9.18,23.74,8.85,36.75,0,.88,1.85.43,1.87-.27a64.66,64.66,0,0,0-.79-11.74,1,1,0,0,0,1-.88c-.44-12.13,4-29.27,13.67-35.72,1.1-.73.1-1.94-.84-1.31C53.8,48.83,49.12,60,47.52,70.72c-1-4.56-3.25-8.7-5.35-12.79-.87-1.7-1.7-3.45-2.52-5.2C42.28,39.43,42.58,25.29,33.36,15,25.34,6.08,12.61.76,1.55,0,1.17,0-.44.73.23.86a.35.35,0,0,0,.07.26A24.56,24.56,0,0,1,1.74,3.24C1.24,3-.07,3.8,0,3.89c7.44,9.74,6.24,23.49,10.55,34.86S24.19,55.86,33.39,61c.47.27,1.91-.62,1.77-.7-6.89-3.85-13.29-7.91-18.1-14.18,4.7,5.22,10.77,8.82,16.7,12.14a1.06,1.06,0,0,0,.77,0,151.78,151.78,0,0,1,5.93,16.84,64.14,64.14,0,0,1,2.08,12.3A17.83,17.83,0,0,0,34.19,93a27.34,27.34,0,0,0-9.73,1.9c-3.77-2.69-8.21-5.12-12.75-5-.72,0-2,1.28-.72,1.25a15.94,15.94,0,0,1,7.75,2.16c-.16,0-.36.11-.28.22a4.85,4.85,0,0,0,1.07,1.09A7.44,7.44,0,0,1,16.9,93c-.11-.12-.55.08-.44.2a7.11,7.11,0,0,0,2.41,1.55c-.13,0-.27.09-.26.18,0,.33.06.67.09,1a.16.16,0,0,0-.09.11c-.09,1.08-.12,2.16-.23,3.23,0-.14-.05-.29-.07-.43s-.49,0-.47.14.1.6.15.9l-.14.22v0c0-.08-.13-.09-.24-.07-.15-.51-.31-1-.46-1.53.14,0,.29-.11.24-.25a11.46,11.46,0,0,1-.46-2.73c0-.25-.49-.11-.47.14,0,.48.09,1,.16,1.46-.15,0-.35.1-.32.22.32,1.21.73,2.4,1.05,3.61q-.22.4-.42.82c0-.21,0-.43-.05-.62a29.61,29.61,0,0,0-.81-3.25c-.05-.21-.52-.07-.47.14.25,1,.63,2.06.79,3.11a14.11,14.11,0,0,0,.19,1.48,14.25,14.25,0,0,0-.84,4.94c0,1.11,1.89.78,1.89-.17a11.07,11.07,0,0,1,5.75-10.24.86.86,0,0,0,.87.17c.54-.17,1.1-.39,1.65-.62a12.81,12.81,0,0,1,2-.34c.27.81.48,1.63.68,2.46a.16.16,0,0,0-.09.17c-.21-.57-.4-1.15-.64-1.67-.08-.18-.44,0-.45.14a5.44,5.44,0,0,0,.08,1.19.26.26,0,0,0-.08.13,10.89,10.89,0,0,0-.21,1.78,8,8,0,0,1-.48-.81c0-.09-.25,0-.37,0-.14-.21-.27-.42-.42-.62s-.41-.06-.45.14a6.7,6.7,0,0,0-.12,1.36c-.14-.24-.28-.47-.43-.71s-.41-.05-.45.14a5.45,5.45,0,0,0-.07,1.59c-.09-.09-.2-.17-.29-.26s-.57.1-.36.31a5.57,5.57,0,0,0,.77.7.27.27,0,0,0,.41-.22,9.56,9.56,0,0,1-.08-1.25c.13.18.26.36.4.53l.16.28a.16.16,0,0,0,.11.08c.26.33.54.64.81,1,.09.1.52-.09.44-.19q-.47-.54-.92-1.1c0-.16,0-.32,0-.47a5.24,5.24,0,0,0,1.28,1.58c.12.1.54-.11.44-.2A5,5,0,0,1,25.94,100s-.05-.06-.1-.07,0-.07,0-.1a12.42,12.42,0,0,0,1.38,1.89.24.24,0,0,0,.27,0c.13.2.26.4.37.61s.5-.08.47-.14a12.05,12.05,0,0,0-.69-1.07c0-.33,0-.66,0-1a5.58,5.58,0,0,0,1.47,1.93c.16.12.58-.14.36-.3a3.82,3.82,0,0,1-.89-1s0,0,0-.07c-.08-.35-.18-.67-.29-1a5,5,0,0,0,1.19,1.74.21.21,0,0,0,.14,0c.1.18.19.37.28.55s.41,0,.45-.14a3.29,3.29,0,0,0,.08-.58l.05,0v.08c-.15,1.14,1.77.89,1.9-.14A14.91,14.91,0,0,1,42.67,89c.14,2.18.22,4.37.28,6.58l-.32,0h0c0-.14-.21-.17-.44-.15,0-.13,0-.26,0-.43s-.17-.14-.3-.09c-.31-.79-.62-1.58-.88-2.4a2.18,2.18,0,0,0,.51.09l.11,0c.15.6.35,1.18.56,1.76,0,.11.47,0,.47-.14v-.53s-.09,0-.19,0a13.61,13.61,0,0,1-.39-1.3c0-.05-.13,0-.24,0s0-.09-.14-.09a2.44,2.44,0,0,1-1.41-.63c-.15-.13-.57.12-.37.29a3.89,3.89,0,0,0,.55.36s0,.06,0,.09c.33,1.1.76,2.14,1.18,3.19a2.82,2.82,0,0,0-.58.27,5,5,0,0,1-.83-1.64c-.11-.28-.21-.57-.31-.86.05,0,.09-.06.08-.07l-.13-.08c-.15-.45-.3-.9-.43-1.35-.05-.19-.52,0-.47.14s.13.4.19.6L39,92.54c-.08-.13-.5.1-.47.14a2,2,0,0,0,.79.72c.14.4.28.79.43,1.18a4,4,0,0,0,.94,1.65c0,.15-.09.29-.14.44l-.19.06a7.12,7.12,0,0,1-1-2c.21.07.54-.28.26-.38a14,14,0,0,1-2.32-1.19c-.21-.12-.54.22-.27.38a20.09,20.09,0,0,0,1.81,1s-.07.06-.06.09A8,8,0,0,0,40,96.93a.55.55,0,0,0-.25.23c-.08.26-.18.51-.27.77l-.26,0a.16.16,0,0,0,0-.19c-.7-1.37-1.55-2.64-2.18-4.05-.09-.21-.55,0-.47.14.65,1.44,1.5,2.74,2.22,4.14,0,0,0,0,.07,0a2,2,0,0,0-.34.14,16.77,16.77,0,0,1-2.31-3.83c-.08-.15-.54,0-.44.21a15.6,15.6,0,0,0,2.43,4s0,0,0,0,0,.31,0,.46,0,0,0,.07c0,.2,0,.39.07.59v0c.07.58.13,1.16.22,1.73l-.19.15c-.16-.61-.3-1.23-.4-1.86,0-.25-.51-.11-.47.14a21.26,21.26,0,0,0,.69,2.91c.07.21.47.13.47-.09v-.16l.12,0,0,.12c0,.09.17.06.29,0a25.92,25.92,0,0,0,11.68,1.95,13.62,13.62,0,0,0,2.21-.36c-.07.34-.14.67-.22,1-.2.82,1.69.51,1.87-.25.11-.44.19-.88.27-1.32.74-.26,1.47-.56,2.2-.88a9.12,9.12,0,0,0,1.26,2.23c-.15.34-.3.69-.44,1a3,3,0,0,1-.77-1.08c-.27-.51-.5-1-.75-1.55-.07-.14-.51.05-.47.14.3.6.57,1.22.89,1.81.21.39.48.86.88,1h.09q-.22.55-.41,1.09a3.36,3.36,0,0,1-1-1c-.39-.52-.73-1.07-1.07-1.63-.11-.18-.56,0-.43.23.37.59.74,1.18,1.16,1.74a2.82,2.82,0,0,0,1.18,1.06q-.14.43-.27.85c-.35,1.15,1.52,1.09,1.78.22,3-9.9,12-20.29,21.72-18.88a18.68,18.68,0,0,1,12.91,8.28c2.7,4.06,3.62,9.2,5.76,13.59.4.81,2.19,0,1.72-.93-3-6.1-4.06-12.65-8.86-17.41-3.61-3.59-9-5.07-13.68-5.32a13.82,13.82,0,0,0-7.8,2.18,2.87,2.87,0,0,1-.66-.51.38.38,0,0,0-.22-.32c-4.79-3-9.54-6-15.06-4.45-.88-5.34-2.18-9.68-.87-15.4C54.65,65.16,55.88,60.42,58.12,56.3ZM82.89,11.43a15.86,15.86,0,0,1-3.29.64c1.85-.5,3.69-1,5.5-1.61A18.35,18.35,0,0,1,82.89,11.43ZM42.77,63.37A32.58,32.58,0,0,1,46,72.93,99.33,99.33,0,0,0,42.77,63.37Zm4.17,13.46c-.05-.24-.1-.47-.15-.71H47C47,76.36,46.95,76.59,46.94,76.82ZM20.25,95.28l.22.09a8.63,8.63,0,0,0,.12,1.17l0,.07A8.2,8.2,0,0,1,20.25,95.28Zm1.78.19c0-.06,0-.13,0-.19l.1.07A.33.33,0,0,0,22,95.47Zm-.33-.19c-.75-.63-1.59-1.1-2.38-1.68.9.51,1.79,1.06,2.63,1.63A.51.51,0,0,0,21.69,95.28Zm-.75,1.49c.08,0,.15-.1.14-.18l0-.11.06,0c.1.06.44,0,.42-.19a3.6,3.6,0,0,0-.06-.45l.11.06c0,.14.05.28.08.41-.27.17-.53.35-.78.54Zm10.69.52a.33.33,0,0,0-.13.06l.1-.3.16-.07Zm-9-1.53-.41-.17.11-.07.33.23ZM19.49,95s0,.06,0,.1l.08.42c-.09.39-.19.78-.29,1.17-.06-.62-.12-1.24-.17-1.86Zm-.6,3.74c0-.14,0-.28,0-.42a.4.4,0,0,0,.21-.13c0-.06,0-.12.08-.18s.17-.09.17-.16v-.26a10.43,10.43,0,0,0,.35-1.07l.18.95c0,.07.08.1.15.1A12.83,12.83,0,0,0,18.88,98.71Zm25.32,3.22c0,.07,0,.15,0,.22l0-.08A.37.37,0,0,0,44.21,101.93Zm0-.38s0-.07,0-.1h0S44.22,101.52,44.22,101.55Zm-3.53.1,0,.07-.09,0Zm.49-.2.06,0c0,.18,0,.36.08.53l-.25-.09C41.11,101.73,41.15,101.59,41.18,101.45Zm1,.65.21-.06c0,.09,0,.19,0,.28l-.18-.06Zm1.58.22.2.47-1-.28A3,3,0,0,0,43.72,102.32Zm.59.44,0,.14-.22-.05A.64.64,0,0,0,44.31,102.76ZM38.84,101a2.46,2.46,0,0,0,.8-.19c0,.08,0,.15,0,.23s-.25.11-.22.2h0a.91.91,0,0,0-.56,0ZM77,56.54a29.59,29.59,0,0,0,14.65-6.08,18.71,18.71,0,0,0,3.55-3.71c-3.35,6-9,9.45-15.16,10.89-7.62,1.79-14.08-.09-21.28-2.5.16-.27.33-.54.5-.8C65.3,56.27,70.43,57.4,77,56.54ZM57.87,53.88,57.8,54a34.64,34.64,0,0,0-4.48,10,40.88,40.88,0,0,1,4.11-10.23ZM64.62,94.6h0ZM56.81,87l.31.11-.22,1.11C56.87,87.85,56.84,87.44,56.81,87Zm1.34,13.51a.45.45,0,0,0,.2.29L58,101ZM67.07,93a16.94,16.94,0,0,0-3,.58s0,0,0,0c.23-.72.56-1.4.81-2.11,0-.13-.41-.07-.46.08-.25.71-.58,1.39-.81,2.11,0,0,0,.05,0,.06l-.16,0c0-.27-.25-.39-.54-.39.34-.79.65-1.6,1-2.4.1-.23-.37-.17-.44,0-.29.67-.56,1.35-.84,2-.06-.35-.38-.46-.74-.41.24-.62.48-1.24.75-1.85.11-.25-.36-.21-.44,0-.29.68-.56,1.37-.83,2.06a1.09,1.09,0,0,0-.58.59l-.24.87c-.33,0-.66,0-1,0l0-.08s0,0,0-.06a.23.23,0,0,0,.14-.1c.6-1.44,1.46-2.73,2-4.23,0-.1-.41,0-.46.09-.48,1.41-1.27,2.64-1.86,4A1.39,1.39,0,0,0,58,94l-.71-.08c0-1.41-.16-2.8-.29-4.2,0,0,0,0,0-.06l.46-2.38.61.22c-.32,1.21-.63,2.43-.85,3.67,0,.23.43.15.47-.06.21-1.17.5-2.31.8-3.46l.62.24c-.07,0-.14.07-.14.11a21,21,0,0,1-1.4,4.89c-.22.58-.32,1.23.38.79.27-.17-.16-.16-.27-.09.34-.21.63-1.5.82-2A15.65,15.65,0,0,0,59.5,88l1.25.52c-.12,0-.27.06-.31.14-.38.86-.77,1.72-1.13,2.59a4.62,4.62,0,0,0-.61,2.32c0,.14.5,0,.47-.14a4.66,4.66,0,0,1,.61-2.27c.35-.87.74-1.72,1.12-2.58A54.14,54.14,0,0,1,67.48,92l-.09.2c-.11.26.32.21.41.08l0,0h0l.06,0Zm-8.55-6.72a19.31,19.31,0,0,1,7,2.94A57.81,57.81,0,0,0,58.52,86.23Zm-1.14,16.46c1-.44,1.9-.9,2.83-1.37l-.31.53c-.14-.09-.44,0-.4.21s.05.23.08.35q-.29.51-.55,1a3,3,0,0,1-.1-.6c0-.18-.48-.07-.47.14a1.06,1.06,0,0,0,.36.87l-.27.54a.64.64,0,0,0-.23.06,11.24,11.24,0,0,1-.91-1.75S57.4,102.7,57.38,102.69Z"/><path class="cls-1" d="M28.53,38.55c-4.32-.5-8.56-.79-12.48-3.16-.12-.07-.49.15-.44.18,3.92,2.37,8.19,2.67,12.53,3.18C28.25,38.76,28.64,38.56,28.53,38.55Z"/><path class="cls-1" d="M19.65,26.22a39.13,39.13,0,0,1-7.1-2.38c-.1,0-.52.15-.38.21a39.05,39.05,0,0,0,7.1,2.38C19.38,26.45,19.78,26.25,19.65,26.22Z"/><path class="cls-1" d="M62.75,23.18c-1.07,4.86-.66,11.68,1.49,16.1.08.17.54,0,.43-.22-2.1-4.34-2.48-11.25-1.45-15.95C63.27,22.91,62.79,23,62.75,23.18Z"/><path class="cls-1" d="M74.56,17a26.16,26.16,0,0,0,1.23,11c.06.17.52,0,.47-.14A26,26,0,0,1,75,17C75,16.76,74.57,16.86,74.56,17Z"/><path class="cls-1" d="M86.85,21c2.71,1,5.7-.41,8.19-1.61.3-.14,0-.43-.21-.31-.78.38-1.62.77-2.49,1.11a22.24,22.24,0,0,0,1.06-3.8c0-.23-.44-.14-.47.06a16.7,16.7,0,0,1-.81,3.07c-.13,0-.27.08-.27.19v.62s0,0,0,0a7.07,7.07,0,0,1-4.74.28C86.92,20.52,86.57,20.85,86.85,21Z"/><path class="cls-1" d="M64.54,49.14a16.2,16.2,0,0,0,4.48,3c.17.08.54-.2.28-.32A15.72,15.72,0,0,1,65,48.92C64.83,48.79,64.39,49,64.54,49.14Z"/><path class="cls-1" d="M42.26,92.24v.26c0,.29.47.21.47,0V92.2C42.73,91.91,42.26,92,42.26,92.24Z"/><path class="cls-1" d="M42.07,91.11c-.1,0-.33-.24-.39-.3s-.51.11-.44.18a.8.8,0,0,0,1,.23C42.54,91.09,42.24,91,42.07,91.11Z"/><path class="cls-1" d="M49.47,102.14a7,7,0,0,0,3-.31c.31-.13,0-.31-.18-.22a6.18,6.18,0,0,1-2.59.22C49.47,101.84,49.15,102.14,49.47,102.14Z"/><path class="cls-1" d="M49.7,101h1.39c.2,0,.49-.35.17-.35H49.88C49.67,100.63,49.39,101,49.7,101Z"/><path class="cls-1" d="M51.26,99.38a1.3,1.3,0,0,1-.81.19c-.2,0-.49.36-.17.36a2.16,2.16,0,0,0,1.28-.34C51.83,99.41,51.44,99.26,51.26,99.38Z"/><path class="cls-1" d="M51.47,97.64c.2-.13-.27-.07-.36,0a1.93,1.93,0,0,1-1.06.29c-.1,0-.53.23-.3.22A3.14,3.14,0,0,0,51.47,97.64Z"/><path class="cls-1" d="M51.31,95.51a1.44,1.44,0,0,1-.57.23c-.25,0-.37.38-.05.35a2.1,2.1,0,0,0,.82-.3C51.8,95.63,51.54,95.39,51.31,95.51Z"/><path class="cls-1" d="M51.16,93.38a2.67,2.67,0,0,1-1.22.45c-.09,0-.53.22-.31.21a4,4,0,0,0,1.79-.6C51.7,93.28,51.26,93.32,51.16,93.38Z"/><path class="cls-1" d="M50.76,91.67a4.72,4.72,0,0,1-.94.6c-.31.13,0,.25.17.17a5.61,5.61,0,0,0,1.14-.72C51.34,91.56,50.86,91.59,50.76,91.67Z"/><path class="cls-1" d="M49.93,90.56a7.13,7.13,0,0,0,1-.69c.2-.2-.27-.16-.37-.06a6.43,6.43,0,0,1-.88.63C49.38,90.63,49.8,90.66,49.93,90.56Z"/><path class="cls-1" d="M50.68,87.63a10.87,10.87,0,0,1-1.11.76c-.29.17,0,.39.19.26A12.22,12.22,0,0,0,51,87.83C51.24,87.63,50.85,87.5,50.68,87.63Z"/><path class="cls-1" d="M50,85.87c-.17.08-.21.17-.33.34s.27.32.39.14c0,0,.09-.17.14-.19C50.54,86,50.27,85.76,50,85.87Z"/><path class="cls-1" d="M66.11,91.59a10.87,10.87,0,0,0-.35,1.06c-.05.18.41.11.47-.07.1-.36.21-.71.35-1.06C66.64,91.36,66.18,91.42,66.11,91.59Z"/><path class="cls-1" d="M47.14,108.7c.83,1,1.54,2,2.32,3,.1.13.54-.06.44-.2-.77-1-1.49-2.08-2.31-3C47.47,108.37,47,108.57,47.14,108.7Z"/><path class="cls-1" d="M49.33,108.39c-.1-.24-.56-.09-.47.14a8.2,8.2,0,0,0,2.25,3.25c.17.14.58-.14.36-.31A7.85,7.85,0,0,1,49.33,108.39Z"/><path class="cls-1" d="M50.83,108.65c-.07-.19-.53,0-.47.14a4.34,4.34,0,0,0,2,2.44c.14.07.57-.16.37-.26A4.14,4.14,0,0,1,50.83,108.65Z"/><path class="cls-1" d="M53.13,109.14c-.13-.16-.58.05-.43.22a10.73,10.73,0,0,0,1.65,1.75c.16.11.58-.13.37-.29A10.35,10.35,0,0,1,53.13,109.14Z"/><path class="cls-1" d="M55.72,110.07a1.41,1.41,0,0,1-.19-.14,4.1,4.1,0,0,1-.46-.48c-.36-.42-.68-.87-1-1.32-.09-.12-.5.1-.47.14a11.75,11.75,0,0,0,1.49,1.84c.29.26.88.38,1.06-.11C56.18,109.92,55.82,110,55.72,110.07Z"/><path class="cls-1" d="M55.44,107.55c-.12-.21-.56,0-.43.24.29.52.82,1.3,1.41,1.4.24,0,.47-.35.16-.4S55.67,108,55.44,107.55Z"/><path class="cls-1" d="M16.68,39.77a9.54,9.54,0,0,0,2.71,3.46c.11.1.54-.1.44-.2a9.38,9.38,0,0,1-2.69-3.41C17.08,39.47,16.63,39.65,16.68,39.77Z"/><path class="cls-1" d="M24.78,41.89a7.33,7.33,0,0,0,1.48,2.4c.09.11.53-.09.44-.19a7.16,7.16,0,0,1-1.45-2.35C25.2,41.6,24.74,41.76,24.78,41.89Z"/><path class="cls-1" d="M28,44.67a.29.29,0,0,0,.26-.19c0-.05,0-.14,0-.19s-.14-.2-.3-.14c-.13-.28-.39-.77-.43-.82-.23-.39-.46-.77-.67-1.18-.09-.17-.54,0-.43.22.26.52.57,1,.86,1.51C27.55,44.19,27.66,44.69,28,44.67Z"/><path class="cls-1" d="M29.33,43.56c-.33-.48-.63-1-1-1.41-.1-.12-.54.07-.44.2.37.44.67.93,1,1.41C29,43.89,29.43,43.71,29.33,43.56Z"/><path class="cls-1" d="M33.43,33.61c.52,1.2.94,2.46,1.54,3.61.07.13.5-.08.47-.14-.6-1.15-1-2.41-1.54-3.61C33.84,33.34,33.39,33.53,33.43,33.61Z"/><path class="cls-1" d="M34,32.11c.47,1.11.73,2.34,1.23,3.43.08.17.53,0,.47-.14-.51-1.09-.76-2.32-1.24-3.43C34.36,31.8,33.91,32,34,32.11Z"/><path class="cls-1" d="M34.43,28.15a48.88,48.88,0,0,1,1.7,5.55s0,0,.05.06c-.13,0-.29.09-.29.21a23.19,23.19,0,0,1-1.16,6.92c-.05.17.42.1.47-.07a23.41,23.41,0,0,0,1.16-7s0,0,0,0,.29-.11.26-.23A48.31,48.31,0,0,0,34.9,28C34.83,27.8,34.37,28,34.43,28.15Z"/><path class="cls-1" d="M24.88,21.32c.77,1,1.62,1.85,2.39,2.82.11.14.56-.06.43-.21-.77-1-1.62-1.85-2.39-2.82C25.2,21,24.75,21.16,24.88,21.32Z"/><path class="cls-1" d="M25.34,19.75c.44.57.85,1.16,1.28,1.72a3.91,3.91,0,0,0,1.19,1.16c.2.1.54-.23.27-.36A4.19,4.19,0,0,1,26.88,21c-.38-.49-.73-1-1.11-1.49C25.63,19.32,25.18,19.54,25.34,19.75Z"/><path class="cls-1" d="M25.8,18.49a8,8,0,0,0,2.35,2.4c.12.06.55-.15.38-.23a7.93,7.93,0,0,1-2.29-2.36C26.15,18.18,25.7,18.37,25.8,18.49Z"/><path class="cls-1" d="M26.11,16.46c.9,1.1,1.9,2.1,2.77,3.24.05.07.19,0,.25,0l.05,0s.27-.09.2-.16l-.12-.14s-.05,0-.1,0c-.83-1.06-1.76-2-2.61-3.06C26.47,16.19,26,16.38,26.11,16.46Z"/><path class="cls-1" d="M26.65,15.24c.68.62,1.05,1.55,1.7,2.2.11.11.55-.09.44-.2-.64-.65-1-1.58-1.7-2.2C27,14.93,26.54,15.14,26.65,15.24Z"/><path class="cls-1" d="M29.72,17.41c.09.23.55.08.47-.14-.53-1.38-1.69-2.16-2.49-3.3-.13-.18-.58,0-.43.23C28,15.3,29.21,16.08,29.72,17.41Z"/><path class="cls-1" d="M14.65,11.67a28.49,28.49,0,0,1,3,3.14c.13.16.58,0,.43-.22a29.38,29.38,0,0,0-3-3.2C14.87,11.25,14.45,11.49,14.65,11.67Z"/><path class="cls-1" d="M15,9.75c1.12,1.8,3,2.64,4.17,4.4.09.13.5-.09.47-.14-1.15-1.77-3-2.6-4.17-4.4C15.37,9.48,14.95,9.69,15,9.75Z"/><path class="cls-1" d="M22.73,11.11c-1-.75-1.92-1.5-2.86-2.29-.18-.15-.58.13-.36.32.93.79,1.9,1.53,2.86,2.29C22.55,11.57,23,11.28,22.73,11.11Z"/><path class="cls-1" d="M6.8,2.75A13,13,0,0,0,7,5.61c.05.25.52.11.47-.14A12.57,12.57,0,0,1,7.27,2.7C7.27,2.42,6.8,2.5,6.8,2.75Z"/><path class="cls-1" d="M8.11,5.83a.38.38,0,0,1,0,0c0,.22.47.11.47-.09a.45.45,0,0,1,.06-.3c.06-.1,0-.15-.08-.17,0-1-.06-1.91-.06-2.87,0-.27-.47-.18-.47,0,0,1.11,0,2.23.08,3.34Z"/><path class="cls-1" d="M9.19,4.16c0,.73.07,1.47.08,2.2,0,.26.47.16.47-.05,0-.73-.07-1.47-.08-2.2C9.66,3.85,9.19,3.95,9.19,4.16Z"/><path class="cls-1" d="M10.59,7.71a19.92,19.92,0,0,0,0-2.94c0-.16-.48,0-.47.14a19.5,19.5,0,0,1,0,2.87C10.11,8,10.57,7.87,10.59,7.71Z"/><path class="cls-1" d="M11.59,8.34a18.94,18.94,0,0,0,.16-3.52c0-.26-.47-.17-.47,0a19.1,19.1,0,0,1-.15,3.52C11.08,8.63,11.55,8.55,11.59,8.34Z"/><path class="cls-1" d="M12.44,9.07a.33.33,0,0,0,.32-.19,5.07,5.07,0,0,0,.13-1.05C13,7,13,6.11,13,5.25c0-.23-.47-.11-.47.06,0,.84,0,1.67-.08,2.51a5.46,5.46,0,0,1-.11,1s0,.05,0,.08a.51.51,0,0,0,0,.11c0,.07.1.08.14.08Z"/><path class="cls-1" d="M13.75,9.08c0-.91.15-1.82.16-2.73,0-.07-.47,0-.47.14,0,.91-.14,1.82-.16,2.73C13.28,9.29,13.75,9.22,13.75,9.08Z"/><path class="cls-1" d="M14.91,6.11c0,.64-.1,1.27-.17,1.91a4.93,4.93,0,0,1-.43,1.93c-.11.18.35.11.43,0a4.2,4.2,0,0,0,.42-1.61c.11-.76.16-1.53.22-2.3C15.39,5.84,14.92,6,14.91,6.11Z"/><path class="cls-1" d="M15.6,9.61c0,.14.31,0,.38,0a.41.41,0,0,0,.09-.14h0a3.41,3.41,0,0,0,.18-1,8.56,8.56,0,0,0,.13-1.84c0-.16-.48,0-.47.14a8.19,8.19,0,0,1-.11,1.65c0,.25-.07.5-.11.74,0,.1,0,.19-.05.29s0,.11,0,.08,0,0,0,.05A.06.06,0,0,0,15.6,9.61Z"/><path class="cls-1" d="M17,7.85c-.13.43-.25.86-.36,1.29a3.64,3.64,0,0,0-.24,1.27c0,.2.36.11.43,0s.06-.15.1-.18l.06-.06a20.21,20.21,0,0,0,3.58,3c.13.08.52-.14.44-.19a16.73,16.73,0,0,1-3-2.47s.05,0,.06-.06c.1-.26.18-.52.27-.79a10.94,10.94,0,0,0,3.1,2c.12,0,.54-.16.38-.22a11,11,0,0,1-3.36-2.27,7.12,7.12,0,0,0,.16-.73c0-.24-.44-.15-.47.06s0,.2-.06.29c-.24-.25-.48-.5-.7-.76l.08-.29C17.53,7.58,17,7.64,17,7.85Zm1,1.53c-.08.29-.17.58-.28.87l-.32-.32c-.07-.07-.29,0-.4.09a.22.22,0,0,0-.11-.06c0-.3.18-.65.24-.87s.09-.33.14-.49C17.47,8.87,17.71,9.14,18,9.38Z"/><path class="cls-1" d="M35.49,41.08c-.11-.22-.55,0-.43.24.57,1.2,1.5,2.09,2.07,3.28.19.39.49,1.41,1,1.08.28-.17,0-.48-.21-.34C38.24,45.17,35.66,41.43,35.49,41.08Z"/><path class="cls-1" d="M39,44.7A35.88,35.88,0,0,1,36.13,39c-.08-.2-.54,0-.47.14a36.3,36.3,0,0,0,2.87,5.76C38.64,45.08,39.09,44.89,39,44.7Z"/><path class="cls-1" d="M37.6,33.82c-.06-.19-.52,0-.47.14q.42,1.32.9,2.62a7.27,7.27,0,0,0,.89,1.91c.11.14.56-.05.44-.21a7.81,7.81,0,0,1-.94-2.06C38.12,35.43,37.85,34.63,37.6,33.82Z"/><path class="cls-1" d="M36.37,29c-.15-.54-.31-1.09-.47-1.63a38.9,38.9,0,0,0-.23-4.47c0-.14-.49,0-.47.14a35,35,0,0,1,.22,3.73c-.1,0-.18.13-.14.24l.15.5c0,.27,0,.54,0,.82,0,.07.13.07.25,0a28.59,28.59,0,0,1,.76,3.08,1.18,1.18,0,0,0,.08.4c.08.25.51.12.47-.14a21.93,21.93,0,0,0-.56-2.53q1,2.2,1.94,4.43c.07.18.53,0,.47-.14-.45-1.1-.94-2.18-1.43-3.26.1,0,.19-.1.19-.18s0-.25,0-.38a19.43,19.43,0,0,1,.69,1.85c.07.26.54.11.47-.14a18.94,18.94,0,0,0-.69-1.85c-.09-.25-.54-.1-.47.13,0-.75,0-1.5-.07-2.25,0,0,0-.06-.08-.06s-.4.07-.39.21,0,.34,0,.51l-.17-.61c0-.57,0-1.14-.07-1.71,0-.09-.48,0-.47.14s0,.24,0,.36c-.14,0-.29.11-.25.26.11.36.2.73.3,1.1s0,.5,0,.75c0,0,.1,0,.21,0l.15.52C36.67,28.77,36.38,28.87,36.37,29Z"/><path class="cls-1" d="M32.27,19.44c.21,2,1,3.79,1.08,5.81,0,.16.47.05.47-.14-.05-2-.87-3.83-1.08-5.81C32.72,19.13,32.25,19.25,32.27,19.44Z"/><path class="cls-1" d="M34.74,21.41c0-.18-.49-.06-.47.14.12.92.26,1.84.34,2.76a15.65,15.65,0,0,1,.09,2c-.14,0-.26.14-.18.22l.07.07c.1.1.26,0,.36,0,.33-.2.17-1,.17-1.37A32.94,32.94,0,0,0,34.74,21.41Z"/><path class="cls-1" d="M85.21,106.42q.57,1.49,1.27,2.91c.08.16.52,0,.47-.14q-.7-1.41-1.27-2.91C85.61,106.12,85.16,106.29,85.21,106.42Z"/><path class="cls-1" d="M86.71,105.76c.43.9.68,1.91,1.16,2.77.07.13.51-.07.47-.14-.48-.87-.72-1.87-1.16-2.77C87.12,105.48,86.67,105.68,86.71,105.76Z"/><path class="cls-1" d="M90.42,106.69c.32,1,.58,2,.81,3,0,.18.51,0,.47-.14-.23-1-.49-2-.81-3C90.82,106.36,90.36,106.51,90.42,106.69Z"/><path class="cls-1" d="M92.51,106.28c-.09-.21-.55,0-.47.14a11.82,11.82,0,0,0,1.06,2.68c.12.16.57,0,.43-.22A11.67,11.67,0,0,1,92.51,106.28Z"/><path class="cls-1" d="M97.48,110.77a22.43,22.43,0,0,0-.93-2.91c-.06-.17-.52,0-.47.14a22.53,22.53,0,0,1,.93,2.91C97.05,111.08,97.52,110.93,97.48,110.77Z"/><path class="cls-1" d="M84.42,102.89a15.59,15.59,0,0,1,2.07,3.79c.07.2.53,0,.47-.14a15.84,15.84,0,0,0-2.1-3.87C84.74,102.52,84.29,102.71,84.42,102.89Z"/><path class="cls-1" d="M85.79,102.46a26.15,26.15,0,0,0,2.1,4.27c.12.18.57,0,.43-.23a25.73,25.73,0,0,1-2.06-4.18C86.17,102.09,85.7,102.25,85.79,102.46Z"/><path class="cls-1" d="M89.5,106c-.49-1.24-1-2.46-1.5-3.7-.07-.18-.53,0-.47.14.43,1.09.89,2.17,1.32,3.25-.14-.05-.45.08-.4.18a14.05,14.05,0,0,1,1.16,3c0,.16.5,0,.47-.14a13,13,0,0,0-.93-2.55C89.3,106.25,89.54,106.13,89.5,106Z"/><path class="cls-1" d="M89.61,102.85a16.68,16.68,0,0,0,1.29,3.46c.08.13.53,0,.44-.2a16.52,16.52,0,0,1-1.26-3.41C90,102.55,89.56,102.71,89.61,102.85Z"/><path class="cls-1" d="M91.11,102.46a14,14,0,0,0,1.29,3.46c.08.14.53,0,.44-.21a13.73,13.73,0,0,1-1.26-3.4C91.54,102.14,91.07,102.28,91.11,102.46Z"/><path class="cls-1" d="M94.36,106.28c-.33-1.13-.63-2.27-.89-3.42.1,0,.2-.09.2-.15v-.53s0,0-.08,0c-.13-1.05-.3-2.1-.5-3.14,0-.11-.49,0-.47.14.22,1.15.42,2.31.55,3.48-.12,0-.22.12-.2.22.27,1.2.59,2.39.93,3.57C93.95,106.61,94.41,106.46,94.36,106.28Z"/><path class="cls-1" d="M77.22,106.9a8.12,8.12,0,0,0,.6,3.4c.11.23.55,0,.43-.24a7.7,7.7,0,0,1-.55-3.2C77.69,106.57,77.21,106.64,77.22,106.9Z"/><path class="cls-1" d="M79.19,107.74a4.15,4.15,0,0,0,.48,2.15c.11.14.56,0,.43-.21a4.12,4.12,0,0,1-.45-2.08C79.65,107.42,79.18,107.53,79.19,107.74Z"/><path class="cls-1" d="M80.92,107.29a5.63,5.63,0,0,0,.47,2c.1.24.56.08.47-.14a5.39,5.39,0,0,1-.46-1.93C81.39,107,80.91,107,80.92,107.29Z"/><path class="cls-1" d="M82.78,107.86c-.05-.22-.52-.08-.47.14a5.47,5.47,0,0,0,.6,1.76c.12.17.57,0,.43-.22A5.29,5.29,0,0,1,82.78,107.86Z"/><path class="cls-1" d="M83.59,108a10.24,10.24,0,0,1,.46,1.72c.06.26.52.12.47-.14a9.94,9.94,0,0,0-.46-1.72C84,107.62,83.49,107.77,83.59,108Z"/><path class="cls-1" d="M82.61,107.11a4.1,4.1,0,0,1-1.1-1.43,16.52,16.52,0,0,1-1-2.18c-.1-.25-.56-.09-.47.14a19.87,19.87,0,0,0,1,2.11,4.56,4.56,0,0,0,1.27,1.68C82.44,107.56,82.85,107.27,82.61,107.11Z"/><path class="cls-1" d="M83.71,107.33c0-.18-.1-.34-.12-.53s-.1-.11-.19-.1c-.32-.65-.6-1.33-.85-2-.08-.22-.54-.06-.47.14a18.69,18.69,0,0,0,1.18,2.68C83.36,107.69,83.74,107.55,83.71,107.33Z"/><path class="cls-1" d="M84.73,106.37a3.63,3.63,0,0,1-.79-1.42c-.05-.21-.52-.06-.47.14a3.79,3.79,0,0,0,.82,1.48c-.08,0-.14.08-.12.11a13.23,13.23,0,0,1,1.16,2.91c0,.11.49,0,.47-.14a13.13,13.13,0,0,0-1.14-2.88C84.73,106.52,84.79,106.44,84.73,106.37Z"/><path class="cls-1" d="M81.62,98a9.57,9.57,0,0,0,.94,1.89c.11.17.56,0,.43-.22a9.25,9.25,0,0,1-.91-1.81C82,97.62,81.55,97.78,81.62,98Z"/><path class="cls-1" d="M83.34,98.31c-.13-.21-.58,0-.43.24a7.83,7.83,0,0,0,1.19,1.76c.18.15.58-.13.36-.32A7.53,7.53,0,0,1,83.34,98.31Z"/><path class="cls-1" d="M84.73,98.19c-.08-.15-.54,0-.43.21a6.79,6.79,0,0,0,1.27,2c.13.11.56-.1.44-.21A6.8,6.8,0,0,1,84.73,98.19Z"/><path class="cls-1" d="M87.53,100.73a21.47,21.47,0,0,0-.93-2.38c-.08-.19-.54,0-.47.14a21.49,21.49,0,0,1,.93,2.38C87.12,101.06,87.58,100.91,87.53,100.73Z"/><path class="cls-1" d="M89,101a26.25,26.25,0,0,0-.93-2.64c-.06-.16-.52,0-.47.14a26.33,26.33,0,0,1,.93,2.64C88.61,101.29,89.07,101.15,89,101Z"/><path class="cls-1" d="M89.61,97.69c0-.13-.51,0-.47.14.23.62.41,1.26.59,1.9a7.33,7.33,0,0,1,.33,1.4c0,.1.48,0,.47-.14a7.29,7.29,0,0,0-.33-1.4C90,99,89.84,98.31,89.61,97.69Z"/><path class="cls-1" d="M92.2,101.47a15.9,15.9,0,0,0-.86-3.38c-.06-.17-.52,0-.47.14a13.7,13.7,0,0,1,.93,4.23c0,.15.47,0,.47-.14a1.67,1.67,0,0,1,.11-.76C92.41,101.48,92.32,101.46,92.2,101.47Z"/><path class="cls-1" d="M94.7,107.18c.07-.27.12-.54.18-.81,0,.15,0,.29.06.45s.5.13.47-.14a13.06,13.06,0,0,0-.26-1.54c0-.2.08-.4.13-.6s-.19-.29-.35-.2a10.21,10.21,0,0,0-.36-1s0,0-.06,0a17.22,17.22,0,0,0,0-2.68c0-.11-.48,0-.47.14a18,18,0,0,1,0,3.43c0,.06.21,0,.35,0a10.17,10.17,0,0,1,.3,1c-.14.64-.26,1.28-.42,1.91C94.17,107.41,94.64,107.42,94.7,107.18Z"/><path class="cls-1" d="M95.8,109.87a1.32,1.32,0,0,0,.06-.37c0-.17-.18-.18-.32-.12-.09-.28-.19-.55-.28-.83.2-.5.38-1,.59-1.51.11-.26-.36-.24-.44,0s-.23.59-.35.89l-.12-.41c-.07-.23-.53-.08-.47.14s.2.67.3,1a7.88,7.88,0,0,1-.41.88c-.13.24.34.23.44,0s.11-.22.16-.33c.1.3.2.6.31.9a.19.19,0,0,0,.24.1,6.17,6.17,0,0,0-.59,2.27c0,.06.47,0,.47-.14a6.54,6.54,0,0,1,.69-2.49S95.94,109.83,95.8,109.87Z"/><path class="cls-1" d="M97.65,111.64c-.12,0-.39,0-.4.17l-.12.79c0,.2.44.09.47-.07l.12-.79A.08.08,0,0,0,97.65,111.64Z"/><path class="cls-1" d="M22.92,105.29c-.13-.08-.53.14-.44.19.78.5.95,1.59,1.62,2.2.11.1.53-.11.44-.19C23.87,106.88,23.71,105.79,22.92,105.29Z"/><path class="cls-1" d="M24,105.32c.36.69.82,1.32,1.16,2,.1.21.55,0,.43-.24-.33-.71-.8-1.33-1.16-2C24.35,104.88,23.91,105.08,24,105.32Z"/><path class="cls-1" d="M25.25,105.1a20.51,20.51,0,0,1,1.23,2.29c.06.13.5-.07.47-.14A20.39,20.39,0,0,0,25.71,105C25.64,104.83,25.21,105,25.25,105.1Z"/><path class="cls-1" d="M26.48,104.84a19.46,19.46,0,0,1,1.08,2.64c.06.21.52.06.47-.14a19.49,19.49,0,0,0-1.08-2.64C26.86,104.5,26.4,104.66,26.48,104.84Z"/><path class="cls-1" d="M27.87,104.75a9.54,9.54,0,0,1,.69,2.77c0,.26.47.16.47-.05a9.84,9.84,0,0,0-.7-2.86C28.27,104.39,27.8,104.54,27.87,104.75Z"/><path class="cls-1" d="M29.1,104.57c.23.68.47,1.35.69,2,.06.17.52,0,.47-.14-.23-.68-.47-1.35-.7-2C29.52,104.26,29.05,104.42,29.1,104.57Z"/><path class="cls-1" d="M30.73,104.57c.07.32.16.64.23,1s.52.09.47-.14-.16-.64-.23-1S30.67,104.34,30.73,104.57Z"/><path class="cls-1" d="M33.74,104.66a21.78,21.78,0,0,1,1,3.08c0,.11.49,0,.47-.14a21.65,21.65,0,0,0-1-3.08C34.15,104.4,33.7,104.59,33.74,104.66Z"/><path class="cls-1" d="M35,105.63a20.72,20.72,0,0,1,.54,2.29c0,.11.49,0,.47-.14a20.72,20.72,0,0,0-.54-2.29C35.48,105.37,35,105.53,35,105.63Z"/><path class="cls-1" d="M36.2,104.57a23.14,23.14,0,0,1,.54,3.73c0,.29.48.21.47,0a23.73,23.73,0,0,0-.54-3.84C36.63,104.17,36.16,104.31,36.2,104.57Z"/><path class="cls-1" d="M37.44,104.75c.22,1.09.08,2.28.38,3.35.06.21.53.06.47-.14-.31-1.07-.17-2.25-.39-3.35C37.87,104.4,37.4,104.53,37.44,104.75Z"/><path class="cls-1" d="M38.75,105.72c.08,1.07.22,2.14.23,3.21,0,.25.47.14.47-.06,0-1.11-.15-2.2-.23-3.3C39.2,105.37,38.73,105.49,38.75,105.72Z"/><path class="cls-1" d="M40.06,106.42a12.5,12.5,0,0,0,.39,2.82c.07.21.53,0,.47-.14a12.48,12.48,0,0,1-.39-2.82C40.51,106.08,40,106.2,40.06,106.42Z"/><path class="cls-1" d="M42.27,109.6c0-.22,0-.46,0-.68-.16-.77-.09-1.6-.23-2.38,0-.13-.49,0-.47.14a21.42,21.42,0,0,1,.21,2.14,5.2,5.2,0,0,0,.1,1.09c0,.05.1,0,.13,0a.38.38,0,0,0,.33-.19h0a.42.42,0,0,0,.08-.12S42.34,109.6,42.27,109.6Z"/><path class="cls-1" d="M43.3,108.09c.08.56.22,1.11.31,1.67,0,.12.49,0,.47-.14-.09-.56-.23-1.11-.31-1.67C43.75,107.83,43.28,107.95,43.3,108.09Z"/><path class="cls-1" d="M34.58,100.26a6.35,6.35,0,0,0,.62,2.38c.06.14.51,0,.47-.14a6.33,6.33,0,0,1-.62-2.38C35,100,34.58,100.1,34.58,100.26Z"/><path class="cls-1" d="M35.59,100.7c.17.47.26,1,.4,1.46.07.26.15.63.43.62s.51-.26.2-.24a17.27,17.27,0,0,1-.56-2C36,100.41,35.54,100.58,35.59,100.7Z"/><path class="cls-1" d="M37.52,102.84c-.32-.92-.38-2-.62-2.91,0-.12-.5,0-.47.14.24,1,.3,2,.62,2.91C37.1,103.11,37.56,102.94,37.52,102.84Z"/><path class="cls-1" d="M17.53,94.89A7.47,7.47,0,0,0,18,98.06c.06.14.51,0,.47-.14A7.46,7.46,0,0,1,18,94.74C18,94.66,17.54,94.73,17.53,94.89Z"/><path class="cls-1" d="M11.82,98.41a17.77,17.77,0,0,1,1.39,3.79c0,.21.51.08.47-.14a17.75,17.75,0,0,0-1.39-3.79C12.19,98.06,11.74,98.23,11.82,98.41Z"/><path class="cls-1" d="M13.59,98.5c.42,1.42,1,2.84,1.24,4.31,0,.12.49,0,.47-.14-.28-1.47-.81-2.89-1.24-4.31C14,98.22,13.56,98.38,13.59,98.5Z"/><path class="cls-1" d="M16.28,102.47c-.09-.08-.13-.36-.16-.47-.11-.38-.22-.76-.32-1.14-.18-.68-.37-1.37-.51-2.07,0-.11-.49,0-.47.14.15.75.35,1.49.55,2.23.1.35.2,1.24.46,1.49C15.94,102.74,16.35,102.54,16.28,102.47Z"/><path class="cls-1" d="M71.58,45.8c.28-.17-.14-.23-.29-.14a13.12,13.12,0,0,1-3.87,2c-.21,0-.39.35-.07.28A14.07,14.07,0,0,0,71.58,45.8Z"/><path class="cls-1" d="M72,46.49c-1.14.65-2.29,1.3-3.47,1.85-.3.14,0,.44.21.33,1.18-.55,2.33-1.2,3.47-1.85C72.52,46.66,72.26,46.36,72,46.49Z"/><path class="cls-1" d="M69.74,49.46a8.19,8.19,0,0,0,4.17-1.78c.24-.23-.14-.36-.3-.21a7.71,7.71,0,0,1-3.94,1.66C69.37,49.2,69.45,49.52,69.74,49.46Z"/><path class="cls-1" d="M75.79,48.27c.21-.18-.26-.16-.37-.06a5.24,5.24,0,0,1-3.31,1.35c-.16,0-.5.28-.19.28A6.14,6.14,0,0,0,75.79,48.27Z"/><path class="cls-1" d="M77.63,49.18c.2-.15-.27-.1-.36,0-1,.77-2.28,1.8-3.56,1.49-.12,0-.53.18-.38.22C74.89,51.24,76.39,50.12,77.63,49.18Z"/><path class="cls-1" d="M75.75,52.34a20.66,20.66,0,0,0,3.77-1.74c.29-.16,0-.33-.18-.22a20,20,0,0,1-3.64,1.69C75.41,52.16,75.47,52.43,75.75,52.34Z"/><path class="cls-1" d="M78.25,52.61a18.84,18.84,0,0,0,2.66-1.45c.28-.18,0-.43-.2-.28A18.79,18.79,0,0,1,78,52.33C77.75,52.46,78,52.71,78.25,52.61Z"/><path class="cls-1" d="M80.53,52.47c.57-.38,1.17-.68,1.74-1.06.2-.13-.28-.06-.36,0-.57.38-1.17.68-1.74,1.06C80,52.59,80.45,52.53,80.53,52.47Z"/><path class="cls-1" d="M70.32,42.1c-.19.25.26.31.39.14.72-.94,1.48-1.83,2.2-2.77.19-.25-.26-.31-.39-.14C71.8,40.27,71,41.15,70.32,42.1Z"/><path class="cls-1" d="M74.2,40.31c.11-.15-.35-.08-.43,0A10.32,10.32,0,0,1,70.83,43c-.27.18.16.17.28.09A10.82,10.82,0,0,0,74.2,40.31Z"/><path class="cls-1" d="M72.11,43.9a7.4,7.4,0,0,0,2.52-2.32c.18-.27-.27-.32-.39-.14a6.86,6.86,0,0,1-2.34,2.17C71.63,43.77,71.89,44,72.11,43.9Z"/><path class="cls-1" d="M70.14,43.47a25.14,25.14,0,0,0,2.8-3.2c0-.06-.38,0-.46.09a21.58,21.58,0,0,1-2.6,3c-.27-.16-.54-.3-.81-.47s-.52.14-.44.19a32.13,32.13,0,0,0,18.63,5,.24.24,0,0,0,.28,0l0,0c.52,0,1,0,1.55-.07.13,0,.49-.25.21-.24A3.53,3.53,0,0,0,90.85,45c0-.28-.47-.2-.47,0a3.18,3.18,0,0,1-1.06,2.29,1.26,1.26,0,0,1-.09-.18c-.09-.24-.55-.09-.47.14a1.1,1.1,0,0,0,.29.52h0c-.38,0-.76,0-1.14,0a6.1,6.1,0,0,0,1.7-3.32c0-.21-.43-.13-.47.06-.24,1.14-.82,2.71-1.79,3.28a31.69,31.69,0,0,1-17.23-4.38Z"/><path class="cls-1" d="M72.71,38.67c.24.4.43.87.89.65.2-.09.14-.15,0-.16s-.34-.43-.46-.63S72.66,38.6,72.71,38.67Z"/><path class="cls-1" d="M73.85,37.82c-.12-.21-.57,0-.43.24.28.47.54.84,1.07.73a.2.2,0,1,0-.09-.39C74.17,38.46,73.95,38,73.85,37.82Z"/><path class="cls-1" d="M74.91,36.42c-.09-.19-.54,0-.47.14a2.46,2.46,0,0,0,1,1.25c.14.07.57-.16.37-.26A2.24,2.24,0,0,1,74.91,36.42Z"/><path class="cls-1" d="M76.64,36.52a1.87,1.87,0,0,0,.13-.71c0-.27-.47-.18-.47,0,0,0,0,0,0,0a4.74,4.74,0,0,1-.24-.44c-.09-.2-.54,0-.43.23a4.38,4.38,0,0,0,.58.92A.28.28,0,0,0,76.64,36.52Z"/><path class="cls-1" d="M77.8,33.52a4.65,4.65,0,0,1-.14.89,1.36,1.36,0,0,1-.32-.38c-.09-.16-.53,0-.47.14a2,2,0,0,0,.74.71.36.36,0,0,0,.42-.16,5.67,5.67,0,0,0,.23-1.35C78.27,33.25,77.81,33.34,77.8,33.52Z"/><path class="cls-1" d="M60.57,38.75a15.5,15.5,0,0,1-2.28,2.61c-.19.16.27.09.36,0A15.78,15.78,0,0,0,61,38.72C61.1,38.58,60.65,38.65,60.57,38.75Z"/><path class="cls-1" d="M60.71,37.22C59.85,38.18,58.85,39,58,40c-.19.24.26.27.38.12.81-1,1.8-1.81,2.66-2.77C61.3,37.11,60.84,37.08,60.71,37.22Z"/><path class="cls-1" d="M60.26,35.55A8.44,8.44,0,0,0,58,38.38c0,.1.4.06.46-.09a8.06,8.06,0,0,1,2.15-2.71C60.82,35.41,60.35,35.47,60.26,35.55Z"/><path class="cls-1" d="M58.34,36.51c.47-1.13,1.46-1.7,2.17-2.6.19-.24-.26-.27-.38-.12-.73.93-1.74,1.52-2.23,2.68C57.8,36.72,58.27,36.69,58.34,36.51Z"/><path class="cls-1" d="M58.94,34.48a5,5,0,0,1,1.58-2.56c.21-.2-.25-.24-.38-.11a5.32,5.32,0,0,0-1.66,2.73C58.42,34.76,58.89,34.68,58.94,34.48Z"/><path class="cls-1" d="M58.37,30.88c-.27,0-.36.39,0,.39S58.69,30.88,58.37,30.88Z"/><path class="cls-1" d="M66.21,22.45A5.4,5.4,0,0,0,64,25.18c0,.09.41,0,.46-.09a5.06,5.06,0,0,1,2-2.56C66.75,22.36,66.32,22.38,66.21,22.45Z"/><path class="cls-1" d="M67.42,23.21a14.53,14.53,0,0,0-3,5.2c-.09.28.38.25.44,0a14.29,14.29,0,0,1,3-5.1C68,23.12,67.56,23.06,67.42,23.21Z"/><path class="cls-1" d="M67.86,25.25c-1,1.7-2.2,3.32-3.24,5-.14.22.34.2.44,0,1-1.7,2.2-3.32,3.24-5C68.43,25.06,68,25.08,67.86,25.25Z"/><path class="cls-1" d="M68.46,26.63a15.06,15.06,0,0,0-3,5.46c-.08.3.39.3.45.07a14.78,14.78,0,0,1,3-5.37C69.05,26.55,68.6,26.45,68.46,26.63Z"/><path class="cls-1" d="M68.56,28.84c-.85,1.52-1.73,3-2.66,4.49-.11.17.35.1.43,0,.93-1.46,1.81-3,2.66-4.49C69.09,28.64,68.63,28.71,68.56,28.84Z"/><path class="cls-1" d="M67.12,35.24c1.11-1.45,1.84-3.23,3-4.62.2-.24-.25-.32-.39-.15-1.17,1.39-1.9,3.17-3,4.62C66.53,35.35,67,35.42,67.12,35.24Z"/><path class="cls-1" d="M78,26.87c.71-1.44,1.6-2.75,2.43-4.09.14-.23-.34-.23-.44,0-.83,1.35-1.72,2.65-2.43,4.09C77.46,27.08,77.93,27.07,78,26.87Z"/><path class="cls-1" d="M77.56,24.61a34.73,34.73,0,0,1,2.2-3.43c.13-.18-.34-.14-.44,0a34.78,34.78,0,0,0-2.2,3.43C77,24.8,77.47,24.75,77.56,24.61Z"/><path class="cls-1" d="M77.22,23.64a9.53,9.53,0,0,1,2.18-3.8c.12-.14-.34-.1-.43,0a9.73,9.73,0,0,0-2.22,3.86C76.72,23.88,77.18,23.8,77.22,23.64Z"/><path class="cls-1" d="M76.63,21.19a10.62,10.62,0,0,1,2.94-4.41c.26-.21-.13-.32-.3-.19a11,11,0,0,0-3.08,4.57C76.09,21.41,76.56,21.37,76.63,21.19Z"/><path class="cls-1" d="M76.07,19.81c.4-1.83,1.8-2.85,3-4,.19-.2-.27-.15-.37-.06C77.46,16.94,76,18,75.6,19.89,75.57,20.05,76,20,76.07,19.81Z"/><path class="cls-1" d="M76.07,17.7a8.48,8.48,0,0,1,2.85-3.23c.21-.17-.26-.14-.37-.06a8.81,8.81,0,0,0-2.94,3.37C75.55,17.9,76,17.85,76.07,17.7Z"/><path class="cls-1" d="M79.67,13.24a25.37,25.37,0,0,0-4.22,2.67c-.26.21.13.34.3.2a24.79,24.79,0,0,1,4.11-2.61C80.16,13.36,79.9,13.13,79.67,13.24Z"/><path class="cls-1" d="M84.59,28.49c-.15.39-.53,1.51-.94,1.62s-.23.24,0,.17c.51-.13.79-.66,1-1.15a12.15,12.15,0,0,0,.87-2.33c0-.11-.43,0-.46.09A14.76,14.76,0,0,1,84.59,28.49Z"/><path class="cls-1" d="M96.32,28.11c-.08.91-.22,1.81-.23,2.73,0,.24.39.11.45,0s.21-.35.31-.53-.1-.18-.25-.13c0-.7.13-1.4.19-2.11C96.81,27.82,96.34,27.92,96.32,28.11Z"/><path class="cls-1" d="M96.73,29.93a1.57,1.57,0,0,0,.52.19.29.29,0,0,0,.31-.16,10.79,10.79,0,0,0,.32-1.46c0-.26-.43-.2-.47,0s-.13.74-.23,1.1a1.07,1.07,0,0,1-.17-.07C96.81,29.47,96.46,29.79,96.73,29.93Z"/><path class="cls-1" d="M90.32,16.71a18.92,18.92,0,0,0-2.39,3.79c-.1.24.37.19.44,0a19,19,0,0,1,2.39-3.79C90.89,16.55,90.42,16.57,90.32,16.71Z"/><path class="cls-1" d="M90.85,17.13c-.22.51-.42,1-.64,1.55a5.08,5.08,0,0,1-.76,1.52c-.23.24.13.46.32.27a4.3,4.3,0,0,0,.7-1.26c.29-.66.54-1.34.83-2C91.42,16.92,90.95,16.9,90.85,17.13Z"/><path class="cls-1" d="M91.23,19.95c.42-1.43,1.19-2.68,1.54-4.14,0-.19-.42-.11-.47.07C92,17.33,91.18,18.59,90.76,20,90.71,20.2,91.18,20.13,91.23,19.95Z"/><path class="cls-1" d="M93.77,15.52a8,8,0,0,1-.33,1.92A5.73,5.73,0,0,0,93,19.25c0,.2.4,0,.45-.06a.88.88,0,0,0,.09-.3.09.09,0,0,0,0-.1,10.49,10.49,0,0,1,.41-1.41,7.77,7.77,0,0,0,.33-1.92C94.25,15.23,93.78,15.34,93.77,15.52Z"/><path class="cls-1" d="M94.71,18.73c0-.91.28-1.82.39-2.73,0-.27-.45-.19-.47,0-.1.9-.35,1.82-.39,2.73C94.22,19,94.7,19,94.71,18.73Z"/><path class="cls-1" d="M95.47,16.64c.21,0,.49-.36.17-.36S95.15,16.64,95.47,16.64Z"/><path class="cls-1" d="M83.68,40.48a9.78,9.78,0,0,1-2.59,3.65c-.21.21.25.25.38.12a10,10,0,0,0,2.65-3.74C84.21,40.25,83.74,40.29,83.68,40.48Z"/><path class="cls-1" d="M84.37,41.43A7.85,7.85,0,0,1,81.63,45c-.29.15,0,.43.21.31a5.79,5.79,0,0,0,1.94-1.94c-.11.2-.2.41-.32.6-.28.47-.7,1.22-1.22,1.37-.29.09-.21.42.08.33,1.15-.35,1.9-2.14,2.42-3.23.09-.19-.16-.23-.32-.15.15-.28.28-.55.4-.81S84.46,41.23,84.37,41.43Z"/><path class="cls-1" d="M84.83,43.36a4.35,4.35,0,0,1-1.49,2.41c-.2.12.27.06.36,0a4.48,4.48,0,0,0,1.59-2.52C85.31,43.17,84.86,43.23,84.83,43.36Z"/><path class="cls-1" d="M86,43.26a6,6,0,0,1-2.19,3.18c-.22.19.25.21.38.1a6.25,6.25,0,0,0,2.28-3.34C86.49,43,86,43.07,86,43.26Z"/><path class="cls-1" d="M86.75,43A5.9,5.9,0,0,1,84.3,46.8c-.27.17.16.14.27.07a6.15,6.15,0,0,0,2.64-4C87.23,42.82,86.77,42.87,86.75,43Z"/><path class="cls-1" d="M87.68,43.78a6.2,6.2,0,0,1-.87,1.7c-.36.53-1,1.43-1.66,1.36-.19,0-.49.29-.18.33a2.31,2.31,0,0,0,1.77-1,6.54,6.54,0,0,0,1.41-2.44C88.2,43.52,87.73,43.59,87.68,43.78Z"/><path class="cls-1" d="M85.64,47.77c1.58-.2,3-2.07,3.51-3.7.05-.18-.41-.11-.47.07-.41,1.35-1.64,3.17-3,3.34C85.48,47.51,85.32,47.81,85.64,47.77Z"/><path class="cls-1" d="M90.84,33.66a7.08,7.08,0,0,1-1.45,3.66c-.13.2.34.16.44,0a7.25,7.25,0,0,0,1.48-3.74C91.32,33.37,90.85,33.48,90.84,33.66Z"/><path class="cls-1" d="M91.85,33.67c-.14,1.61-1.12,2.81-1.7,4.23-.05.14.4.08.47-.08.58-1.42,1.56-2.62,1.7-4.23C92.33,33.4,91.86,33.51,91.85,33.67Z"/><path class="cls-1" d="M93.39,32.47A7.68,7.68,0,0,1,92.23,36a11.9,11.9,0,0,1-1,2c-.27.17.16.15.27.08.44-.27.74-1.29,1-1.77a8.7,8.7,0,0,0,1.36-4C93.86,32.23,93.39,32.31,93.39,32.47Z"/><path class="cls-1" d="M93.77,34c-.27,1.44-.82,3.57-2,4.39-.27.19.15.22.28.13,1.28-.89,1.88-3,2.18-4.59C94.27,33.77,93.81,33.86,93.77,34Z"/><path class="cls-1" d="M95.32,32.51a9.88,9.88,0,0,1-.85,2.91c-.31.75-.79,2.08-1.48,2.48-.29.17,0,.37.19.24a4.94,4.94,0,0,0,1.51-2.21,10.58,10.58,0,0,0,1.1-3.49C95.8,32.22,95.33,32.32,95.32,32.51Z"/><path class="cls-1" d="M96.16,32.86a14.83,14.83,0,0,1-2.66,5.89c-.18.27.26.34.39.15a15.26,15.26,0,0,0,2.74-6.08C96.68,32.55,96.2,32.62,96.16,32.86Z"/><path class="cls-1" d="M97.71,32.59c0-.07-.47,0-.47.14A8.53,8.53,0,0,1,95.19,38c-.09.09.34,0,.42-.05a5.53,5.53,0,0,0,.66-.83l-.7,1.64c-.11.26.35.17.44,0a12.81,12.81,0,0,0,1.71-4s0,0,0-.06,0,0,0,0a.16.16,0,0,0-.1,0h0l-.07,0-.08,0A7.11,7.11,0,0,0,97.71,32.59Z"/></svg>