<svg id="Layer_1" data-name="Layer 1" xmlns="http://www.w3.org/2000/svg" viewBox="0 0 81.88 26.62"><defs><style>.cls-1{fill-rule:evenodd;}</style></defs><title>fork</title><path class="cls-1" d="M60.9,23.63c.25-1,1.62-1.23,2.62-1.57a31.28,31.28,0,0,1,3.88-1.26C66,21.91,63.73,22.15,62.06,23A1,1,0,0,1,60.9,23.63Z"/><path class="cls-1" d="M56.29,23.63c.6-1.4,2.64-1.49,4.09-2s2.62-1.16,3.88-1.47C62.7,21.4,59.78,22,57.55,22.89c.07.38.53-.28.42.21C57.28,23.15,57.13,23.73,56.29,23.63Z"/><path class="cls-1" d="M49.89,20c.26-.33.85-.33,1.36-.42A1.48,1.48,0,0,1,49.89,20Z"/><path class="cls-1" d="M52.93,19.33c-.31.27-.58-.07-.94.1C52.19,19.06,52.52,19.36,52.93,19.33Z"/><path class="cls-1" d="M47.9,7.27c-.33.27.4.36.32.73a2.74,2.74,0,0,1-1-1.26c1.5.12,2.36,1.82,3.36,2.62.1.08.38.05.31,0,.66.56.85,1.21,1.57,1.47-.15.4.29.2.21.52a.29.29,0,0,1-.42,0A40,40,0,0,0,47.9,7.27Z"/><path class="cls-1" d="M77,22.47c.08-.25-.38-.23-.84-.21,0,.12.19.09.31.1-1.61.13-2.25,0-4.41.11a10.55,10.55,0,0,1-4.09.63c.17-.78,1.47-.41,1.47-1.36a5.38,5.38,0,0,0,2.73-.42c-2.38-.89-4.16,1-6.08,1.57-.12.09,0,.24-.21.42-.58-.12-.89.45-1.36.1,1.39-1.19,3.54-1.63,5.24-2.52-2.49-.62-5.54-.69-8.08-1.26a45.76,45.76,0,0,1-9.44,3.67c.39-.61,1.32-.83,2-1a71.49,71.49,0,0,0,7-2.62c-.56-.3-1.65.19-2.73-.31-.25,0-.23.32-.42.42-2.52.38-4.29,1.51-6.5,2.2-.31.09.24.16.1.42-.63,0-1.15.56-1.78.21,2-1.6,5-2.1,7.55-3.15.19-.78-.36-.83-.73-1,0-.34.38-.25.52-.42.12-2.76-1.21-5.77-1-8.18,0-.42,0-1,.42-1.26.25.62,0,1.36,0,2.1a64.69,64.69,0,0,0,1.15,6.82c.34-1.72-1.05-4-.63-6.19-.11-.32.23-.19.42-.21,0-.78.31-1.49-.42-1.68a6.86,6.86,0,0,1,.52-.84c-.22-.18-.61.06-.84-.11,0-.41.39-.38.63-.52-.2-.19-.67-.1-.84-.31.25-.21,1.2.22,1.57-.11-.1-.24-.66.21-.84-.21.25-.91,1.75-.56,2.41-1-.88-.28-1.92.72-2.83.42,1.06-1,4.27-1.51,5.77-1.26.29-.1-.19-.37.1-.53s.94,0,1.15-.21a29.08,29.08,0,0,0-5,.63c-.16.06,0,.11.1.11-.66.15-.91.12-2,.31-.38,0-.07.77-.42.84-.78.06,0-.76-.52-.94,0-.47.8-.25.73-.84-.21-.16-1.33.2-1.68-.11.45-.68,1.23-.17,2-.31.54-.1,1-.56,1.36-.63a6.83,6.83,0,0,1,1,.1c1.45,0,3.24-.3,4.72-.31.95,0,1.86.15,2.83.1,3.19-.16,6.42-.32,9.44-.42A69.21,69.21,0,0,0,64.26,1.71c-2.15-.11-5.11-.83-6.5,0-2.14-.26-5,.33-6.82-.21.7-.54,1.94-.11,3-.11,1.26,0,2.63-.14,3.78-.21-2-.46-4.41-.25-6.5-.73,1.77-.87,4-.23,6-.1,8,.49,16.25.76,24.12,1.89.27.47-.18,1.64.52,1.68a3.36,3.36,0,0,1-2.31,1.26C75,5.8,69.8,6.25,64.68,7c-2.16.29-4.14.76-6.4,1.15-.16,2.8-.52,6.52.1,9.44a42.8,42.8,0,0,0,5,1c6,.37,12.07,2.53,17.83,2.62.25.47-.15.8-.31,1.15.14.62.54,1.13.31,1.57-.21-.18-.77,0-.63-.52-.39.08,0,.37-.21.52-4.41.39-8.4.55-12.69,1-.37,0,.19.46-.11.42-3.85.26-10,.65-14.37,1.15a5.29,5.29,0,0,1-4.93-1.78c-.23.08.35.51,0,.73-1.81-2.37-2.41-6.36-2.83-10.07-3.38-.59-8.51.09-11.43-.21a3,3,0,0,0-.21,1,16.41,16.41,0,0,1-1.15,1.47,6.46,6.46,0,0,1-4.93-.11c-.09-.19-.43-.13-.31-.52-7.27.15-17.42.8-23.81,1.15-.18-.06,0-.5-.21-.52-.32.15.22.54-.1.73C2.7,18.24,2.7,17.36,2.17,17c-.36.47.23.89.1,1.47-1.2-.26-1.14-2.26-2.1-3.25A14.69,14.69,0,0,1,1.54,6.32c.43,0,.4.51.42.94.48-.67,1.36-1.87,2.31-.84,3.65.53,7,.41,10.91.73a109.47,109.47,0,0,0,13,.63c1.23-2.06,4.37-.66,5.66.42.07.4-.73.2-.84.1.2.53.76.71.94,1.26-.11.34-.44,0-.42.63a89.91,89.91,0,0,0,11.85.21,16.43,16.43,0,0,0,.42-2.2.69.69,0,0,1,.52.1c.49-2.37,1-5.05,2.41-6.71.42-.48.95-1.19,1.68-1.15a2.44,2.44,0,0,1-.94,1.68c-.34.13-.08-.34-.42-.21A6.09,6.09,0,0,0,48,3.7a22.61,22.61,0,0,1,5.45,4.2c-1.69-1.07-3.11-2.42-4.82-3.46-.27,0,.14.18,0,.42-.47,0-.43-.55-.73-.73-.24.21-.17.73-.42.94A43.85,43.85,0,0,1,53,9.57c-1.73-.85-3.39-2.69-5.14-3.88,0,.22.57.75.73,1.15-.34,0-.85-.82-1.26-1.15a11.94,11.94,0,0,0-.84,3.46c1.5,2.1,3.66,3.54,5.35,5.45-2.13-1.16-3.6-3.53-5.45-4.62.51.06.2,1.16.31,1.57.24.87,2.1,2.39,3,3.25.29.26.4.83.73,1.15.4-.06.49-.29.73.21-.9.16-1.52-1-2.2-1.68s-1.54-1.47-2.2-2.1c.12.41.52.53.52,1-.4,0-.3-.54-.63-.63v2.31c1.07.61,2,1.92,3.15,2.1.19-.63-.57-1.16-.84-1.68a2,2,0,0,1,1.15,1.36c.89-.2,1.49-1,2.2-.84-.55.74-2,.63-1.89,2-1.57-.82-2.13,1-3.46,1.15a8.13,8.13,0,0,1,.31,1.26c.19-.19.26-.51.52-.63,1.09-.42,2.29-.9,3.46-1.36s2.23-1.19,3.25-1c-1.82,1-4,1.64-5.87,2.52.09.35.84-.37.84.21a5.54,5.54,0,0,1-2.1.42c.41,2.22,2.73,2.52,4.3,3.57,3.81.51,9-.27,13.84-.52,4.52-.23,9-.55,13.11-1.15C78.43,22.1,77.22,22,77,22.47ZM51.78,25.62c-.26-.06-.79,0-1-.32,0,.49.42.63.84.74C51.44,25.7,51.91,26,51.78,25.62ZM53,25.52c-.36-.08-.6.16-.11.11a49.46,49.46,0,0,0,6.5-.52c-.41.13-.35-.29-.21-.42C56.85,24.87,55.23,25.17,53,25.52Zm-2.1-1c.36,0,.17.46.63.31C51.58,24.52,51,24.27,50.94,24.47Zm21.5-.63a1,1,0,0,0-1,.1A1.77,1.77,0,0,0,72.44,23.84Zm-24.12-.21c-.16-.12-.44-.37-.52,0C48.1,23.6,48.18,24,48.32,23.63ZM80,22.47c-.36.36-1-.09-1.57.1.48.65-1.24.29-.94.73a8.87,8.87,0,0,1,2.2-.1c.63-.43.54-1.2,1-1.57-2,.57-4.71-.81-7.13-.42,1.84.46,4.18.44,5.87,1-.11,0-.27,0-.1.1S80.09,22.09,80,22.47Zm-8.92,0c-.45-.2-1.46-.16-1.68.21C70.3,22.58,70.54,22.76,71.08,22.47Zm4.61-.63c-1.45-.05-2.52-.71-3.78.11C73.15,21.85,74.55,22.38,75.69,21.84ZM49.26,17.44c-.9-.46-1.46-1.26-2.41-1.68a7.27,7.27,0,0,0,.21,2.94A17.63,17.63,0,0,0,49.26,17.44Zm-42.37.21a2.91,2.91,0,0,0-.84.11c-1.94.22.88.21,1.15-.11ZM4.69,17c-.61,0-1.19.29-1.47-.21,1.49-1.13,5.28-.57,7-.94.23.08.67-.11.21-.1a28.59,28.59,0,0,0-7.66,0c0-.25-.5-.06-.42-.42a5.65,5.65,0,0,1,2.2-.21c-.05-1-1.12-.3-1.47-.31s-1-.51-1.36-.32a5,5,0,0,0,1.47,2.83C3.26,16.82,4.53,17.63,4.69,17Zm.52.11c1.06,0,.16-.33-.42,0C5,17.34,5.07,17.12,5.21,17.13ZM15,16.29c-.79.12-2.06-.25-2.52.21C13.28,16.64,14.38,16.81,15,16.29Zm16.68,0c-.66-.14-2.21-.59-2.41-.21A2.39,2.39,0,0,0,31.64,16.29Zm-13.74-.1c-.6.07-1.47-.14-1.89.1A4.33,4.33,0,0,0,17.9,16.18Zm10.49-.32c-.11.35.15.34.42.32C28.84,15.91,28.66,15.84,28.39,15.87Zm-.94.11a1.86,1.86,0,0,0-1.15.21C26.68,16.12,27.37,16.35,27.45,16Zm6-.42a1.52,1.52,0,0,0-.73.52C33.2,16.16,33.33,15.88,33.42,15.55Zm-15.84,0c-3-.06-3.92-.39-6.92-.1A19.67,19.67,0,0,0,17.59,15.55Zm11.33-.31a6.63,6.63,0,0,0,1.68.31C30.5,15,29.35,15.05,28.91,15.24ZM27.45,15H27c0,.33.13.43.31.52A.68.68,0,0,0,27.45,15Zm-27-1.57A5.33,5.33,0,0,0,1,15.34C.91,14.64.9,13.85.49,13.45ZM28,14.5c-.06.34.07.49.1.73.12,0,.3,0,.31-.1C28.17,15,28.15,14.68,28,14.5ZM9.3,14.71a11,11,0,0,1-2.1-.1c.06.15-.12.54.1.52C8,14.92,9.11,15.09,9.3,14.71Zm-2.41.21c-.12,0-.11-.16-.1-.31-.58.12-1.66-.26-1.89.21C5.18,15.37,6.52,15.16,6.89,14.92Zm15.94-.21a4,4,0,0,0,1.89,0c0-.13,0-.25-.21-.21S22.5,14.63,22.83,14.71Zm22.55-.21c-.15-.25-.69,0-.84.11C44.89,14.45,45.45,14.9,45.38,14.5Zm-20.87-.84c-.45-1.12-.34-2.81-1-3.67a11,11,0,0,0-3-.31,5.65,5.65,0,0,1-.73-.52c-4.49-.28-8-.63-13.11-.52-.15.34-.34.27-.73.31,0,.72-.1,1.33.21,1.57.42-.31,1.14-.33,1.57-.63.56,1.05,2.15-.06,2.73.73a11.71,11.71,0,0,1-2.1.11,3,3,0,0,0,.31.94c.39-.07,1,.14,1.26-.1-.07-.21-.62.07-.52-.31.71.11,1.94-.16,2.2.52-.57.44-1.92.1-2.83.21.78.73,3.16-.15,3.57.94-1.35.26-3.18.12-4.3.42,1.28.43,3.36.06,4.09,1-.68.16-1.26-.16-1.89.1A55.82,55.82,0,0,0,24.51,13.66Zm2.73.52c-.26,0-.33.16-.42.31.25,0,.23.19.52.11A.59.59,0,0,0,27.24,14.19Zm2.83-.42c-.22-.38-.89.34-.84-.32a2,2,0,0,1,.94-.42c-.23-.57.15-1.75-.42-2,.94-.94-.4-2,.31-2.83-.49,0-.62-.29-.84-.52-.32.19.21.59-.1.73-.09-.07-.24.17-.63,0A8.7,8.7,0,0,0,28.29,14C28.79,14,29.91,14.37,30.07,13.77ZM8.25,14c.29.31,1.2-.06,1.36.11C9.51,13.8,8.26,13.68,8.25,14Zm-1.47-.1a1.3,1.3,0,0,0,.94.21C7.84,13.6,6.74,13.64,6.78,13.87Zm-.32.1c.16-.36-.7-.5-.63-.1C6,14.08,6.21,14.05,6.47,14Zm-1.89-.1c.08.17.86.17.94,0S4.56,13.47,4.58,13.87Zm-.42-.1c0-.23-.44,0-.63-.11C3.37,14,4.24,14.16,4.16,13.77Zm-1.68-3c.42.07.16.82.63.84a9.05,9.05,0,0,0,0-2.83c-1.19,0-.78,1.22-.94,2.2s-.82,1.74-.52,3H2.9C3,12.75,2.29,11.34,2.48,10.73ZM25.77,12c0,.61-.51,1.42.1,1.68A1.85,1.85,0,0,0,25.77,12Zm19.61.42a2.35,2.35,0,0,0-.63.21c0,.34.09.68.42.73h.21Zm-3.36.1c.19,0-.35-.5,0-.73.22-.06.69.13.73-.11-4.74.16-7.89-.4-12.27-.31a14.53,14.53,0,0,0,.1,1.68C34.67,13,38.44,13.14,42,12.51ZM4.48,13c0-.23.37,0,.52-.1A8.1,8.1,0,0,1,4.16,8c.54.12,1.25.41,1.57-.11.17.08,0,.51.31.42,1.7-.2,3.76.12,4.82-.21a72.33,72.33,0,0,0-7.55-.63c-.1.23-.81.8-.31.94.25.37.13-.49.63-.21A13,13,0,0,0,4.48,13Zm-1-1.78c0,.77-.09,1.13-.1,1.68A.89.89,0,0,0,4,13C3.76,12.46,3.79,11.66,3.43,11.25ZM7.2,12.83c.08-.4-.5-.13-.73-.21C6.37,13,7,13,7.2,12.83ZM5.32,12.2c0-.43.45-.32.52-.63a11.58,11.58,0,0,1-.42-2.83c-.39.07-.45-.18-.84-.1a7.81,7.81,0,0,0,.73,4.3h.84C6.2,12.36,5.27,12.77,5.32,12.2Zm5,.42c-.6,0-1.43-.25-1.57.1A2.24,2.24,0,0,0,10.35,12.62Zm32.72-.21c.35,0,.89.36,1.15.1C43.83,12.55,43.33,12.16,43.07,12.41Zm-41.64-3a3.69,3.69,0,0,0-.31,2.94A14.34,14.34,0,0,0,1.44,9.36Zm5,1.57a.59.59,0,0,1-.42-.11,2,2,0,0,0,.1.84h.31C6.68,11.47,6.52,11.18,6.47,10.94Zm21-.73c-.11-.11-.57,0-.73.1.65.06-.06.95.42,1.26C27.28,11.16,27.26,10.58,27.45,10.2Zm-2.62-.11c-.32.08-.38-.11-.63-.1A2.49,2.49,0,0,0,25,11.57C25,11,24.84,10.64,24.82,10.1Zm20.56,1c-.39.07-1-.14-1.26.11C44.32,11.35,45.36,11.55,45.38,11.15Zm-6.19.11a3.66,3.66,0,0,1-1-.11C38,11.55,39.48,11.35,39.19,11.25Zm3.78,0c.32-.07.9.13,1-.11C43.7,11.21,43.12,11,43,11.25Zm-35-.42a.68.68,0,0,0-.52-.1C7.4,11,7.95,11.13,7.94,10.83Zm23.28,0c.39,0,.95.3,1.26,0C31.91,10.86,31.7,10.59,31.22,10.83ZM33,10.2c-1-.35-.5-2-2.31-1.78,0,.67-.53,1.9,0,2.41C30.85,9.51,32.22,10.37,33,10.2Zm-5.35-1c.06.45-1,.35-.84.52.53-.08.68.23.84.52C27.49,9.77,28.1,9.19,27.66,9.15Zm-2-.42c-1.44,0-3-.58-4-.1C22.61,9.07,24.4,8.84,25.66,8.73ZM15,8.11h-.73a12.36,12.36,0,0,0,3.88.31C16.95,8.24,16.17,8.28,15,8.11ZM31.43,7.9c.11-.32-.23-.19-.42-.21V8C31.21,8,31.24,7.88,31.43,7.9Zm-.63-.31h-.94C29.92,8.11,30.67,7.86,30.8,7.58ZM61.32,5.9c-.46.13-1.2,0-1.47.32A3,3,0,0,0,61.32,5.9ZM71.6,4.54a44.9,44.9,0,0,0-5,.63A18.59,18.59,0,0,0,71.6,4.54ZM64.05,4c-2.12,0-3.91.54-6.29.52,0,.24-.81.56-.31.63C59.62,4.76,62,4.53,64.05,4Zm15.52.52c-.43,0-.86,0-1,.21A2.16,2.16,0,0,0,79.57,4.54Zm-8.29-.42A22.11,22.11,0,0,0,68,4.43,10,10,0,0,0,71.29,4.12Zm1.57.11c-.37.17-.6-.07-.94.21C72.21,4.34,72.9,4.65,72.86,4.22Zm1.36-.31c0,.26-.36,0-.42,0C73.59,4.53,74.64,4.08,74.22,3.91Zm6.71-.53c-.39-.14-.73.31-.94,0,0-.25.46-.1.52-.31-.63-.17-1-.6-1.89-.53,0,.25.17.39.11.73-.26.05-.63,0-.63.31.4,0,1.34.24,1.78-.1C80,4,80.94,4.1,80.94,3.38Zm-3.15-.63s-1.63-.44-1.68-.1C76.49,2.71,77.79,3.1,77.79,2.76Zm-4.93-.63c.35-.07,1,.13,1.15-.11C73.66,2.09,73,1.89,72.86,2.13Z"/><path class="cls-1" d="M50.21,21c.27.1.51-.13.94-.1-.65.19-1.71,1-2.41.42,1.33-1,3.46-1.29,5-2.1-.19-.57-.58.33-.84,0a8.34,8.34,0,0,1,3.36-.84c-1.39,1.09-3.67,1.29-5,2.41C50.94,20.55,50.52,20.91,50.21,21Z"/><path class="cls-1" d="M48.42,9.78a.5.5,0,0,1,.1.31c-.3-1-1.63-1-1.57-2.1a27.56,27.56,0,0,1,4.62,4.72c.35.14.54.43.84.63C51.19,12.88,49.75,10.83,48.42,9.78Z"/><path class="cls-1" d="M50.73,3.7C51.79,5.35,53,4.91,53.67,6.43A29.35,29.35,0,0,1,50,3.7c-.19,0,.11.44.21.52a2,2,0,0,1-1.15-1.36c.63.14.86-.38,1.36-.63,1.83.75,4.52-.77,6.5,0-1.53.2-3.85.29-5.56.63,1,.68,2.37-.39,3.78-.11a14.91,14.91,0,0,1-2.83.63c.15.62.84.69,1.15,1.15C52.77,4.69,52,3.05,50.73,3.7ZM50.63,3a3.77,3.77,0,0,0-.94.11.92.92,0,0,0,1.15.21A.29.29,0,0,1,50.63,3Z"/></svg>