<svg id="Layer_1" data-name="Layer 1" xmlns="http://www.w3.org/2000/svg" viewBox="0 0 92 92"><defs><style>.cls-1{fill:#187704;}</style></defs><title>globe</title><path class="cls-1" d="M90.87,37.89a10.77,10.77,0,0,0-.66-3.1,47.39,47.39,0,1,0,.66,3.1ZM64.82,25.52h.06a.68.68,0,0,0-.17.22,6.83,6.83,0,0,0-.68.58c-.62.6.15.92.87.85.26,1.22.53,2.45.69,3.69C64.79,29.27,64,27.67,63.25,26a.6.6,0,0,0-.38-.31C62.69,25.14,62.66,24.95,64.82,25.52Zm15,37.36c-.07-.19-.59-.16-1.08,0a42,42,0,0,0,0-4.61c0-.06-.09-.09-.21-.1q.12-.49.26-1a23.7,23.7,0,0,0,1.56,5.74q.19,1.14.31,2.28C80.37,64.44,80.11,63.67,79.84,62.88ZM64,43.61a4,4,0,0,1-.89-1c.43-.12.8-.35.74-.62a30.6,30.6,0,0,1-.56-3.44,1.34,1.34,0,0,0,.49,0c.3.58.58,1.17.87,1.77C64.78,41.6,65,44.36,64,43.61ZM70.4,33.33a.47.47,0,0,0,0-.11c0-.62-.09-1.23-.15-1.84.64,1.42,1.19,2.9,2,4.25a.75.75,0,0,0,.77.23q0,1.19,0,2.38c-.71-1.56-1.33-3.16-2.11-4.7C70.84,33.39,70.64,33.34,70.4,33.33Zm14.22,9.14c0-.1-.2-.13-.41-.13-.07-.49-.14-1-.22-1.47,0-.17-.51-.15-1,0-.1-.73-.2-1.46-.29-2.2,0-.25-1-.09-1.59.19v0l0,0a.69.69,0,0,0,.34-.35A14,14,0,0,0,82,34.55a17.23,17.23,0,0,0,2.24,4.69c.24.32,1.23.07,1.66-.27q0,.31,0,.63c-.42.13-.79.32-.77.51.32,3.16,1.92,6.66,2.07,10A74,74,0,0,1,84.63,42.47Zm-1.85-11a1.28,1.28,0,0,0,.75-.38c.3,1.51.73,3,.89,4.51C83.86,34.2,83.42,32.78,82.77,31.44Zm-1,18.72a2.39,2.39,0,0,0-1.33.28c0-.05,0-.11,0-.16s-.13-.11-.31-.1c.11-.08.18-.15.15-.22l-.14-.31c.58,0,1.41-.36,1.42-.64a9.75,9.75,0,0,0-.26-2.34c.24-.1.41-.22.42-.37s0-.31,0-.46q.31,1.68.72,3.36c-.42.12-.78.3-.76.5S81.77,50,81.79,50.16Zm-3.11-5,0,.09c0,.31,0,.63.07.94-.06-.18-.11-.37-.16-.55S78.66,45.27,78.68,45.11Zm1-6.17h0Zm-.16,16c.09.38.2.76.31,1.13a3,3,0,0,0-.77.27C79.15,55.91,79.3,55.44,79.47,55ZM75,34.19a1,1,0,0,0,1.05.14c.34.77.67,1.54.94,2.32,0,.83,0,1.66,0,2.49,0-.17-.08-.33-.12-.5-.13-.48-1.71-.1-1.9.4.06-1.63,0-3.26,0-4.9Zm6.58,20c.29-.12.52-.28.54-.44s0-.45.06-.66c.16,1.42.35,2.84.64,4.24.18.85.4,1.67.59,2.48q-.35-.68-.64-1.38C82.36,57,81.94,55.64,81.53,54.23ZM85.6,30.81c0-.17-.07-.35-.11-.52l.32.47Zm-7.47.51a1,1,0,0,0,.35.11c-.08.6-.15,1.21-.18,1.82a15.39,15.39,0,0,1-1.84-2.51.78.78,0,0,0,.33-.4A10.17,10.17,0,0,0,78.13,31.31ZM70.6,27.68a9.94,9.94,0,0,0,2.14,1.95c-.32.12-.58.33-.58.6s0,.4,0,.6a14.81,14.81,0,0,0-2-3.43Zm-2.43,0c0,.34,0,.68,0,1q-.58-1.23-1.2-2.45a4.12,4.12,0,0,1,2.61.72C69,26.9,68.21,27.19,68.17,27.67ZM65,36.61l-.19-.32c-.09-1.2-.28-2.39-.48-3.57.27.56.54,1.12.8,1.68C65,35.13,65,35.87,65,36.61Zm1.94,3.23c0-1.52,0-3,0-4.51a1.18,1.18,0,0,0,.3-.23c.55,1.68,1,3.42,1.41,5.16a17.11,17.11,0,0,0-.7,1.57C67.61,41.15,67.27,40.49,66.91,39.84Zm3.67-1.1c0-.37,0-.74,0-1.11a34.35,34.35,0,0,0,1.88,3.83c-.06.19-.11.39-.15.58-.4-1-.8-2.07-1.25-3.08C71,38.8,70.81,38.74,70.58,38.74Zm4.32.68c0,.45.09.9.13,1.34l-.2-.46C74.86,40,74.89,39.71,74.9,39.41Zm7.77,26.44c.49-.12,1-.35,1-.58,0-.54,0-1.07-.05-1.6l0,0c.24.28,1.3.06,1.73-.27a22.48,22.48,0,0,1-2.64,4.33C82.75,67.14,82.72,66.5,82.68,65.85Zm2.63-6.64c.55,0,1.32-.3,1.37-.56v-.08h0c0-.13,0-.27.07-.4,0,0,0,.09,0,.13a14.61,14.61,0,0,1-1.15,4.64A10.94,10.94,0,0,0,85.31,59.21Zm1.47-5.53v-.11l0,0Zm2.29-11.77.32-.24q.11,1.13.16,2.27l-.35.09A14.63,14.63,0,0,0,89.08,41.92Zm-.06-3A3.17,3.17,0,0,1,88.74,40c-.29-1.31-.67-2.62-1-3.93a21.6,21.6,0,0,0-.29-2.63c.32.61.61,1.22.85,1.82C88.57,36.46,88.82,37.67,89,38.9Zm-4.49-9.71-.08-.31.23.3Zm-3.12-3.07.42,1.13a.93.93,0,0,0-.39.48l-.06-.06a1.07,1.07,0,0,0-.93-.1A3.29,3.29,0,0,0,81.41,26.11Zm-1.76,2.18v.48l-.35-.31a1.25,1.25,0,0,0-1.57.29c-.26-.25-.51-.5-.75-.77a4.46,4.46,0,0,0,2.82,0A.56.56,0,0,0,79.65,28.29Zm-5.57-.77c.11.32.2.64.29,1A6.31,6.31,0,0,0,72,26.38a.92.92,0,0,0-.37-.08,10.3,10.3,0,0,0-1.84-1,5.13,5.13,0,0,1,3.07.79c.46.29,1,.57,1.45.83A.57.57,0,0,0,74.08,27.51Zm-12.54.94c.11.78.25,1.55.39,2.32a14.25,14.25,0,0,0-1.09-1.92ZM59,31.4l.05.22-.12,0Zm1.1,8.8c0,.23.1.47.18.73A22,22,0,0,1,58.84,38a7.19,7.19,0,0,1-.45-2.22A12.64,12.64,0,0,0,60.06,40.2Zm6.43,3c.2.34.4.68.63,1s1.69-.12,1.86-.5c.35-.77.62-1.57.93-2.35.44,1.11.86,2.22,1.33,3.32a5.9,5.9,0,0,0-3.62.26,4.39,4.39,0,0,1-3.14.11A2.35,2.35,0,0,0,66.49,43.18Zm7.45,2.64c.05-.78.06-1.55.1-2.3a27.32,27.32,0,0,0,1.47,3.29c.09.17.37.22.69.2.06.18.13.37.19.56a2.8,2.8,0,0,0-.63.21,14.08,14.08,0,0,0-1.86-1.9S73.94,45.84,73.94,45.82ZM77.75,70.9h0c.28.36,1.85-.08,1.93-.52a17.63,17.63,0,0,0,.23-1.91,14.86,14.86,0,0,0,.87,1.47s.05,0,.08.05c-.33.35-.66.68-1,1-1.72.67-2.74.66-3.07,0A2.41,2.41,0,0,0,77.75,70.9ZM89.37,50.58c-.11,1.07-.27,2.12-.46,3.16A13.8,13.8,0,0,1,89.37,50.58ZM70.66,14.31a32.59,32.59,0,0,1,2.71,5.27A51.84,51.84,0,0,1,70.66,14.31Zm-3.37-2.43.21.52a1.43,1.43,0,0,0-.44,0A5.55,5.55,0,0,0,67.29,11.88Zm-4.68,10c.08-.23.13-.45.19-.68a.88.88,0,0,0,.79.2,2.41,2.41,0,0,1-1.12.69A.56.56,0,0,0,62.61,21.85Zm7.79-3.61c.26.49.53,1,.81,1.46-.48-.34-1-.68-1.46-1A.92.92,0,0,0,70.4,18.24Zm5.06,1.42c-.1-.33-.21-.66-.34-1l.31.33c.34.35,2.11-.06,1.87-.62-.12-.28-.26-.56-.39-.83l.92.88a1.1,1.1,0,0,0-.71.56C77,19.33,76,19.36,75.46,19.67ZM46.06,4.4l-.14-.21.36-.27a.62.62,0,0,0-.12.17C46.12,4.19,46.1,4.3,46.06,4.4Zm-1.8,4.81c-.06-.08-.1-.17-.14-.25a2.33,2.33,0,0,0,.53-.13Zm1-.91c0-.37,0-.75,0-1.12l.1.22c.25.51,1.18.34,1.66,0l.08.25h0a4.48,4.48,0,0,0-1.9.77S45.23,8.34,45.23,8.31Zm4.21-1.77c0,.06.09.13.14.19.34.39,1.18.16,1.6-.17l0,0a2.7,2.7,0,0,1-1.88.86C49.34,7.16,49.39,6.85,49.44,6.54ZM22.21,39.38a14.46,14.46,0,0,1,1.55,1c-.46,0-1,0-1.53,0A3.81,3.81,0,0,0,22.21,39.38Zm8.87,4.5a.8.8,0,0,0,.53.16c0,.26,0,.52,0,.77L31,44.13A.72.72,0,0,0,31.07,43.88Zm-.32,23.65c-.29-1.17-.55-2.34-.76-3.53a.62.62,0,0,0-.41-.41h0l-.11,0a.94.94,0,0,0,.09-.22c.11-.47.2-.94.29-1.41a12.49,12.49,0,0,0,.39,1.25c.48,1.36.94,2.79,1.35,4.24A1.53,1.53,0,0,0,30.75,67.53Zm10-7.45a8.38,8.38,0,0,0-.8-1.47c-.18-.26-.84-.18-1.34,0l0-.06c.34-.13.62-.32.65-.54a10,10,0,0,0,.06-1.58,19.39,19.39,0,0,1,1.46,3Q40.72,59.78,40.73,60.08Zm-4.84,7.84a2.24,2.24,0,0,0-.82.1c.13-2.2.42-4-.65-6a10,10,0,0,0-.78-1.27,1,1,0,0,0,.24-.24c.06.14.11.28.18.43s.27.17.52.16c.42,1.1.86,2.2,1.28,3.31C35.84,65.58,35.88,66.75,35.89,67.92Zm-4-5.93c-.16-.44-1.56-2-.43-.86a8.47,8.47,0,0,1,1.17,1.72,5.8,5.8,0,0,1,.63,3.38C32.84,64.78,32.37,63.36,31.89,62Zm-2.57-7.86c-.07-2.56-.21-5.12-.43-7.68A.51.51,0,0,0,28.5,46a.64.64,0,0,0,.16-.33c0-.15,0-.3,0-.45.72,1.83,1.12,3.83,1.71,5.68a1,1,0,0,0-.52.62C29.66,52.4,29.49,53.27,29.32,54.14Zm7.82.7v0Zm-4-3.1c.17,1.35.52,2.69.79,4h0a37.19,37.19,0,0,0-1.5-5.1c-.08-.22-.15-.45-.22-.67Q32.65,50.88,33.16,51.74Zm-2.28,4.45a23.26,23.26,0,0,0,.72,3.09,1.65,1.65,0,0,0-.6,0,2.07,2.07,0,0,0-.76.36Q30.57,57.94,30.88,56.19Zm4.5-7.49a4.51,4.51,0,0,1-1.17-.4,1.07,1.07,0,0,0,.88-.64c.27.29.54.59.79.9A1.65,1.65,0,0,0,35.38,48.69Zm-7.94,9.6a1,1,0,0,0,1,.46c-.11.61-.21,1.22-.33,1.82-.06-.26-.13-.51-.19-.77a.6.6,0,0,0-.46-.45c-.33-1-.58-2.06-.86-3.09C26.9,57,27.15,57.63,27.44,58.3Zm-1.71-4.16c0-.17,0-.35-.05-.52l.21.61Zm2.74,19.5a.68.68,0,0,0-.44-.29c-.25-1.13-.45-2.28-.62-3.43a1.18,1.18,0,0,0,.78.06.68.68,0,0,0,0,.16c.19,1.32.37,2.64.55,4C28.64,73.94,28.56,73.79,28.47,73.64Zm8.72-11.28c-.36-.92-.71-1.83-1.06-2.75a9.28,9.28,0,0,0,.08-1.47L37.4,61A9.86,9.86,0,0,0,37.19,62.36ZM26.79,46.17a.62.62,0,0,0,.37.26A.74.74,0,0,0,27,47c.15,1.72.25,3.44.33,5.17-.54-1.68-1-3.38-1.54-5.08a.86.86,0,0,0,.6-.67c0-.33,0-.66,0-1C26.49,45.67,26.64,45.92,26.79,46.17ZM24.06,41a.5.5,0,0,0,0,.2c0,.19,0,.39,0,.58-.08-.12-.16-.24-.25-.35a.8.8,0,0,0-.52-.26l.17,0A2.1,2.1,0,0,0,24.06,41ZM22,42.11c.17.78.35,1.55.53,2.33-.12-.23-.24-.47-.38-.7-.36-.61-1.86-.21-1.86.5,0,.06,0,.12,0,.19a1.52,1.52,0,0,0-.54.1,5.59,5.59,0,0,1,2.56-3.11A.67.67,0,0,0,22,42.11Zm-2.76,4.05c.34,1.92.26,3.88.87,5.74C18.92,50.67,18.73,48.35,19.21,46.17Zm2.94,6.14a8,8,0,0,0,.41-2c.12.37.25.73.38,1.1a.7.7,0,0,0,.64.45c0,.09,0,.17,0,.26-.56.06-1.13.44-1,1a52,52,0,0,0,1.71,6.81.72.72,0,0,0,.58.46,1,1,0,0,0-.47.53c-.7-1.48-1.64-2.79-1.83-4.47-.22-1.93.15-2.59-1.17-3.54A1,1,0,0,0,22.15,52.31ZM31.91,81c0-.07,0-.15,0-.22q.35.91.74,1.81-.11.36-.25.74A5.66,5.66,0,0,1,30.81,82C31.4,82,32,81.59,31.91,81Zm.61-7.16c.16.27.34.53.53.79a.7.7,0,0,0,.22.19c-.1.23-.19.44-.27.65Zm2.32-.39c0-.33-.08-.65-.13-1,.54,0,1.6-.32,1.63-.68,0-.1,0-.19,0-.28a2.44,2.44,0,0,0,1.07-.38c-.21.56-.74,1.18-2.46,2.25Zm3-4.94a3,3,0,0,0,.84-.24c-.11.13-.22.26-.33.42a4,4,0,0,0-.58,1.05C37.77,69.31,37.8,68.9,37.81,68.49Zm1.27-.68v0h.06Zm2.86-1.42c0-.24,0-.48-.05-.73A1.58,1.58,0,0,0,43.39,65v0a2.36,2.36,0,0,0,1-.33A3.53,3.53,0,0,1,41.94,66.39Zm1-13.72a4.43,4.43,0,0,1,1.45,1.81c.18,1.32.48,2.62.7,3.94.06.37,1,.23,1.55-.08a4.23,4.23,0,0,0-1.35,1.43c-.67,1.46-.42,2.87-.64,4.07A29.58,29.58,0,0,0,42.9,52.67Zm3.66,2.08a1.74,1.74,0,0,1,.36,1.76A8.82,8.82,0,0,0,46.56,54.75ZM47,57.9c0-.12,0-.24,0-.37a3.51,3.51,0,0,0,.77-.13,8.82,8.82,0,0,1-.88.74A.38.38,0,0,0,47,57.9Zm-1-5.53a1.59,1.59,0,0,0-.84,0,4.68,4.68,0,0,0-1-.71c1.8.38,4.29,1.42,4.62,3.13A5.47,5.47,0,0,0,46,52.37Zm-5.34-1-.23-.56c.3.1.61.19.92.26A1.71,1.71,0,0,0,40.62,51.41ZM26.56,41.76c-.21-.36-.43-.71-.67-1.06a.52.52,0,0,0-.13-.11c.25,0,.5,0,.74,0a.76.76,0,0,0,0,.31C26.49,41.19,26.52,41.47,26.56,41.76Zm-16.32-12q.05.57.12,1.14h0a1,1,0,0,0-.47.41A14.89,14.89,0,0,0,10.23,29.72Zm13-9.67c-.06-.13-.13-.26-.19-.39a.53.53,0,0,0-.42-.27,23.52,23.52,0,0,1,.11-2.8l.55-.35A22.87,22.87,0,0,1,23.24,20Zm-3.69-2.77c0-.12,0-.24.07-.36a1.4,1.4,0,0,0,1.2-.4,22.4,22.4,0,0,0-.09,4.16A25.7,25.7,0,0,0,20,17.9a.63.63,0,0,0-.56-.42A.59.59,0,0,0,19.55,17.28Zm-1.83.54a.66.66,0,0,0,.44.21l0,0c-.16.38-.31.76-.46,1.14A5.44,5.44,0,0,1,17.72,17.82Zm-1,3.75q-.09-.46-.18-.92a3,3,0,0,0,.59-.15Zm5.72,3.26a7.21,7.21,0,0,1,0,1.9c-.13-.52-.23-1-.31-1.58ZM17.83,14.14c0,.59,0,1.18-.05,1.76-.52,0-1.28.19-1.43.5a6.89,6.89,0,0,0-.54,1.74c-.57-.18-1.57.18-1.55.73a18.61,18.61,0,0,1-.06,3.29c-.61-.75-1.15-1.58-1-2.07A13.36,13.36,0,0,1,17.83,14.14ZM12.58,31.47c.06.16.11.31.17.47l-.19-.17Zm1.44,1c.09.22.18.44.28.66-.26-.19-.51-.4-.76-.59A1.45,1.45,0,0,0,14,32.5Zm4.65-9.81a.6.6,0,0,0-.33-.24l.47-1.21c.17.83.32,1.67.47,2.5C19.08,23.39,18.89,23,18.67,22.69Zm10.91-9.39c0,.83,0,1.65,0,2.47q-.46-1.6-1-3.18A2.43,2.43,0,0,0,29.57,13.29Zm-1.34-1.71-.05-.17.1-.06A1.74,1.74,0,0,0,28.23,11.59ZM26.49,13.4l.24,1.32a1.53,1.53,0,0,0-1.06.57c-.06-.26-.13-.53-.2-.79C25.82,14.16,26.16,13.8,26.49,13.4Zm-4.24-2.52c-.39-.78-1.73-.4-1.94.35,0,.11-.05.22-.08.33a1.92,1.92,0,0,0-1.16.51,1.89,1.89,0,0,0-.47,0,43.91,43.91,0,0,1,4.06-2.92C22.53,9.76,22.39,10.33,22.25,10.88ZM11.13,21.73a14.76,14.76,0,0,1,2.57,2.75.8.8,0,0,0,.58.27c0,.18,0,.37,0,.55-.14-.18-.29-.36-.44-.54a1.36,1.36,0,0,0-1.48-.06l0-.1a.92.92,0,0,0-1-.4,10.36,10.36,0,0,0-1-2.47.6.6,0,0,0-.41-.26c.64-.93,1.31-1.83,2-2.71a17.06,17.06,0,0,0-1,2.33A.49.49,0,0,0,11.13,21.73ZM8.56,27.14a20.33,20.33,0,0,1-.33-2.69.55.55,0,0,0,0-.14l.36-.63C8.58,24.85,8.6,26,8.56,27.14ZM6.83,28.58a1.48,1.48,0,0,0-.82,0c.19-.43.38-.85.58-1.27C6.66,27.76,6.74,28.17,6.83,28.58Zm3,2.93a.54.54,0,0,0,.21.43l.58.49v0a.55.55,0,0,0,.51.42l.84.68-.22-.11c-.78-.4-1.58.08-2.42-.46a3,3,0,0,1-.76-.74A1.34,1.34,0,0,0,9.81,31.51Zm8.06,3.78a12.74,12.74,0,0,1-1.69-2.79c.77.62,2,2.77,2.85,4.81a3.92,3.92,0,0,0-1.42-1l-.23-.08C17.84,36,18.19,35.68,17.87,35.29Zm-1-5.38,0-.23a1.3,1.3,0,0,0,.4,0Zm1.37-1c.07-.85.09-1.69.12-2.53.32.69.63,1.39,1,2.08a.63.63,0,0,0,.2.23,8.59,8.59,0,0,0-1.42.52A.57.57,0,0,0,18.28,28.92Zm6.2-4.28A6.7,6.7,0,0,0,24,22.93a1.13,1.13,0,0,0,.45-.43,8.53,8.53,0,0,0,.34-1c.13.78.25,1.56.39,2.35A5.72,5.72,0,0,0,24.48,24.65Zm2.85-2.6v0a.42.42,0,0,0,.34.28l-.39.23C27.31,22.42,27.32,22.23,27.33,22.05Zm1.94-.34c0-.2,0-.4,0-.6a1.75,1.75,0,0,0,1.46-.5.73.73,0,0,0,.7.18,2.64,2.64,0,0,1-1.94,1.13l-.37,0A.44.44,0,0,0,29.27,21.71ZM33,17.36c.13.57.26,1.13.41,1.69a3.44,3.44,0,0,0-.65.43C32.84,18.78,32.92,18.07,33,17.36ZM36.27,16c.14.55.29,1.1.48,1.65.09.25.4.33.75.31a3.46,3.46,0,0,1-1.8.83A12.24,12.24,0,0,0,36.27,16ZM38.83,15,39,15a5.06,5.06,0,0,1-.21,1C38.81,15.64,38.82,15.34,38.83,15Zm-1.91-3.85c-.31-.63-1.75-.17-1.92.4a17.09,17.09,0,0,0-.56,3.53,10.89,10.89,0,0,0-1.16-2.75c1.31-.95,2.92-2.09,4.07-1.48A1.3,1.3,0,0,0,36.92,11.19Zm-8.19-.72a3,3,0,0,0-.25.37l-.06,0c.16-.2.33-.4.52-.6ZM24.8,13a1.1,1.1,0,0,0-.46,0c.07-.42.14-.85.18-1.27a2.36,2.36,0,0,0,.34-.17,1.81,1.81,0,0,1,1.23-.07C25.66,12,25.23,12.48,24.8,13Zm-.45-4.68-.16,0L24.66,8ZM74.54,78.93a10.43,10.43,0,0,1-1.75-2.34c-.61-.92-1.15-1.88-1.73-2.82-.08-.14-.53,0-.48.13a15.64,15.64,0,0,1-2.41-2.08c-.15-.14-.61.06-.44.21a13.81,13.81,0,0,0,2.67,2.26.41.41,0,0,0,.37-.08c.6,1,1.19,2,1.85,3a8.09,8.09,0,0,0,1.63,2,43.68,43.68,0,0,1-11,6.85c.1-.11.08-.29-.15-.28-.87,0-1.69-1.41-2.1-2s-.91-1.48-1.37-2.21c-.12-.2-.58,0-.44.22.6,1,1.15,1.95,1.83,2.87.46.63,1.15,1.54,2,1.52l-1.12.45a5.94,5.94,0,0,1-2.15-2c-.7-.84-1.31-1.76-2-2.58-.1-.11-.55.06-.45.18.73.82,1.35,1.73,2,2.58a6.16,6.16,0,0,0,2.14,2A43.59,43.59,0,0,1,5.38,30.17a8,8,0,0,0,1.62,3c1.29,1.28,2,.48,3.59,1.29a3.69,3.69,0,0,0,2.76.14l.36.23c.18.7-.28,1.66,1,1.89,2.52.44,3.45,2.44,4.2,4.67a1.79,1.79,0,0,0-.61,1.21c-.25,2.88-1.8,5.3-1.53,8.18s4.09,2.29,3.85,6.16c-.16,2.52,2.54,6.12,3.23,8.61.86,3.12,1.29,6.35,2.15,9.47s2.31,9,6.16,9.55c.4.05,1.58-.05,1.75-.54l.05-.14c.53-.06,1-.42.94-1,0-.23-.1-.47-.15-.7A3.38,3.38,0,0,0,35.1,81c.07-2.94-2.12-5.81,2-7.89,2.18-1.09,2.42-2.56,3.08-4.74.38-1.27,4.41-1.8,5.52-2.82a3.66,3.66,0,0,0,1-2.44c0-2.17.37-3.7,2.14-5.26C54.39,53,46,51.11,42.34,50.16c-1.59-.41-4.15-2.87-4.25-4.4-.14-2.14-3.42-1.39-4.47-3.19-.14-.24-.68-.18-1.15,0A1.53,1.53,0,0,0,30,42.38c-.52-.69-1-1.44-1.56-2.07l0,0a.5.5,0,0,0-.23-.87c-1.34-.27-2.93.21-4-.77a2.29,2.29,0,0,0-2.43-.48c-.6-1-1.59-1.81-2-3.53-.33-1.24-.32-2-1.37-2.77s-.15-1.21,2.48-1.76a3.47,3.47,0,0,0,1,1.23,1.27,1.27,0,0,0,1.28,0,5.81,5.81,0,0,0,3.05-3.23c.2-.83-1.2-3.74.3-3.69a2.45,2.45,0,0,0,1.45-.25c.47-.29.54-1.22,1.23-.88a3.1,3.1,0,0,0,1.83.14c2.33-.62,1.78-3.3,4.32-3.48,2.87-.2,8.3-3.64,6.2-7-.78-1.26-2.47-4.09-4.32-3.87a5.24,5.24,0,0,0-2.47.89l-.95.72c-3.34,2.54-2.85-.64-1.26-1.78.69-.49.2-.88-.47-.83a7.48,7.48,0,0,0-5.06,2.48,6.6,6.6,0,0,0-1.93.09,2.17,2.17,0,0,1,.49-1.73,13.29,13.29,0,0,0,1.38-1.5c.18-.27,0-.39-.36-.4A43.25,43.25,0,0,1,51.77,2.78c-.63.11-1.41.51-1.17.75l.26.27a.65.65,0,0,0-.38.44s0,.09,0,.14l-.27-.68c-.24-.61-1.64-.23-1.87.24,0,.06,0,.13-.08.2,0-.15-.08-.29-.13-.44-.15-.43-.73-.39-1.22-.18l.08,0c.34-.19.23-.44-.12-.47a2.46,2.46,0,0,0-1.37.37l-.26.16c-.54,0-1.34.3-1.43.7,0,.16-.06.32-.09.48-1.76,1.69-2.77,4.07-.49,6,.38.32,1.51-.06,1.79-.39s.62-.79.93-1.18a1.84,1.84,0,0,1,1.5-.75c.29.26.94.16,1.38-.09a8.48,8.48,0,0,0,2.52-.72c2.22-1.06,3-2.82,1.11-4.69A43.31,43.31,0,0,1,69.09,9c-.37.15-.66.37-.59.62s.08.26.12.39c-.27-.34-1.15-.18-1.61.12-.58-.11-1.44.2-1.43.71,0,1.12-.93,1-1.23,1.83A7.92,7.92,0,0,0,63.87,15c-.47,0-1.12.24-1.23.73a3.72,3.72,0,0,0,0,1.8,1.76,1.76,0,0,0-1.06.46,2.32,2.32,0,0,0-.82.33c-.5.34-.41.91-1,.91a1.28,1.28,0,0,0-1.33.73,3.43,3.43,0,0,0,2.16,3.91c2,.59,3.52-.76,4.77-2.19.85-1,1.43-2.73,2.85-2a12.32,12.32,0,0,1,3.38,3.2,1.56,1.56,0,0,0,2,.28c.14.17.26.34.41.5a1,1,0,0,0,.82.13,2.77,2.77,0,0,0,1.72,0,1.07,1.07,0,0,0,.82-.68c.26-1-1.21-2.42-.06-2.66a2,2,0,0,0,1.52-1.08l.13.12c.28.26,1.06.09,1.52-.17a43.71,43.71,0,0,1,4.47,7,13.1,13.1,0,0,0-2.1-1.89,1.5,1.5,0,0,0-1.22,0c-.44-.25-1.71.08-1.77.54-.61,4.64-6.66-1.34-9-1.66-1.85-.26-3.63,1.52-5.32,1.08a5.33,5.33,0,0,0-3.14-.21c-1.56.62-.78,3.18-2.42,3.73l-.25.11c-.47,0-1,.25-1.08.58-6,4.4.5,21.48,9,17.3a5.11,5.11,0,0,1,4.38.37v0a.46.46,0,0,0,.38.21,3.66,3.66,0,0,1,1.54,1.84c.25.75.17,1.64,1,2.06,1.09.52,2.29.1,1.61,1.64-1.29-.92-2.54-1.91-3.82-2.86-.15-.11-.59.1-.38.26,1.34,1,2.64,2,4,3-.08.15-.17.31-.28.49L74.44,51.6c-.15-.12-.58.1-.38.27l1.82,1.48a9,9,0,0,0-.54,1.18A19.39,19.39,0,0,1,73.52,53c-.12-.11-.57.08-.45.18a16.43,16.43,0,0,0,2.15,1.75,2.24,2.24,0,0,0-.1.9,6.93,6.93,0,0,1-.36,2.86,8.63,8.63,0,0,1-1.24-1.54c-.08-.12-.55,0-.45.18l.13.19c-.72-.46-1.42-.95-2.11-1.45-.16-.12-.59.11-.38.27.88.64,1.77,1.28,2.71,1.83a.31.31,0,0,0,.24,0,6.78,6.78,0,0,0,.84.92.2.2,0,0,0,.15,0,4.93,4.93,0,0,0-.13,1.08c0,.28,0,.55,0,.81-1-.41-1.54-1.68-2.15-2.47-.06-.07-.23,0-.35,0-.5-.33-1-.68-1.5-1-.13-.09-.55.11-.45.18.71.48,1.4,1,2.15,1.44h0c.54.81,1.1,1.78,2,2.08a.58.58,0,0,0,.3-.07c.13,1.21.43,2.3.59,3.48l-.39-.42c-.12-.12-.58.06-.45.19.31.31.61.64.91,1a9.21,9.21,0,0,1,0,1.16c0,.09,0,.19,0,.28a16.41,16.41,0,0,1-1.33-1.42l0,0c.19,0,.57-.25.28-.31a3.77,3.77,0,0,1-1.85-1.48c-.47-.56-.89-1.17-1.34-1.74-.13-.16-.59,0-.44.21.53.67,1,1.36,1.57,2l.34.37v0a25,25,0,0,0,2.64,2.87c-.12.7-.29,1.51-.36,2.28-1.08-.91-2-2-3-3-.1-.09-.54.09-.45.17,1.18,1.07,2.19,2.34,3.46,3.29,0,.15,0,.3,0,.44l-.16-.25c-.09-.15-.56,0-.45.19a20.42,20.42,0,0,0,2.39,3.35c.13.13.58-.05.45-.19A11.1,11.1,0,0,1,76,72.41l.08,0c2.2.77,4.19-.23,5.85-1.72A44,44,0,0,1,74.54,78.93Z"/><path class="cls-1" d="M45.33,86.3c-.17-.07-.6.16-.38.26a5.21,5.21,0,0,1,1,.64c.15.11.59-.1.38-.26A5.25,5.25,0,0,0,45.33,86.3Z"/><path class="cls-1" d="M47,85.89c-.08-.12-.52.07-.48.13a3.48,3.48,0,0,0,1.05,1.05c.12.07.52-.12.46-.17A3.34,3.34,0,0,1,47,85.89Z"/><path class="cls-1" d="M48.31,85.62c-.13-.11-.58.08-.45.19a11.69,11.69,0,0,1,1.36,1.36c.11.13.57,0,.45-.19A11.86,11.86,0,0,0,48.31,85.62Z"/><path class="cls-1" d="M49.83,85.31c-.12-.09-.56.09-.45.18a17,17,0,0,0,3.54,2.57c.12.05.57-.13.39-.21A16.85,16.85,0,0,1,49.83,85.31Z"/><path class="cls-1" d="M53.28,85.7c-.39-.39-.75-.82-1.14-1.21-.15-.15-.61,0-.44.21.49.5.94,1,1.45,1.51a2.82,2.82,0,0,0,1.4.87c.24,0,.49-.29.17-.35A3.13,3.13,0,0,1,53.28,85.7Z"/><path class="cls-1" d="M57.64,86.66a16.59,16.59,0,0,1-2.74-2c-.19-.13-.6.12-.37.29A17,17,0,0,0,57.36,87C57.58,87.1,57.92,86.79,57.64,86.66Z"/><path class="cls-1" d="M56.32,83.58c.88,1.16,1.67,2.68,3.06,3.29.15.07.59-.15.38-.24-1.35-.6-2.14-2.12-3-3.25C56.66,83.25,56.2,83.42,56.32,83.58Z"/><path class="cls-1" d="M61.64,81.08c-.08-.1-.54.06-.45.17a11.06,11.06,0,0,0,2.63,3c.12.08.54-.12.45-.17A11,11,0,0,1,61.64,81.08Z"/><path class="cls-1" d="M64.06,82.11c-.47-.71-.86-1.48-1.3-2.21-.08-.13-.53.05-.48.13.77,1.28,1.62,3.61,3.23,4,.12,0,.54-.16.4-.19C65.08,83.65,64.51,82.78,64.06,82.11Z"/><path class="cls-1" d="M64.5,79.48c-.09-.12-.56,0-.45.18a15.35,15.35,0,0,0,3,3.51c.13.09.57-.1.45-.18A15.35,15.35,0,0,1,64.5,79.48Z"/><path class="cls-1" d="M65.06,77.87c-.15-.14-.61,0-.44.21a57.93,57.93,0,0,0,4.74,3.78c.16.13.59-.1.38-.27A57,57,0,0,1,65.06,77.87Z"/><path class="cls-1" d="M69.14,78.72a12.45,12.45,0,0,1-1.5-2.57c0-.12-.52,0-.48.13A13.41,13.41,0,0,0,68.8,79a4.63,4.63,0,0,0,2.14,1.82c.11,0,.54-.15.4-.19A4.91,4.91,0,0,1,69.14,78.72Z"/><path class="cls-1" d="M70,77.83c-.61-1-1.1-2.08-1.68-3.1-.09-.16-.56,0-.48.13.65,1.13,1.2,2.3,1.87,3.42.55.92,1.27,2.09,2.37,2.39.15,0,.57-.19.3-.26C71.22,80.09,70.5,78.73,70,77.83Z"/><path class="cls-1" d="M72.32,78.19a27.38,27.38,0,0,1-2.39-3.35c-.11-.17-.57,0-.44.21a27,27,0,0,0,2.39,3.35C72,78.56,72.47,78.37,72.32,78.19Z"/><path class="cls-1" d="M72.48,72.45c-.1-.16-.56,0-.45.2l.21.37c-.84-.69-1.57-1.51-2.4-2.23-.1-.09-.53.1-.45.17a32.65,32.65,0,0,0,3,2.71.27.27,0,0,0,.2,0,20.89,20.89,0,0,0,2.52,3.69c.13.14.59,0,.45-.2A27.91,27.91,0,0,1,72.48,72.45Z"/><path class="cls-1" d="M73.54,72.88c.91,1.08,1.8,2.18,2.79,3.19.09.09.53-.09.46-.16-1-1-1.88-2.11-2.79-3.19C73.92,72.62,73.47,72.79,73.54,72.88Z"/><path class="cls-1" d="M63.91,77.94a23.91,23.91,0,0,1-2.84-1.89c-.12-.11-.57.08-.45.19a24.47,24.47,0,0,0,2.9,1.94C63.65,78.25,64.1,78.07,63.91,77.94Z"/><path class="cls-1" d="M62.78,76.16c.52.44,1,.88,1.6,1.28.14.1.59-.09.45-.19-.55-.4-1.07-.84-1.59-1.28C63.09,75.86,62.64,76,62.78,76.16Z"/><path class="cls-1" d="M65.86,76.14c-.74-.42-1.45-.88-2.15-1.36-.13-.08-.55.11-.45.18.71.47,1.41.94,2.15,1.36C65.54,76.39,66,76.19,65.86,76.14Z"/><path class="cls-1" d="M67,75.8c.16.11.59-.11.38-.26l-2.39-1.67c-.16-.11-.59.11-.38.26Z"/><path class="cls-1" d="M66.29,73.13c.65.49,1.26,1,1.95,1.46.13.08.58-.11.39-.23-.66-.43-1.26-.94-1.88-1.41C66.6,72.84,66.16,73,66.29,73.13Z"/><path class="cls-1" d="M70.59,68.89a26.83,26.83,0,0,0,4.47,4c.13.08.54-.12.45-.17a26.78,26.78,0,0,1-4.47-4C70.95,68.62,70.5,68.8,70.59,68.89Z"/><path class="cls-1" d="M67.12,70.85c.17.1.6-.14.37-.27a19.81,19.81,0,0,1-2.07-1.36c-.16-.12-.59.11-.38.27A19.67,19.67,0,0,0,67.12,70.85Z"/><path class="cls-1" d="M67.14,68c-.09-.08-.52.1-.46.16a5.14,5.14,0,0,0,1.94,1.29c.11,0,.53-.15.4-.18A5.06,5.06,0,0,1,67.14,68Z"/><path class="cls-1" d="M70.2,68.74c.22.08.57-.23.27-.34a9.65,9.65,0,0,1-2.26-1.65c-.18-.14-.6.12-.37.29A10,10,0,0,0,70.2,68.74Z"/><path class="cls-1" d="M69.08,65.95a25.23,25.23,0,0,0,2.26,1.69c.12.08.57-.11.39-.22a24.39,24.39,0,0,1-2.2-1.66C69.4,65.66,69,65.85,69.08,65.95Z"/><path class="cls-1" d="M69.72,64a18.06,18.06,0,0,0,2.19,2c.19.13.6-.12.37-.29a17.48,17.48,0,0,1-2.12-2C70,63.59,69.54,63.79,69.72,64Z"/><path class="cls-1" d="M74.46,63.85c.19.13.61-.13.37-.29-1.16-.77-1.82-2.1-2.68-3.15-.15-.18-.6,0-.44.22C72.6,61.7,73.27,63.06,74.46,63.85Z"/><path class="cls-1" d="M73.83,56.42c-.11-.15-.58,0-.45.2s.38.47.56.72.58,0,.45-.2S74,56.67,73.83,56.42Z"/><path class="cls-1" d="M22.57,76.36c0-.24-.46-.17-.49,0a3.88,3.88,0,0,0,.08,1.88c.08.21.56.08.48-.13A3.69,3.69,0,0,1,22.57,76.36Z"/><path class="cls-1" d="M21.53,74.4s-.46,0-.48.13a5.48,5.48,0,0,0,.16,2.79c0,.11.51,0,.48-.13A5.48,5.48,0,0,1,21.53,74.4Z"/><path class="cls-1" d="M19.86,73.69c0-.15-.48-.06-.48.13a14,14,0,0,0,.08,2.55c0,.16.51,0,.48-.13A14,14,0,0,1,19.86,73.69Z"/><path class="cls-1" d="M17.54,71.9v3.59c0,.14.48,0,.48-.13V71.77C18,71.64,17.54,71.72,17.54,71.9Z"/><path class="cls-1" d="M15.94,71.46c0,.89,0,1.78.08,2.67,0,.2.5.09.48-.13-.07-.86-.08-1.73-.08-2.59C16.43,71.18,15.94,71.26,15.94,71.46Z"/><path class="cls-1" d="M14.35,68.59a17.06,17.06,0,0,0,.32,3.87c.05.22.54.09.48-.13a16.59,16.59,0,0,1-.32-3.78C14.83,68.3,14.35,68.37,14.35,68.59Z"/><path class="cls-1" d="M12.84,65.87c0-.11-.48,0-.48.13-.07,1.49,0,3,.08,4.47,0,.12.49,0,.48-.13C12.84,68.85,12.77,67.36,12.84,65.87Z"/><path class="cls-1" d="M11.56,62.62c-.34,1.84-.76,3.73-.08,5.54.06.17.54,0,.48-.13-.67-1.79-.26-3.66.08-5.47C12.07,62.37,11.59,62.46,11.56,62.62Z"/><path class="cls-1" d="M8.69,59.42c0,2.52.16,5,.32,7.54,0,.18.5.08.48-.13-.16-2.48-.31-5-.32-7.46C9.17,59.14,8.68,59.24,8.69,59.42Z"/><path class="cls-1" d="M7.73,56.38a30,30,0,0,0-.32,6.86c0,.25.49.17.49,0a30,30,0,0,1,.32-6.86C8.27,56.11,7.77,56.18,7.73,56.38Z"/><path class="cls-1" d="M6.78,53c-.66,2-.59,4.1-.88,6.16,0,.05.46,0,.48-.13.28-2.05.22-4.13.87-6.12C7.28,52.8,6.81,52.86,6.78,53Z"/><path class="cls-1" d="M7,49.75a9.49,9.49,0,0,0-2,5.56c0,.12.48,0,.48-.13a9.38,9.38,0,0,1,2-5.44C7.51,49.59,7,49.64,7,49.75Z"/><path class="cls-1" d="M5.1,51.19c0-1.76.15-3.75,1.82-4.76.28-.17-.16-.17-.29-.09-1.79,1.07-2,3.05-2,5C4.62,51.43,5.1,51.35,5.1,51.19Z"/><path class="cls-1" d="M5.2,44.09a7.61,7.61,0,0,0-1.54,4.36c0,.1.47,0,.48-.13a7.43,7.43,0,0,1,1.5-4.25C5.75,43.93,5.28,44,5.2,44.09Z"/><path class="cls-1" d="M4.15,44.86A4.56,4.56,0,0,1,5.7,42.24c.21-.23-.26-.31-.41-.15a4.85,4.85,0,0,0-1.64,2.8C3.65,45.15,4.14,45.08,4.15,44.86Z"/><path class="cls-1" d="M4.46,41.89a5.2,5.2,0,0,1,1.1-2c.11-.12-.36-.07-.44,0A5.35,5.35,0,0,0,4,42C3.94,42.08,4.42,42,4.46,41.89Z"/><path class="cls-1" d="M5.14,38.81l.48-.72c.17-.26-.28-.33-.41-.15l-.48.72C4.57,38.92,5,39,5.14,38.81Z"/><path class="cls-1" d="M5.31,37.39c.27,0,.37-.34,0-.34S5,37.39,5.31,37.39Z"/><path class="cls-1" d="M70.27,61c.13.07.53-.13.45-.17a12.52,12.52,0,0,0-1.39-.73c-.12,0-.55.14-.39.2A12,12,0,0,1,70.27,61Z"/><path class="cls-1" d="M71.6,59.7c-.41-.31-.86-.56-1.28-.88-.13-.1-.57.09-.45.18.41.31.87.56,1.28.88C71.28,60,71.72,59.79,71.6,59.7Z"/><path class="cls-1" d="M74.44,56.09A22.24,22.24,0,0,1,71.84,54c-.12-.1-.57.08-.45.18a22.7,22.7,0,0,0,2.66,2.09C74.18,56.39,74.63,56.2,74.44,56.09Z"/><path class="cls-1" d="M36.71,23.44c-.16-.14-.59.1-.37.28.45.38.9.75,1.32,1.16.15.15.61,0,.44-.21C37.66,24.24,37.19,23.84,36.71,23.44Z"/><path class="cls-1" d="M38.42,22.2c-.11-.17-.57,0-.44.21a12.72,12.72,0,0,0,.88,1.2c.13.16.59,0,.44-.21A12.74,12.74,0,0,1,38.42,22.2Z"/><path class="cls-1" d="M39.49,21.91a16.21,16.21,0,0,1,1.34,1.66c.09.12.52-.08.48-.13a16.9,16.9,0,0,0-1.37-1.69C39.86,21.66,39.41,21.83,39.49,21.91Z"/><path class="cls-1" d="M41,21.44c.39.47.77.93,1.12,1.44.09.13.56,0,.45-.18-.34-.5-.73-1-1.12-1.44C41.35,21.14,40.89,21.3,41,21.44Z"/><path class="cls-1" d="M42.28,21c.41.58.82,1.16,1.2,1.75.1.16.57,0,.45-.2-.38-.6-.79-1.18-1.2-1.75C42.62,20.62,42.15,20.79,42.28,21Z"/><path class="cls-1" d="M43.69,19.83c-.11-.1-.56.08-.45.18a13.93,13.93,0,0,1,3.33,4.28c.06.14.54,0,.48-.13A14.1,14.1,0,0,0,43.69,19.83Z"/><path class="cls-1" d="M45.23,18.81A20.26,20.26,0,0,1,48.64,24c0,.14.53,0,.48-.13a20.41,20.41,0,0,0-3.44-5.29C45.6,18.52,45.14,18.68,45.23,18.81Z"/><path class="cls-1" d="M51.76,22.64c-.71-2-2.23-3.53-3.6-5.12-.08-.09-.52.08-.46.16,1.36,1.58,2.87,3.08,3.58,5.09C51.31,22.88,51.79,22.73,51.76,22.64Z"/><path class="cls-1" d="M53.75,20.54c.09.2.57.06.48-.13a29.83,29.83,0,0,0-4.17-6c-.12-.16-.59,0-.44.21A29.56,29.56,0,0,1,53.75,20.54Z"/><path class="cls-1" d="M56.7,19.53a33.05,33.05,0,0,0-3.68-6c-.08-.11-.55,0-.45.18a32.84,32.84,0,0,1,3.65,6C56.29,19.8,56.76,19.65,56.7,19.53Z"/><path class="cls-1" d="M58.62,16.58q-1.44-2.73-3.13-5.3c-.1-.15-.57,0-.45.2a60.3,60.3,0,0,1,3.09,5.23C58.23,16.89,58.7,16.73,58.62,16.58Z"/><path class="cls-1" d="M60.77,16c-.72-1.72-1.63-3.34-2.49-5-.1-.18-.56,0-.44.21.85,1.62,1.75,3.21,2.45,4.9C60.38,16.36,60.86,16.22,60.77,16Z"/><path class="cls-1" d="M61.63,13.84c-.58-1-1.2-1.93-1.83-2.87-.1-.14-.56,0-.45.19C60,12.1,60.61,13,61.18,14,61.27,14.18,61.74,14,61.63,13.84Z"/><path class="cls-1" d="M63.24,12.51c-.38-.7-.71-1.42-1-2.15-.08-.18-.55,0-.48.13.32.73.65,1.45,1,2.15C62.86,12.82,63.33,12.66,63.24,12.51Z"/><path class="cls-1" d="M47.93,64.35c0-.21-.48-.12-.48.06a8.4,8.4,0,0,1-1.12,3.83c-.75,1.35-2.11,1.87-3.44,2.45s-2.53,1.41-2.5,3c0,.22.49.11.48-.06,0-2.54,2.9-2.8,4.58-4S47.85,66.29,47.93,64.35Z"/><path class="cls-1" d="M45.25,72.68c1.34-1.41,3.32-2.36,3.52-4.5,0-.21-.47-.13-.49.05-.19,2.08-2.13,3-3.42,4.35C44.66,72.8,45.13,72.81,45.25,72.68Z"/><path class="cls-1" d="M17.9,55.46a6.81,6.81,0,0,0-2-2.14c-1.29-1.07-1.36-2.75-1.07-4.28,0-.19-.45-.12-.48.06a5.1,5.1,0,0,0,.44,3.71c.71,1.13,2.06,1.55,2.67,2.79C17.5,55.76,18,55.61,17.9,55.46Z"/><path class="cls-1" d="M14.62,54.92a3.8,3.8,0,0,1-1.5-2.57c0-.18-.51-.07-.48.13a4,4,0,0,0,1.61,2.69C14.38,55.28,14.82,55.07,14.62,54.92Z"/><path class="cls-1" d="M12.62,55.54a5.21,5.21,0,0,1-1.06-1.63c-.09-.23-.58-.09-.48.13a5.5,5.5,0,0,0,1.1,1.72C12.34,55.92,12.79,55.72,12.62,55.54Z"/><path class="cls-1" d="M30.91,39C29.63,38.42,29,37.3,27.5,37.1c-.13,0-.57.2-.3.24,1.38.19,2,1.15,3.12,1.79.95.54,2.29.68,2.91,1.65.08.12.55,0,.45-.18C33.09,39.67,31.84,39.47,30.91,39Z"/><path class="cls-1" d="M32.77,37a10,10,0,0,1-3-1.83c-.13-.1-.57.09-.45.18A12.19,12.19,0,0,0,31.75,37c.83.38,2,.43,2.54,1.31.09.15.55,0,.48-.13A3.21,3.21,0,0,0,32.77,37Z"/><path class="cls-1" d="M33,33.67c-.11-.09-.55.09-.45.17.8.71,1.41,1.63,2.27,2.27.12.09.55-.1.45-.17C34.37,35.29,33.77,34.38,33,33.67Z"/><path class="cls-1" d="M29.15,27.63c0-.25-.47-.18-.49,0-.21,2.84-4.07,2.94-4.07,5.86,0,.25.49.18.49,0,0-1.64,1.2-2.29,2.4-3.12A3.54,3.54,0,0,0,29.15,27.63Z"/><path class="cls-1" d="M27.23,33c0,.15.47.05.48-.08.21-2.2,3.38-2.13,3.47-4.45,0-.1-.48,0-.48.13C30.61,30.8,27.44,30.74,27.23,33Z"/><path class="cls-1" d="M63.06,48.94c.26,0,.39-.33.05-.31-1.51.09-2.88-1.2-3.79-2.26-.13-.15-.59,0-.45.2C59.91,47.77,61.37,49,63.06,48.94Z"/><path class="cls-1" d="M64.21,50c.3-.15,0-.27-.18-.17-1.36.65-3.36-.47-4.39-1.36-.12-.1-.57.08-.45.18C60.43,49.72,62.58,50.76,64.21,50Z"/><path class="cls-1" d="M63.57,51.57a7.26,7.26,0,0,1-3.41-.85c-.16-.1-.6.13-.38.26a7.7,7.7,0,0,0,3.61.91C63.61,51.92,63.9,51.6,63.57,51.57Z"/><path class="cls-1" d="M54.63,33.14A8.55,8.55,0,0,0,55.5,38c.07.13.53,0,.48-.13A8.55,8.55,0,0,1,55.11,33C55.12,32.93,54.64,33,54.63,33.14Z"/><path class="cls-1" d="M52.23,33.81a5.57,5.57,0,0,0,1.41,3.94c.15.14.58-.09.37-.27a5.38,5.38,0,0,1-1.3-3.71C52.72,33.53,52.23,33.61,52.23,33.81Z"/><path class="cls-1" d="M52.06,37.59A12.32,12.32,0,0,1,51,35.08c-.08-.23-.56-.09-.48.13a12.81,12.81,0,0,0,1.14,2.6C51.74,38,52.2,37.81,52.06,37.59Z"/></svg>