<svg id="Layer_1" data-name="Layer 1" xmlns="http://www.w3.org/2000/svg" viewBox="0 0 76.38 130.3"><defs><style>.cls-1{fill-rule:evenodd;}</style></defs><title>grill</title><path class="cls-1" d="M6.51,45.47c0-.47.56-.29.59-.71-.78.31-1.19,1-2,1.26.16.89-1.44,1.88-2.33,1.68C4.25,46,6.27,44.17,8.55,43.79a48.42,48.42,0,0,1,4.5-2.93c0-.17-.26-.13-.43-.15,2.27-1.65,3.41-4.46,4.86-6.95.28,2.19-3.15,4.91-3.43,7-.48.18-1.6,1.12-1,1.42-.24.09-.94.32-1-.16C10,42.82,8.45,45,6.51,45.47Z"/><path class="cls-1" d="M8.82,44.94c-.63,1.22-2.93,1.4-2.92,2.82C5.08,48,4.42,49,3.72,48.87A10.77,10.77,0,0,1,8.82,44.94Z"/><path class="cls-1" d="M26.59,14.53c1.09-.35,2-1.59,3-1.52-.93,1.15-2.71,1.8-4.21,2.8-.6.4-1.09,1.09-1.89,1.12.77-1.79,2.82-2.25,3.8-3.81-2.8.78-4.69,3.7-7.55,4.89,2.66-1.88,4.68-4.41,8.14-5.45C28.09,13.85,26.94,13.78,26.59,14.53Z"/><path class="cls-1" d="M23.51,90.14a1.83,1.83,0,0,0,1.3-.26,4,4,0,0,1-3,1.53c.71-1.52,2.38-2.19,3.64-3.09a33,33,0,0,1,3.93-2.8,100,100,0,0,1,10.18-7.14c-.94,1.49-2.85,2.38-4.51,3.51a39.58,39.58,0,0,0-4.8,3.5c.43.34.72-.45,1.44-.26-.56.88-1.51.62-2.31,1C27.14,87,25.61,89.12,23.51,90.14Z"/><path class="cls-1" d="M25.67,18.11c1-2,3.31-2.71,5-4.08.38-.31-.44-.48,0-.86,3.59.44,6.76,0,10.47.48-2.17.8-7.2-.2-10.05.25A48.28,48.28,0,0,1,25.67,18.11Z"/><path class="cls-1" d="M27.81,18.86c0-.1,0-.19,0-.29a6.55,6.55,0,0,1,4.06-2.37C30.35,16.92,29.4,18.22,27.81,18.86Z"/><path class="cls-1" d="M28,71.42q0-.22,0-.43c2.39-1.14,4.63-3.18,6.54-4.33-.84,1.38-2.95,2.7-4.66,3.65,0,.18.43.2.43,0C30.34,70.91,29,71.32,28,71.42Z"/><path class="cls-1" d="M29.34,21.33c.21-1.87,2.1-2,3.07-3.1A9,9,0,0,1,29.34,21.33Z"/><path class="cls-1" d="M29.91,93.85c.05-.39.61-.25.73-.56C31.11,93.65,30.29,93.89,29.91,93.85Z"/><path class="cls-1" d="M31.16,32a90.84,90.84,0,0,1,8.1-11.2c.12.88-.9,1.52-1.48,2.27-1.77,2.32-3.55,5.29-5.45,7.51A3.66,3.66,0,0,1,32,31.72C31.6,31.71,31.53,32.37,31.16,32Z"/><path class="cls-1" d="M31.27,25.67c1.09-1.75,2.05-3.62,3.68-4.82C33.66,22.4,33.06,24.65,31.27,25.67Z"/><path class="cls-1" d="M31.59,15.92c1-1,4.82-1.12,5.75-.47C36,15.54,32.88,15.78,31.59,15.92Z"/><path class="cls-1" d="M36.67,21.18c-1,2.08-3.42,4-4.42,6.53a.69.69,0,0,1-.43.14.8.8,0,0,1-.13-.58C33.32,25.18,34.89,22.68,36.67,21.18Z"/><path class="cls-1" d="M38.92,15.62c.22.88-1.36,2.38-1.65,3.7-.17,0-.26,0-.29.14C36.61,18.25,38.09,16.54,38.92,15.62Z"/><path class="cls-1" d="M41.8,15.24c0,1.42-2.13,2.65-1.94,4.27a4.58,4.58,0,0,1-1,1.13.39.39,0,0,1-.28-.44,12.76,12.76,0,0,1,2.37-3.83C41.15,15.93,41.11,15.21,41.8,15.24Z"/><path class="cls-1" d="M45.87,44c2.53,1.33,5.1,2.6,5.21,5.55,0,1.05-.61,2.22-.49,3.44.08.77.71,1.4.82,2.17,2.22-.5,4-1.27,3.8-3.66-.11-1.6-1.09-3.43-1.06-4.9.08-4.45,3.4-6.6,7.31-7.62.06.87-1,1.19-1.19,2.13a4.29,4.29,0,0,0,.39,2.45c.28-.06.37-.3.72-.27.21.52-.49.08-.44.42.06.95,1.44.75,1.85,1,.25.18.39.83.84,1.31.76.81,1.75,1.62,1.52,3.47C65.06,50.33,64,51.12,64,52a1.6,1.6,0,0,0,2,1.47c1.92-.61,1.21-2.84,1.39-5.14s1.6-3.81,3.93-3.09c-.64,1.09-1.74,1.7-1.36,3.85.17.66.51.62,1,.74.18,1.43,2.15,2.45,2.22,4.06a3.71,3.71,0,0,1-1.19,2.56c-.86-.93,1.25-2.08.2-3.3-1.3.75-2,2.1-3.64,2.52.81-1.3,2.54-1.65,3.21-3.1a6.3,6.3,0,0,0-1.41-1.6c-1.89.38-3.72,5.13-6.37,2.9-.48-.4-.44-1.15-.83-1.88.25-1,1.1-1.39,1.19-2.56-2.05.94-4,3.22-6.11,4.63-.37.23-.59,1.15-1.16.7,1.62-2.17,5.06-3.84,7.14-6a2,2,0,0,0-.68-1.88c-2.84,1.29-5,3.34-7.41,5-.21,2.61-2.05,3.52-4.38,3.94-3.2-1-.78-5.12-1.87-7.79-2.08,2-6,3.55-6.15,6.64,1.68-.84,3.36-2.94,5.38-3.92-1.14,1.6-3.75,2.93-5.25,4.64,0,.44.43.52.27,1.15-.83.14-.51-.82-1.13-.88-.84-4,4.12-4.92,4-8.25C46.92,45.91,45.92,45.22,45.87,44Zm3.39,3.22c-.28,0-.17-.39-.57-.3a13,13,0,0,0-1.48,2.56C47.75,48.6,49,48.43,49.26,47.24Zm-1.59.4c.19-.43.43-.82.6-1.28-.35-.14-.68-1-1.14-.6C47.66,46.07,47.39,47.13,47.68,47.65Zm12.26-3.37a8.56,8.56,0,0,0-.4-1.73c-1.85.86-2.88,2.57-4.52,3.65,0,.62,0,1.24,0,1.87C57,47.14,58,45.26,59.94,44.28Zm-.23-3.45c-1.66,1.44-3.6,2.61-4.68,4.65C56.68,44,59.12,42.94,59.72,40.83Zm-4.31,8c-.19.62.35,1.73.38,2.59,2.41-1.64,4.67-3.44,7.27-4.89-1.24-1.9-2.69,1-3.9,1.37-.81.7-1.84,2.63-2.91,2.1,1.91-1.43,3.63-3.06,5.54-4.5a8.66,8.66,0,0,0-1.7-1A50,50,0,0,0,55.41,48.79Zm3.74-8.26a7.31,7.31,0,0,0-3.65,3.38C57,43,57.78,41.5,59.15,40.53ZM69.89,50.2c-.13-.16-.53-.05-.42-.44A5.13,5.13,0,0,0,68,51.89C68.69,51.4,69.64,51.16,69.89,50.2Zm-1.72,0a2.08,2.08,0,0,0,1-2.28C68.49,48.35,67.75,48.94,68.16,50.17Zm1.52-4.42a2.42,2.42,0,0,0-1.48,2.41C68.71,47.47,69.76,46.57,69.68,45.75Z"/><path class="cls-1" d="M49.67,48.83c-1,1.91-3.51,2.31-4.53,4.23-.23,0-.24-.14-.43-.15C45.57,51.31,47.89,50,49.67,48.83Z"/><path class="cls-1" d="M49,52.7a18.77,18.77,0,0,1-2.78,2.68c.34.29,1-.37,1.58-.26-.91.37-1.42,1.16-2.61,1.24,0-.17,0-.26-.14-.29C46.16,54.8,47.61,53.15,49,52.7Z"/><path class="cls-1" d="M47.09,56.54c.32-.71,2.36-1.13,1.9-1.69.06-.46.79-.3.86,0A4.57,4.57,0,0,1,47.09,56.54Z"/><path class="cls-1" d="M48.95,40.78c1.84.22,4,2,2.8,3.78-.45-.13-.7-.53-.86.13-.59-.4-.17-.53-.27-.87C50.16,42.34,48.28,42.34,48.95,40.78Zm2.53,3.06a2,2,0,0,0-2-2C50.45,42.2,50.61,43.36,51.48,43.84Z"/><path class="cls-1" d="M55.9,53.25a77.87,77.87,0,0,1,6.69-4.9c-1.34,1.84-4.3,3.24-6.12,5.06C56.17,53.46,56.1,53.3,55.9,53.25Z"/><path class="cls-1" d="M58.45,55.59c1-1.46,2.74-2.23,3.94-3.52C61.9,53.57,60.11,54.85,58.45,55.59Z"/><path class="cls-1" d="M59.1,75.28c0-.58.9-.14,1.3-.26C60.34,75.49,59.56,75.22,59.1,75.28Z"/><path class="cls-1" d="M68.11,68.83c-.34-.25.09-1.46.45-1C68.11,68.1,68.27,68.55,68.11,68.83Z"/><path class="cls-1" d="M68.15,75c.5.49.22.92.4,1.59C68,76.42,68.2,75.61,68.15,75Z"/><path class="cls-1" d="M20.32,51.75c.91.16,2.41-1.1,3.46-.8-3.87,2.08-8.23,3.65-12,5.81a31.38,31.38,0,0,0-.22,4.16C19.6,60.7,29,59.21,38.14,59c8.44-.23,16.93-.89,25-1.42,4.1.38,9,.34,12.48.8.9,1.54,1.09,4.19,0,5.46-.36,0-.33-.54-.13-.72-.65.22-.31,1-1.59.83-.45,4.83-.88,9.74-1.55,14.18-.49,3.26-2,5.92-2.59,8.42-2.51,2.07-4.12,5.09-6.73,7.06.76,5.56,2.74,11.46,4.43,17.17s3,11.78,4.72,17a30.72,30.72,0,0,1-5.78,1.91c-.94-.12.14-1.34-.54-1.73-.38.06.34,1-.16,1.15s-1.11-1.28-1.26-1.75c-.77-2.45-1-5.2-1.73-7.78-2.14-7.51-4.13-15.42-6.48-22.66-7.1,2.27-17.26,1.82-24.71.71-.31,1.12-.37,2.13-.78,3.29-.17.47-.75,1-.89,1.42-.21.67-.11,1.54-.33,2.29-1.34,4.57-3.2,11-4.44,15.43-.41,1.46.8,2.12.95,3.32.05.4-.39,1.3-.47,2.15-.12,1.27-.15,2.31-.77,3-2,2.24-7.37,2.62-9.9-.18-2.77-3.06-1.72-9.08,3.32-9.27,2-7.63,3.76-16.18,5.17-23.88A29,29,0,0,1,12,82.61a49.14,49.14,0,0,1-1.35-4.76C9.54,74.43,8,71,8.27,67.47c-1.17-.23-1.06.13-1.87.4-.07-1-.39-1.79-.53-2.74-.61.68.79,1.78-.18,2-1.18-.09,0-2.8-1.23-3.32.83-.52.33-1.41.47-2.15,1-.1.6,1.2,1,1.74a1.19,1.19,0,0,0-.4-2c-.13-.52.62-.13.73-.42a7.74,7.74,0,0,1-.41-1.3c-.67.39-1.49-.7-1.69-1.61-1-.11-.42,1.32-1,1.56-.39-.79.38-1.52.61-2.14-1.35-1.57-.55-3.48.38-5.16C.25,47-1.78,36.54,2.06,29.6c.35-.34-.34-.39-.13-1,1.86-2.9,3.65-5.87,6.32-7.93-.15-.38-.75-.31-.85-.73-.78-2.49-3.26-3.35-3.48-6.38.46-.4.4.55.85.59-.83-2.91,1.47-5.87,3.58-7.26C10,5.79,12.51,4.61,14.87,3.41A39.86,39.86,0,0,1,24.7,0c1.52.24,2.67,1.39,4,1.36C30.21,3.8,31.54,6.43,32.86,9c5-.42,8,.3,12.34.65.07.32-.28.2-.3.43,2.17.3,4.57.39,5.71,1.68,5.79,1.36,8.33,7.55,11.13,11.83.29.32.41-.06.86,0-.52,1.24.45,1.71,1.4,2,.2.55-.4.27-.3.71,1,.13,0-1,.74-1.28,1,.35.93,1.54,1.25,2.18a15.76,15.76,0,0,1,1.39,2.46c0,.63-.51,0-.72,0-6.95,4.4-14.85,7.47-22.6,11.22-5.67,2.75-11.55,5.22-17.37,8-2,1-4.19,1.78-5.93,2.77ZM8.6,40.92c-.38.48-.83.9-1.17,1.41a22.76,22.76,0,0,0,3.63-2.52c-.21-.08-.74.16-.71-.16,2.66-1,2.95-4.35,5.27-5.65-1.27,1.67-2.6,3.87-3.84,5.82a5.25,5.25,0,0,1-2.34,2.25c.06-.24.69-.63.3-.86-.42.53-1,.63-.74,1.13-1.41,0-2.41,1.42-3.63,2.09C3.71,44,3.16,46.32,2,47.12a19,19,0,0,0,2.65,4.5A2.81,2.81,0,0,0,5,50.47q3.14-2,6.1-4.2a21.19,21.19,0,0,0,6.53-4.19A11.64,11.64,0,0,0,14,43c.32.2.55-.36.57,0a11,11,0,0,0-5.09,3.35C7.9,46.92,7,48.18,5.59,48.9c-.17.64-1.2,1.67-1.74,1,3.62-3.39,7.7-5.64,11.78-8.69a7.4,7.4,0,0,1-2.16.54,5,5,0,0,1,2.6-.81c1.65-2.43,3-5.21,5-7.23-2.46,3.15-3.19,7-6.33,8.93,1-.3,2.26-1.14,3.46-.8,1.43-2.12,2.72-4.4,4-6.68-.32-.2-.54.36-.57,0,.33-.11.9-.71,1.16-.41-1.67,3.32-4.06,6.55-3.64,10.56.2-.28.64-.31,1-.41.22-.8.88-1.91.76-2.57-.12.28-.67.86-1,.41.6-1.28,1.66-2.08,2.07-3.55,1.25-.9,1.73-3.37,2.94-3.82a26.58,26.58,0,0,0-4,9.12c.55-.07.8-.43,1.44-.4,0-1,.89-1.55.33-2.29.55-1,1.46-1.61,1.63-3,1.88-.88,1.84-3.74,3.53-4.82-1.41,3.46-3.83,5.87-4.91,9.67,1.1,0,1.62-.66,2.32-1.11-.27-1.56,1.06-3.95,2.24-5-.18.84-1.05,1.73-.91,2.42,1.83-2.3,3.09-5.17,4.87-7.52a16,16,0,0,1-2.08,4.13.39.39,0,0,1,.43.29,27.46,27.46,0,0,0-1.94,4.27c.79-.06,1.18-.53,1.88-.68-.1-.44.26-.42.16-.86,1-1.22,1.14-3.4,2.52-4.26-.32,1.72-1.83,3-1.66,4.71,2.27-1.3,5.61-1.49,6-4.77-.64.17-.86,1.55-1.46,1.27A11.51,11.51,0,0,1,37,33.67c.58-.62,0-2.49,1.19-2.42-.24.39-.22,1-.46,1.43a23.47,23.47,0,0,0,4.71-6.38c0,.34-.39-.17-.42-.3,2.68-2.67,4.37-6.38,7.2-8.92a2.78,2.78,0,0,1-1.28-.6c-1.3,1.87-2.69,3.64-4.12,5.38.4.73-.74,1.11-.6,1.57a.68.68,0,0,0-.43.13,78.78,78.78,0,0,1-6.91,8.92c-.28.86-.22.82-.88,1.13-.08.77.44-.42.57.15-1.43,1.36-1.6,3.89-2.82,5.12-.7-.95,1.09-2.29.92-3.14-.13.25-.54.39-.57,0,5-6.26,10-13.76,14.56-19.55-.63,0-.73-.42-1.28-.45-1.65,2.09-3.21,4.28-4.85,6.37.17,0,.41,0,.43.15a2.9,2.9,0,0,1-1.89,1.26C38,27.12,35.37,30.16,33,33.46c.48.06.24-.63.87-.41-.62.57-1.41,2.37-2.33,1.68,3.11-4.33,6.48-8.39,9.28-13-.51,0-.3.67-.87.56.35-.53.79-1,1.31-1-.82-.36.77-.65,1-.84,1.32-1.05,2.42-3.8,3.68-4.82-.38-.25-.91-.35-1.28-.6-1.58,2-2.6,4.86-4.41,5.81.3-1.79,2.86-3.27,3.11-5.11,0,.13-.4.62-.44.28.26-.46,1-.42,1-1.13-.5-.69-2.38-.05-2.57-1.05,1.83-.35,3.31.85,4.86,1.24.29-.28.74-.41.88-.85-3.5-1.79-8.34-2-12.46-1.8-1.81.08-4.5.9-5-.38,4.24,0,9.57-.08,12.64-.2,4.51,1.57,9,3.19,12.39,5.82-1.21-2.79-6.33-4.38-9.67-5.34-1.18-.34-1.66-1-3.28-1.06-4.47-.08-8.46.27-12.49.06-.57-.14-.12-.71-.56-.73a21.63,21.63,0,0,0-6.06,1.76c1.42-.28,3.17-1,4.61-.78a59.86,59.86,0,0,0-14.9,6,1,1,0,0,1,0,.86c-.53.18-.72.71-1.31.84,0,.19,0,.38,0,.57-4.5,4.06-8.68,9.23-8.92,17.21.94-1.61,1.4-3.71,3-4.69-.93,2.49-3.38,4.2-3.15,7.41C3.17,38,4,35.65,5.42,34c-.6,2.87-4,5.18-3.45,8.41,1.83-2.64,2.68-6.28,5.45-7.94C5.76,36.7,3.66,39.3,3,42.11c-.06-.28.67-.45.72-.13a19.22,19.22,0,0,0-1.9,1.83c-.44-.42-.39-1.55-1-2.17a18.32,18.32,0,0,0,.93,4.47c1.57-.83,2.85-3.13,4.64-2.79.34-.55.27-1.2.75-1.85C6,42.45,4.1,42.92,3.67,44A.15.15,0,0,1,4,44c-.64.39-1.65,1.51-2.31,1,1.62-1.1,2.38-3.09,3.53-4.68.19-.46-.46-.12-.28-.58C7,38.55,7.26,35.43,9.3,34.18c-.65,1.62-2.26,3-2.52,4.55a3.71,3.71,0,0,1,1.31-1C7,39.16,4.43,40.57,4.84,42.57c3.39-1.36,3.92-5.68,6.32-8.07-.42,1.85-1.7,2.82-2.23,4.55.34,0,.82-.6,1.15-.12C9.37,39.51,6.61,41.88,8.6,40.92ZM6.77,22.79c-.88.95-2.13,2.11-2.36,3.26A12.82,12.82,0,0,0,6.77,22.79ZM58.21,28.6c.16,0,.22.16.28.29-.73,1.25-1.4,2.54-2.22,3.69.73-.07,1-.63,1.74-.69a23.37,23.37,0,0,1,1.19-2.13c.35-.64.55-1.77,1.47-1.84-.17,1.38-1.59,2.25-1.5,3.42.3-.28.32-.84.88-.85,0,.17-.26.32,0,.43.47-1.27,1.4-2.83,1.79-3.7-2,.28-4.7,1.76-6.8,2.75C39,37.57,21.52,44.9,6.65,53.52a3.09,3.09,0,0,0-2,1.4c-.07.82.74.79,1,1.31.14-.63.08-1.47.61-1.71.34.41-.38,1.74.1,2.3.27-1,.66-.26,1.29-.12-.47-.75-.12-3.5.78-3.29.1,1.11-.78,2.14-.19,2.87.22-.84,0-3.11,1.35-3.28-.15.94-.86,2-.63,2.86a4.31,4.31,0,0,0,1.6-1,4.48,4.48,0,0,1,1.21-3.43c.35.93-.59,1.7-.62,2.72,2.63.2,1.59-3.18,3.08-3.82.35.65-.64,1.83-.33,2.43.77-.61,2-.74,2-2.12-.27-.14-.49.42-.57,0,.59-.16.43-1.11,1-1.27.65.33,0,1.35,0,1.87.46-.11.54.13.71.3a8.77,8.77,0,0,1,1.74-.83c.23-1.19-.2-2.3.91-2.42A3.57,3.57,0,0,1,19.35,50c1-.13,1.49-2.29,2.61-1.39a3.19,3.19,0,0,0-1.46,1.27c7.66-3.12,14.2-7.41,21.73-10.67.39-.67.19-1.94,1.18-2,0,.61-.39.77-.31,1.43,1.23,0,.63-2,1.9-2,.4.4-.72,1-.31,1.43,1.43-.28.81-2.67,2.21-3,.21,1-.86,1.44-.47,2.15,2-.62,2.08-4.07,4.1-4.24-.74,1.08-1.51,2.14-2.21,3.26,2.76-.31,3.11-3.11,4.82-4.51.1,1.05-1.13,1.93-1.49,3,2.38-.17,1.94-4,3.95-4.09a14.75,14.75,0,0,0-1.63,3C56.45,33.11,56.59,30.09,58.21,28.6ZM6.79,13.75A4,4,0,0,1,5.33,15a1.9,1.9,0,0,0,.27,1C5.77,15.13,6.81,14.36,6.79,13.75Zm5-8C9.35,7.29,5.92,8.56,5.54,11.71,6.54,8.61,9.57,7.61,11.82,5.8ZM8.26,19.95c0-.56.59-.56.74-1-.45,0-.42.44-1,.27,0-.2-.23-.25-.28-.44.23-.3.53-.52.73-.85-.56,0-.54.51-1.16.41,0-.14-.11-.17-.14-.29.17-.94,1-1.23,1.33-2-.77.27-1.08,1-1.89,1.26,0-.2-.23-.25-.28-.44,0-.4.82-.79.45-1.14-.17.46-.76.48-.88,1A19.42,19.42,0,0,1,8.26,19.95ZM10.6,9.8c0-.34-.24-.43-.13-.86,1.07-.69,2.27-2.78,2.94-3.83a7.7,7.7,0,0,0-1.17,1.42c0-.11,0-.28-.14-.29-1.68,1.65-1.82,4-3.83,5.24,0-.15-.11-.17-.14-.29C8.93,10,10.34,8.71,10.5,7.35a37.27,37.27,0,0,0-4.28,6.38C7.6,12,9.35,11.59,10.6,9.8Zm-2-1.18c-1,.83-2.36,2.14-2.22,3.69C7,11,8.27,9.68,8.61,8.61Zm8.86,34.47c-1,.59-2.2,1.09-2.48,2a33.66,33.66,0,0,0-9.3,6c0,.5.84.22.56,1,2-1.16,4.27-2.67,6.24-3.91.63-.39,1.71-.67,1.89-1.4-3.32,1.53-5.19,3.17-8,4.88-.16-.92,1-1.38,1.61-1.84,1.56-1.08,3.28-2,4.65-2.93-.35-.14.46-.28.58-.42l.42.44c1.15-1,3.15-1.12,3.64-2.81-.77.12-1.1.6-1.73.26C16.24,44,17.4,44.09,17.46,43.09Zm-8.94-30c-.7-.07-1.59,1.65-1.76,2.12A20.92,20.92,0,0,0,8.53,13.06ZM9,20.68a17.67,17.67,0,0,0-1.61,1.55C8,21.91,8.94,21.14,9,20.68Zm.25-5.74c-.29-.19-.14-.81-.56-.87-.15.77-1.08,1.51-1,2C7.94,15.47,8.64,15.27,9.21,14.94ZM9.5,63c-.17.33-.73-.13-.86-.3a.93.93,0,0,0-.16.72c.25.06.37-.21.43,0-.48.63-1.55.64-1.89,1.4C8.28,65.36,9.17,63.5,9.5,63ZM9.34,15.8c-.29.49-1.06,1.24-1,1.56C8.64,16.94,10.19,16.52,9.34,15.8ZM7.57,58.56c.08.49-.21,1.33.12,1.58C7.61,59.55,8.14,59,7.57,58.56Zm2.75-41.3c-.2,0-.24-.24-.42-.29,0,.5-.86.85-.59,1.14C9.61,17.79,10.15,17.72,10.32,17.26ZM13,62.1a5.09,5.09,0,0,1-1.44.12c0,.17,0,.41-.15.43-1.26,0-1.94,1.63-2.77,2.54C10.88,65,11.48,63.1,13,62.1ZM9.68,12.94a12,12,0,0,1,1.79,4.48c5.19-3,9.91-6.4,16.93-7.45-1.51-1.91-2.53-5.5-4.77-6.26C18.38,6.17,12.3,7.76,9.68,12.94ZM9.59,58c-.52,0-.35,1.38-.17,1.58C9.35,58.94,9.69,58.71,9.59,58Zm.64,4.32a1,1,0,0,0-.72.13c0,.17,0,.41.14.44C9.78,62.65,10.18,62.67,10.23,62.34Zm6-.47c-3.14-.23-4.19,1.7-5.66,3.2C13.31,65.64,14.41,63,16.27,61.87ZM12.21,7.67c-.1.38-.42.54-.59.85C12,8.47,12.8,7.86,12.21,7.67ZM12,67.25c-.38.34-.86.57-1,1.13.13.26,0,.72.27.87A12.06,12.06,0,0,1,12,67.25Zm-.52,4.87c0-.87.88-1.87.33-2.44,1-.42.83-2.06,1.49-2.84-.35-.07-.32.26-.72.13C12.44,68.3,10.67,70.25,11.49,72.12ZM47.72,37.45c-.54-.12-.69.16-1.15.12-6.09,2.66-11.73,6-17.53,8.87s-12,5.16-17.53,8.73a.8.8,0,0,0,.13.58c1.87-.69,3.3-3.11,6.23-3.19,9.32-4.51,19-9.75,28.39-14,1.39-.63,3.08-1,3.77-2.08C49.35,35.86,48.42,37.17,47.72,37.45ZM12,73.14c-.19.58-.45,1.28.11,1.73.22-1.82,1-3,1.38-4.71l-1,0c-.37.93-.57,2-.92,3Zm1.5-67.31c-.06.48-1,.84-.6,1.28C12.94,6.57,13.9,6.26,13.54,5.83Zm.23,66.91c1.09-.29,1.08-1.71,1.48-2.7-.55-.09-.71.24-1.29.12-.19,1.51-1.25,2.9-1.08,4.29.21-.22.2-.67.45-.85-.07,1.25-1.6,2.72-.35,3.58,0-1.06.78-1.84,0-2.44A1.33,1.33,0,0,0,13.77,72.74Zm.05-3a22.9,22.9,0,0,1,1.2-3,3.13,3.13,0,0,0-1.29.12c-.21,1-1.16,2-.92,3C13.16,69.55,13.33,69.92,13.83,69.73ZM15,6.43c-.42-.76,1-1.29.61-2A15.09,15.09,0,0,1,14,6.84C14.36,6.78,14.57,6.51,15,6.43Zm4.46,55.5c-1.09,1.41-2.86,2.1-3.8,3.66,3.52.34,4.49-2.34,6.81-3.61-.41,1.48-2.12,1.61-2.64,3,2.15.52,3.7-1.3,4.49-2.22,1,.79-1.5,1.49-.9,1.85,9.41-1.28,18.55-1.48,28.32-1.93.94-1.41,2.32-2.37,3.23-3.82-12.38.58-26.88,1.51-38.53,3-.58,1.78-2.76,1.92-3.37,3.67C16.25,66.13,17,62.13,19.42,61.93Zm-6.19,17c.11.31.36.5.27,1,.83-1.18,1.39-3.53,2.25-5.13a15.35,15.35,0,0,0-1.87.25c-.23,1-.5,1.91-.77,2.86.67-.13.57-1.07,1.17-1.27C13.91,77.36,13.62,78.18,13.23,78.9ZM15.15,4a.63.63,0,0,1-.58.28c.19.42-.4.72,0,.86C14.64,4.72,15.48,4.35,15.15,4ZM13.78,80.2c.1.56.14,1.18.55,1.45,1.4-1.28,2-3.42,2.68-5.41-.53.09-1.13.27-1.43-.17-.22,1.19-1.19,2.37-1.07,3.43a9.55,9.55,0,0,1,1-1.42C15.18,78.93,14.78,80.95,13.78,80.2Zm2.41-6.27a3.72,3.72,0,0,1,.45-1.14,15.32,15.32,0,0,1-1.87.25,3.28,3.28,0,0,0-.6,1.28C14.82,74.16,15.55,74.09,16.19,73.93Zm4.08,4.38a1,1,0,0,0,.28.44c.36-.41,1.37-.14,1.73-.54,2.1.52,5.77-1.16,7.75,0,2.74-1.49,5.62-3.63,8.13-4.88-2,2.22-5.25,3.23-7.56,5.18.51.17.83-.59,1.15-.12-3.17,1.32-7.18,1.56-11.1,2.38-1.48,1.53-3.41,2.61-4.81,4.22.34.4,1-.6,1.3-.26-.41.4-1.14.47-1.45,1,.35.18.37.68.85.73,1.62-1.87,3.84-3.14,5.69-4.78-.57,0-1.34.43-1.43-.31A3.11,3.11,0,0,1,23,80.66c-.06.27-.56.1-.44.57,2.92-.2,5.15-1.14,8.34-.71,2.38-1.83,5.89-3.24,7.7-5.17.33,0,.54,0,.57.3-2.36,2-6,3.57-8,5.45a10.4,10.4,0,0,1,2.46-1c-1.25,1.67-3.56,1.2-5,1.35.18-.3.63-.32.87-.56-2,.36-4.61-.13-6.62.74-1,.44-2.08,1.88-3.06,2.67-1.2,1-2.44,1.6-3.06,2.67.25,0,.72-.39.86,0,0,.27-.48.09-.44.42a8.72,8.72,0,0,0,2.12,2.19c2.78-1.85,5-4.31,8.14-5.74-2.11,1.76-4.87,3.63-6.56,5.34,0-.33.39-.33.43,0-.54.31-1.19.52-1.46,1.12.24,1,1.58,2,2.83,2.49C28,88.55,34.84,85.76,40.18,81.4c.37.12.67-.55.86-.13A10.22,10.22,0,0,1,38,83.66c-2,1.29-4.07,2.54-6.1,3.77a.9.9,0,0,1,0,.72c-.63.12-1.06.67-1.58.11-1.51,1.11-3.84,2.17-4.8,3.36.5-.32,1.38-1,1.88-.83a20.37,20.37,0,0,1-4.06,2.37,2.34,2.34,0,0,0,1.85,1c-.36,0,0-.49,0-.57,2.9-1.87,5.72-4.6,9-5.58-.38.38-1.05.47-1.31,1,3.15-1.56,5.86-4.35,9-5.44C38.67,85.88,35.36,88,32,90.15c-.12.32-.05.56-.45.85-.44.13-.65.5-1.3.41-.39-.22.26-.58-.13-.72-1.15,1-3.11,1.94-3.78,2.95.58-.28,1.4-1.08,2-.82a26.32,26.32,0,0,0-2.62,1.67c.57,0,.86.3,1.43.31.85-1.18,2.44-1.94,3.78-2.8s2.62-2.37,4.06-2.08c-2.36,1.51-5.36,3.12-7,4.9.21-.28,1.11-.59,1.3-.41-.15.57-1.1.32-1.17,1,2,.13,3.48-1.54,5.07-2.64-.59.06-1,.75-1.29,0,3.35-2.47,7.35-5.05,10.61-7.13C40,88,36.78,89.86,33.82,91.91c.89-.06,1.62-1,2.31-.82-1.91,1.68-4.07,3.09-6.11,4.63,1-.16,1.35-1,2.46-1.11,3.22-2,6.78-3.86,9.73-6,1-.72,1.94-1.74,3.19-1.81-3.76,3-8.18,5.37-11.64,8.69.6-.34,1.37-.54,2-1,1.25-.82,2.31-2.43,3.63-2.09-1.11.79-2.27,1.55-3.34,2.38.34,0,.54-.22,1-.13a77.88,77.88,0,0,1,9.74-6.43c-3.1,2.64-7.47,4.73-9.9,7.58,1.32-.76,2.61-1.68,4.07-2.65s3.7-3.22,5.5-2.63c1.19-1,1.46-3,2.8-3.83-.39,2.13-1.8,3.2-2.81,4.69.49-.19,1.26-.67,1.73-.4-2.86,1.71-5.89,3.25-8.56,5.16.37.07.82-.49,1-.13-.42.49-1.39.41-1.6,1.12.33.05.53.24,1,.16,1.75-2.19,5.31-3.75,8-5.46.41-1,1.47-1.76,2.2-2.69s1.15-2.31,2.34-2.25c-1.82,1.84-2.91,4.67-5.13,6.08-1.87,1.18-3.95,1.88-5.66,3.34a25.48,25.48,0,0,0,3.76-1.8c1.24-.62,2.74-1,3.77-1.8a26.18,26.18,0,0,0,2.64-3.11c.87-1,1.56-2.37,2.92-2.82-1.87,2.78-4.25,5-6.31,7.64-1.34-.38-2.79,1.31-4.06,1.94,2.16-1.27,4.52-1.4,6.37-2.76,2.45-1.8,3.62-5.11,6.58-6.34C55,90,52.38,92.66,50.12,95.21c3.7-2,6.07-5.4,9.19-8,2-.27,3.45-2.25,5.23-3.21,0-.62-.6-.46-.27-1a.79.79,0,0,0,.6-1.28c-1.62,1.49-3.55,2.65-5.24,4.07,1-.34,1.55-1.12,2.61-1.39-1.41.88-2.81,2.54-4.5,2.65,1.53-2.31,5-3.88,7.28-5.9a1.22,1.22,0,0,1,.16-.86c.6.36.94-.11,1.3-.41-.17-.26-.08-.63-.12-1.29C64.52,80,62,81.47,60.68,82.91a.15.15,0,0,1,.29,0c-.89.25-1.63,1.78-2.9,1.53.74-1.38,2.51-2.23,3.93-3.23s2.79-2.32,4.22-3.23c0-.44-.41-1.28.17-1.43s.07.88.56.87c0-.39.34-.68.58-.42.24.56-.42.52-.16,1.15-.2,0-.24-.24-.43-.3a41.93,41.93,0,0,0,2.35,5.21c0-.54.55-.6.59-1.14-1.37-1.59-1.43-4.45-2.76-6.08-.13.37.42.79,0,1-.31-.27-.29-.85-.26-1.44-2.31,1.85-4.47,3.84-6.71,5.77.25.09.6-.41.72,0-.69.19-1.44,1.63-2.17.82,2.4-2.68,5.39-4.74,8-7.18.08-.56-.29-.75.16-1,.42-.42.24.36.71.3.51-.35.19-1.09.17-1.72-1.87,1.45-4,3.29-5,5.22-1.88.54-2.71,2.93-4.51,3.08a20.61,20.61,0,0,1,2-2c-2.17.53-4.5,1.66-6.35,2,1.46-1.17,3.76-1.46,5.36-2.49-.41-.13-.16-.22-.13-.58-1.83-.18-4,.94-6.33.46-.06-.61.52-.7.88-.84,2.36-1,6.27-.54,8.08-2.15-.25-.09-.85.16-.86-.16a2.78,2.78,0,0,0,2.18-1.25c-2.53.64-5.52.81-7.92,1.58,1.25.08,2.71-.41,3.73-.08-.94-.11-1.83.41-2.88.52-1.41.15-3.28.3-3.87-.36,2.78-1.17,6.88-1,9.66-2.13-3-.13-6.5.83-9.92.83-.08-.29-.72-.05-.56-.58.91-.6,2.39-.58,3.75-.79,1.06-.17,3.31-.18,3.33-1.38-1.17.11-3.26-.14-3.31.66-.78-.24-3.14.72-3.73-.21,1.86-1.1,4.86-.4,7.2-1.16a.9.9,0,0,1,0-.72c-1.68-.36-3.74.63-5.61.76-.55,0-1.81.27-2.15-.47,2.58-.61,5.65-.39,7.91-1,0-.38,0-.77,0-1.15-2.5.22-4.62.15-7,.59-.2,0-.55,0-.29.14h.72c.36.12,1.24-.26,1.14.31-.92-.31-3.41.73-4.16-.36,2.69-1,6.64-.72,9.79-1.26l0-.86c-1.68,0-3.89.17-5.61.33-1.1.1-1.56-.09-.15.28.31-.08,1.18-.32,1.43,0-1.59.12-4.41.67-5.74-.39.7-.18.3-.59.88-.85,3-.44,6.92-.07,9.78-1-.12.57,1.3.47,1.3-.12-8.34.14-15.76,1.23-23.57,1.44-8.38.23-15.33-.37-21.83.18-.31,1.14-.91,2-1.21,3.14a3.07,3.07,0,0,1,1.29-.12c.37-.74.48-1.75,1.19-2.13.15.54-.52,1.37-.75,2,3.12-.1,6.55-.88,9.34-.55-2.2.49-3.61.92-5.77,1.48,2.59.28,5.58-.53,7.75.28a4.17,4.17,0,0,1-1.58-.17c-2,1.09-7.33-1-8.21,1.43,1.89-.28,4.11-1,6-.75a23.27,23.27,0,0,1-3.46.51c2.31.85,6.06-.54,8,.29-3.19.4-7.53.14-11.07.81a8.44,8.44,0,0,0-.45,1A3.21,3.21,0,0,0,18.79,73c.11,1,1.14-.09,1.57.46-.41.26-1.26.05-1.59.4,4.25-.22,7.87-1.5,11.65-1.23,1.38-1,3.11-2.87,4.66-3.65.27-.14,1-.46,1.15-.12a43.41,43.41,0,0,0-5.82,4.35c.17,0,.41,0,.43.15-.77.18-1.53,1.14-2.31.82.15-.77,1.2-.61,1.32-1.41-3.51.41-7.81,1.13-11.66,1.66.06.45-.27.5-.16,1,1.08-.05,2.61-1,3.31-.51-.58.27-1.64.06-1.88.69,2.06-.18,4.4-.52,6.62-.74,1-.1,2.35-.39,3,.34-4-.06-7.75.92-11.5.94-.08.37-.6,1-.31,1.29,1.12-.25,2.4-1.11,3.6-.8a4.59,4.59,0,0,0-1.45.55c3.15-.14,5.72-.9,9.06-.84a49.24,49.24,0,0,1,8.42-5c-2,1.92-5.09,2.82-7.12,4.75.18.32,0,.32.27.72-4-.22-7.59.66-11.5.94-.78,1.24-2,2-2.79,3.25.11,0,.28,0,.29-.14A40.74,40.74,0,0,0,20.28,78.31ZM16.84,45.66a6.08,6.08,0,0,0-1.59.83c.5.05,0,.39.28.44C15.87,46.4,17,46.69,16.84,45.66Zm0,26.56c.34-.33.43-.92.74-1.28a8.15,8.15,0,0,0-2.16.1,5,5,0,0,0-.46,1.43A6.42,6.42,0,0,1,16.8,72.22ZM17,3.16c0,.17-.23.15-.43.14,0,.5-.74.88-.31,1.29C16.4,4.07,17.24,3.53,17,3.16Zm1.06,77c-1.16.79-2.94.95-2.92,3C16.25,82.23,17.09,81.1,18.09,80.14Zm-3.36,43.44c-.55,1.45.57,4.28,2.21,4.92a11.56,11.56,0,0,0,5.88.11c1.27-.57,1.79-2.68,2.09-4.27-.24-.71-1.05-.87-1-1.88-.67.15-.51-.67-.84-1-.84,1-.17,2.65-.5,3.87-.37,1.4-1.75,1.69-3.91,1.65-3-2,.41-6.08,3.25-5,0-.38,0-.76,0-1.15a15.8,15.8,0,0,0-2.15-.33c-.39.27.9.63.41,1C18.6,120,15.2,122.32,14.73,123.58Zm.62-2.72c-.15.43-1,.91-.6,1.42C14.72,121.66,15.77,121.4,15.35,120.86Zm6.34-41.09c.17,0,.15.23.14.43,2.52-.7,5.56-.87,7.79-1.87-3.48-.33-6.83.71-10.07,1.11-1.08,1.22-2.38,2.22-3.37,3.53.37-.07.51-.18.72.16-.46.39-1.8.52-1.46,1.26a26.68,26.68,0,0,0,4.23-3.51c-.48,0-.76.27-1-.16,0-.1,0-.19,0-.29C19.82,80.16,20.64,80.54,21.69,79.77Zm-3.55-10c-.93.06-2.13-.16-2.45.53C16.6,70.26,17.73,70.4,18.13,69.8Zm-.68,5.73c-.08-.53.32-.54.31-1-.68-.12-.93.21-1.58.11,0,.55-.37.69-.45,1.14C16.36,75.77,16.78,75.51,17.46,75.53ZM17.84,78c-.47.07-.72-.06-.86-.3-.17.56-.78,1.43-.61,1.86A4.72,4.72,0,0,1,17.84,78ZM18.91,2.62c-.76.18-1,.9-1.32,1.56C18.31,3.95,18.43,3.1,18.91,2.62Zm1-.13c.19.33-.38.53,0,.57a9.32,9.32,0,0,0,.74-1.14c-1.23.33-2,1.92-2.35,2.69C19.23,4.32,19.46,3.3,19.92,2.5ZM18.3,44.68c-.56,0-.54.61-.59,1.14C18.35,45.9,18.33,45.29,18.3,44.68Zm.31-1.29a9.16,9.16,0,0,1,.31-1.29A1.71,1.71,0,0,0,18,43.53C18.06,43.31,18.38,43.4,18.61,43.39Zm-.38,77.09a1.49,1.49,0,0,0-1.45.55A4.58,4.58,0,0,0,18.23,120.49Zm2.64-50.92c-1,0-2.08-.11-2.59.38A4.21,4.21,0,0,0,20.87,69.56ZM20.75,3.81c.39-.72,1.06-1.14,1.19-2.13C21.2,2,20.13,3,20.75,3.81ZM20,123.1c-.65-.17-1.34.36-1,.7C19.15,123.34,19.75,123.38,20,123.1Zm-.32,1.57c-.22-.25.18-.64-.27-.87-.2.55-.59,1.24-.32,1.86.92.17,1.18-.33,1.73-.54,0-.61.34-1.43-.55-1.44-.24.26.12.49-.3.71,0-.08-.11-.16-.14,0C20.1,124.43,19.9,124.63,19.73,124.68Zm3.94-11.56c-.56,1.14-1.48,2.64-2.35,3,0-1.21,1.46-1.7,1.34-2.56-.24.16-1,.47-1,0,.52-1.76,2.51-2.76,2.94-4.11-1,.19-2.18,1.55-3.17.8-.55,2.54-1.34,6-1.88,9a15.85,15.85,0,0,1,2.86.48A40.1,40.1,0,0,0,24.88,110c-.56,1.17-2.06,2.15-2.35,3.12C22.78,112.93,23.59,112.59,23.67,113.12Zm.42-111.4c-.68,0-1.09,1.64-1.59.83-.62-.05-.48.67-.88.85C22.63,3,23.86,2.88,24.09,1.71ZM21.62,123.42c.64-.68-.54-1.4-1.13-.88C21.11,122.59,21.3,123.07,21.62,123.42Zm2.74-16.75c-.43.34-1.29,1-1.88.68.76-1.36,2.1-2.11,3.22-3.1,0-.28-.19-.29-.28-.44.29-.13.69-.46,1-.13-.09-.68.44-1.49.18-1.86-.91,1-2.64,1.94-3.07,3,.29-.56,1.25-.33,1.59-.4-.95.38-1.76.91-2.75,1.24-.15,1.63-.82,3.46-.79,4.15C22.42,108.75,23.94,107.64,24.36,106.67Zm-2.49,18.62c.4-.41.48-1.65-.26-1.73C21.82,124,21.6,124.9,21.88,125.29Zm3.46-16.59c.17-1.48.61-2.69.79-4.15a9.72,9.72,0,0,0-2,1.83c.61-.08,1-.75,1.44,0-1.09,1.12-2.15,2.25-3.22,3.39C23.38,109.5,24.27,109,25.33,108.7ZM25.24,2c-.17.36-1.07.73-.74,1.13C24.62,2.74,25.67,2.52,25.24,2Zm1.39,98.66A30.74,30.74,0,0,1,23,102.77c0,.52-.54,1.28-.17,1.72C23.88,103.1,26.18,102.22,26.62,100.68Zm-2-.47c-.17.34-1,.11-1-.16,0,.44-.36,1.27-.17,1.43C23.75,101.06,24.77,100.62,24.62,100.21Zm1.91-2.69a17.53,17.53,0,0,1-2.6,1.1c.16.47-.45.88,0,1.15C24.56,98.78,25.75,98.36,26.54,97.52Zm-.9-93.91a19.56,19.56,0,0,1,2.1,3.05c.55,1,.83,2.83,2.1,3.05-.54-1.15-1.31-2.2-2-3.34s-1-2.54-2.09-3.2C25.78,3.36,25.6,3.37,25.64,3.61ZM27.08,99.4A10,10,0,0,0,24,101.64C25.22,100.75,26.87,101.23,27.08,99.4Zm-1.82-2.76c-.56-.09-1.31.39-.88.84C24.51,97,25.13,97.08,25.26,96.63ZM29.06,37c-.85,1.06-1.41,2.44-2.36,3.4-.29-.09-.27-.44-.57-.15-.13.74-.77,1.73-.62,2.29C27.64,41.75,28.28,38.65,29.06,37ZM27.4,97.68a11.83,11.83,0,0,0-2.77,2.1C25.72,99.25,27.2,99.13,27.4,97.68Zm-.13-1c0,.23-.2,0-.14-.29a5.3,5.3,0,0,0-2.32,1.39C25.43,97.29,27.22,97.26,27.27,96.67ZM26.65,3c1.58,2.06,2,4.94,4.05,6.25C30.05,7,28.06,4.8,27,2.48,26.87,2.69,26.73,2.84,26.65,3Zm2.42,1.19c-.21-.31-.34-.71-.7-.87A.71.71,0,0,0,29.07,4.24Zm1.24,2.89c.47.79.82,1.93,1.83,2.19-1.33-1.26-1.48-3.65-2.93-4.79-.32.09-.45-.41-.43.13A22,22,0,0,1,30.31,7.14Zm-.67,93.31c.13-.6.65-1.57.47-2C29.8,98.8,29.45,100.53,29.64,100.45Zm3-5.69c-.5.65-1.58.7-2,1.4.34.12,1,.3,1.29,0C31.28,95.35,32.92,95.24,32.62,94.76Zm.85.73c-.25.47-1,.47-1.17,1C32.76,96.31,33.93,96.12,33.47,95.49Zm2.59-.1a19.54,19.54,0,0,0-2.9,1.38,10.47,10.47,0,0,1,1.43.31C35.06,96.6,36,95.82,36.05,95.39Zm4.52-60.08q-.47,0-.42-.44c1-2.17,1.33-5,3-6.55-.21,1.64-1.53,3.38-2,5.28.09.49.49-.62.58-.13-.19.78-.79,1.13-1,1.85,1.92-1.08,2.86-4,3.55-5.82-.05.2-.74.48-.86.13.67-2.18,4.35-3.47,2.69-5.84-.47.93-1.78,1.76-1.77,2.7a2.62,2.62,0,0,1,1.31-1c-1,.59-1.63,2.3-2.91,2.1.46-1.22,2-2.16,2.07-3.26-2.36,3.31-5.48,6.59-5.95,11.38a2,2,0,0,1-.88.84c-.42-1.52,1.2-2.94.94-4.29-1.38,1.1-1.93,3.61-2.1,5.13C37.93,36.57,39.47,36.17,40.58,35.32ZM41.83,93.2c-1.48,1-3,2-4.5,2.93.24,0,.35.17,0,.14-.35-.21-1.08.44-1.45.69a4.79,4.79,0,0,1,1.72.17c2.26-2.72,7.13-3.53,8.59-6.59C44.64,91,43.25,92.21,41.83,93.2ZM47,38.73c-1.64.93-4.19,1.7-5.22,2.78C43.37,40.55,45.89,39.75,47,38.73ZM44.23,95.83A13.52,13.52,0,0,0,41,97.35C42.54,97.29,43.15,96.31,44.23,95.83Zm0-63.17c-.08.55-1,1-.74,1.42a2.82,2.82,0,0,1,1-.41c-.35-1.33,1.49-2.32,1.35-3.42-.24.16-.47.56-.72.27.95-1.7,4-3.7,2.1-5a4.37,4.37,0,0,0-1.47,2c.65-.26,1.1-1.49,1.89-1.12C45.22,27.71,44,31.79,43,33.64,43.62,33.5,43.61,32.76,44.21,32.65Zm5.87-15.11c-1.5-.08-2.26,1.81-3.21,3.1-.81,1.09-1.63,2-2.21,3,.75-.36.35.33.56.58C46.74,22,48.43,20.18,50.08,17.54Zm2.35-3.12c-2.27-1.33-5.08-2.15-7.55-3.29A42.57,42.57,0,0,0,52.44,14.42ZM47.39,31.85c.55-1.33,1.48-2.27,1.93-3.7-.38-.34-.45-1-1-1.17-.89,1.65-1.79,3.31-2.67,5,.4.2.37-.75.58-.28,0,.76-.78.75-.89,1.42.34,0,.62-.14.73-.42C45.81,32.25,46.88,32,47.39,31.85Zm.44,63.61A31.11,31.11,0,0,0,44.64,97,5.38,5.38,0,0,0,47.82,95.46Zm-1.29-72c.28.2.62.35.71.73a1,1,0,0,0,.6-1.57c.72-.12,1.85-.26,1.47-1.7,1.35-.26,1.57-1.68,2.34-2.54-.36-.13-.56-.4-1-.45A37.37,37.37,0,0,0,46.53,23.51ZM58.69,26a.39.39,0,0,1,.44-.28c-1.21-2.55-2.84-4.69-4-7.25-2.55-1.35-4.56-3.22-7.53-4.16-.17.39-1,.63-.59,1.14,2,.42,3.82,2.93,5.7,2.11.2.41-.46.77.13.72.21.08.36.22.57.3,0-.41,0-.78.44-.71C55.63,20.42,56.8,23.57,58.69,26ZM48.25,24a6.37,6.37,0,0,1-.59.71,3,3,0,0,0,1,1.31c.25-.28,1-.78.6-1.28-.07.24-.63.69-.72.42C48.75,25,48.48,24.13,48.25,24Zm1.35,4.76c-.14.88-1.12,1.66-1,2.28C48.88,30.32,50.4,29.67,49.6,28.73ZM47.52,96.46a10.17,10.17,0,0,0,2.32-1.11C49,95.12,48.23,96.06,47.52,96.46Zm3.07-59.24c1.16-.76-2.2.91-1.88.83A8.45,8.45,0,0,0,50.59,37.22Zm-.83-9.63c.5-1,.58-1.32-.1-2.16-.17.5-.74.6-.74,1.28C49.36,26.84,49.37,27.39,49.76,27.58Zm-.36-3.74c.53.06.39-.58,1-.41-.2.37-.7.44-.73,1,.68-.12.83-.79,1.17-1.27-.75,0-.45-1.06-1.13-1.17C49.28,22.66,48.72,23.11,49.4,23.85Zm1.92-11c-.44-.15-1.23-.69-1.72-.32C50.2,12.45,51,13.49,51.32,12.83Zm-1,17.35c-.24-.33-1.07.47-.73.7C49.69,30.53,50.36,30.74,50.29,30.18Zm.17-1.29a1.11,1.11,0,0,0,0-1.87C50.1,27.49,49.78,28.5,50.45,28.89Zm.49-3.29a2.41,2.41,0,0,0,.4,1.87c.6-.11.61-.83,1.31-.84A6.52,6.52,0,0,0,51,23.73C50.26,24.2,49.73,26.14,50.94,25.6ZM51.73,22c-.11-.53-1.11-1-.4-1.44,2.11,1.68,2.78,4.74,4.32,7,.2-.23.64-.21.87-.41-.64-1.26-1.33-2.52-2.09-3.77s-1.79-2.46-1.8-3.91c.84.15.83,1.15,1.12,1.74a31.83,31.83,0,0,0,3.35,5.52c.36,0,.45-.22.72-.27a28.29,28.29,0,0,0-4.31-7.69c-.23.88-.76,0-1.29,0C51,19.42,49.13,23,51.73,22Zm-.85,7.59c.14-.39.45-.61.59-1C51.13,28.24,50.2,29.4,50.87,29.62Zm2,5.78c-.6-.7-1.28.22-2,.25a3.22,3.22,0,0,1-.3.85A9.87,9.87,0,0,0,52.92,35.39Zm0,.57a15.6,15.6,0,0,0-1.74,1C51.75,36.72,53,36.36,52.91,36Zm-1.5-12.66a18.57,18.57,0,0,1,2.63,5.22,1.6,1.6,0,0,0,1-.7c-.83-2-1.6-4-3.06-5.37C51.83,22.76,51.46,22.86,51.42,23.31Zm.79,3.89c-.1.39-.61.35-.59.85C52.07,28.11,52.38,27.29,52.21,27.2ZM61,87.37c-.47.3-.76.72-1.45.83,0,0-.56-.16-.57-.15-.94.45-2,2-2.92,3a16.51,16.51,0,0,1-3.21,2.81c-.12.49.58.19.42.73-.65.54-2.24.9-2.33,1.54A28,28,0,0,0,61,87.37ZM52.45,29.5a2.5,2.5,0,0,0,1.31-.84c-.4-.41-.39-1.22-.83-1.59C52.59,27.77,51.81,28.64,52.45,29.5Zm6.12,34.71c-2.53.37-5.09,0-6.76.74C54.05,64.69,56.73,64.88,58.58,64.21Zm-4.92,2.07a2.3,2.3,0,0,0-1.44.26C52.81,66.56,53.39,66.58,53.66,66.28ZM54,62.41c.51-1.13,2.22-2.28,2.94-3.68l-1.44,0c-.64,1.73-2.22,2.48-3.09,4A4.1,4.1,0,0,0,54,62.41Zm5.26-29.34A31.07,31.07,0,0,0,53.2,36,64.54,64.54,0,0,0,59.28,33.07Zm-4.18.79c-.65.05-.86.57-1.59.55.32.4-.29.67,0,.86C53.88,34.65,55.45,34.77,55.1,33.85ZM53.83,96.72c-.58.16-1.8.43-1,.41,1.19,0,1.16-.38,2.45-.39-.06-.4.54-.13.58-.42A10.47,10.47,0,0,0,53.83,96.72Zm7.61-23.84a12.15,12.15,0,0,1,2,.61c.57-.12.77-1.48,1.32-1.41-.19-2.46,1-4.65,1-7.45-1.66.17-1.18,2.08-1.35,3.42-.14,1.1-.53,2.16-.63,3.15.11.32.89,0,.71.59-3.38.63-7.86.89-11.37,1.81C55.56,73.82,59,72.75,61.44,72.88Zm-5.85-10.3c1-1.53,2.48-2.59,3.66-4l-1.44,0a49.76,49.76,0,0,1-3.37,4Zm4.92,13.87c-2,.49-4.19.73-6.05,1.33C56.36,77.6,59.15,77.88,60.51,76.45ZM59.12,65.94a23.17,23.17,0,0,0-4,.36A13.93,13.93,0,0,0,59.12,65.94ZM56.38,18.66c1.5,2.08.2-.92-.56-.87C56.35,18,56.21,18.42,56.38,18.66Zm.27,1.15c-.15,0-.36.06-.15.14,1.06,1.7,2,4.29,3.35,5.23C59.21,23.47,57.67,21.6,56.65,19.81Zm.49,12.93c-.16.32-.71.24-.87.56C56.6,34,57.53,33.17,57.13,32.74ZM63,87.84c-2.59,2.45-5.78,3.37-7.44,6.76A27.76,27.76,0,0,0,63,87.84Zm-4.52-60.1a3,3,0,0,0-1.74.83A5.72,5.72,0,0,0,58.51,27.74Zm3,30.78c-2.89.12-3.53,2.58-5.24,3.93A25.49,25.49,0,0,0,61.55,58.52Zm2-.11c-.55-.09-.71.24-1.29.12-1.37,1.6-3.33,2.59-4.81,4.08C59.77,62,61.69,59.92,63.56,58.41ZM59.74,31.64c-.61,0-.68.56-.88,1C59.47,32.63,59.64,32.18,59.74,31.64Zm6.19,55c-.24-.19-.17-.69-.56-.73-.13.25-.53.23-.58.56.34,0,.62-.29.72.16a83.65,83.65,0,0,0-6.29,6.21c0-.08.12-.16.14,0-.23.2-.67.18-.87.41.3.32-.55.75-.45,1C61.7,92.74,63.22,89,65.93,86.6ZM59.18,94.8c-.43,0-.87,0-.87.41C58.63,95.53,58.87,94.94,59.18,94.8Zm7.55-36.48c-3.94,0-4.91,3-7.68,4.17C63.31,62.8,64.21,59.42,66.72,58.33ZM60.89,95.12c-.17.87-2.15.67-2.33,2C59.25,96.43,61,96.1,60.89,95.12ZM60,72c0-.29,0-.57,0-.86-.49-.12-.55.2-1,.13,0,.29,0,.57,0,.86C59.35,72.08,59.55,71.9,60,72Zm0-1.29c.12-.31.36-.8.16-1-.38.09-.9,0-1.15.27.32,0-.19.36,0,.72Zm.31-1.43c-.07-.56.27-.7.17-1.29-.53-.11-.62.23-1.15.12.07.56-.27.7-.17,1.29C59.72,69.29,59.73,69.38,60.35,69.27Zm.32-1.72q0-.5,0-1l-1.15,0,0,1Zm.64,28.58a5.67,5.67,0,0,0-1.89,1.11c.17,0,.41,0,.43.15-.06.48-.89.15-.73.85C59.88,97.57,61.27,97.56,61.31,96.13ZM61,26.35c-.48-.11-.53.23-.58.56Q61.07,27,61,26.35Zm4.26,58.8c-1.36.39-2.18,1.35-3.48,1.8.05,1.3-1.92,2.35-2.21,3.26C61.37,88.45,63.55,87.05,65.24,85.15ZM60.11,98.84c.18.36-.58.44-.15.57.34-.64,2.18-1.07,1.33-2-.52.58-1.38.81-1.89,1.4C59.65,98.92,60,98.42,60.11,98.84ZM61.5,77.47c-.64-.38-1.63.55-1.59.83C60.35,77.94,61.22,78,61.5,77.47ZM62,31.39c-.08-.21.18-.74-.13-.72-.39.19-1.22.67-.88,1.13C61.22,31.52,61.67,31.5,62,31.39Zm1.52-4.85c-.43.14-1.15,0-1.3.41.17,0,.41,0,.43.15-.53,1-1.1,2-1.63,3A24.74,24.74,0,0,0,63.56,26.54ZM62.9,71.61c1.16-1.67.57-5.11,1.27-6.87l-.86,0c-.37,1.67-.31,3.64-.67,5.3-.06.34.65-.07.42.44-.38.29-.85.48-1,1-.21-.13-.55-.12-.42-.58-.5.12-1.13.1-1,.84C61.52,71.84,62,71.53,62.9,71.61ZM61.84,98.73c-.58.23-1.52.86-1.46,1.27C60.7,99.4,61.65,99.46,61.84,98.73Zm.08-28.43a.8.8,0,0,1,.15-.57c-.28-.29-.82-.11-1.15,0a.81.81,0,0,1-.15.57A1.12,1.12,0,0,0,61.91,70.3Zm.17,6.75c2.22-2,3.79-4,5.85-5.92.8.73.51,2.52,1.23,3.32-.12-1.2,0-2.67-.8-3.17.31-.53.09-1,.17-1.72.23-1.81,1.41-4.84-.05-5-1,2.08-.27,5.75-1.42,7-.48-1.95.55-4.76.7-7a13.47,13.47,0,0,0-1.44.12c0,2.53-1,4.7-1,6.73.2-.22.35-.81.72-.42-.87,1.54-2.24,2.55-3.23,4,.38,0,.62.06.57.44-.62.68-2.56.76-2.47,1.68C61.17,76.63,61.58,77.24,62.08,77.05Zm-.29-7.9a11.19,11.19,0,0,0,.79-4.29l-1,0c-.27.87.36.88.55,1.3,0,.37-.49.28-.87.27,0,.38,0,.82-.16,1,.38,0,.62.06.57.44-.61,0-.72.62-.74,1.28Zm-.29,32c-.47.14-1.2.72-.59,1.14.39-.78,2-1.36.91-2.43-.32.59-1,.81-1.32,1.41C60.88,101.37,61.24,100.71,61.5,101.16ZM61,103.45c.52.1,1.76-1.1,1.33-2C62.06,102.2,60.65,102.49,61,103.45Zm1.88-.68a2.74,2.74,0,0,0-1.62,2.41C62.06,104.62,63.32,104.1,62.91,102.77Zm6.25-44.39-2.15,0a48.41,48.41,0,0,1-4.81,4.22C65.06,62.2,67.28,59.8,69.16,58.37Zm-7.11,52.28c.25-.94-.51-1.18-.26-1.73C61.16,109.27,61.92,110.46,62.05,110.65Zm.23-4.88c-.19.52-1.1.67-.45,1.28.46-.86,2.17-1.58,1.34-2.85C62.9,104.76,61.29,105.68,62.28,105.77Zm4.06-18.16c-1.57.67-3.34,3.16-4.25,4.52C63.38,90.58,65.78,89.42,66.34,87.61ZM64.65,29.86c-.21,0-.12-.35-.13-.58-.68.27-1.39.51-1.46,1.41A4.53,4.53,0,0,0,64.65,29.86ZM62.5,109.51c.48-.7.12-1.41.19-2.44C61.52,107.34,62.26,108.69,62.5,109.51ZM64.4,28c-.45.07-.53.53-.59,1C64.38,29,64.45,28.59,64.4,28Zm-.14,87.72c-.53-1.94-.66-4.25-1.47-5.91A18.41,18.41,0,0,0,64.26,115.71ZM65,84.57c-.56-.29-1.64.8-1.6,1.12C63.73,85.15,64.59,85.11,65,84.57ZM63.39,107.8c.17-.59-.12-1.43.46-1.86C63,105.53,63,107.2,63.39,107.8Zm.41,8.91a5.74,5.74,0,0,0-.68-2.17A6.69,6.69,0,0,0,63.81,116.71Zm-.28-8.19c0,4,1.55,7.8,2.37,11.82-.56-.11-.38-1-.84-1.16.65,3,1.73,5.67,2.14,8.94a18.46,18.46,0,0,1,2.88-.67c-.63-5.52-3.16-11.48-4.87-16.89.15,3.24,1.95,5.64,1.71,8.79C65.64,116,64.82,111.42,63.53,108.52ZM65,28.43c.86,0,.1-1.15-.12-1.44C64.73,27.62,65.07,27.81,65,28.43Zm5.78,30.11-1,0c-1.45,1.61-3.45,2.66-5.24,3.93C67.74,62.35,68.89,60.09,70.74,58.54Zm-4.23,67.83a80.65,80.65,0,0,0-2.7-9.52A59,59,0,0,0,66.51,126.38Zm-2-17.12c-.19-.57.1-1.6-.4-1.87A2.63,2.63,0,0,0,64.52,109.26ZM66,82.44a2.69,2.69,0,0,0-.56-1q0,.5,0,1Zm.54,2c-.09.35-.14.73-.59.71a8.61,8.61,0,0,0,1,2.17c.28-.29.47-.69.74-1a24.51,24.51,0,0,0-1.24-3.18,1.07,1.07,0,0,0-.88,1.13C65.84,84.38,66.49,84.13,66.54,84.45Zm.6-1.28c.39.88.37,1.9,1,2.46,1.42-1.91,0-4.39-1.19-5.76-.43.52,0,1-.31,1.57-.32,0-.05-.61-.13-.86C65.43,81.24,66.77,82.33,67.14,83.17Zm1.23-20.51c1.54-1.42,3.64-2.57,5-3.79a8.5,8.5,0,0,0-1.72-.17c-1.54,1.38-3.24,2.59-4.81,3.93C67.35,62.69,67.93,62.28,68.37,62.66Zm.46,14.65c-.14,1.17.53,2.54,1.22,3.9.71-2.7-1.09-4.93-1.74-7.21C66.88,74.71,68.16,76.56,68.82,77.32ZM74,59.61c-1.58.13-3.12,2-4.79,2.93C71.41,62.83,73,60.53,74,59.61Zm-4.77,9.68c0,.37.25,1.33.41,1a24,24,0,0,0,.51-4.3C69.94,67.32,69.23,68.39,69.25,69.28Zm1.41,9.21c.2-2-.65-3.91-1.19-5.62A12.4,12.4,0,0,0,70.67,78.5Zm-.79-12.22c0-.72.4-1,.46-1.72C69.59,64.51,69.62,66,69.88,66.28Zm.62,5.32c-.12.31-.55.31-.59.71.53,1.7.72,2.88,1.07,4.33a39.35,39.35,0,0,0,.65-4.44c-1.08-1,.07-4.53-.33-5.75A19.49,19.49,0,0,0,70.5,71.6Zm1-7.16c-.65.25-.77,1.83-.62,2.43A9.73,9.73,0,0,1,71.5,64.44Zm3.2-2.38a3.6,3.6,0,0,0,.76-2.28c-1.28.21-3.05,1.88-3.64,2.81C72.86,62.49,73.49,62,74.7,62.06Zm-2.38,4.7c0,.8-.5,2.19-.2,3.15A5.61,5.61,0,0,0,72.31,66.76Z"/><path class="cls-1" d="M28,15.14c-.1-.12.47-.78.59-1.14C28.76,14.39,28.45,15.18,28,15.14Z"/><path class="cls-1" d="M38.22,30.54a5.89,5.89,0,0,1,2.19-2.26C39.69,29,38.94,29.77,38.22,30.54Z"/><path class="cls-1" d="M67.08,54.6c.78-1.14,2.21-1.61,3.2-2.53.31.62-1.26.54-1.17,1.41C68.12,53.47,68,55.06,67.08,54.6Z"/><path class="cls-1" d="M30.54,82.37c-1.82,1.44-4.25,1.07-6.49,1.75-2,.61-3.38,2.62-5.09,3.35.08.17.54-.08.86.16-.4.32-1.19,1-1.88.54.34-1.35,2-1.87,3.21-2.67s2.39-2,3.78-2.37c-.94-.29-2.07.48-3.17.52,0-.85.61-.76,1.45-.83,2.1-.19,4.73-1.37,6.77-1.17.12.26.45.43.13.72C30.17,82.58,30.3,82.31,30.54,82.37ZM30,82.22c-1.69-.26-4,0-4.76,1.21A12.78,12.78,0,0,0,30,82.22Z"/></svg>