<svg id="Layer_1" data-name="Layer 1" xmlns="http://www.w3.org/2000/svg" viewBox="0 0 101.43 130.57"><defs><style>.cls-1{fill:#7f723c;fill-rule:evenodd;}</style></defs><title>okay</title><path class="cls-1" d="M45.39,130c.94-1.3,2.75-1.73,4.48-2.24-1.52-.81-4.91.24-6.44-.56,1-1.95,4.71-2.41,7.57-3.36,1.88-.62,3.51-1.87,4.76-1.4-2.42,2.34-6.69,2.84-10.37,3.92,3.09,1.11,6.41-.92,8.69.56C52.07,128.64,46.23,129.77,45.39,130Z"/><path class="cls-1" d="M67.53,127.21c1.78-1.87,6-3.92,8.12-3.64C73.44,125.28,70.13,125.89,67.53,127.21Z"/><path class="cls-1" d="M82.66,125c.29-2.55,3.14-3.12,4.76-4.2s3.12-3,5.32-3.36c-1.85,2.54-4.94,3.84-7.56,5.6.28.79,1.19-.08,1.68,0A8.49,8.49,0,0,1,82.66,125Z"/><path class="cls-1" d="M42,118.8c1.07-2.36,8.56-1.64,10.65-2.8-1.31,2-4.79,1.75-7.57,2.24C45.8,119.17,42.62,120.09,42,118.8Z"/><path class="cls-1" d="M69.49,98.35h-.84c-.78-3.24-3-6.54-2.8-9.81C67.67,91,68.36,96.09,69.49,98.35Z"/><path class="cls-1" d="M22.14,93.59c-2.05-.81.49-3.12.84-4.2C24.94,90.1,22.08,92.09,22.14,93.59Z"/><path class="cls-1" d="M31.1,93c-.45.08-.48-.26-.84-.28.19-2.43.69-4.54,2.52-5.32C32.87,88.87,31.39,91,31.1,93Z"/><path class="cls-1" d="M26.34,93a4,4,0,0,1,2.24-4.2C28.58,90.33,27.62,92.46,26.34,93Z"/><path class="cls-1" d="M19.05,93c-.37-.1-.44-.49-.84-.56.26-1.33.44-2.74,2-2.8C19.62,90.6,19.58,92.05,19.05,93Z"/><path class="cls-1" d="M13.17,59.4c-1.51-.41-2.23-2.93-1.68-4.48C12.74,55.68,13.24,58.2,13.17,59.4Z"/><path class="cls-1" d="M69.49,50.44c-2.39-.41-4-1.56-4.76-3.64C66.68,47.64,68.57,48.56,69.49,50.44Z"/><path class="cls-1" d="M80.7,46a3.76,3.76,0,0,1-2-2.24C80.37,43.48,80.37,44.88,80.7,46Z"/><path class="cls-1" d="M85.18,127.49c-1.25-2.1,2.14-2.85,4.2-4.2,1.67-1.1,2-2.21,3.92-2.24a1.42,1.42,0,0,0,.84-.84C92.67,123,87.41,124.49,85.18,127.49Z"/><path class="cls-1" d="M40.07,123.29c1.93-2.83,9.84-2.87,13.17-4.2-1.07,2-7.46,2-10.93,3.64.13.46,2.12.46,2.24,0C45.36,124.07,41.15,124.35,40.07,123.29Z"/><path class="cls-1" d="M81,122.17c-1.57.71-2.92.19-4.48.56.56-1.69,2.85-1.64,3.64-3.08-4.74,1.79-10.38,5.12-16,7-.33,0-.24.51-.28.84-1.72-.19-3,1.6-4.2.28,5-3,11.41-4.47,16.53-7.29.4-1.37,1.42-2.14,2.24-3.08-7.25,2-12.81,5.68-20.18,7.57.52.86,1.33-.32,2.24,0-1.39.67-3.61,2-5.33,1.4.2-1.93,2.87-1.91,4.48-2.52,4.79-1.82,10.82-4.46,15.69-6.44-.77-1.31.25-2.06.84-2.8a103.56,103.56,0,0,1-9.81,3.92c-3.26,1.14-6.33,3.12-9.53,3.36.29-1.89,2.71-1.83,3.92-2.24,9.54-3.2,19.32-6.91,25.78-13.45.37-.36,1-.37,1.12.28,1.7-1,2.48-2.93,4.2-3.92-.44,3.77-5.61,5.21-7,9-2.64-.23-4.14,2.4-5.88,3.92,5.62-2.51,9.65-6.6,14.85-9.53-.31-2.49-1.2-4.41-1.4-7-2.24,2.43-5.46,3.88-6.45,7.56-4.41,1.19-6.38,6.33-11.21,6.17-.67-1.42,2-1.67,2.52-2.8-5.2,3.2-12.12,4.7-17.37,7.85-1.23.22-2.23.94-2.8,0,5-3.09,12-4.29,17.09-7.29.46-.3-.72-.85,0-1.68,6.29-3.71,11.29-8.69,16-14-4.24,3.7-8.43,7.45-13.45,10.37-.67.57.38,1.11-.28,1.68-3.1,1.47-6.12,3.35-9.53,4.76-3.25,1.35-6.56,3.4-10.09,3.64,4.73-3.34,12.29-4,16-9-4.47,3.1-11.86,3.27-16.25,6.45-1.06-.06-2.54.29-2.8-.56-1.29-.17-1.61.63-2.8.56-.77.28,1.28.48.28,1.12-3.75.32-7.46,2.61-10.65,1.12,1.57-1.51,5.4-.77,7.84-1.4-4.57-.79-9.41.28-13.45.28.08,2.49-.14,5.94.56,9,.67,2.87,3.31,5.26,2.52,7.85-1.26-.54-2.06.21-2.52-1.12-1-.21-.36,1.14-1.4.84-2.13-1.37-2.54-5.54-3.64-9.53-1.93-7-5.71-16.1,2.24-18.77,1,.94,1.52.46,2.52.56,1.16.8,1.25,2.67,1.12,4.76.71.36,2.61-.08,3.64-.28-.27-.57-1.08-.6-2-.56q-1.79-5.35-3.64-10.65c-4.88.33-8.55,1.93-12.89,1.68-3-.17-5.39-1.67-8.69-1.4C8.21,89.77,3.38,83.58,1.12,74.81c.61-2.85,5.34-4.47,9.53-3.64.66.63-.57.61-.56,1.4,4,.69,6,3.34,8.13,5.88a26.61,26.61,0,0,0,12-3.64c-1.83-7.5-8.75-9.93-13.17-14.85-2.68,2.45-5.12,5.15-6.16,9.25C6.78,71.44,3.32,67.59,0,66.41A45.79,45.79,0,0,1,3.92,51.56C5,49.47,6.22,46.75,7,46s.27.26,1.4-.28C9.89,45,9,44.5,10.93,44c3.41-.92,3.69-2,6.72-.84,4.84,1.89,11.68,2.44,16.53,5C33.53,35,28.86,19.14,23.54,7.85,24.75,3.64,26.8.28,31.94,0c1.23.57,1,1.18,2.52,1.12,6.12,10,12.4,21.3,16.81,33.34C52.81,38.64,53,44,56,47.91c-.6-12.78-3.69-25.4-7.28-36.71C49.61,8.89,52,8.13,54.08,7c1.77.93,4.63,1,6.45,2.52C64.9,19.16,69.1,29,72,40.07c2.74-3.92-.18-15.31,2.8-19.05,1.75-2.19,5.11-1.25,8.13-1.4,0,1.66,1,2.34,2,3.08C87.5,40.88,86,61.11,80.14,77.89c.21,3-.67,6.06,1.12,8.41,3.14-.28,6.51-1.63,9.81-.84,1.76,2.63,2.63,5.27,3.64,9.25,1.68,6.59,5,13.12,6.72,19.05a9.88,9.88,0,0,0-4.76-.28,10.57,10.57,0,0,1-1.4-3.64c-3.55,2.05-5.67,5.54-9,7.85,3.4-.9,4.92-3.68,8.41-4.48-4.39,3.73-9.56,6.69-13.17,11.21-1.65-.34-2.76,1.5-4.2,1.12C78,123.86,80.06,123.58,81,122.17Zm8.41-10.37c-3.24,2.27-7.21,3.82-9.81,6.73,1-.13,1.62-.62,2.8-.56,1.82-3.72,14.49-6.44,11.49-11.49-1.84,1.62-4.4,4-5.32,5.6C88.9,112.06,88.93,111.72,89.38,111.8ZM78.74,114c-.74.28-1.59.46-1.68,1.4C78,115.34,78.27,114.6,78.74,114ZM91.91,97.79c-.2-.83-.08-2-.84-2.24-1.07,1.08-2.2,2.09-3.36,3.08-.21.86.77.54.56,1.4a20.33,20.33,0,0,1-4.76,3.64c.11,2.17-3.66,2.88-4.76,4.76C83.88,105.64,87.92,101.74,91.91,97.79Zm-9.25-49c1.17-4.35-.36-6.81-1.12-9,.52.35,1.69,2.62,2,1.4,1.34-3-2.58-4.7-1.4-7.57,0,1.36,1.23,1.57,1.4,2.8.87-3.37-.25-6.68-1.4-9.53.81-.34,1.28,1.68,1.4.28a9.23,9.23,0,0,0-2.24-3.92c-.87,1.22-2.78.18-3.92,0-2.74,8.87-1.11,20.38-5.6,27.46-.62-1.3-1.2-1.05-2-2,.77-1.5.22-2.15,0-3.92-2.52-.08-5.24-2.18-6.73-4.2,2.21-.47,5.14,3.59,6.45,3.08-.39-1.38-.45-3.1-.84-4.48-2.82-1.33-5.46-4.2-6.16-6.72,2.49.78,3.39,4.64,5.6,4.76a6.11,6.11,0,0,1-.84-3.36c-2.3-1.06-5-3.22-5-5.6,1.79,1.1,2.75,3,4.48,4.2C66,30.16,65,28.19,64.45,25.78c-1.39-1.72-4.33-3.29-4.2-5.6,1.63.52,2,2.34,3.36,3.08-.79-3.6-4.78-5.5-5-8.69,1.48.67,1.91,2.39,3.08,3.36-.53-3-3.06-4-4.48-6.16a13.34,13.34,0,0,1-4.76.84c2.75,11.17,6.48,22.84,6.72,35.59-.88.13-.74-.75-1.4-.84-.06.9.5,1.19.28,2.24-1.34.37-1.71.91-3.36,1.4-1.16-3.8-7.08-4.3-8.41-7,3.39,0,5,3.23,7.28,3.36-.9-5-6.94-4.82-9.25-8.41,2.2-.3,3.9,2.24,6.16,2.8-.18-1.5-1.11-2.25-1.12-3.92-2.77-1.25-5.57-2.46-7.29-4.76,2.38-.29,4.18,2.33,6.44,3.08-.54-4.78-5.53-5.12-8.12-7.84,2.13-1.17,4,2.15,6.16,2.8-.71-2.18-1.9-3.89-2.52-6.16-2.06-1.59-4.78-2.51-5.88-5,1.81.62,2.95,1.91,4.48,2.8-.42-2.38-1.84-3.76-2.24-6.16-1.62-1.46-3.85-2.31-5-4.2.87-.66,1.78.5,2.52.84-.65-3.36-4.93-3.1-5.88-6.16,1.5-.28,2.12,1.79,3.08,1.12C33.67,5.83,31.29,4.72,31.1,2c-1.71,2-4.2,3.27-5.88,5.32C29.06,14.18,31.8,23,33.62,31.94c1.28,6.26,4.22,12.18,3.64,17.65-.95.45-1.19-1.19-1.68-.28.55.22,1,1,.56,1.4-7.7-2.27-16.47-4.73-24.94-5.32C6.19,50.09,3.27,56.88,1.68,65c1.78.41,4,1.75,5.88,1.12C8.65,64.58,5,63.46,6.73,62.2a4.7,4.7,0,0,0,2.52,2c.19-.65.93-.75,1.12-1.4-1.48.16-2.15-1.95-1.68-2.8,1,.55,1.57,1.61,2.52,2.24,1.29-1.51,2.72-2.88,3.92-4.48-.46-1.41-1.38-3.84-.84-5.32,1.67.88.66,3,2,4.48a1.24,1.24,0,0,1,1.12-.56c.58.54.83,1.41,1.68,1.68,0-1.53-1.23-4.64.28-5,1.54,2.94-.57,6.6,2.8,7.57.32-1.84-.42-4.2.84-4.48.67,1.83.11,4.21,0,5.6.65.29.9,1,2,.84.22-1.18-.16-3,1.12-3.08.15,2-.65,4.95,1.4,5,.16-1.43-.23-3.41,1.12-3.64.38,2.46-1.23,5.29,1.12,5.88a3.76,3.76,0,0,1,1.12-3.08c.33,2.34-.5,4.85.28,7.29,1.61-1,1-4.18,2.8-5,.9,2.93-4,6.87-.56,9-3,3.58-8.67,4.59-14.57,5.32-1.08,1.21.49,2.56.28,3.92C13.46,81.68,12.22,72.7,4.76,74A57.08,57.08,0,0,0,14.57,93c5.44,1.7,13.69,2.44,19.61.56-.19-2.39.87-4.86,2.52-4.48-.29,1.48-1.54,2-1.4,3.92a4.68,4.68,0,0,1,3.92,2c.63-2.05-.06-4.32,1.4-5.88.32,2.91-.81,6.35-.28,9.81,2.1.73,1.41,6.09,3.36,7.85,0-.33.44-.3.84-.28-.92-5.37-4.05-9.2-1.68-15.13,1.2,2.07.36,5.13,0,7,2,1.88,1.4,6.25,3.64,7.85.36,0,.39-.36.84-.28-.1-3-2.42-5.21-2.52-7.29,2.59,1,2.6,4.69,3.92,7,.66,0,.82-.48,1.68-.28-.16-3-2.05-5.79-2.24-7.85,2.36,1.19,2.42,4.68,3.36,7.29,5.23-.56,9.08-2.51,13.73-3.64C64.77,98.21,63,95,63,92.47c1.94,1.53,2.41,6,2.8,8.13a21,21,0,0,0,5.88-2.24c-1.56-4.23-3.83-9.24-4.48-13.45,2.36,3.9,3.47,9,5.32,13.45a35.84,35.84,0,0,1,4.76-2.52c-1-6.56-4.1-11-5.6-17.09-.82-.67-2.2-.79-2.24-2.24,2.77-.12,3.82,3.82,6.16,5,2.13-3.7-4.71-6-5.32-8.68,3.12.89,4.07,4,6.72,5.32-1-4-4-5.88-6.16-8.69,3.31-.3,3.85,4.54,6.44,5.89C78.82,70.29,73.83,68,72,64.45c3.52,1.06,4.06,5.1,6.17,7.56,1.59-4.82-3.33-6.82-4.48-10.65,2.8,1.12,3.14,4.71,5.6,6.16.51-4.33-4.62-6.47-4.48-10.37,2,2.07,3.18,5,5,7.29,2.59-4.73-1.78-8.32-2.24-11.49,1.92.89,1.89,3.72,3.36,5a10,10,0,0,0,1.12-3.64c-.22-.28-1,.11-1.4-.56-.37-2.53-2.06-3.74-3.08-5.6,2.95.41,3,3.72,4.48,5.6.85-2.6-.37-5.46-.56-6.45C82.16,47.58,81.9,48.67,82.66,48.75ZM77.05,91.35c.62,1.15.53,3,1.68,3.64C78.69,93.44,77.56,91.51,77.05,91.35Zm-1.4-4.76a1.32,1.32,0,0,0-.28-.84V84.9c-1.47-.49-.53-3.39-2-3.92A19.07,19.07,0,0,0,75.65,86.58ZM78.46,21c-.87,0-3.11.48-1.68,1.12C77.24,21.67,78.12,21.62,78.46,21Z"/><path class="cls-1" d="M74.81,96.39c-1.55-.59-1.51-2.9-2.24-4.76-.62-1.57-1.85-3.3-2.24-5s.11-3.72-.84-5.32C70.9,86.15,73.83,91.35,74.81,96.39Z"/></svg>