<svg id="Layer_1" data-name="Layer 1" xmlns="http://www.w3.org/2000/svg" viewBox="0 0 96.37 130.46"><defs><style>.cls-1{fill:#5c86e5;}</style></defs><title>phone</title><path class="cls-1" d="M46.08,123.28a19.58,19.58,0,0,0,3.58,2.58l.69.5a1.51,1.51,0,0,0,.67.23c3.05,1.51,6.39,2.53,9.53,3.79.87.34,3.6-.57,4.39-1.35a54.14,54.14,0,0,0,12.12-4.52c5.19-2.5,10.74-4.26,15.8-7,1.39-.76,1.57-1.64,1.16-2.28,1.31-.34,2.53-1.34,2.32-2.67C94.05,97.69,84.4,89.37,73.94,79.78a2.92,2.92,0,0,0-3.44.08,3.21,3.21,0,0,0-1.57.71,27.86,27.86,0,0,0-4.16,5.37c-.1.07-.21.12-.3.2-4.14,3.53-6.75,8.27-9.7,12.76C37.41,86.15,23.07,65.47,22.67,43.56l.33-.17a2.1,2.1,0,0,0,.37-.15A87.21,87.21,0,0,1,32,39.16c4.34-1.38,8.62-3,12.8-4.67,3.42-1.34,4-3.1,3.52-5.23a.74.74,0,0,0,.08-.54C45.27,17.59,38.91,7.6,28.83,2.18c-.15-.22-.32-.42-.46-.65C28.06,1,27.29.92,26.45,1,25.68.68,24.89.36,24.09.08c-1.41-.5-6.17,1.64-4.21,2.34.67.24,1.27.57,1.92.85l-1.31.88c-1.41.29-2.91.86-2.58,1.62l.06.11A75.74,75.74,0,0,0,2.64,19.4c-1.22,1.48,3.9.85,4.78-.22A66.71,66.71,0,0,1,19.25,8.28c2,3.16,4.77,5.69,7.42,8.39a30.59,30.59,0,0,1,5.59,8.45c-.19.22-.37.45-.57.67-1.37-2.62-2.5-5.37-4.06-7.89-.33-.53-1.56,0-1.19.59,1.6,2.6,2.75,5.45,4.18,8.14,0,.07.12.08.18.12l-.33.32a83.53,83.53,0,0,1-7.85-13.23c-.14-.31-1.4.14-1.31.35A86.55,86.55,0,0,0,29.55,28c-.53.49-1.08,1-1.64,1.42-3.64-3.69-5.82-8.45-8.19-13-.25-.49-1.51,0-1.2.57,2.42,4.66,4.63,9.53,8.42,13.25l-1.25,1a28.91,28.91,0,0,1-7.89-12.91c-.15-.49-1.46-.12-1.31.35,1.55,4.9,4.25,9.91,8.19,13.29h0c-1.6,1.21-3.2,2.41-4.73,3.69a24.75,24.75,0,0,1-7-11.41c-.11-.4-1.41,0-1.31.35a25.19,25.19,0,0,0,7.43,11.85,31.2,31.2,0,0,0-2.76,2.69c-1.35,1.52.17,2.22,1.81,2.15a1.57,1.57,0,0,0,.76.24c-.85.35-1.51.92-1.51,1.64,0,.39,0,.77,0,1.15-.39.31-.32.49,0,.58,0,1.09.06,2.17.16,3.25-.33-.05-1,.09-1.11.36-1.13,2.57-3,4.72-3.74,7.48-.1.39,1.2.19,1.3-.2.69-2.66,2.47-4.77,3.61-7.22C19.48,67.44,30.74,85,45.23,97.39c-.36,0-.95.14-1,.36-.74,3.23-3.36,8.24-1.77,11.51.17.34,1.42-.12,1.31-.35-1.55-3.2,1-8.08,1.73-11.3a88.72,88.72,0,0,0,10.32,7.58,1.63,1.63,0,0,0,.41.17c-.18.1-.34.22-.34.38,0,.33,0,.66,0,1l-.2.16c-.82.6-.6,1.31.28,1.51q.21,5.84,1,11.64a.22.22,0,0,0,.13.13l.37.13c.33.12,1.06,0,1.17-.4l.25-.48c.23-.32-.29-.36-.73-.26-.54-1.41-.57-5.34-.63-6.09-.14-1.54-.22-3.09-.27-4.64a5.54,5.54,0,0,0,1.45-.38c.55,5.27,2.32,10.32,4.21,15.28.15.39,1.26.1,1.31-.27a3.32,3.32,0,0,0,0-1.4c0-.17-.28-.2-.55-.16A55.26,55.26,0,0,1,60,107.35c1.13-.83,2.2-1.71,3.23-2.64,0,.05-.09.1-.07.15,1.87,4.53,3.81,10.93,8,13.93.35.25,1.52-.27,1.22-.49-4.11-3-6-9.28-7.88-13.8-.11-.27-.7-.17-1.05,0A59.13,59.13,0,0,0,68.73,99l14.41,19.05c-1.66.66-3.32,1.31-4.94,2.05-4.58,2.09-8.91,4.42-13.83,5.56a4.23,4.23,0,0,0-2,.21l-.27,0a10.1,10.1,0,0,1-1.59-.49,12,12,0,0,1-1.15-.52c.1-1.28-1.44-1.56-2.39-1.56h-.44c-1.47-.86-2.9-1.78-4.37-2.64A3.06,3.06,0,0,0,50,120.6C36.08,110.25,26.21,99.34,18,82.87,8.27,63.48,5.4,42.65,5.23,21.23c0-1.4-5.24-.47-5.23,1.4C.17,44.49,3.65,64.29,12.74,84.27,20.41,101.12,31.7,112.75,46.08,123.28ZM27.3,37.11c-.41.18-.83.36-1.25.53a1.27,1.27,0,0,0-.22-.5l.14-.08A3.57,3.57,0,0,0,27.3,37.11Zm11.1-12.79-.44.25a.94.94,0,0,0,.19-.59Zm2,3.2a9.57,9.57,0,0,1-.83.88l-.13-.32C39.73,27.88,40.07,27.71,40.38,27.52Zm-5.39,4-.54.28.49-.41Zm6.15,1.15c.79-.43,1.58-.85,2.38-1.25a1.88,1.88,0,0,1-.24,1A11.92,11.92,0,0,0,41.14,32.62ZM24.31,4.74l0,0h0ZM37.47,23.06l-.33-.16c-.14-.29-.29-.57-.44-.86ZM69,90.82l-.51-.43a.88.88,0,0,0-.33-.12l0,0a2.22,2.22,0,0,0-.63,0l.39-.82C68.22,89.88,68.59,90.36,69,90.82Zm21.3,19.23a52.19,52.19,0,0,0-5.19-10.37c-3-4.25-6.89-7.74-9.93-11.94C82,94.17,87.78,100.66,90.28,110.05ZM74.78,87.38a2.81,2.81,0,0,0-2.33-.26c-.25-.39-.52-.78-.75-1.18a1.59,1.59,0,0,0-1.44-.62c.29-.43.57-.88.89-1.29Q73,85.72,74.78,87.38ZM57.19,105.44l.41-.05-.4.32C57.2,105.62,57.19,105.54,57.19,105.44Z"/><path class="cls-1" d="M61,39.4c4.9,6,9.31,12.21,12.54,19.33,1.1,2.43,6.29.94,5.23-1.4A93.65,93.65,0,0,0,65.74,37C64.15,35.07,59.21,37.22,61,39.4Z"/><path class="cls-1" d="M63.17,23.52C76.07,36.57,87,50.8,88.48,69.73c.18,2.37,5.42,1.12,5.23-1.4C92.25,49.1,81.09,34.51,68,21.22,66.3,19.55,61.35,21.68,63.17,23.52Z"/><path class="cls-1" d="M16.42,37.95a40.28,40.28,0,0,1-6.33-12.67c-.16-.54-1.47-.18-1.31.35a41.86,41.86,0,0,0,2.64,6.71.83.83,0,0,0-1.08.29A40.12,40.12,0,0,0,8.81,37c-.22.75,1.08.78,1.26.18a40.5,40.5,0,0,1,1.54-4.4c0-.07,0-.11,0-.17.49,1,1,1.92,1.59,2.85A16.05,16.05,0,0,0,11,41.62c-.08.41,1.22.19,1.3-.2a19,19,0,0,1,1.53-5c.29.45.59.89.9,1.33a.52.52,0,0,0-.18.18c-1.5,2.9-2.14,6.18-3.74,9-.35.62,1,.6,1.24.12,1.5-2.66,2.18-5.7,3.49-8.45C16,38.69,16.71,38.33,16.42,37.95Z"/><path class="cls-1" d="M22.15,33.33c-3.59-2.82-5.53-7.46-6.55-11.8-.12-.5-1.43-.16-1.31.35,1,4.37,3,9.13,6.65,12C21.33,34.17,22.55,33.65,22.15,33.33Z"/><path class="cls-1" d="M11.65,52c-.09.4,1.21.19,1.3-.2.78-3.36,3-6.2,3.3-9.68,0-.44-1.26-.18-1.3.2C14.61,45.76,12.43,48.6,11.65,52Z"/><path class="cls-1" d="M16,53.7c-.5,2.35-1.9,4.33-2.64,6.6-.16.48,1.16.31,1.31-.15.74-2.27,2.14-4.24,2.64-6.6C17.47,53,16.15,53.23,16,53.7Z"/><path class="cls-1" d="M16.94,59.9c-.84,1.67-1.74,3.32-2.42,5.06-.08.21,1.16.09,1.29-.24.68-1.75,1.58-3.39,2.42-5.06C18.31,59.5,17.1,59.58,16.94,59.9Z"/><path class="cls-1" d="M16.74,65a13.83,13.83,0,0,0-1.58,4.74c0,.62,1.29.38,1.32-.13A13.09,13.09,0,0,1,18,65.11C18.26,64.47,16.95,64.56,16.74,65Z"/><path class="cls-1" d="M18.24,69.1c-.43,1.42-1.05,2.77-1.54,4.18-.19.53,1.14.38,1.32-.13.49-1.41,1.11-2.76,1.54-4.18C19.73,68.41,18.4,68.58,18.24,69.1Z"/><path class="cls-1" d="M20.21,75.32a4,4,0,0,1,.44-1.54c.16-.34-1.11-.21-1.3.18a4.12,4.12,0,0,0-.44,1.54C18.87,76,20.18,75.72,20.21,75.32Z"/><path class="cls-1" d="M31.48,90.31a15.12,15.12,0,0,0-1.36,3.87c-.12.65,1.21.48,1.32-.1a14.09,14.09,0,0,1,1.28-3.62C33.06,89.79,31.73,89.79,31.48,90.31Z"/><path class="cls-1" d="M32.55,93.32c-.22,1.31-.55,2.64-.66,4,0,.54,1.27.28,1.31-.16.11-1.33.44-2.65.66-4C33.95,92.65,32.63,92.87,32.55,93.32Z"/><path class="cls-1" d="M35.41,93.1c-.74,2.56-1.89,5-2,7.7,0,.59,1.08.28,1.27,0s.45-.73.66-1.1-.11-.41-.45-.39a53.43,53.43,0,0,1,1.81-6.32C36.87,92.44,35.55,92.62,35.41,93.1Z"/><path class="cls-1" d="M37.62,94.65c-.54,2.71-2,5.65-1.54,8.45.07.44,1.39.13,1.31-.35-.45-2.71,1-5.64,1.54-8.27C39,94,37.7,94.21,37.62,94.65Z"/><path class="cls-1" d="M40,106.05c.1-3.5,1.31-6.78,2.41-10.06.1-.29-1.17-.13-1.29.22-1.12,3.32-2.33,6.64-2.43,10.19C38.71,106.64,40,106.46,40,106.05Z"/><path class="cls-1" d="M46.64,101c-.57,2.06-1.18,4.1-1.58,6.2-.25,1.31-.71,3.41.3,4.52.27.3,1.51-.17,1.22-.48-1.12-1.23-.32-3.81,0-5.23.37-1.75.9-3.47,1.38-5.19C48.05,100.45,46.75,100.65,46.64,101Z"/><path class="cls-1" d="M49.27,102.1c-.48,2.75-1.36,5.42-2,8.14-.33,1.52-1.27,4.63,0,6,.41.42,1.65-.11,1.2-.57-1.33-1.35,0-5.2.37-6.75.53-2.3,1.27-4.56,1.67-6.88C50.71,101.34,49.38,101.52,49.27,102.1Z"/><path class="cls-1" d="M52.34,103.49c.09-.41-1.22-.19-1.3.2-1.11,5.26-1.9,10.56-1.11,15.93.06.4,1.2,0,1.3-.27l.66-1.76c.08-.22-.39-.22-.8-.11A47.87,47.87,0,0,1,52.34,103.49Z"/><path class="cls-1" d="M55.2,106.11c.06-.29-1.22-.09-1.29.23-1,4.61-2.1,10.08-.23,14.58.13.32,1.09-.06,1.25-.22a3.09,3.09,0,0,0,.71-.95c.07-.12-.5-.11-.92,0C53.3,115.46,54.27,110.4,55.2,106.11Z"/><path class="cls-1" d="M68.85,123.09a10.12,10.12,0,0,0,.22-2.29c0-.36-1.3-.13-1.31.35,0,.14,0,.28,0,.42-2.76-3.92-3.86-8.87-5.51-13.31-.16-.43-1.45,0-1.31.35,1.87,5,3,10.68,6.65,14.82C67.84,123.71,68.77,123.45,68.85,123.09Z"/><path class="cls-1" d="M65.79,105.52c2.45,4.62,5.27,9,8,13.5.14.24.68.06.86,0l.36-.12c.12,0,.39-.18.4-.34a1.49,1.49,0,0,1,.08-.54c.08-.31-.47-.3-.88-.15-2.55-4.2-5.18-8.36-7.48-12.71C66.86,104.74,65.6,105.18,65.79,105.52Z"/><path class="cls-1" d="M67.6,103.21c1.46,2.22,2.74,4.56,4.2,6.78,1,1.47,2.24,3.68,4,4.55A11.12,11.12,0,0,0,80,118c.35.14,1.55-.39,1.05-.59a10,10,0,0,1-3.71-2.94c.16-.19.17-.4-.17-.49a3.59,3.59,0,0,1-.35-.15c-.75-1-1.42-2-2.05-2.85a104.18,104.18,0,0,1-5.47-9.07c-.22-.41-1.48,0-1.31.35l.16.28C67.75,102.59,67.38,102.87,67.6,103.21Z"/></svg>