<svg id="Слой_1" data-name="Слой 1" xmlns="http://www.w3.org/2000/svg" viewBox="0 0 1920 5"><title>bg_line</title><path d="M110.83,4c.65-.1,1.13.45,1.83.19-.15-.48,2-.7,1.17-1.4l.38.39c.28-.73.7-.26,1-.92-.62-.06-1,.19-1.84-.19.94-1.31.57.71,1.84-.53-.37.33,0,.8.33,1-.09-.88.37-.33.61-1.14.33.3,1.93-1.11,1.89.26.85-.75-.19-1-.05-1.77a4.24,4.24,0,0,0,2.41.66l-.24.33c.42.47,1.33-.68,1.6.53.9.06.47-.65.94-.83-.09.56-.52,1.06-.14,1.45.71-1,1.51-.35,2.21-.85l.52.63-.76.66h.29c-.9,1.39-.38-.63-1.37.36L123.1,3.9l-.47-.07c-.19.41-.15,1,0,1a6.19,6.19,0,0,0,1.13-1.23c0-.08,0-.24-.24-.16.94-.82-.09.56.52.39-.09-.4.47-.65.75-.9,0,.54.59.7,1.08.52l0-.05s0,0,0,0a.89.89,0,0,0,.26-.13l.07.11c.28-.21.53-.59.46-.77l.23.87.14-.15c0,.41.56.18,1.09,0a1.52,1.52,0,0,1,.6-.8L129,3a.9.9,0,0,0-.36.26c.4-.11.72-.06.71.49-.14-.49.56-.49.85-.74.25.14.13.39.11.59.39-.21,1-.56,1.17-.15-.1-.09-.29,0-.52.11a.62.62,0,0,0,.77-.08c-.14.61-.9.93-1.14,1.06l.1.08c-.22,0-.2,0-.1-.08l-.46-.4s0,0,0,.08h0a.29.29,0,0,1-.14.22l-.17.26c.41.39,1.16-.16,1.46.13a2.39,2.39,0,0,0-.26.7l-1.1-.09v.15c-.53-.25-.06-.64-.14-1a.45.45,0,0,0,0,.28l-.48-.18-.16.25-.3-.13.29-.17c-.26-.08-.51-.16-.82-.28,0,.05,0,.1,0,.15a1,1,0,0,0,.41.57l.07-.27a1.45,1.45,0,0,0,.06.38A.68.68,0,0,1,129,6a4.4,4.4,0,0,0-.51-.43h0v0c-.09-.1-.14-.23-.23-.65l-.54.53c.48-.7-.64-.41-.67-.83l0-.06-.57-.13c.3-.05.25.51.36.92l.13.19-.06,0c.1.18.26.28.58.15L126.6,6l0,.08-2.26,1.25c-.28,0-.23-.4,0-.72-.7.25-.7-.47-1.5-.13l.56-.49c-.61-.55-.75.66-1.64.11l-.1.57-.23-.4c-.38.33-.85,1.22-1.17.67l-.19.89c-.33-.07.05-.88-.37-.88-.33.17-.61.66-.47.9-.7,0-1.31-1.5-2.2-.35.28-.49-.38-.39-.09-.64h.14c0-.72-.09-.88-.8-.86l-.24.57c.24-.33-.14-.72-.75-1l0,.16V4.25c-.56.26-.89.19-1.08.84s.43,0,.52.39c-.89.19-.75,1.39-1.35,2l-.1-1.36.57,0c.14-.25-.09-.4-.14-.47a1.49,1.49,0,0,0-1.22,1.08l-.19-1c-.56.26-.7.27-.94-.13l.38-.33c-.42,0-.67-.86-1-.29.14-.24.13-.48.37-.57Z"/><path d="M160.48,2.86c0-.21-.09-.53.05-.54l-.47.23C160.29,2.51,160.37,2.71,160.48,2.86Z"/><path d="M172,2.82a1.09,1.09,0,0,0-.3-.25A1.13,1.13,0,0,0,172,2.82Z"/><path d="M171.67,2.58c0-.06-.06-.1-.05-.13l-.33,0A.69.69,0,0,1,171.67,2.58Z"/><path d="M176.24,2.59a.87.87,0,0,0-.1.4A1.15,1.15,0,0,1,176.24,2.59Z"/><path d="M171.67,2.43a3.48,3.48,0,0,1,.4.25l-.07.17,0,0,0,0c0,.06,0,.07,0,0a1.47,1.47,0,0,1,.28.59h0l-.46,0a1.15,1.15,0,0,0-.88-.51c0-.26,0-.77.11-.55.16-.78-.67.44-.52.7-.18-.08-.42.24-.53.39v0l0-.08-.05,0a.56.56,0,0,1,.29-.71l-.69,0a1.1,1.1,0,0,0-1-.49c-.49-.24-.87-.44-.55-1.46,1.09.93,2.56,1.15,3.66,1.74l0,0Z"/><path d="M171.29,4l0,0C170.9,3.64,171,3.79,171.29,4Z"/><path d="M179.35,3.51a1.24,1.24,0,0,1-.2-.29,5.16,5.16,0,0,0,0-1.1c.13.07.28.14.37.1,0,.28.13.62.15.91l.24-.26a2.57,2.57,0,0,1-.31.64.58.58,0,0,0,.07-.38Z"/><path d="M179.45,3.6a.3.3,0,0,0,.2-.1l-.1.18Z"/><path d="M176.91,2.94a.57.57,0,0,0-.32-.47.75.75,0,0,1,.23-.42Z"/><path d="M182,2.17c-.37.16-.63,0-.88-.06,0-.27-.08-.54-.13-.8l1,.28a.49.49,0,0,0,0,.24A.46.46,0,0,0,182,2.17Z"/><path d="M180.17,1.35a9,9,0,0,0,.61.81.88.88,0,0,0-.35.35c.16.12,0,.29-.13.49a5.81,5.81,0,0,0-.33-.67,1,1,0,0,1,0,.42,1.5,1.5,0,0,1-.39-.56c.05,0,.09-.14.09-.33l-.51,0c0-.32-.07-.65-.12-1,.43.08.87.18,1.3.28Z"/><path d="M179,1.88h-.36c0-.26-.18-.24-.35-.11l-.12-.14a1,1,0,0,0-.12-.21l.07-.18-.08.17,0,0s0,0,0,.06v0a1.78,1.78,0,0,1-.21-.32,4.17,4.17,0,0,1,.36-.4l.34,0C178.73,1.1,179.08,1.47,179,1.88Z"/><path d="M175,3.33a2.05,2.05,0,0,1,0,.3c-.27-.17,0-.21,0-.3s0-.08,0-.12h0c0,.1.05.16,0,.1Z"/><path d="M174.63.87l.06,0,0,.44a1,1,0,0,0-.3.25h-.07c-.21-.18.16-.42,0-.8a.82.82,0,0,1,.19.07.15.15,0,0,1,0,0Z"/><polygon points="177.98 1.48 177.98 1.48 177.98 1.48 177.98 1.48"/><path d="M173.94,1.43a1.83,1.83,0,0,0-.11-.53.8.8,0,0,1,.53-.13Z"/><path d="M174.81,3.66l.13,0v0Z"/><path d="M172.72,3.35l-.16.06a.67.67,0,0,1,0-.09l.21-.21Z"/><path d="M172.52,3.22a1.08,1.08,0,0,1,.32-.86s0,0,0,.06Z"/><path d="M160.58,2.73a.91.91,0,0,0,.51,0,2,2,0,0,0,0,.42c-.7.38-1.06-.67-1.54-.63l.58.49a1.11,1.11,0,0,1-.24.25,1.91,1.91,0,0,1-.59-.56,3.43,3.43,0,0,1,.8-.77C160.93,1.54,160.43,3,160.58,2.73Z"/><path d="M175.17,1.1,175.09,1l.2-.24.36,0A1.42,1.42,0,0,1,175.17,1.1Z"/><path d="M166.25,2.86l0-.37c.59-.14.81,0,.89.32l-.55.25V2.85A1.23,1.23,0,0,0,166.25,2.86Z"/><path d="M165.69,2.91a.66.66,0,0,0-.15.16,2.86,2.86,0,0,1-1.24.29l-.06-.45c.22.33.4.54.47.07a1.54,1.54,0,0,0-.78-.51c.09.12.18.25.26.37-.25.09-.59-.12-.9-.24a.92.92,0,0,1,.64-.13c-.28-.36-.6-.58-.91,0l.06.08a.31.31,0,0,0-.4.27,1.67,1.67,0,0,0-.35-.76A14.09,14.09,0,0,0,165.18,2Z"/><path d="M187.83,3.59c0-.06-.18-.07-.08-.2a.38.38,0,0,0,.4-.33c-.11-.26-.38,0-.51.07l0,0a.68.68,0,0,1-.73.26l.16.17-.25.12,0-.2c-.2,0-.47-.18-.67.12-.19-.24.06-.14.14-.17-.22-.25-.09-.8-.31-1.05-.25.34-.64.63-1,1l-.06-.3c0,.22-.39.29-.4.56l-.2-.41c-.09.08-.08.24,0,.43l-.13-.16c.21.36,0,.83.33,1l.24-.29c.15,0-.12.23-.06.36.12-.23.29-.11.45-.37s.37.09.36.36c-.18.15-.49.19-.63.36L185,5c-.41.43-.3-.29-.6-.14v0c0,.11-.09.08-.13.06a.48.48,0,0,1,.12-.08c-.07-.47-.32.11-.44-.31-.09.07-.11.67-.28.33l.16,0c-.13-.16-.38-.47-.4-.37L183.24,4c.2,0,.35.19.58.17.35-.47.27-1.15.71-1.48h-.12l.36-.08c0-.44-.23,0-.43-.17,0,.43-.4.34-.62.48-.3.87-.4-.59-.82-.15l.41-.39c-.12.28.18.29.28.16l-.15-.23c.16.17.3-.16.24-.29A.25.25,0,0,0,183.6,2a.18.18,0,0,1-.11,0c-.13.12-.26.51-.49.27.16,0,.17-.1,0-.26l.44-.33-.05.31h.06s.07,0,.11,0a.15.15,0,0,0,.08-.05c-.15-.22.16-.27-.08-.41.14-.17.47-.48.64-.14,0-.15.09-.29,0-.37.4.32.44-.54.61-.42s.19.24.32.18l-.08-.2c.12,0,.06.13.12.21l-.28.05c.41.05.33.74.76.9l-.26.17c.32.34.69-.44,1,0-.47,0,.14.5-.14.6.19.46.76.25,1,.14.06.08.34-.19.46-.42.11,0,.16.39.29.11,0-.12-.08-.2-.2-.19.12-.45.3.28.46,0,0,.07.54-.44.8-.22,0,.15-.65.67-.84.87,0,.24.11.26.25.1l-.11.62C188.42,3.28,188,3.38,187.83,3.59Z"/><path d="M197.94,2.27l-.23-.15c0-.1,0-.2,0-.3l.07,0,.12.41L198,2l.63.41-.05.13.87.16c-.61.27-1.24.58-1.69.42a4.49,4.49,0,0,1-.07-.82l.44.13Z"/><path d="M216.08,4.31a1.37,1.37,0,0,0-.07-.15l.11.09Z"/><path d="M218,3.67a.69.69,0,0,0-.22-.18l0,0a.49.49,0,0,0,.16,0l-.32-.13-.5-.51c.22,0,.32-.11.37-.18a4.36,4.36,0,0,1,.91.55A2.13,2.13,0,0,1,218,3.67Z"/><path d="M218,3.67l0,0,0,0Z"/><path d="M209.21,3h0a.75.75,0,0,0,0-.08V2.84Z"/><path d="M220.76,3c-.47-.14-.93-.28-1.1-.69a10.3,10.3,0,0,1,1.43.15C221,2.68,220.88,2.94,220.76,3Z"/><path d="M218.66,2.57l0-.56a1.94,1.94,0,0,0,.69.23A1.25,1.25,0,0,1,218.66,2.57Z"/><path d="M200.57,3.14a1.35,1.35,0,0,0-.72.91,3.71,3.71,0,0,1,.43-1.48A.74.74,0,0,1,200.57,3.14Z"/><path d="M207.42,3.54l-.14-.15s0,.12.1.3l0,.14c-.1-.55-.26-1.18-.75-1.1a4.46,4.46,0,0,0,1-.56A12.72,12.72,0,0,1,207.42,3.54Z"/><path d="M200.57,3.07l-.34.16-.41-.48C201.14,2.08,200.82,2.5,200.57,3.07Z"/><path d="M202.57,3c0-.09-.06-.17-.08-.27l-.31.24a2.45,2.45,0,0,1-.89-.29,2.09,2.09,0,0,0,0-.34,11.55,11.55,0,0,1,2.52-.21C203.73,2.71,203.18,2.95,202.57,3Z"/><path d="M213.33,3.23c-.82.55-2.59.21-3.4-.2-1.42.86.12,1.08.2,1.8l-1.62-.94c1.4-1.24,2.44-1.21,4.42-1.66l-.08.07A1.47,1.47,0,0,0,213.33,3.23Z"/><path d="M210.45,3.35a1.1,1.1,0,0,1,0-.47A4,4,0,0,0,210.45,3.35Z"/><path d="M189.06,3.34c.1-.09.21,0,.32.09Z"/><path d="M193.4,3.34a.57.57,0,0,0-.26.09A.83.83,0,0,1,193,3l.19,0h0A2.88,2.88,0,0,1,193.4,3.34Z"/><polygon points="190.39 2.94 190.39 2.94 190.4 2.93 190.39 2.94"/><path d="M207.93,4.36l0,0,0-.05Z"/><path d="M206.28,4.12v0h0Z"/><path d="M209,3.5c-.18.18-.37.35-.57.51l-.15-.12c.13-.68.44-1.19,0-1.84A3.05,3.05,0,0,1,209,3.5Z"/><path d="M204.82,1.14a2,2,0,0,1,.57,1.75c-1.06-.67-.49-1.27-.64-1.76Z"/><path d="M216.15,4.65a1.64,1.64,0,0,0-.37.51A1.25,1.25,0,0,0,216.15,4.65Z"/><path d="M175.66,1.9h-.14C175.57,2,175.6,2.09,175.66,1.9Z"/><path d="M153.71,2c.84-.07-.54-.83,0,0Z"/><polygon points="149.21 4.3 149.85 3.83 149.37 3.69 149.21 4.3"/><path d="M152.12,1.77,152,1.45S152,1.61,152.12,1.77Z"/><path d="M154.32,3.89l-.18.21a2.64,2.64,0,0,1-.41-.29L153.8,3l-.46.46a6.77,6.77,0,0,1-1.22-1.68,13.38,13.38,0,0,0,1.11,3.37c.18-.21.34-.82.93-.66.5.46,0,.73,0,1.23C154.53,5.32,155.42,4.64,154.32,3.89Z"/><path d="M145.36-.17l1,1.33,0-.8a.88.88,0,0,0,.71,0,2.43,2.43,0,0,1,.76.53c0-.4-.29-1,.15-1l-.7.21c.1-.28.08-.67.16-1Z"/><path d="M225.43,2.86c0-.4-.25-1,.14-1l-1.25.42C224.93,2.21,225.13,2.59,225.43,2.86Z"/><path d="M230.36,3.26a.35.35,0,0,1-.15,0c.29-2-.65-1.35-1.58-.7C228.71,4,229.49,3.51,230.36,3.26Z"/><path d="M142.25,2.34a1.26,1.26,0,0,0-.26.74A1.67,1.67,0,0,1,142.25,2.34Z"/><path d="M140.24,4.56l1.45.52a.6.6,0,0,1,.35-.56c.12,0,.25,0,.37,0l0-.09a1.12,1.12,0,0,0,.84-.26,4.09,4.09,0,0,0-.81.13c.12-.47.27-1.09-.41-1.05a1.55,1.55,0,0,1-.18.16l-.16-.88-.5,1.31a5.12,5.12,0,0,1-1,.21,6.3,6.3,0,0,0,.69.22C140.49,4.26,140.23,4.28,140.24,4.56Z"/><polygon points="144.97 3.97 146.42 4.5 146 4.12 144.97 3.97"/><polygon points="190.32 4.77 189.41 4.63 190.21 4.99 190.32 4.77"/><path d="M255.09,0a1,1,0,0,0-.16-.19c-.41.06-.86.11-1.33.14h0a.6.6,0,0,1-.09.34h0s0,0,0,.06l.59-.11c-.22.26-.52.18-.78.09a.56.56,0,0,0-.24.3l.36.06c.85.32-.33.53,0,1-.81-.05-.49-.7-1.1-.7-.08.22.12.54-.35.67.07-.19-.12-.29-.3-.37a.45.45,0,0,0-.36,0l.35.27a2.6,2.6,0,0,1-.84-.57c-.22,0-.37.11-.26.18a4.22,4.22,0,0,0-.77-.21,1.75,1.75,0,0,1-.32.12l-.17.07v0c-.37.1-.73.22-.72.58l.12,0a1.4,1.4,0,0,1,.24-.17L249,2l0,0a.55.55,0,0,0,.2-.07,1.42,1.42,0,0,0-.06.27.36.36,0,0,1,0,.45,5.14,5.14,0,0,0,.12.66h.12l-.1.1c0,.12.05.23.07.37.47-.16.56-.43,1.33-.5.3.38-.93.9-.65,1.21h.13l0,0,0,0c.22,0,.42-.14.38-.28.23.14.79.74-.22.89-.14,0-.17-.2-.32-.32-.23.25-.59.38-.59.49.3.56,1.06,0,1.16.2l-1.19.42c0,.46-.45.91.07,1.2-.48.08-.67.36-1,.35a1.81,1.81,0,0,1-.07.74c.28,0,.48-.4.58-.63-.22.42-.23,1,.41,1.08,0-.23.44-.61-.09-.68a.15.15,0,0,1-.22.11l.55-.54c.63.13.84.25.73.73.53,0,.86-.75.33-.74l.65-.1V6.84l.42-.05c0-.32.12-.68.15-.9l.23,0c.1.38.51,0,.62,0-.27.16.11.51.25.87a3.08,3.08,0,0,0,.78-.18c-.31-.56-.64-.35-.83-.85l.74,0c.11-.25-.84-.25-.4-.54a.32.32,0,0,1,.28-.16l.08-.32h.05l-.69-.2,1-.26c.08-.32.17-.67.53-.69.21-.49-.93-.64-.25-1a2.48,2.48,0,0,1,1.15.26l.66-.64c-.16.21-.39.5-.61.8,0,0,.06.08,0,.16h-.16a2.7,2.7,0,0,0-.39.79l-.19-.57-.17.15L255,4c-.27,0-.51-.22-.71-.1.67.18.34,1.34,1.66.89l-.57.29c-.17-.58-.85.31-.85-.32,0,.07-.14.09-.3.11.15.13,0,.44-.35.49.64-.18,0,.68.73.33L254,6a2.05,2.05,0,0,0,.35.36L255.1,6c.29.17.48-.14.81,0a1.07,1.07,0,0,0,0,.8,9.79,9.79,0,0,1,1.22,0c.1.44-.75.36-.11.71l.32-.13c.21.19-.21.57-.33,1,1.16,0-.22.8,1.06.5-.11-.06.1-.63.63-.57.85.23-.21.73.84.76,0-.08,0-.15-.1-.14,1.2,0,.31,1.47,1.64,1.54a6.54,6.54,0,0,0-1.18-3.59,1.43,1.43,0,0,1,0,.89c-.4-.52-1-1.47-.61-2a6.52,6.52,0,0,1-.49-1.15l-.37.28.08-.33c.06,0,.16,0,.25-.07a4.41,4.41,0,0,1-.2-1.75,4.21,4.21,0,0,0,.61-.38.94.94,0,0,0-.4-.65,8,8,0,0,1,.33-.87c-.41-1-.59-.11-1.15.42a4.81,4.81,0,0,0-.86-.24l-.15.4h0a.94.94,0,0,1-.2-.19c-.51.23-.84.25-1.51.5-.18-.57.87-.59.27-1.09l1.08.38c-.3-.61.25-1.37.87-1.85a1.86,1.86,0,0,0-.1-.24A5.3,5.3,0,0,0,255.09,0Zm-4.7,1.58.33.09-.07.22c.22,0,.21.17.44.24-.43,0-.8,0-.62-.25h0Zm.84,4.74h0c-.16.6-.84-.44-1.47.24l.12-.55a9.17,9.17,0,0,1,.95.23V6.17l.39.16a.21.21,0,0,0,0-.07ZM250.68,3l.45-.24c.12.11,0,.21.18.27C251.18,2.9,250.94,3,250.68,3Zm1.77-.92-.94-.16,1.07-.25Zm.78,2.16c-.53,0-.13-.62.31-.64C253.92,3.9,252.62,4,253.23,4.22Zm1-.68-.13,0a.41.41,0,0,1,0,.41c-.11-.09-.41-.3-.22-.46l-.13,0c-.16,0,.13.21.08.29l-.29-.17C253.83,3.42,254.17,3.07,254.28,3.54ZM254.6,1l-.6-.5.72.18Zm1.08,3.6-.15-.4C256,4.1,255.94,4.43,255.69,4.63Zm-.93.68-.6,0,.62-.26C255,5.1,254.63,5.2,254.76,5.31Z"/><path d="M562.37,1.23c-.13-.17-.23-.35-.74-.3-.2.1-.12.36-.15.25-.47.23-.22-.49-.67-.21l0-.38c-.31.22-.42-.15-.68-.26a.57.57,0,0,1-.16.5l-.09-.31h.23c.13-.6-.52-.22-.88-.4L559,.55l-.3-.27c.09-.22.37.24.53-.26,0-.19-.26-.11-.28.08C559,0,558.84,0,559-.13c-.6.3-1.06,0-1.63.62h0l.17.09h-.15c.07.08.26,0,.43,0a.64.64,0,0,0,0-.14l.26.11L558,.63c.06,0,.09.08.08.2h0l0,0c-.08.06-.13.06-.17,0a.44.44,0,0,1-.65-.29l-.75.06V.73c-.63,0-1.05-.6-1.67-.31,0,.06,0,.09-.15.07l.15-.07c0-.13,0-.36.28-.32-.09-.31-.55-.33-.9-.22.19-.15.14-.31.56-.45h0c-.14.1-.24-.07-.52.18l.24-.22a.63.63,0,0,0-.32.23.21.21,0,0,1-.28,0l-.1.38a.23.23,0,0,0-.08-.16c-.27.22-.17.44,0,.3-.09.13-.49.74-.55.44.26,0,.22-.22.27-.38-.07.07-.28.06-.37.18,0,0-.1,0-.2-.07-.56,0-1.14.31-1.63,0-.12-.08-.06-.25-.09-.42a.49.49,0,0,0,.11,0,.8.8,0,0,1-.18-.16c-.52,1,.78,1,.44,1.87l.12-.16,0,.13.15-.08-.08-.25a2.06,2.06,0,0,0,.35-.26c-.25.46.35.06-.06.53l-.36.09c-.07.22-.15-.21-.35.17-.15-.11-.24-.2-.24-.31s-.39,0-.15-.35a.66.66,0,0,0,.33.06l.13-.12c-.21-.09-.5-.25-.67.22a.55.55,0,0,0,0-.37.46.46,0,0,0-.27-.23.54.54,0,0,0,.1.21c-.28.08-.26-.08-.24-.24-.38-.08-.91,0-1.26-.12a.41.41,0,0,1,0,.12l-.15,0c-.45.26.06.49-.31.67-.07-.11-.27-.19-.49,0,.27,0,.11.23.08.42l0,.06h0c0,.09,0,.15.22.12,0,.05-.26.51-.43.39l.24-.27c0-.2-.17-.15-.25-.24s-.13,0-.15-.1c-.35-.14-.55-.19-.47-.5,0,0,0-.06,0-.14A1.64,1.64,0,0,0,546,1c0-.11,0-.25,0-.36l-.86-.16,0,.05-.13,0c0,.14.37.13.55.13.12.18.45.26.25.65-.57-.44-.7.75-1.22.22-.56-.11-.47-.71-.44-1.14l0-.06-.5.52-.5-.17L542.63,2l-.35-.06c.2-.19.5-.34.47-.63s-.87-.14-1.4,0c.34-.45-.4,0-.16-.37-.28-.06-.83-.31-.95.25L540.1.93c-.12.05-.2.5.07.73.15.07.2.28.26.41a.37.37,0,0,0,.27-.21c-.12.43.42-.08.53.21a.36.36,0,0,0,0,.55c-.27.32-.07.64-.49.85-.18-.15-.08-.5-.28-.57-.32.49-.62-.12-1.17.4l-.13-.58c-.94.64-.27-.91-1.14-.53l0,.29-.25-.38c-.66.41-.55-1-1.51-.32l.43.21c-.24.24-.65.13-.58.09-.11-.42.54-.49,0-.68-.11.12-.29.07-.42.14.12,0,.33,0,.29.23l-.32.24c.15-.2,0-.31,0-.42a.39.39,0,0,0-.08.25.26.26,0,0,1-.08-.36l-.14-.07c.1-.09,0-.16,0-.3h.37a3.38,3.38,0,0,0,.23-.3.34.34,0,0,0,.2,0s0,0,0-.05.12-.18.21-.27c0,.06.27.11.22.23a.2.2,0,0,1,.16.09l-.06,0H537l-.39.21,0-.12c-.06,0-.08,0-.09-.11h0c-.25.32.14.55.48.5l0-.07-.1-.1c.38-.76.41.13.8-.25-.79-.09-1.07-.74-1.81-.63l-.67.45c-.27-.27-.46-.55-.71-.43l-.2.19c.48-.26.12.41.4.34l-1.13.38v0l0,0,.16.05c.28-.05.5.09.42.17s-.51.26-.44,0h0l-.21.59.22.31-.26.33-.21-1h0l0,.08c-.23-.15-.52.34-.79.16l.28-.25c-.27,0-.56-.12-.49-.38l-.06,0,0,.06h0l-.1.08V1.38l-.12-.05s.07,0,.12-.05V1c0-.06.21-.07.37-.11l0-.06,0,.05c.19,0,.36-.14.3-.41h0c-.08.21-.29.19-.31.09-.23.07-.42.11-.51,0a1,1,0,0,0,0-.84c.21-.4-.43.56-.58.24l.14-.27-.62-.26-.4.26,0-.36c-.16,0-.31,0-.4.19-.21-.09-.12-.54.07-.54l.17-.27c-.13,0-.44,0-.64.12.06-.26-.13-.49.15-.69-.26.33-.18-.23-.38-.37l-.14.48c-.41.14,0-.37,0-.59-.2.07-.4.05-.44-.11l-.43.56c-.06-.83-1.05-.11-1.35-.78-.48.48,1,.48,1,1.33l0-.3c-.3,0,.79-.32.43.32-.12-.15-.28-.13-.41.14l-.09,0a.22.22,0,0,1-.08.11.42.42,0,0,0,0-.16l-.21-.1c.05.49-.53.32-.49.9a3.14,3.14,0,0,1-.81.41,1.93,1.93,0,0,1,.59.38l0-.31c-.05.19.09.31-.18.41l.46.41a4.07,4.07,0,0,1,.88-.24l.06.4a1.28,1.28,0,0,1-.16.14c.35-.08.3.71.68.49l-.19.23.13.18c.79,0,1,.7,2,.66-.57.58-1.14-.41-1.49.35-.18-.24-.76-.2-.73-.58a.49.49,0,0,1,0-.14.36.36,0,0,0-.21,0s0,.09,0,.1l0-.09c-.13.06-.26.17-.39.22a.15.15,0,0,0,.29,0c-.23.29.46.33-.11.47,0-.19-.32-.14-.45,0s0,0,0,0c.2.43.8.22,1,.61-.7.5-1,.06-1.33-.22l.26.12.09-.52c-.06,0,0-.07,0-.12s-.06-.14-.13-.14-.23.29-.38.32,0-.16-.06-.22-.2,0-.24-.21c-.35.42.13.49,0,.63-.2-.48-.77-.11-1.12-.22.2-.61.56,0,.78-.53-.39.06-.64-.37-1.08-.05.11-.19-.13-.28.13-.48l.06.29.22-.24s0,0,0,0h0a1.31,1.31,0,0,1,.29-.25h0a.3.3,0,0,1,.38,0l.18-.32a.32.32,0,0,0,.11.06,2.08,2.08,0,0,0,.22-.4c-.16.07-.31.13-.41.07a.13.13,0,0,1,.08-.09s-.06-.09,0-.19a.51.51,0,0,1-.24-.14l-.49.28,0,.27.15-.15c.16,0,.1.15.09.28-.09-.22-.37.31-.48,0a.44.44,0,0,0-.12.15v.14a.14.14,0,0,1,0-.14,1.14,1.14,0,0,1,.24-.86c-.1,0-.15,0-.19,0v0h0c-.05.08-.08.24-.29.33-.11-.43-.53.21-.64-.22,0,0,0,0,0,0a1.12,1.12,0,0,0,0,.26c-.08,0,0-.16,0-.26s0-.21-.16-.12l.39-.49c.08-.31-.2-.3-.44-.39l-.42.45a.24.24,0,0,0,.16,0l0,0c.15-.13.29-.34.4-.24a1,1,0,0,1-.23.14.78.78,0,0,0-.19.4s.06,0,.07,0l.32-.28,0,.09c-.07.2-.19.26-.31.25l0,.06-.18.07-.08,0a.3.3,0,0,1-.05.09l-.05,0c-.51.3.48.09.13.53l.08-.08a.63.63,0,0,1-.1.3l.2,0,0,.14-.32-.09.05-.08h.06c0-.31-.17-.33-.4-.28l0,.8c0-.1,0-.24-.13-.24-.37.34-.07.63.14.59-.49.11-.26-.18-.46-.38a1,1,0,0,0-.13.71h-.16s0,.05-.06.08c.12.15.23,0,.34-.22-.14.26.08.41.05.65H523c.25-.19.57-.11.8-.35s-.25-.09-.28-.33a.86.86,0,0,1,.14-.19c-.1-.11.21-.26.35-.44a2.53,2.53,0,0,0-.26.36c.36-.24.76.23,1.13-.11l0,.25a.34.34,0,0,1-.33-.08c-.16.23-.58,0-.66.48.4-.15.72-.19.93.07-.14.14-.46.07-.38.39h.08c-.15.5-.51.48-.79.72,0,0,.1.07.21,0a.84.84,0,0,1-.4.25,1.06,1.06,0,0,0-.07.17.55.55,0,0,0-.27-.06v0l0,0a4.64,4.64,0,0,1-.83,0c-.05.08-.12.14-.2.09l.12-.13a.36.36,0,0,1-.17-.09s.2-.15.15-.23h0c-.17.1-.53,0-.53.27a.17.17,0,0,0,.1,0l-.42,0v.05l-.19,0,0,0c.07,0,.11,0,.07.12l-.07-.12-.16.08a5.88,5.88,0,0,1,1.47.65l-.39.27.06.07h0c1.34-.15,1.07.15.94.73l.09.18a.58.58,0,0,1,.51,0V6.41l.19.15c-.06,0-.19,0-.19.12a1.53,1.53,0,0,1,.24.2,1.35,1.35,0,0,1,.48-.28.15.15,0,0,1,.06-.12h0l0-.07h0l0-.22c.18,0,.15-.23.17-.32l.36.24c-.14.15-.25.12-.22.37-.06-.08-.1-.24-.22-.18l0,.12h0a.21.21,0,0,0,0,.17l0-.17-.08,0-.06.13h.14l.09.1v0h.05c0-.05,0-.15,0-.21l.28.12-.11.08s0,.08,0,.14a.25.25,0,0,0,.16-.07c.05.1.11.23.16.36h.1l0,.14,0,.07.45-.53c.27.13.2-.07.45.15,0-.09,0-.17,0-.16a.31.31,0,0,0,.43,0c.16-.23,0-.38-.23-.3.06-.15.27-.23.34-.32l0,0,.08,0s0-.07-.05-.11l.12.06a2.6,2.6,0,0,0,.18-.23.35.35,0,0,0,0,.44h0l.14.21.23-.11-.17.19a.54.54,0,0,0,.54.19c.08-.22,0-.38,0-.5.06.07.09.24.22.18s-.23-.3,0-.34a1.11,1.11,0,0,0,.72.2c.05-.39-.27-.59-.3-1l-.06,0c.06,0,.11-.1.14-.26l.07.33c.3-.17.78-.18.92,0l.06-.26c.31,0,.25-.11.56,0a1.15,1.15,0,0,0,0-.4.82.82,0,0,1-.08-.12c-.18.11-.39.25-.45,0-.06.08-.05.19-.11.33l-.18-.56.13-.05c0-.21-.11-.2-.24-.19a.24.24,0,0,1,0,.18l-.65-.47.07,0c.14.11.48.12.59.27.26,0,.49-.1.67.14a2.71,2.71,0,0,0-.13-1l-.08,0a.23.23,0,0,0,.06-.09c0-.08-.05-.17-.09-.24,0,.09.13.13.09.24l0,.06.85-.28c0,.36.29.23.32.56-.36-.26-.65.48-.8.26,0,.33,0,.41.19.67a.4.4,0,0,0-.16.08,1.12,1.12,0,0,1,0,.15c.2.23.51.36.1.77h.33l.15-.48a1.71,1.71,0,0,0,1.47,0c.27-.16.27-.36.2-.5a.61.61,0,0,1-.18-.16,2,2,0,0,1-.38,0,2,2,0,0,0,.07.49c-.4.13-.41-.12-.53-.4a.61.61,0,0,0,.39-.1.21.21,0,0,1-.13-.09.69.69,0,0,0,.15-.09c-.23-.15-.41,0-.45-.36l.32-.26-.15,0c.25-.21.26-.34.21-.45a3.5,3.5,0,0,1-.55-.32c1.19-.91-.51-.83.26-1.61l-.57.09.29-.31c.37,0,.46.14.57.36.33-.22-.2-.16.14-.46l0,.51a.16.16,0,0,0-.15,0,.93.93,0,0,0,.39.48c.12.18.25-.18.35-.1-.05.38-.42.13-.52.3s0,.1,0,.16v.05h0a1.47,1.47,0,0,0,0,.27,1.87,1.87,0,0,0,.24-.19l0,.33c.9-.75.12.64,1-.06-.45.35.43.23.32.61a1.3,1.3,0,0,1,1.06,0l.1-.26.19.28-.18,0,.36.15c-.3.46.25.58-.33.93a2.78,2.78,0,0,0-.77-.17l0,.26-.2-.29a3.35,3.35,0,0,1-.51-.08c.11.36.42.13.62.63.19-.15.1-.47.13-.36a4.54,4.54,0,0,1,1.32.52V4.77a.15.15,0,0,0,.05.08h0c.08.05.24,0,.36-.17.24.25-.06.2-.14.43a.55.55,0,0,1,.1.24l.47-.22c0,.12,0,.19.1.25a3.63,3.63,0,0,0,.71-.62l-.07-.1c-.25.57-.6-.07-.88.47.14-.27-.29-.44.08-.6.06.33.67-.19.36.31.17-.1.41-.46.21-.53.36-.12.26.21.37.37.1-.12.19-.23.27-.35a.35.35,0,0,1,0-.21h.09l.12-.2.15.33.09-.05-.05-.08.31.35a.39.39,0,0,0-.24,0,6.66,6.66,0,0,1,.33,1,1.82,1.82,0,0,1-.93.26.39.39,0,0,1,0,.09l0,.05,0,0c0,.12-.15.25-.27.19l.15-.28h-.12a.79.79,0,0,0-.13.15l0-.16a5.5,5.5,0,0,1-.56-.1l0,0,.09,0h.11l-.05,0,.08,0,0-.09.13.2c-.12.05-.17,0-.32,0,0,0-.09.22,0,.26h-.51a.22.22,0,0,1-.14.27c-.25,0-.11-.16,0-.27h-.23l0,.09c-.09-.37.46-.25.46-.51,0,.09.06.12.14.13L536,5.57a3.7,3.7,0,0,1-.62.28,1.41,1.41,0,0,1-.1.28.24.24,0,0,0-.35-.05l0,.17a.12.12,0,0,1,0,.14c.16.12.31.35.56,0a.34.34,0,0,1-.16.44A.55.55,0,0,1,535,7l0,0,0,0c-.1,0-.19,0-.24,0,0,.22.12.47.38.44l.1-.1a.82.82,0,0,1,.16-.32.75.75,0,0,1-.16.32.24.24,0,0,0,0,.09h0l0,0c.06.18.46.1.6.16,0-.23.08-.58-.18-.44l.07-.06-.06,0,.27-.26-.14-.21h.05s0-.06,0-.09l.09.07.11,0a.34.34,0,0,1,0,.17h0l.21.24c.08,0,.15-.08.2-.23.53-.28.11.41.4.37l.1-.09a.21.21,0,0,0,0,.07h0c0-.08.07-.26,0-.29.12-.18.1,0,.12.07s0,.2-.12.32.08.08.15,0a.32.32,0,0,0,0-.25l.22.32v0l.24.34c.11-.16.26-.3.34-.46-.27-.19-.42.21-.42-.17l.27.06,0-.21c.2-.06.32,0,.49,0l.08-.28a1.74,1.74,0,0,0-.42,0l.47-.13,0,.15a3.6,3.6,0,0,1,.51.13l-.14-.09.07,0,.16.14a2.44,2.44,0,0,0,.95.24l.17.41c.1-.48.51.09.8-.19L540.67,7h.39c-.07,0-.19.19-.12.44-.22-.11-.44.54-.41.08l-.17.35c.15-.14-.12-.46-.37-.22.08.12-.17.74.24.41-.12.18-.34.07-.48.08L539.9,8c.12-.69-.49.08-.66-.2l.2-.19c-.06-.16-.18-.12-.28,0l.12.09c-.06.08-.19.19-.11.33,0-.08-.12-.14-.15-.21a.58.58,0,0,0-.06.27c-.17,0,0-.34.09-.48s-.27-.32-.39,0l.12.07a1.44,1.44,0,0,1-.9.25.21.21,0,0,1-.12.14.33.33,0,0,0,0-.13.45.45,0,0,0-.31.15.59.59,0,0,1,0-.22c-.18.25-.31-.08-.52-.11l0,0s0,.07,0,.11h0c0,.12,0,.26.1.28l-.14,0,0,.06a.1.1,0,0,1-.13-.06.47.47,0,0,0-.33.15l.26-.32-.17,0-.1.11a.28.28,0,0,0,0-.1l-.16,0c0,.17,0,.43,0,.42-.35-.31-1.14.15-1.54-.23l0,.08c-.36.29-.25-.27-.57-.16-.22.39-.64.22-.79.49.05.15.12.32.39,0l-.38.37c.17-.06.17.07.18.2l0,0,.15,0,0,0c.14-.06.27-.05.4-.1l0,.08a2.54,2.54,0,0,1,1.09.12c.4-1,.57.41,1-.52.17.15.66.2.74.44L537,8.72l.33.37,0,0,.1.16-.14-.15c-.21,0,0,.26-.22.43.22.11.55-.22.91-.63l.08.63.15-.14-.19.44.22.11.14-.52a.33.33,0,0,1,.58,0s0,0,.06.13a.47.47,0,0,0-.06-.13c-.1,0-.32.36-.45,0-.14.14.05.21,0,.34l-.43.29c.39,0,.45.31.58.55,0-.14.11-.29.28-.14-.1.08-.15.18-.24.22a.3.3,0,0,0,.22.14c0-.38.19-.31.19-.56s0,.3,0,.46c.41-.59.58.21.77.28l-.22.27.26.19c-.07-.38.19-.18.31-.49,0,.08,0,.21.19.2.15-.27,0-.21,0-.34a.36.36,0,0,1-.1.61c.09.16.16.42.33.44,0-.3.31,0,.52-.12a.16.16,0,0,0,0-.08c.09.11,0,.34.33.35l-.22.4c.24-.1.53-.12.58-.3l-.05.3c.52-.12,1,.32,1.44.2,0-.21.08-.26.11-.47a.23.23,0,0,0,.14.13c.15-.14,0-.16,0-.24-.31,0-.18-.26-.17-.5.08.25.24.24.36.37a.26.26,0,0,1,.05-.15l0,.16h0c0,.14.3.05.28.13-.19-.09-.24.16-.33.27l.11,0c.21,0,.45.08.55.29,0-.26,0-.47.06-.63a1.07,1.07,0,0,0,.39.6,2,2,0,0,0,.7-.21c.14,0,0,.15,0,.25l0,.07h0l.18.25h.06l0,0,.07.1a.78.78,0,0,1,.4-.41l.2.14a1.77,1.77,0,0,1,.51-.39,2.16,2.16,0,0,1,0-.58c-.36-.1-.92-.16-1.05-.4,0,.13-.1.22-.18.35-.36-.2.36-.85.45-1.21,0,.18.08.31.27.23l0-.09a5.06,5.06,0,0,0,.34.46c.05,0,.11,0,.17-.19a.76.76,0,0,1,0,.31l.18.09a1.12,1.12,0,0,1,.12-.18.22.22,0,0,1,0-.15,1,1,0,0,1,.23-.07,2.06,2.06,0,0,1,.22-.18c.05-.11.08-.22.23-.2,0,0,0,.07-.05.1a4.16,4.16,0,0,1,.42-.22l.11.05.06-.06c-.22,0-.32-.45-.52-.14.08-.13.08-.26.2-.31L548,9.95c.33-.06.56.23.92.08,0-.18.46-.3.64-.48a1.57,1.57,0,0,0-.3,0c0-.16.36-.49,0-.44a.29.29,0,0,0-.1.38c-.6.19.15-.57-.26-.58.06-.08-.86-.34-.77-.83a7,7,0,0,1,1.55.4c.25-.22.24-.33,0-.39l.8-.32c-.26.16.13.63.47.66a.31.31,0,0,0,0,.12c.26,0,.92-.55.87.11.45-.41-.07-.56,0-.95A1.91,1.91,0,0,0,553,8l-.13.18c.2.25.69-.37.79.27.45,0,.26-.36.5-.45-.06.3-.27.55-.12.76.11-.2.23-.41.18-.56.3-.09.33.07.35.26a1.15,1.15,0,0,0,.61-.14l.24.33L555,9h.14c-.49.75-.17-.34-.7.2h0c.07.09.46-.08.41.17a.85.85,0,0,0-.5.06l-.13.32-.24,0c-.11.22-.1.52,0,.56a3.67,3.67,0,0,0,.61-.67s0-.13-.11-.08c.5-.45-.06.3.25.21,0-.22.25-.35.4-.49,0,.21.13.3.31.31.34-.39.66-.84,1-1.29a.69.69,0,0,0,.68,0l.08-.16L556.81,8a3.42,3.42,0,0,0,.69-.33c0-.06,0-.16.06-.3l.09.19.11-.08a2.47,2.47,0,0,1-.34-.72c-.15.11-.26.31-.53.15,0,0,0,0,0,.05a.83.83,0,0,0,.13.2c-.12,0-.17-.09-.13-.2a.18.18,0,0,0-.07-.07l-.2.1a1.16,1.16,0,0,1-.32-.48l-.07.05-.07.09h0l-.13.15c0-.08.06-.18.11-.25l0-.2-.11,0-.2.61a.25.25,0,0,0,.22-.14c-.1.13-.16.26,0,.35s.31-.4.39-.1l-.15.14c-.71.76.48-.06.37.46,0-.09.08-.14,0-.13.16,0,.13.56.1.34-.48-.67-1.14.77-1.7.23.41-.49-.32-.2-.31-.46.1,0,.3-.14.57-.32l-.09-.07a.49.49,0,0,1-.16.14l-.13-.09a.36.36,0,0,0,.18-.14,1,1,0,0,0-.76,0v.07a.61.61,0,0,1,.18.17c.13-.1.26-.18.18.13s-.32.17-.4.08l-.34,0s0,0,0-.07l0,0,0,0c0-.12,0-.24,0-.35s.07,0,.11,0c-.19-.07-.46.06-.64,0a.19.19,0,0,0,0,.07c-.06-.15-.12-.27-.25-.19s0,.17,0,.3l-.28-.12,0,.09-.18-.34-.1.22c-.11-.21.42-.75,0-.64-.22.14-.88,0-1.26.27l.11-.35c-.37.28-.53-.45-.47-.88-.35-.11-.9.26-.93-.08h.29c.06-.18-.19-.21-.06-.39.21,0,.26-.25.35-.41a.14.14,0,0,1-.14-.11,1.12,1.12,0,0,0-.68.19c-.09-.25.25-.28.37-.44.3-.2.25.08.31.25a.17.17,0,0,1,.14.1.3.3,0,0,1,.1-.12c-.46.11.14-.69-.52-.4.2-.05.35-.45.14-.44-.06.18-.25.23-.28.44a3.36,3.36,0,0,1-.87-.21,1.19,1.19,0,0,0-.33.62.3.3,0,0,0-.48-.22l.08.14c.14,0,.22,0,.12.21l0,0c.09-.08.19-.21.37,0-.09.08-.23.09-.32.16l0,0,.06,0a.12.12,0,0,0,0,.06c.08.18.15.36.22.55a.4.4,0,0,1,.19-.16c.42.06.21.08.31.33l-.43-.17c.17.21.12.43.14.63l0,.14a.53.53,0,0,0,.33.28l.31-.36c-.45.41,1,.64-.09,1.18a2.44,2.44,0,0,0-1.47-.26c.3-.29-.44-.26,0-.67L548,6.5l-.21,0c-.1.14,0,.48-.43.57L547,6.82a.25.25,0,0,1-.14.06c0,.09-.05.15,0,0,0-.33-.55,0-.64-.25l.37-.43-.26.07v0h-.08c0,.23-.23.57-.23.69a1,1,0,0,0,.35-.1c-.43.39.63.09.07.66h0c-.2.2-.1.3,0,.4l.3-.27a.41.41,0,0,1-.26.31V8l-.32.21-.32-.6-.17.08c0,.16.08.44,0,.29,0-.29-.4-.09-.57,0,.19-.19.18-.28.15-.35-.31,0-.6-.07-.85.37-.21-.37-.4-.7-.83-.67.18-.45.57-.55.87-.79v0h0a1,1,0,0,0,.27-.34s-.63-.17-.56.34c-.36,0-.62-.56-.82-.24l0,0c-.09-.17-.22-.24-.29-.37,0,.09,0,.17-.12.18,0-.3.4-.75-.07-.89l-.05.18,0-.34c.17,0,.08-.13.32-.23,0-.08-.07-.25-.22-.24s-.3.28-.37.41c0-.38-.39-.27-.52-.35l.22-.14c-.1,0-.07-.25-.27-.19a.54.54,0,0,1-.12.31c-.4,0-.47-.51-.74-.58.17,0,.32,0,.29-.28l.25.28c0-.32.21-.24.35-.31a.14.14,0,0,0,.08-.08l0,0-.2-.2.28.06v0c.35,0,.59.49,1.09.33.44.1.22-.52.45-.8l.24.41-.22,0c.09,0,.08.11.06.18s.12,0,.06.2h0s0,0,.07,0a2,2,0,0,0,.57-.46l0,.08.1-.22c-.15.39.34.19.12.46a4.33,4.33,0,0,0,.74,0h0l-.28-.11c.1-.18-.07-.44.13-.63l0-.16c-.13-.08-.28-.21-.36.08l.09-.49a.46.46,0,0,1,.33.09l0-.15c.35.19.72-.11.81.21l-.42.14c.25,0-.06.32.1.29a.67.67,0,0,0-.23.29s.06.06.14.12l-.16.14-.19.16c.09,0,.14,0,.17,0l.25,0c.15-.16.22-.13.27,0l.42-.08c0-.1,0-.24,0-.39l-.18.25c0-.07.13-.27.05-.34h0c-.06,0-.11,0,0-.18a.16.16,0,0,1,.09.12l.13-.14a5.26,5.26,0,0,1,.06-.59l.43.53a.61.61,0,0,0,.17-.11.49.49,0,0,1,0,.37l.14.2c.09,0,.09-.12.2-.22l.06.06c.34-.26.75-.47.48-.78.32.26,0,.57-.37.87l.23.2-.38-.06-.1.1.13.18c.14.11.26.23.67.06.15-.14,0-.35.08-.26.35-.32.28.37.61,0l0,.34c.23-.27.38,0,.62.05a.55.55,0,0,1,0-.47l.14.25-.19.05c0,.56.49.06.82.13l.14-.44.31.16c0,.22-.36-.11-.4.36,0,.17.24,0,.22-.14,0,.09.12.08,0,.22a1.57,1.57,0,0,1,.45-.28.8.8,0,0,1,.29-.24c.05-.48-.42-.1-.54-.41l-.08.07,0-.22v0c.6-.22-.16-.5.33-.72,0,0-.15,0,0-.22-.13.61.58-.35.7,0s.24.24-.12.56c.07.11.23.1.4.09-.34.08-.21.19-.25.34l.79-.31,0,0c.52-.18,1,.25,1.47-.15,0-.05,0-.09.11-.1l-.11.1c0,.12.11.31-.18.35.13.25.52.15.8,0-.13.18-.07.31-.39.53a.71.71,0,0,0,.25,0l.06-.12a.35.35,0,0,0,0,.07.74.74,0,0,0,.18-.25c.16-.27.48.07.69.19l-.41.06v.3l.11,0a.42.42,0,0,0,.25-.16.46.46,0,0,0,.06-.33,1.87,1.87,0,0,0,.32.07,1.15,1.15,0,0,1,.24-1.14.45.45,0,0,0-.61.14c0,.05,0,.16.08.14l0,0s0-.07.09-.08l-.09.08c0,.12.16.34-.2.44l0-.3c-.26.16-.78.44-.83-.06.05-.19.19-.14.31-.3.14,0,.34,0,.43.16l.28-.43v0c-.21-.09-.49-.27-.72,0-.16-.22.43-.58.68-.85l-.23-.25c.51-.38.05.55.49.08.16.33,0,.41-.35.71.12,0,.12.16.13.26h0l0,0a.17.17,0,0,0,.11.16c.64-.43-.09-.19.57-.41-.08-.09-.24-.36-.09-.31.16.22.34,0,.46-.19a.51.51,0,0,0,.76.14l-.42.68.4-.16c.15.11.2.66-.07.71.58-.36-.15.58.56.17,0,0,0-.18,0-.31a.6.6,0,0,1-.17-.24c.14,0,.16.1.17.24a.57.57,0,0,0,.87-.1l.24.3-.15-.11c-.34,0-.5.49-.74.82.16.22.63-.49.62,0a1.69,1.69,0,0,1,.87-.93l.4.57a5.09,5.09,0,0,0-1-.05c-.15.2-.3.56-.52.84h.08a.18.18,0,0,0-.08,0,.92.92,0,0,1-.52.38c0,.36,0,.74.42.74l.12-.22-.2.71c.13-.05.33-.14.25-.22.21,0-.23.44-.44.36.16.22.34.66.68.57l0-.16.29.22.06-.08.12,0a1.05,1.05,0,0,1,.06-.14l0,.14.22-.25a.28.28,0,0,1,0-.13h0v0l0,0c0-.22-.23-.17-.29-.3.08.06.39,0,.42.1L560,5a.2.2,0,0,1,.17.07l.15-.16-.05,0,.3-.8c-.06.1,0,.16.12.22l.06,0v0l.06,0a8.61,8.61,0,0,1,1.32-1.11l-.23.06c-.17-.1-.39-.28-.17-.57l-.32.28A6.53,6.53,0,0,1,561.73,2a1,1,0,0,0,.7-.14l-.56-.32s0,0,0-.07A2.49,2.49,0,0,0,562.37,1.23ZM536,.47a.35.35,0,0,1,.16.23Zm-.43.09,0,0,.19.28,0,0Zm-8.47.1c.16-.2,0-.27,0-.43C527.12.36,527.58.47,527.11.66Zm-1.87.64c-.28.25-.12.48-.35.52A.79.79,0,0,1,525.23,1.3Zm-1,2.76c-.18.49.36,0,.31.44C524.22,4.62,524,4.42,524.21,4.06Zm-.5.71-.36.14.32-.22Zm.64.78,0-.32.24-.16,0-.09a.12.12,0,0,0,0,.06c.07,0,.1,0,.25,0a.37.37,0,0,0,.13-.28V5s0,0,0,.12V5c-.07,0-.32.12-.37,0l-.05,0Zm2.22.6-.12,0c-.14.15-.31.36-.44.38,0-.37.27-.26.44-.38a4.22,4.22,0,0,0-.53-.07s0,0,0,.06.07.06,0,.19l0-.09a.27.27,0,0,1-.08.17.12.12,0,0,0-.1,0,.26.26,0,0,1-.16.11l0-.06c-.07,0-.14.06-.21,0a2.27,2.27,0,0,1,.16-.41l-.13-.07h0a.51.51,0,0,1-.18-.11c.45-.35-.35,0-.24-.36l.38-.38c-.17.41.11.47.45.45V5.41c.69.07.43.23,1.06.33Zm-.95-2c-.21,0-.2-.44-.6,0,.08.11.18-.07.27,0l-.4.3c-.09-.06-.24-.09-.21-.2s.08.11.21,0,.32-.59.24-.52C525.32,3.67,525.82,3.8,525.62,4.17Zm1.64,2.12-.09-.11c.07-.13,0-.16.13-.27Zm-3.07-4.9.21.25c-.29.31-.33,0-.42,0Zm.17.59c0-.08.1-.18.24-.33l-.08.31C524.4,2.06,524.42,2,524.37,2Zm4,4c0-.29-.41,0-.49-.1S528.63,5.9,528.38,6Zm-.64-.42s.1,0,.13.07c-.16-.11-.15.15-.39.26s0-.72.21-.49l0,.08c.21-.47.46-.07.64-.13C528.1,5.53,527.88,5.27,527.74,5.6Zm.81-2.47-.08.27.05-.38Zm1.69,1.65c.09.06.35-.32.41-.11C530.52,4.72,530.15,5.09,530.24,4.78Zm-.44-3.66-.26.16-.16-.22ZM528.66-.27l.07,0,0,.44Zm-1,.62L527.6.24c.06-.13.24-.24.18-.32C528,.06,527.72.18,527.69.35Zm.55.3c.17-.5.46,0,.84-.27C529.21.68,528.29,1.17,528.23.66Zm2.9,3,0-.27.31,0C531.3,3.43,531.35,3.65,531.13,3.64Zm-.3-.83-.17-.23.37.17ZM530.35.55l.14-.11.15.22-.11,0,.29.17-.44,0,.12-.12c-.19.1-.38.15-.49.08l.32-.25c-.59.12-1,.18-.91-.61l.41,0L529.5,0c.19,0,.29.36.52.11l0-.16c.09.06.36,0,.22.2l0,0-.17.23A.22.22,0,0,0,530.35.55Zm4.93,2.19L535,3l0,0Zm-1-.13.08-.34,0,0L534.14,2l.05,0,.17.25,0-.08c0,.14.11.13.13.23S534.42,2.6,534.27,2.61Zm1.52,1.16c-.18.12-.24.12-.28.09v0c.21.19.27-.19.32-.12l-.09.47c-.15-.11-.31-.35-.39-.34a.71.71,0,0,0,.06-.13s-.12,0-.29,0c.15-.13.2-.21.2-.27s-.16-.08-.19-.18-.1-.12,0-.25a2,2,0,0,0,.43-.21C535.84,3,535.3,3.81,535.78,3.77Zm.19-.84.1-.22.15.11Zm1.38,2.83c-.05.08-.09.1-.12.08S537.3,5.83,537.35,5.76Zm.44,1c-.19.15-.42.14-.39.24a.29.29,0,0,1-.14-.32l-.06.15-.06-.46c.15,0,.16.07.14.2a1.47,1.47,0,0,0,.15-.44c-.13,0-.32.19-.32-.05s.23,0,.33,0,0,0,0,0,.34-.08.45-.09C537.69,6.43,537.63,6.52,537.79,6.8Zm0-.89-.07-.26.41.11ZM539,10.21l-.12-.08.07-.39Zm.19-.83c.07-.39.36-.15.55-.47C539.68,9.17,539.2,9.38,539.2,9.38Zm.62-3.53c-.3-.23.41-.59.09-.86l.49-.08C540.28,5.21,540.28,5.85,539.82,5.84Zm3.1,4.61,0-.27c.17-.06.35.06.41,0C543.08,10.26,543.07,10.63,542.91,10.46Zm.66.08.31-.48c-.39.24-.15,0-.22-.15,1-.72.38.46.6.62C543.88,10.57,544.11,10.35,543.57,10.54Zm2.05.83-.29,0C545.58,11.16,545.54,11.2,545.63,11.37Zm-1.21-.48c0-.1.12-.23,0-.24l-.15.15c.15-.15.19-.63.56-.81C544.47,10.35,544.73,10.54,544.42,10.89Zm-3.06-5.67c-.12.05-.35-.06-.35-.06.22,0,.12-.31.17-.36Zm15.55,2.17.4.07c-.12.35-.34.18-.49.19Zm-3.55,0c.1.06.37,0,.12.23A.72.72,0,0,1,553.35,7.41Zm-1-.33c-.1.09-.28.31-.34.19C552.13,7,552.32,7,552.38,7.08Zm-.19.38.21.2-.28-.16Zm-2.71-3.08,0,.28-.35-.08C549.14,4.35,549.61,4.33,549.48,4.38Zm.64,1.78c.18.33.45-.41.48-.07-.15.26-.34.19-.49.32Zm.38,1.2.09,0c-.06,0-.07,0-.09,0l-.28-.15C550.5,6.94,550.47,7.22,550.51,7.36Zm-2.31.11.37.25-.26.16Zm-.58,1.3a2.62,2.62,0,0,0,1,.35c-.17.2-.38,0-.67.32.23-.29,0-.24-.22-.25L548,9c-.31,0-.56-.16-.76-.05a.22.22,0,0,1-.14.12.33.33,0,0,1,.14-.12C547.31,8.83,547.35,8.65,547.61,8.78Zm-1.17-.53c.42-.34.38.14.51.23-.07-.09-.23-.08-.35-.11a.21.21,0,0,0,.12.24l-.26-.12.1-.13A.15.15,0,0,1,546.44,8.24Zm-.5.45c0-.09.2-.18.15-.27l.11.21C546.11,8.73,545.91,8.91,545.94,8.7Zm1.16,1c-.07,0-.06.3,0,.34.11.34.8-.43.66.26-.39.11-1.1,0-1.25-.27Zm-1.88-1,0,0,.16.29,0,0ZM542.65,3.6c-.25,0,.24-.46.33-.4Zm.64-.48c0,.14.07.33-.19.26h.08a1,1,0,0,1,.11-.25A.14.14,0,0,1,543.4,3,.69.69,0,0,0,543.29,3.12Zm.46,0-.06-.66c.4-.11,0,.22.3.28l.12-.17C544,2.84,544.08,3,543.75,3.16Zm.89,0c-.27.11-.42-.11-.49-.09l.47-.19Zm1.46-.2c.08-.18.2-.2.29-.15Zm4.44.09c-.25-.21.07-.13.13-.33A.43.43,0,0,1,550.54,3.09Zm8.11,1.16c0-.05.15-.25.25-.42.45-.28,0,.05.54,0l-.3.27V3.88C559,3.84,558.88,4.25,558.65,4.25Zm.51.19,0-.33.22.14Zm.64-.56-.19.21c.09,0,.1.13.2.07l-.13-.06.13-.06.31.27-.3-.13-.18.28a.53.53,0,0,1-.16.19.85.85,0,0,0,.16-.19c.07-.18-.51,0-.17-.45a1.84,1.84,0,0,1,.32-.12l.2-.21C560,3.78,559.9,3.84,559.8,3.87ZM558.69.76,558.6,1l0-.16-.4.2Zm-.83.86.17-.39c.37-.14.19.08.47.2Zm.46.33.14-.3.09.17Zm2.32,2.27c-.23-.24.25-.22.37-.44C561.19,4.16,560.75,3.89,560.65,4.22Zm-1-3c-.26.22.23.3,0,.3l-.16-.27c-.13.29-.31.64,0,.68l-.7.07.15-.13a.54.54,0,0,1,0-.7.49.49,0,0,1,.25-.38c.07.1.08.15.06.17.44-.2.38,0,.26.29.46-.14.4-.05.69.16Z"/><path d="M1723.46,9s0-.08,0-.12l1-.56a1.74,1.74,0,0,0-1.22-.25,11.4,11.4,0,0,1-.64-2l.55.49c-.38-.52,0-.82.3-1a2.86,2.86,0,0,1,.39.1,15,15,0,0,1-2.31-1.93l-.1.06,0,.08-.1,0c-.17.1-.32.2-.21.38l-.52-1.4.09.07-.27-.29a.35.35,0,0,1-.29.12l-.31-.48c0,.16-.59.07-.74.17.11-.23.57-.13.51-.52l0,0,0,0,0,0a.49.49,0,0,1-.05-.24l-.38-.43-.07.25a1.84,1.84,0,0,1-.11-.25,1.25,1.25,0,0,1-.2,0l-.11-.14-.51.38,0-.29c-.59-.14-.9.62-1.18,1,.37-.14,1.13.67.77.62.14-.14-.21-.29-.44-.38l.36,1.24-.21-.39c-.71,0-.78.67-.73,1.29a1.61,1.61,0,0,1,.91.66.31.31,0,0,0,.15,0h-.13c.37.5.65,1.13.9,1.47a8.89,8.89,0,0,0,1.69-.09l-.7,1A3,3,0,0,1,1718.14,6c0,.9-.8-.34-1.08,0,.43.57.7,1.39,1.29,1.43l.26-.19-.41.53a1,1,0,0,0-1.52-.18c0,.25,0,.47-.29.42a1.06,1.06,0,0,1,.29-.42c0-.23,0-.47,0-.54-1.25-.71,0,.91-1,.29.47.1.38,1.05.12,1.24l-.69-.29.73,1.19a.89.89,0,0,0-1.33.24c-.22-.29-.54-.72-.81-.33-.25.09,0-.38.17-.53-1.16-.38.12.05-1-.71a.3.3,0,0,0-.19.27l0,.06-.06,0c0,.18,0,.37-.23.45.55.52.9.67.61,1.24-.77-.81,0,.81-.86.15l.4-.43c-.44-.47-1.45-1.09-1.18-1.48.4.54.89.23,1.25.07a.55.55,0,0,1,0-.09l-.48-.75c-.15.33-.51.29-.75.29-.21-.28-.46-.19-.55-.52.08-.86,1-.39,1.45-.1l-.07-.53c.62.19.32.56.35.77l.16.14c-.11,0-.15-.08-.16-.14l-.06-.05c-.12,0-.13.15-.15.24a.79.79,0,0,0,1.06.24,2,2,0,0,1-.42-2,3.26,3.26,0,0,0-.56.13.8.8,0,0,0-.1-.57.73.73,0,0,0-.43-.28.53.53,0,0,0-.2.06l0,.53.72.1c-.37.21-.93.79-1.2.33A1.3,1.3,0,0,0,1711,6a.61.61,0,0,0,0,.13l-.11-.21a1.24,1.24,0,0,0-.43-.05c.56.39.45.62.68.93-.49-.33-1.16-.5-1.4-.06.5.07.31.4.31.61a1.5,1.5,0,0,1,.19.17c-.15,0-.19-.08-.19-.17-.83-.7-1.66.06-2.58-.26l0-.07-1.37-.54c.08.26-.15.45.44.6-.28,0-.56,0-.69.15.63.56.17.55.21,1-.2.58-1.44-1.09-1.21,0-.19-.31,0-.33.07-.38-.86-.39.47-.88-.57-1.26l0,0-.05-.38.13.12c.22-.55,1,.12,1-.72a1.39,1.39,0,0,1-.51-.42,2.74,2.74,0,0,1-.79-.49c.26.24,0,.22.05.38,0-.3-.35-.54-.39-.25.07.83.65.26.7.63l-.54.27-.24-.77c-.58.12-1.42-.74-1.43.23l.34.1-.24.44a1,1,0,0,1-.07-.83c-.42.05-.7.56-1.09.09l-.07.59c-.57-.63-.45.58-1.06,0-.08.14.12-.22-.14-.46-.72-.29-.93-.09-1.17.11l-.22.31.18.17.66-.11-.41.35c.59.53,1.21,1.06.65,1.52.48-.54-.23-.91-.83-1.36l-.11.1c-.19-.18-.18-.33-.34-.39l-.24.34a.86.86,0,0,1-.07.65,1.07,1.07,0,0,0-.3-.19c-.25.31-.49.63-.75.93a9.18,9.18,0,0,1-.1-1,2.5,2.5,0,0,0-.24-.24.27.27,0,0,1-.16.2c-.17-.31-.09-.33,0-.31l-.06,0c.14-.13-.13-.48-.09-.6l.31.44c0-.26.09-.5,0-.68l-.72-.13c-.09.15-.21.2-.47-.08L1695,5c0,.07-.13.09-.3,0l.32.27.28.24c-.14.1-.17.19-.25.2a1.17,1.17,0,0,0,.39.51c-.27,0,.27.55-.18.51L1696,7c-.16.55-.8,0-1.42.37l-.05-.26a.8.8,0,0,1-.58.16l-.17-.86c.14.51.4.28.63.13l-.06-.29c-.34-.33-.05-.78-.22-1.1l.49-.19,0,0a7.55,7.55,0,0,0-1.28,0c.4.48-.46.12-.21.81l-.17-.38-.09.14a3.51,3.51,0,0,0-1-.81c-.07,0-.08,0-.12.05h0c.11.27,0,.35-.1.35,0,.12,0,.24-.11.31l.39,0-.42.71c-.39-.48,0-1.57-.78-1.4-.86-.28-1.3.54-1.9.57v0l-.49.1.36-.34,0,0a.25.25,0,0,0-.14-.14c-.24-.11-.66,0-.6-.54l-.44.49c0-.52-.21-.54-.51-.49.47-.11.6-1,1.29-1a1,1,0,0,1,.22.54c.34.1.3-.28.47-.34l-.38-.25c.21-.13.9.06.9-.61.13.23.26.69.64.72s.3-.28.38-.42c-.42-.18-.26-.47-.56-.41l.08-.59.09.31c.81-.24.08-1,.12-1.56.13,0,.17.16.22.31.13-.21.34-.35.51-.64l0,.07c.35.54.8-.46,1.44-.43-.12.89.9.51,1,.59a1.71,1.71,0,0,0-.47-.59l-.05,0a.12.12,0,0,0,0,0c-.52-.42-1.19-.6-1.51-1.38.76.05,1.09-.52,1.45-1.17.43.76.94.62,1.48.64.05-.12.07-.28-.26-.61.31.11,1.07.47,1,0,.2-.25,0,.23.06.51l.3.13L1696-2.9l.55.37,0,0A.71.71,0,0,1,1697-2l-.52-.47c-.18.18-.35.35,0,.69h0c1,1-.88.48-.12,1.15a1.66,1.66,0,0,0-.61-.17c0,.22.47.81.41,1.21h0a.27.27,0,0,1,.11,0l0,.06a2.62,2.62,0,0,0,.45.12l-.65-.76c.16-.44,1.07.14,1.12-.44,0-.26,0-.15,0,0a.44.44,0,0,1,.24.1l.71-.5c.72.15.58.74.76,1a2.77,2.77,0,0,1,.36.07.76.76,0,0,1,.14-.09c-.81-.72.49-.67,0-1.17a4.27,4.27,0,0,0,2.57-.45c1.83,1-.61,1.35.17,2.06l-.54-.62a.93.93,0,0,0-.58.5c0,.08,0,.16-.07.24,0,.34.06.72-.24,1.09l.75-.3c-.16.44.2.48-.53.58a.7.7,0,0,1-.34-.27c-.12.33-.25.65-.39,1a.21.21,0,0,0,.07.11l-.1,0,0,.06c.16.13.4.15.56.28-.31.29-.49.07-.64-.08l0,.08c.18.31,0,.37-.2.36l-.14.24a.52.52,0,0,0,.83-.38,2.08,2.08,0,0,0,.58,1.08A5.86,5.86,0,0,1,1702.6,4c.05.37.39.46.49.77.38,0,.1-.67-.24-.76,1.16.51.1-.89.91-.7a.52.52,0,0,1-.18-.21.3.3,0,0,1-.25.18c-.1.3,0,.79-.54.44-.21-.28-.81-.33-.65-.76a2,2,0,0,0,1.19.33.24.24,0,0,1,.24-.19c-.15-.28-.23-.69-.61-.71-.22-.31.2-.36.1-.67l-.5,0c.06-.6,1,.05,1.63-.15-.11-.75.17-2,.82-1.53l-.2-.61c.65.48,1.81.23,2.19.47.8.18-.12-.76.07-1.12l.18.38.31-.59,0,.15.49-.21c0,.23-.15.3,0,.52s.33-.07.43-.33a.33.33,0,0,0,.06.13c.3,0,.79.19,1.11.07-.07,0-.12,0-.18,0s0-.39,0-.61l-.07-.06.06,0s0-.08,0-.13l.59.07c.14-.15.32-.25.7.14.14.55-.08.4-.31.23a1.06,1.06,0,0,1-.31.29l0,.13a1.7,1.7,0,0,0,1.33,0,.63.63,0,0,0-.31-.24l.22-.16a.85.85,0,0,1,.29.24l.16-.12c-.47-.32-.82-.63-1-.57,0-.45,1.25.05.54-.81,1-.94,2.12,1.58,3,.4.06-.37.11.53-.17.6.12,0,0-.08,0-.23.18.91-1.89-.52-.65.81l.27.24c-.14.52-.39-.24-.68-.18s-.09.39.08.62a.44.44,0,0,0-.39-.25l.35,1.07.19,0c0-.11,0-.23.07-.35s-.11-.29-.19-.44l.23.26h0v0a1.88,1.88,0,0,1,.12.16.52.52,0,0,0,.13.09,2,2,0,0,1,.55-.84l.35.17a.31.31,0,0,0,.13-.12c-.06-.19,0-.35.23-.35a1.44,1.44,0,0,0-.23.35s0,.06,0,.1c.46-.27.65.08.92.27a4.32,4.32,0,0,1,.59-1.25l-.19-.14-.17.34c-.08-.24-.15-.41-.1-.52a6,6,0,0,0-1.2-.57l.64-.24-.14-.28a1.2,1.2,0,0,0-1.18-.06c-.58-.79-1.14-1.56-1.73-2.25-.32,0-.59.18-.55.54-.26-.24-.76-.48-.71-.85-.55-.17.44,1.14-.44.36.21.08.16-.07.2-.14a6.41,6.41,0,0,0-1.06-1.16c-.16.07-.17.6,0,1l.41-.06.22.56a1.48,1.48,0,0,0,.88.11c.07.43-.61.14-.72.29v0c.93.94.36-1,1.22.35h-.25l.7.63-.42.58a2,2,0,0,0-1.07-.25c0,.32-.09.6-.61.45.08-.27-.13-.64-.32-1-.26.36.1.81.21,1.32-.42-.17-.09-.83-.87-.79-.18,1.12-1,0-1.38.48l.22.31a3.34,3.34,0,0,0-2.09.59c-.15-.68.74-.95,0-1.65.09,1.15-1.07.2-1.52.19a.53.53,0,0,0,.05.21c-.61,0-1.28.87-.83,1.15l-1.39-.57c.49-.1.51-.29.07-.67a12.16,12.16,0,0,1-2.71.69c-.15-.86,1.45-1.31,1.34-1.45.72,0-.59-1.34.46-1a.51.51,0,0,0,.18.67c.71.09,0-.48.08-.77a2.74,2.74,0,0,0,.53,0c-.33-.31-1.2-.53-1.13-.83-.63-.26-1,.25-1.61.15l.19-.37c-.21-.09-.22-.31-.35-.54.35.54.53-.27.9-.25l-.1-.1-.19.09a7.26,7.26,0,0,1-.73-.38c0,.07.08.11.09.18-.26,0-.3-.16-.4-.34a3.6,3.6,0,0,1-.39-.31,1.67,1.67,0,0,1-.4-.12.39.39,0,0,1,0-.27,2,2,0,0,1-.21-.31,2.09,2.09,0,0,0-.32.15,1.33,1.33,0,0,1,0,.54c-.11-.27-.21-.34-.3-.33a8.83,8.83,0,0,0-.6.8l0-.15c-.34-.14-.45.07-.47.39-.17-.63-1.42-1.77-.79-2.11.13.23.3.4.31.62.23-.41,1.21-.52,1.84-.7a3.77,3.77,0,0,1,0-1,3.09,3.09,0,0,1-.89-.68l-.35.24a1.36,1.36,0,0,1-.69-.71l-.12.17.07.06h-.1l-.32.44.1,0-.13,0-.09.12c.09.16.27.39,0,.43a3.51,3.51,0,0,0-1.22-.37,1.88,1.88,0,0,0-.68,1c-.17-.27-.08-.64-.1-1.09-.17.35-.59.42-1,.5l-.19,0c.17.18.25.63.58.47,0,.15-.47,0-.48.24h0l.09.28a.46.46,0,0,1-.09-.27c-.2.24-.48.23-.62.65,0-.42-.25-.82.29-.87,0-.13.29-.18,0-.41a.4.4,0,0,0-.24.23c0-.37-.13-.46-.18-.83-.79-.21-1.6.56-2.51.35l.09.53c-.09-.3-.59-.34-1-.52l.39.7c-.58,0-.42.42-.58.61a.27.27,0,0,0-.08-.14c-.38-.25-.95.31-.92-.22-.29,0-.41.49-.58.77a.62.62,0,0,1,.18,1.06c-.12-.24.21-.14,0-.6-.25,0-.25.21-.33.34-.21-.53-.67-.19-.55-.85l-.46.34.38.48c-.33.12-.62,1.51-1.34.48,0,.29,0,1-.09.81,0-.45-.33-.32-.33-1a.53.53,0,0,0-.38.25c.14.07.24.24.41.38-.31.27-.42,0-.5-.24-.22.42-.33,1-1,1l.75.51c.13.23-.21.35,0,.59.23-.56.61.1.79.08a.82.82,0,0,0,.1-.23c0,.16,0,.22-.1.23a.58.58,0,0,1-1,.05l-.25-.91-.38.19.33.77-.25-.24-.14,1.1c-.63-.72-1.21-1.29-1.6-1.1.31.31,0,.67.39.76l.24-.26-.17.28-.07,0-.58.64.1-1c-.13.43-1,.51-1.29.78-.74-1.62-1,.79-1.73-.9a4.43,4.43,0,0,1-1.9.21l.07.14c-.23-.09-.47-.08-.71-.18l0,0-.26,0-.06-.06c0,.22,0,.45-.32.34l.66.65c-.48-.48-.59-.18-.69.08.27.47,1,.17,1.38.86.55.2.37-.78,1-.27l-.08.14c.7-.68,2.09.13,2.7-.41-.13,0-.13.43-.06.74l.28.05a.48.48,0,0,0,0-.17l.18.2.3.06-.46-.56a.82.82,0,0,0,.57.27.18.18,0,0,1,.22-.11l0,.11a1,1,0,0,1,.25,0c-.12,0-.16.28-.17.5l0,0,0,0c0,.07,0,.14,0,.19l0,.05c.36,0,.59-.61.9-.18a1,1,0,0,1-.08-.39.78.78,0,0,0,.55.26.58.58,0,0,0,0-.23.37.37,0,0,1,.21.25,2.51,2.51,0,0,1,1.58.44l-.21.13c.21.54.64.28.68,0-.13-.23-.46-.78-.16-.83a1,1,0,0,0,.11.47c0-.13.18-.24.26-.37-.15.24.08.43.19.58l-.21.16c.19.19.39.25.49,0l-.34-.33c.3-.49,1.36.85,1.15-.35l-.25-.24c.25,0,.63-.17.84.14-.71-.57-.29.5-.42.71.43.41.9-.15.64-.39l.3.62c0-.82.34.32.72.13-.13.44.09.75.21.76l-.68,0,.3-.49c-.51-.49-1.23.5-1.4-.33l-.3.72a4.26,4.26,0,0,0-1.65.42l-.27.24-.11,0,.25-.15a6.29,6.29,0,0,1-.9.23l.08.27-.82-.22a3,3,0,0,0,.74,0l-.13-.49c-.3,0-.51.18-.86.07l0-.37-.47.1c0-.67.26,0,.74-.3-.15-.28-.41-.52-.6-.8l-.42.6,0,.05,0,0-.39.56a.56.56,0,0,0-.09-.44c-.13-.11-.23-.06-.27,0,.17.2.27.47.22.56s0,.44-.22.13c.17-.06.09-.36.05-.51l-.07,0a.36.36,0,0,0,0,.12l-.17-.16c-.51-.07.22,1.13-.7.65-.09-.27-.21-.36-.35-.4l-.36.42h0a.6.6,0,0,1,.07.29l-.2,0-.16.13c0-.05,0-.1,0-.16l-.1,0,.24-.36-.47-.45s.07,0,.1,0a.62.62,0,0,1-.12-.1c.44.23.29-.37.31-.77-.23.11-.93,0-1,.29,0,0,0,0,0,0h0a.42.42,0,0,0,0,.15,1.3,1.3,0,0,1,.28.56,1.44,1.44,0,0,1-.28-.56,1.23,1.23,0,0,0-.18-.18c-.45-.06-.64.38-.66.77.08-.14.25-.13.42-.09l.07,0a.72.72,0,0,0,.06.09,1,1,0,0,1,.5.47.59.59,0,0,1,.28.77c-.44-.7-.71-.3-1-.09a.21.21,0,0,1-.07.24l0,.3a.42.42,0,0,0,.61-.09,2.45,2.45,0,0,1,.18.48,6.45,6.45,0,0,1,1.07.49l.09-.36c-.13,0-.24.08-.24.23,0-.45-.95-.24-.8-.89l0,.15h.39c-.21-.19-.45-.46,0-.47a.39.39,0,0,1,.24.47h.89c-.17.06,0,.37,0,.45.26,0,.35-.11.56,0l-.23.35,0-.15-.14.07.09,0h-.19l-.16.08,0,.05a9.61,9.61,0,0,1,1-.17l-.06-.27a1.38,1.38,0,0,0,.24.26l.2,0-.26-.5c.22-.12.4.11.48.32a.21.21,0,0,1,.08-.07.4.4,0,0,0-.06.1.68.68,0,0,1,0,.16A3.17,3.17,0,0,1,1682,2a11.63,11.63,0,0,1-.57,1.67.68.68,0,0,0,.41,0l-.54.62.09-.14-.15-.09c-.09.19-.17.39-.26.58-.07-.12-.15-.23-.21-.34h-.16a.61.61,0,0,1-.07-.37c-.14-.21-.3-.41-.47-.61-.19.29,0,.86-.64.65.35-.11-.07-.74-.37-.92.54.87-.52,0-.63.53-.64-.28.11-.58-.14-1,.5.94,1.1-.19,1.54.82l.11-.18A6.33,6.33,0,0,0,1678.7,2c-.11.11-.24.23-.18.44l-.82-.38a1,1,0,0,1-.17.42c.14.4.67.3.25.74-.22-.3-.49-.39-.63-.3V3h0a.27.27,0,0,0-.09.15.85.85,0,0,0,0-.09,7.93,7.93,0,0,1-2.3.91c0,.19.1-.37-.23-.63-.35.87-.89.48-1.08,1.11a5.85,5.85,0,0,1,.9-.14l.35-.51.06.46a4.85,4.85,0,0,0,1.34-.29c1,.6.05.81.58,1.62l-.64.27.32,0-.33.49-.17-.46a2.26,2.26,0,0,1-1.85,0c.18.66-1.36.46-.57,1.07-1.58-1.22-.22,1.21-1.79-.11l0,.58a3.27,3.27,0,0,0-.42-.33,2.56,2.56,0,0,0-.06.47h0l0,.1c0,.09,0,.18,0,.28.18.3.82-.14.91.53-.17.13-.4-.5-.61-.18a1.63,1.63,0,0,0-.68.84.27.27,0,0,0,.27-.06l0,.89c-.58-.53.33-.42-.24-.81-.18.38-.35.69-1,.63l-.51-.55,1,.15c-1.36-1.36,1.62-1.22-.46-2.81a6.11,6.11,0,0,1,1-.55c.09-.2.08-.43-.36-.79l.26-.08-.57-.45c.08-.65.39-.36.79-.62a1.21,1.21,0,0,0-.26-.16.36.36,0,0,1,.23-.15,1.06,1.06,0,0,0-.69-.17c.21-.49.23-.93.93-.7a3.46,3.46,0,0,0-.12.85,3.46,3.46,0,0,1,.66,0,1.06,1.06,0,0,1,.31-.28c.13-.26.13-.6-.35-.88-1-.63-1.88-.14-2.56,0l-.26-.83h-.57c.71.72.17.95-.17,1.34a2,2,0,0,1,0,.26.69.69,0,0,0,.29.13c-.4.44-.29.58-.34,1.16.28-.39.77.9,1.4.46,0,.58-.63.35-.56,1l-1.48-.49,0,.11c.08.19-.14.27-.15.42.06-.13.1-.28.15-.42a.39.39,0,0,0-.1-.16l.14,0a4.74,4.74,0,0,0,.23-1.7c-.31.41-.72.32-1.17.24-.18.26-.79.28-1,.47l-.12-.06,1.13-.83a.42.42,0,0,1,0,.32c.24,0,.47,0,.43-.33l-.23-.09.32-1c.1.24.08.44.2.58.11-.36.48-.12.79.08a1.43,1.43,0,0,1,.14-.21,2,2,0,0,0,0-.7c-.55.15-.44,0-1,0l-.1-.46c-.25.33-1.08.31-1.6,0l-.13.57c-.06-.29-.15-.41-.25-.46l.1.07c0-.66.61-1,.52-1.7a1.94,1.94,0,0,0-1.27.35c-.4-.05.2-.26,0-.59-.21-.1-.28.18-.38.31,0-.21.21-.48.07-.87A.94.94,0,0,0,1663,0l.29.33c-.19-.11-.3-.15-.4-.2l-.25.37h0a.61.61,0,0,0-.06.77,4.55,4.55,0,0,0-.31-.4.89.89,0,0,1-.21.11c.09-.08.11-.13.09-.19a.26.26,0,0,0-.13,0l.08,0c-.13-.16-.5-.29-.59-.55.35.12.68-.13.4-.53a.55.55,0,0,0-.76,0c.13,0,.1-.13.07-.28-.43.38-.32,0-.78.26l-.79-.92,0,.13.08.25h-.17c-.09.23-.2.45-.29.63a.43.43,0,0,0-.29-.12c0,.12,0,.22-.05.25l.19.14-.49.2c0-.1,0-.27.05-.36s0,0-.1,0v0l-.16.17a.58.58,0,0,1-.24,0c0,.07.06.14.11.22l.14.07,0-.29a.36.36,0,0,0,0,.3h0c0,.07,0,.15.06.21.21.1.28-.18.38-.31,0,.43.14.39.39.64l-.62.42c0-.15,0-.58-.3-.56l.06-.39-.06,0a1.13,1.13,0,0,0-.07-.13l0,0a.26.26,0,0,1-.11-.21,2.35,2.35,0,0,1-.84-.48,2.68,2.68,0,0,1-.42.36c0,.14.22.17.32.21l-.33.27V-.22a1,1,0,0,1-.9.08l-.16.32c.22,1,.68,1.54-1.65,1.28,0,0,0,0,0,0l-.11.13.68.47a10.27,10.27,0,0,1-2.58,1.13,1.09,1.09,0,0,0,.27.14l.13-.21c.06.2,0,.24-.13.21l0,.07.32.05,0,.09.73,0a.3.3,0,0,0-.18,0c0,.53.64.3.93.48h0c.09-.13-.19-.31-.27-.4a.63.63,0,0,1,.31-.16l-.22-.23c.14-.09.25,0,.35.16a8.1,8.1,0,0,1,1.45,0,.22.22,0,0,1,.08-.06v0a1,1,0,0,0,.46-.11,1.85,1.85,0,0,0,.12.3,1.47,1.47,0,0,1,.7.44c-.19-.1-.3-.05-.37,0,.47.42,1.11.38,1.37,1.26l-.13,0c-.15.56.41.43.66.68-.37.46-.91.38-1.62.13.14.75.87.42,1.15.83a.59.59,0,0,1,.57-.13l0,.43c-.65-.58-1.35.24-2-.18a4.42,4.42,0,0,0,.46.63c-.24-.3-.79-.58-.62-.76a1.5,1.5,0,0,1-.24-.34c.05-.43.73,0,.49-.58-.4-.42-1-.28-1.4-.61h-.2c0,.42-.33.69-.09,1.14-.19-.32-.38-.64-.6-.39.06.05.06.09.1.14l.28,0a1.69,1.69,0,0,0,.22,1.24c.35-.36-.05-.85.81-.67-.37-.06-.88.42-.24,1,.26,0,.18-.23.23-.41l.09,1.4c.41.1.73.06.7-.48h-.11l-.09-.14.56-.16.07.24-.35,0a1.1,1.1,0,0,1,.18.52l-.14-.14c.61.77-1.11.4-.23.93,0,0,.06,0,.09-.06a.52.52,0,0,1,.09.16l.14.08.32.13s0,.07,0,.1c.2,0,.41.07.54.43l0,.15-.56-.48s-.05,0-.12,0a1.37,1.37,0,0,0,.34.69,1.8,1.8,0,0,1,.4.25c-.19.19-.44-.18-.7-.41l0,0a.43.43,0,0,0-.28,0l.74.79c.43-.16.91-.14.77-.68l-.68-.85c.3.17.32,0,.28-.2s-.21-.37-.07-.46a2,2,0,0,0,.07.46s0,.06.06.09c.19-.75.94.38,1.12-.38.37.15.41.43.51.57l0,0,0,.08c.07,0,.16,0,.33,0a2,2,0,0,1-.42-1.5.24.24,0,0,1,0-.25l0,.25a.76.76,0,0,0,.2.26c.19-.59.68.32.83-.06,0,.22.12.54-.16.48l-.25-.26-.07.47.85.5a.89.89,0,0,1,.43-.25c-.06-.19,0-.29,0-.34a.23.23,0,0,1-.13-.16c.17-.11.43,0,.72.12a3.64,3.64,0,0,0-.38-.7.56.56,0,0,0-.2.11l-.31-.55a.52.52,0,0,1-.67.08s0,0,0,0v0a2.29,2.29,0,0,1-.51-.44h0s0,0,0,0l-.38-.42-.1.5c-.47-.36,0-.52-.23-.84.77.55,1.22-.19,1.89-.09-.4-1-1,.15-1.37-.93.61-.2,1.6.45,1.95-.39.25.26-.58.36,0,1.1.07-.31.23-.38.41-.37,0-.11.07-.22.11-.38.27.05.45.49.67.56s.19-.08.22-.25-.11-.17,0-.21l-.16-.9-.45.21c.52-.49,1.1-1.25,2.32-.38-.3.68-1.35.31-1.69,1.06,0,0,0,0,0,0,.22.19.83.27.78-.05,1,.24-.21.31.19.81a.26.26,0,0,0-.51,0c.24.09.45.28.68.38l.09-.15s0,.09,0,.17a.63.63,0,0,0,.37,0,.86.86,0,0,1,0-.24c0-.66,1-.58,1.27-1,.62,1.33,1.6-.39,2.6.62-1.64-.07-2,1.13-3.41,1.15l-.23.31.33.4c-.67-.39-.58,1-1.19.86a2.23,2.23,0,0,1,.27.25l-.1.7a7.11,7.11,0,0,1-1.53-.42l-.81.72c.47.18.21.38.31.72l-.08-.54a3.37,3.37,0,0,1-1,.66,5.49,5.49,0,0,1,1.41.72c-.06,1,.95.71.86,1.58l.37-.17a.73.73,0,0,0,.05-.28.38.38,0,0,1,.15.19l.16-.08c.23.47.51.51.72.24.63,1.11-1.28.63-.75.56l0-.52c0,1.48-2.59,1.47-1.75,2.32.51-1.17,2.25.09,2.35-1.36l.74,1c.07-.28.41-.31.77-.19,0-.37-.67-1.26,0-1l.25.84c.35-.24.2-1.22.67-.65-.48-.35-.16-.75-.26-1.21.34.26.88.16,1.11.22l-.3-.46c-.34,0-.49-.8-.13-.95.16.38.42.31.7.32l.07-.64.69.45,1.09-.46-.24-.47c.27-.55,1.38,1.12,1,.42a1.69,1.69,0,0,0,.06-1.47c.16-.14.5-.07.9,0,0-.17.4-.21.53.15h0c.1-.46-.2-.63-.53-.71l0,.09,0-.1c-.28-.07-.58-.09-.64-.19V9.21c-.08-.08-.13,0-.21-.09l.2-.09V8.82l.17.14,0,0,0,.1.1.08c-.12-.45.38-.68.85-.66l-.49-.44c.48-.31,1,.54,1.39.27l0,.14h0l.36-1.73.46.57-.38.55.37,1h0c-.12-.48.86-.16.77,0,.15.14-.24.38-.73.3a2.76,2.76,0,0,1-.28.09l-.06,0,0,0,2,.66c-.49-.13.13,1-.71.59l.34.33c.44.2.78-.28,1.25-.75l1.17.78c1.29.21,1.78-.93,3.16-1.09-.68-.65-.74.89-1.4-.43l.17-.18-.07-.12c-.6-.08-1.27.33-.84.88l.08,0c0-.17.05-.23.16-.18l-.06-.2.69.38-.38,0,.1.07a.35.35,0,0,1-.27.15c.09.21-.31.29-.38.4-.17-.16-.17-.38-.37-.48,0,0,0-.08.08-.09a.6.6,0,0,0-.35,0,5.9,5.9,0,0,0-.4-.52h-.64c-.12-.23.11-.36-.06-.52l.25-.12a.45.45,0,0,1,.14-.63.69.69,0,0,0,.13.44c.06-.19.32-.39.06-.73l.56.42c.07.36-.3.33-.51.4.22.12.55,0,.73.24.87-.32-.28-.44-.08-1.18-.12-.06.58-.25,1,.16l-.75.37c1.68,1.25,1.5-1.28,2.64-.56l.43-.66-.06.51c1.52.66.35-2,2-.93l.24-1c.94.89,1.48-.17,2,.69.35-.12.18-.73.49-1,.73.35.38.92.85,1.48a.62.62,0,0,0-.05,1c-.18.51-1.13-.39-.92.37a.65.65,0,0,0-.47-.37c-.1.23-.19.59-.45.71-.47.41-.33,1.19-.12,1.28l.27-.42c.2,1,1.17.54,1.65.44-.43-.63.87.15.27-.64.91.29,2.22.62,2.44,0,.05-.51-.48-.78-.82-1.11l.61-.1,1,2.08.87-.31.87.91a1,1,0,0,1,.06-.1c0-.75-.21-1.8.77-2,.91-.92,1.13,1.16,2.14.39.34.68-.23.83-.44,1.14-.31,0-.91,0-1,.23l.22.05-.07.09c.4-.07.81-.14,1.5-.28,0-.2-.09-.43-.07-.63a2.87,2.87,0,0,0,2.14-.11c-.09-.15-.11-.22-.07-.25-.15-.54.21-.63.82-.87,0-.18.14-.2.27-.17.14-.17.41-.07.44-.43l-.42-.47c.31-.22.73.59.76.68-.32-.06-.4,0-.39.2h.05l0,.11c.06.33.34.81-.14.74.39.39.73.26.85.06.65.32-.25.73.54,1.18l.25-.08a.71.71,0,0,1,0,.2c.63-.15,1.54-.07,2.21-.21,0-.28-.07-.55.42-.42a1,1,0,0,0-.18.37.81.81,0,0,0,.48-.41,1,1,0,0,0,.06-.64c.29.81.8.53,1.17.38a2.59,2.59,0,0,1-.23-.22,1.14,1.14,0,0,0-.58.11c-.43-.56,0-.52.26-.61,0-.19.16-.34.42-.54.35.66.48-.1.6.29l.63.16c.71.83-.33.12.1.93a3.59,3.59,0,0,0-.6-.46l.15-.43-.26-.14c0,.06,0,.13,0,.22l-.22-.29c.58,1.53-1.69,1.5-.77,3.26a1.39,1.39,0,0,1,.32-.28.85.85,0,0,0-.19.07c0-.3-.06-.6.15-.74.85-.48,1.87,0,2.85.06.18,0,.34-.07.35-.13.16.22.52.19.65.32-.08-.27,0-.66-.47-.66.11-.53.8.54,1,.76-.24-.23-.41.15.06.53a.4.4,0,0,0,.14-.28l.17.66a.36.36,0,0,1,.49,0,1.1,1.1,0,0,0,.56.41l-.43-.38c.49.44.66.14.91.32h.06c-.72-.24-.64-.52-1-.78.61.19,1.41.16,1.57-.38-.57.08-.44-.34-.49-.56a1.47,1.47,0,0,1-.26-.12c.18,0,.23,0,.26.12,1.08.49,1.82-.6,2.92-.55l0,.09,1.31.11a.78.78,0,0,1,1.14-.51c.06,0,.16,0,.3.08l0,0,.05,0c0,.21,0,.3-.14.36l.1.1-.45.19a1.12,1.12,0,0,0,0-.25c-.3,0-.64-.15-.76,0l.27,0-.3.15v0c1,1.1,1.8.56,2.85,1.08-.35-.17-.07-.24-.15-.39,0,.33.52.47.49.14-.28-.87-.78-.07-.93-.46l.53-.47.45.75c.62-.32,1.76.35,1.53-.71h-.4l.16-.54a1,1,0,0,1,.28.87c.45-.2.64-.83,1.19-.46l-.07-.66c.79.49.36-.76,1.17-.36.05-.18-.09.27.26.44.9.08,1.07-.23,1.29-.53A4.34,4.34,0,0,0,1723.46,9Zm-44.9,1.26a.62.62,0,0,1-.27.4Zm-.69-.24.08.08-.33.48-.08-.09Zm-15.12,1c-.07-.28.28-.39,0-.75C1663.59,10.62,1662.79,10.81,1662.75,11Zm-3.87-2.77c.39.07.12.46.6.9A1.37,1.37,0,0,1,1658.88,8.27Zm-.64-4.68c.09.69-.86-.1-.55.77C1657.35,3.72,1657.73,3.38,1658.25,3.59Zm-1.48-.34-.57-.39.62.25Zm1.56-.66.09.06c.08-.2.51.07.64,0V2.43c.06.14,0,.19,0,.22v.52a.64.64,0,0,0-.22-.5c-.25,0-.31,0-.43,0a.21.21,0,0,0,0,.1l-.07-.16-.42-.28,0-.56Zm4-1.17c-1.09.17-.64.45-1.84.58l0-.19c-.6,0-1.08.07-.78.79l-.67-.66c-.19-.57,1.2,0,.41-.64a.89.89,0,0,1,.32-.2h0A1.76,1.76,0,0,1,1660,1a4,4,0,0,1-.28-.72c.11-.12.23-.07.36,0l0-.11a.45.45,0,0,1,.28.19.21.21,0,0,0,.17,0,.47.47,0,0,1,.15.3,1.08,1.08,0,0,0,.05-.16c.07.22,0,.3-.05.33s0,.07,0,.1a7.37,7.37,0,0,0,.93-.12c-.3-.21-.74,0-.76-.66.23,0,.53.4.77.66l.22,0Zm-3,3.41c.12.13,0-.65-.43-.91-.22-.17-.28,0-.36,0-.05-.18.21-.24.37-.35l.69.52c-.16.1-.34-.21-.47,0,.68.84.67.1,1,.08C1660.51,4.81,1659.65,5,1659.31,4.83Zm3.8-3.69c-.3-.18-.11-.24-.23-.47l.15-.2Zm-5.81,7.49c.16-.1.23-.57.74,0l-.36.43Zm1-.6.14.55c-.25-.26-.49-.44-.42-.58S1658,7.86,1658.26,8Zm5.87-6.91c.15-.2.77.32.86-.18C1665.42,1.14,1664.1,1.56,1664.13,1.12Zm.75.92c-.31-.1-.74.59-1.11-.22l0,.15c-.3.4-.82-.84-.38-.85.42.2.39.64.68.45-.06.07-.19,0-.23.11C1664.1,2.24,1664.5,1.8,1664.88,2Zm.36,4.14-.1-.67.14.48Zm3.69-2.88c-.09.37-.55-.29-.71-.19C1668.07,2.56,1668.72,3.21,1668.93,3.3Zm-2.2,6.32.27-.39.46.28Zm-1.08,1.58-.06.77-.12,0Zm-1.72.4c.1-.13-.2-.32-.31-.55l.15-.2C1663.84,11.13,1664.28,11.34,1663.93,11.58Zm2.26-.82c-.67-.52-1.16.4-1.46-.47C1664.82,9.41,1666.44,10.26,1666.19,10.77Zm4.09-5.24-.54,0,.05-.48C1670.16,5.07,1670.07,5.45,1670.28,5.53Zm-.67,1.12-.65.29.3-.41Zm-1.68,4.13.29.4.08,0c.25.26-.22.25-.39.35l-.07-.27c-.41-.43-.59.14-.91.19l.58.23-.71-.08c-.24-1.37.55-1.27,1.59-1.06l-.56-.44c.19-.12.51,0,.85.15l-.21-.21.77-.05-.5.29c.06,0,.12,0,.19.09l-.27.39-.24-.19A.38.38,0,0,0,1667.94,10.78Zm8.49-4.58.08-.05.52.52Zm-.74,1.1c0,.18-.31.17-.23.41l0-.14-.3.44-.09-.08.34-.48,0,0-.14-.6C1675.53,6.91,1675.57,7.24,1675.69,7.3Zm1.81-1a3.49,3.49,0,0,0-.76-.37c-.13-.23-.05-.35.05-.44s.2-.25.34-.32-.09-.24-.36-.47c.29.14.42.13.5.07a1.25,1.25,0,0,0-.1-.23c.13,0,.41-.4.68-.6l.15.83c-.1.14-.2-.54-.56-.2V4.7c.07-.06.19-.06.5.16C1677.06,4.79,1678,6.21,1677.5,6.35Zm1.18.18-.27.2-.17-.39Zm1.76-5.28c.05,0,.12,0,.21.14C1680.55,1.27,1680.49,1.24,1680.44,1.25Zm1.14-.35c-.2,0-.56-.28-.78-.15,0,0,0,0,0-.06-.17.07-.34.29-.57.07,0-.42.34,0,.57-.09a2.57,2.57,0,0,0-.27-.76c0,.21,0,.4-.25.34l.1-.8s.06.15.1.27a.51.51,0,0,1,.24-.56c0,.18.35.16.68.42C1681.14.07,1681.23.22,1681.58.9Zm.4.5-.71.18.13-.46Zm1.48-7-.13-.68.21-.13Zm1.39,1.45c-.34-.55-.85-.15-1-.82C1683.87-4.93,1684.71-4.57,1684.84-4.11Zm1.13,7-.86-.14c.56-.47-.68-1.09-.16-1.5C1685.76,1.24,1685.76,2.35,1686,2.88ZM1691-6.4c-.11,0-.41.18-.71.06l0-.48C1690.64-7.11,1690.65-6.47,1691-6.4Zm1.68-.52c-.38.27.62,2.33-1,1.08.12-.2-.3-.68.38-.27l-.54-.84C1692.44-6.62,1692.05-7,1692.72-6.92Zm1.88-1.5.5,0C1694.94-8.11,1695-8,1694.59-8.43ZM1693.74-6c-.65-.32-.72-1.16-1-1.42l.26.26c.18,0,0-.24,0-.42C1693.54-7,1693.08-6.63,1693.74-6Zm-6.4,9c-.08-.09.09-.59-.3-.62,0,0,.39-.19.6-.1Zm27.3-5c.25,0,.64-.29.85.33l-.7.13Zm-5.84,0c.43.39,0,.3-.21.4A1.25,1.25,0,0,1,1708.8-1.89Zm-2.5.65c.12-.22.42.17.6.32C1706.78-.7,1706.44-.78,1706.29-1.24Zm.14-.4.49-.28-.37.34Zm-5.19,5.11.62-.14,0,.48C1702.06,3.89,1701.22,3.85,1701.25,3.46Zm1.68-3.21c.26.24.59.11.86.57-.05.6-.53-.69-.84-.11Zm.2-1.39.48-.25c0-.09.05-.15.15-.08l-.15.08C1703.55-1.17,1703.6-.67,1703.13-1.15Zm-3.37-1.17.45.28-.64.44Zm-1.87-1.88a.58.58,0,0,1-.24-.21.38.38,0,0,1,.24.21c.34.18.79-.09,1.32-.09l-.45-.32c.41,0,.79.06.39-.44.51.56.87.21,1.18.56a4.58,4.58,0,0,0-1.78.61C1698.11-3.65,1698-4,1697.89-4.2Zm-1.17,1.05-.17-.22.45-.2a.37.37,0,0,0-.21.41c.21,0,.49,0,.61-.18-.23.16-.16,1-.89.41A.26.26,0,0,1,1696.72-3.15Zm-.61-.48-.2.36c.08-.15-.22-.31-.26-.46C1695.59-4.12,1695.93-3.8,1696.11-3.64Zm.59-2.51c.27-.51,1.51-.67,2.18-.48.25,1.21-1-.13-1.14.46-.17.06-.19.59-.07.59Zm-2,1.82.08.08-.28.51-.08-.08Zm-4.2,10.18c-.15.11-1-.61-.57-.7Zm.74.4A.24.24,0,0,1,1691,6a1.78,1.78,0,0,1-.19-.44h-.13c.44-.12.31.2.32.45A1.2,1.2,0,0,0,1691.21,6.26Zm1.24.61-.22-.29c-.49.1.18.67-.52.49l.1-1.15C1692.39,6.16,1692.24,6.49,1692.45,6.88Zm.89-.54-.81-.33c.12,0,.39-.34.86-.15Zm3.11.13c-.15.09-.38.06-.51-.25Zm7.47.17c-.11-.36-.66-.21-.23-.58A.75.75,0,0,1,1703.91,6.64Zm14.8-2V4.25l.53.47c-.92,0-.16.55-.95.06-.18-.3-.47-.65-.44-.74C1718.24,4,1718.42,4.74,1718.71,4.67Zm.34-.64-.38.24.05-.57Zm1.13,1-.34-.37a3.2,3.2,0,0,1-.56-.21c-.6-.75.41-.47.29-.78a1.48,1.48,0,0,0-.28-.33.92.92,0,0,1,.28.33l.31.48.52-.23-.54.47-.23-.11.22-.1c-.17-.11-.19.12-.35.13l.34.37C1720,4.75,1720.17,4.84,1720.18,5ZM1717,9.66l.7.34.08-.27.16.39Zm.59-.7c-.49.21-.17.6-.82.35l-.29-.69Zm.09-.67-.15.3-.24-.53Zm4.3-3.44c-.2-.38-1-.34-.64-.76C1721.51,4.66,1722.27,4.18,1722,4.85Zm-1.6,4.1c-.51.38-.41.52-1.21.29.21.48.32.85-.45.51,0,0,0,.12-.11.3a.85.85,0,0,1-.43-.67.94.94,0,0,1-.05-1.22l-.26-.23,1.22.11c-.46.06-.15.67.07,1.18l.28-.46c.47,0-.38.14.07.53Z"/><path d="M515.66,3.66c-.16.16-.33.34-.49.48a1.91,1.91,0,0,0,.45.23.31.31,0,0,1,0-.09c.15-.3.86-.17,1.23-.54-.15.3,0,.71.3.69,0,0,0,0,0-.05l0-.1c0,.05,0,0,.07-.06h0a2.71,2.71,0,0,1,.29-.68.37.37,0,0,1,.1.37l.23-.41.07.25a.56.56,0,0,1,.28-.12l-.2-.08c.27-.26.67-.2.76-.45-.19.19,0,.42-.22.59.09,0,.19-.05.36-.28-.39,1.22.46.07.73.39l0,0c0-.11,0-.23,0,0h0a.2.2,0,0,0,0,.11.18.18,0,0,0-.06-.08c-.07.11,0,.42.07.45.34-.22,0-.61.29-.8a1,1,0,0,0,.8-.29V2.76l.2.12c0-.21.07-.56-.2-.57a.22.22,0,0,0,0,.3c-.47.19-.56-1-1.13-.43a1.31,1.31,0,0,1-.51.18v0h0c-.65.09-1.3-.24-1.79-.16,0-.46-.54,0-.38-.45l-.23.41c.07.07.07.15.17.07-.22.87-.4.24-.63,1l0-.52-.27.08a.55.55,0,0,1-.08.14s0,0,0-.1l-.12,0,.24.51a.75.75,0,0,0-.2.12,1,1,0,0,1-.21.37S515.64,3.78,515.66,3.66Zm4.48-1.12,0,0h0l0,.05c.07.09.17.18.09.32l-.09-.32,0,0-.19.25Zm-2.74,0a.58.58,0,0,1,.64.26c-.41-.21-.4.34-.7.32A1.47,1.47,0,0,1,517.4,2.55Z"/><path d="M565.07.61c-.28-.28-.44-.09-.72-.36.16.48-.11.93.22,1.22-.36.12-.3.59-.56.78,0,.27-.07.53.15.74-.67,0-.5.91-1.09,1.08l.16-.26c-.26.19-.57,0-.9,0,.32.31.06.57,0,.85.06,0,.15,0,.19.07l-.13.08s0-.06-.07-.1a.43.43,0,0,0,0,.11l-.19,0,0,0h0a2.9,2.9,0,0,0,.16.43c.51.17.22-.64.41-.91-.12-.11-.25-.21-.25-.32s.12-.1.17,0,.1.12.17.21a.15.15,0,0,1,.08,0c.25.07.73.35.93,0v.24a3.09,3.09,0,0,0,1.38-.29l0-.26c.69.49.87-.66,1.47.39V4.16l.15.09c.12,0,.24-.08.24-.24l0,0c-.26-.14-.51-.56-.8-.57.48-.39.5-1.26,1-1.25L567,1.89s-.08,0-.12-.17h0l-.08-.17c-.16.6-.66.45-1,.57l.21.48c-.1,0-.26-.48-.6-.22l.14.34-.67-.36.09.34-.32-.62C564.83,1.61,565.26,1.29,565.07.61Zm.51,2.3-.06.27a.46.46,0,0,0-.18-.29A.53.53,0,0,0,565.58,2.91Zm-.72.14,0,0,0,0s-.08,0-.1-.12l.1.12h0a.29.29,0,0,1,.31-.18A3.21,3.21,0,0,0,564.86,3.05Z"/><path d="M574.15.75a.38.38,0,0,1-.17,0c.29-2-.75-1.35-1.79-.69C572.29,1.5,573.17,1,574.15.75Z"/><path d="M574.38.71l.33,0c-.76.66-1.58,1.94.11,1.36.5.37.32-1.83.61-1.25.12-.4,0-.51-.16-.46C575.15.17,574.78.56,574.38.71Z"/><path d="M714.19,5.79a.66.66,0,0,1,.23.44,2.73,2.73,0,0,1,.58.64,1.85,1.85,0,0,0,0-.61c1.43.44,2-2.68,3.53-1.58a2.38,2.38,0,0,1,.55-.52.56.56,0,0,1-.29,0l-.1.21a1.13,1.13,0,0,1-.32-.3.69.69,0,0,0-.83.17l.06-.16c-.28.12-.67-.45-.85-.08.29-1.06.75-1,.3-2.73l-.62.6c-.38-.49.3-.53.45-.79-.48-.12-1.07.12-1.53-.59a.4.4,0,0,0,0-.11c-.1,0-.17,0-.1.33l.18.06c-.28.4-.29.88-.65.89L714.37,1l-.19.2c.1.46.34,1.12-.34,1l.16.2L713.67,2c-.31.3.07.79.35.85a.73.73,0,0,0-.32.7c.73,1.05.16-1,1.25.47L713.63,5.2c.27.34.22.5.07.62l.16.08C714,5.85,714.06,5.76,714.19,5.79Zm1.54-4.21.2.07-.1.59Zm-1,1.45c.45.38.28-.52.46-.59.27.2.08.63.25.93C715.26,3.21,714.89,3.33,714.72,3Zm1-.19c.19-.15.48.13.52.24l-.55.35C715.58,3.1,715.45,2.78,715.74,2.84Zm.42.45.44.13v.32ZM714.4,4.6l.8.07c-.19.38-.64-.33-.63.35Zm1.06,1.09a1.66,1.66,0,0,0-.15.22,2.9,2.9,0,0,0,.06-.45Z"/><path d="M712.31,2.11c-.44.3-1.1-.31-1.53.35l.21-.73a.61.61,0,0,1-.16-.12l.18,0,0,.09c.76.55.63-1.72,1.22-1.85,0,.87.48.71.76.88l.51-.77c.4,1.06.83.27,1.38.37a2.57,2.57,0,0,0,.24,1.4l-.55-.1c.71,1.85-1.09-.07-.47,1.77-.31-.92-.61.63-1.16.28a3.42,3.42,0,0,1-1.17,2.51c-.57-.71-1.08.18-1.3-1C711.3,4.16,711.34,2.93,712.31,2.11Z"/><path d="M723.4,4.54c-.16-.35-.82-.54-1.37-.82a1.4,1.4,0,0,1-.78-.75c-.46.25-1.14.85-1.38.46a2.2,2.2,0,0,0,1.25-1.08c-.48-.32-.81.27-1.15.66.33-.49-.26-.59.08-1.17-.23.07-.58.09-.34.3-.6-.52-1.32-1.07-1.36-1.85a.74.74,0,0,1-.38-.2l0,.15c-.23-.42.09-.29,0-.65a1.37,1.37,0,0,1,.41.24h0l.51.32H719a.3.3,0,0,0,.08-.18c0,.06.09.09.13.15a1.33,1.33,0,0,0,.41-.22c-.1-.43.55-1.09-.12-.93l-.15.65c-.39-.28.53-.88-.21-.85-.14.43-.54.38-.49.95-.07-.35-.46-.63-.36-.92-.42.16-.11.51-.61.74l.23-.72a1.35,1.35,0,0,1-.27,0,.44.44,0,0,1,0-.16h-.4c.49.2-.29,1.09.12,1.15l-.27.1s0,0,0,0l-.33.08.35-.13c.16-.26,0-.4-.12-.59.23-.43.15-.56-.05-.55-.2.23-.54.48-.77.72a.27.27,0,0,1,0,.14c-.06.1-.05,0,0-.09a.62.62,0,0,0-.19.49c.24-.15,1.22.17.34.83l-.05-.07a1.41,1.41,0,0,1,0,.26l.27.12.35-.16-.14.25.08,0h-.09l-.11.2-.12-.18-.24.09a1,1,0,0,0,.16.81c.22-.17.11-.32.1-.51.49.5,1.53.35,1.56,1.39l.11-.22c-.1.32.15.9.6.66-.31,1.43-1.42-.77-1.73.66.23-.17,0,.19.12.15-.12.13-.11.22-.34.3.22-.35-.48-.41.21-.64a1.29,1.29,0,0,0-1.17.1c0,.09.13.15.13.24l-.38-.06a1.76,1.76,0,0,1-.64,1.1c.33-.32.34-.09.38.09.09-.06.14,0,.07.15a.26.26,0,0,1-.07-.15c-.23.15-.75.77-.51.48-.21-.17.47-.76-.36-.51A.72.72,0,0,0,714,6l-.18-.26-.84,1c-.14-.11.36-.73-.22-.4l-.07.17c-.32-.14-.73,0-.7-.33l.78-.62c-.32-.15-.13-.36.11-.58-1.13.47-2.67.44-3.2,1.09,0,0,0,.06,0,.1h-.08a1.42,1.42,0,0,0,.11,1.3c.55.53,2.75,0,5-.5.1-.25.19-.5.4-.11l0,0c.67-.13,1.33-.24,1.95-.31l.25-.47-.22.46c1.9-.21,3.41,0,3.37,1.56A3.88,3.88,0,0,0,724,6.82c-.21-.11-.46-.21-.4-.55-.07.36-1,.45-1.38.38.72-1.24.76.57,1.4-.6-.48,0-.57-.43-1.08,0-.4-.06.78-.87.11-1,.08,0,.23,0,.36,0ZM717.74-1l-.06.41L717.43-1Zm-7.21,8.34c.13-.16.15-.37.27-.57-.09.26.51,0,.54.1C711.15,7.11,710.8,7.06,710.53,7.29Zm6.21-.78c-.34-.06-.52-.31-1,.07l.07.06c-.41.12.26-.7.29-1a1,1,0,0,0-.19.08c.24-.25.57-.61.22-.62L716,5.2l.23-.38-.45,0c1.23-.6.74.7.78,1.31.31-.09,1-.37.93-.51C717.48,5.75,716.94,6.22,716.74,6.51Zm.46-4.82-.08-.14c-.06-.36.08-.07.14-.44C717.5,1.33,717.3,1.41,717.2,1.69Zm4.07,5.86c.66-.41.29,0,.27.22Zm.55.22h0l-.11.11-.06,0,.16-.06c.14-.15.29-.27.26-.38A.45.45,0,0,1,721.82,7.77Zm-.25-2.11-.4-.57C721.58,4.95,721.59,5.45,721.57,5.67Zm.67.13-.11-.72h.24Z"/><path d="M725.43,6.49l.83-.21c0-.32-.18-1.08-.53-.93.55-.29.12-.34.1-1,.09.42.57.59.65.8.69.15.74-.21.79-.6a.92.92,0,0,1-.15-.2c-.18-.17.82-.72,0-1.09.36-.26.82-.24.91-.81-.27-.21-.53-.9-.81-.5a1.55,1.55,0,0,1-.29.7c.09.49,0,.69-.14.75-.13.48-.36.86-.83.49-.41-1,.43-.35.83-.49a4.81,4.81,0,0,0,.12-.72.1.1,0,0,1-.14,0,.28.28,0,0,0,.16-.11h0c.08-.13-.09-.32-.15-.62-.37.74-.56.69-.74,1.25-.63-.32-.64.77-1.36.18l-.07-.59c0,.12-.13.2-.36.13l.66,1c-.3.7-.14,1.34-1,1.55,1,1-.58.62.19,1.74.11-.35-.05-.55.51-.4.36.29.2.53.49.83.92.44.82-.65,1.34-.83C726.06,6.2,725.63,6.58,725.43,6.49Zm-.33-1.05c.08,0,0-.34.23-.25a.8.8,0,0,1,.25.41Z"/><path d="M860.93,5.44c-1-.16-2-.24-3.09-.35a12.87,12.87,0,0,1-1.42-2.31c-.5.23-.79.31-1.13.44a4.52,4.52,0,0,1-.2,1.61c-1.18-.07-2.38-.11-3.58-.14.58-1.59,1.12-3.16,1.62-4.69l2.92-1.09C848.9,4.4,866.42.56,860.93,5.44Z"/><path d="M863.22,1.79C861.35.65,861.6,0,862-.76l-4.44.7Z"/><path d="M1035.08,12.47a1.48,1.48,0,0,0,1.47.43c.26-.2-.06-.64.07-.46.62-.46.73.82,1.29.27l.21.66c.37-.42.82.21,1.34.37-.17-.42-.23-.51-.1-.88l.38.53-.39,0c.22,1.06,1,.32,1.78.59l.12-.78.71.43c0,.4-.8-.36-.71.53.11.33.52.16.42-.18,0,.16.28.2,0,.4.8-.59,1.8-.12,2.3-1.29,0,0,0,0,0,0l-.36-.13.25,0c-.17-.14-.46,0-.73.05a1.55,1.55,0,0,0,.13.25l-.52-.16.05-.1a.47.47,0,0,1-.28-.35l0,0,0,0c.1-.11.18-.12.26-.1.51-.29.93,0,1.31.43l1.22-.21-.06-.09c1-.13,2.21.9,3.05.33,0-.1,0-.17.19-.14a.91.91,0,0,1-.19.14c0,.22.35.63-.24.59a1.39,1.39,0,0,0,1.68.27c-.21.28,0,.55-.61.85h.06c.16-.19.46.09.74-.38l-.25.41c.14,0,.25-.16.37-.45s.25-.16.46-.07l-.11-.67a.65.65,0,0,0,.25.27c.29-.41,0-.78-.16-.53.06-.23.28-1.34.61-.83-.44,0-.21.42-.18.7.07-.14.43-.13.49-.37,0,.05.21.07.4.1.92-.14,1.7-.69,2.73-.27.26.12.3.43.46.73a1.1,1.1,0,0,0-.22-.06,2.24,2.24,0,0,1,.42.25c.14-1.83-2-1.63-2.12-3.2l-.09.3c0-.1,0-.17,0-.23l-.19.16.33.42a2.13,2.13,0,0,0-.39.5c.08-.84-.64-.06-.3-.93l.54-.21c0-.4.4.35.46-.33.33.17.56.32.64.5.28.07.68,0,.5.59a1.28,1.28,0,0,0-.61-.07,1.58,1.58,0,0,1-.13.23c.42.12,1,.37,1-.46a1.31,1.31,0,0,0,.33.63,1.27,1.27,0,0,0,.63.37,1.55,1.55,0,0,0-.33-.36c.42-.17.49.11.58.39.7.09,1.55-.06,2.22,0a.81.81,0,0,1-.06-.2l.28.06c.57-.5-.47-.85,0-1.21a.47.47,0,0,0,.8-.13c-.43.11-.36-.39-.45-.73l-.09-.1h.06c-.06-.16-.18-.26-.46-.17,0-.09.06-.92.45-.73l-.2.5c.18.35.4.24.61.39.11,0,.21,0,.33.15.68.2,1.08.26,1.16.81,0,0,.06.1,0,.25a2.78,2.78,0,0,0,2.11,0c.1.19.1.43.2.63.72.09,1.16.14,1.57.17l-.11-.09.19-.07c-.14-.23-.72-.17-1-.16-.34-.3-.95-.4-.91-1.11,1.29.69.63-1.4,1.9-.55,1,.12,1.31,1.17,1.58,1.93,0,0,.06.07.1.1l.46-1,1,.24.12-2.15.63.05c-.2.35-.59.66-.33,1.16.46.56,1.58.14,2.34-.22-.25.83.68,0,.53.62.51.07,1.64.44,1.42-.56l.44.4c.17-.1,0-.89-.66-1.27-.3-.1-.54-.46-.73-.67a.4.4,0,0,0-.3.4c-.12-.77-.66.19-1-.3.22-.59-.39-.89-.46-1,.22-.59-.36-1.13.2-1.54.41.24.51.87.89,1,.17-.9,1.14.12,1.68-.84l.66,1c1.11-1.23,1.13,1.54,2.32.78l-.27-.51.69.62c.81-.8,1.7,1.74,2.79.37l-.88-.32c.23-.44,1-.3.9-.24.5.72-.56.93.42,1.18.09-.23.44-.17.61-.3-.23,0-.58,0-.66-.36l.36-.46c-.11.36.23.54.36.72a.64.64,0,0,0-.05-.44.62.62,0,0,1,.4.61l.29.1c-.1.17.18.28.16.52l-.62,0a3.94,3.94,0,0,0-.17.55.6.6,0,0,0-.35,0c.05,0,.07.06.11.09-.16.11-.07.33-.16.5-.12-.1-.54-.16-.54-.37a.49.49,0,0,1-.33-.13l.07-.07-.36,0,.51-.42,0,.21c.09-.06.13,0,.24.17l.07,0c.19-.58-.64-.94-1.18-.82l0,.13.24.16c-.08,1.36-.79-.17-1.17.53,1.4.06,2.35,1.16,3.51.86l.8-.87c.65.44,1.18.89,1.52.66l.19-.36c-.61.52-.51-.69-.93-.53l1.64-.8v0l-.08,0c-.1,0-.22,0-.31-.07-.43.12-.91-.09-.83-.24-.15-.13.67-.52.76,0h0l-.07-1.06-.6-.52.2-.6,1.08,1.7h0s0-.11,0-.14c.5.23.63-.65,1.22-.37l-.29.47c.45,0,1,.14,1.1.6l.06-.09v-.1l.06,0,.1-.15.08.21.23.07c0,.09-.12,0-.17.11l.18.45c0,.11-.3.15-.54.24l.07.1-.08-.09c-.28.11-.5.3-.21.75h0a.25.25,0,0,1,.45-.19c.33-.14.64-.24.85-.12a2.21,2.21,0,0,0,.67,1.46c0,.73.31-1,.81-.49l0,.49,1.25.37.48-.5.34.63c.26,0,.55,0,.54-.37.41.12.6.92.27,1l-.09.48c.2-.07.76,0,1-.3.1.46.57.84.26,1.22.21-.6.48.38.92.6l-.12-.85c.59-.29.33.65.48,1a.62.62,0,0,1,.82.13l.31-1c.71,1.44,1.86.06,2.85,1.18.45-.9-2.09-.71-2.67-2.18l.18.52c.54,0-1.1.65-1-.5.32.25.57.19.6-.29l.19.07a.26.26,0,0,1,.06-.2,1.07,1.07,0,0,0,.17.28l.43.14c-.45-.85.65-.63.16-1.64a3.37,3.37,0,0,1,1.06-.82,5.08,5.08,0,0,1-1.27-.58l.15.54c-.05-.34-.38-.53,0-.74l-1.09-.66a5,5,0,0,1-1.3.54l-.39-.69a1.34,1.34,0,0,1,.16-.26c-.53.18-1-1.2-1.51-.77l.15-.43-.36-.29c-1.35.08-2.23-1.08-3.78-.9.55-1.08,2.22.57,2.26-.81.49.4,1.42.25,1.66.91a1.2,1.2,0,0,1,.13.24A.54.54,0,0,0,1092,6c0-.08-.07-.15-.12-.17l.15.15c.18-.12.31-.32.5-.43-.17-.22-.55-.21-.47.08.17-.53-1-.51-.16-.82.09.33.65.2.78,0,0,0,0,0,0,0-.64-.72-1.5-.27-2.08-.93.81-1,1.7-.24,2.4.21l-.52-.17.23.91c.12,0,.11.11.08.21s.21.23.32.23.17-.53.41-.6l.27.37c.17,0,.36,0,.55.34.28-.78-.57-.83-.44-1.1.69.81,1.37.08,2,.24.12,1.09-1,0-.93,1,.61-.15,1.36.56,1.87,0-.05.34.43.46.13.86l-.31-.49-.2.44s0,0,0,0h0a1.38,1.38,0,0,1-.31.48s0,0,0,0h0c-.16.14-.36.16-.68,0l-.07.58a.81.81,0,0,0-.23-.09,2.81,2.81,0,0,0-.07.73c.22-.15.43-.27.64-.17a.15.15,0,0,1-.07.16c.1,0,.16.14.18.33a1.3,1.3,0,0,1,.52.22L1097,8l-.27-.46-.13.28c-.25.08-.29-.25-.36-.47.31.36.4-.58.83,0a.51.51,0,0,0,.09-.27l-.13-.25a.33.33,0,0,1,.13.25,2,2,0,0,1,.23,1.52c.2.06.28.05.33,0V8.48h0c0-.15-.05-.43.25-.61.49.74.75-.44,1.24.29,0,0,0-.06,0-.09a2.16,2.16,0,0,0-.12-.46.34.34,0,0,1,.12.46c.05.21.14.37.36.18l-.3.89c.1.56.55.5,1,.63l.38-.84a.46.46,0,0,0-.29,0l0,0c-.15.25-.24.64-.51.46a1.08,1.08,0,0,1,.28-.28,1.11,1.11,0,0,0,0-.72c-.05,0-.09,0-.12,0l-.34.52,0-.15c0-.37.14-.48.34-.47,0,0,0-.06,0-.1l.25-.15.1-.09a.4.4,0,0,1,0-.16.65.65,0,0,0,.11.05c.63-.59-.88-.1-.61-.91,0,.07-.06.12-.08.15a1,1,0,0,1,0-.53h-.35l0-.24.61.11,0,.15h-.11c.2.54.52.55.88.43l-.51-1.4c.12.18.15.43.4.39a.67.67,0,0,0-.67-1c.75-.25.57.27,1.06.61a1.85,1.85,0,0,0-.31-1.25h.28s0-.09,0-.15c-.32-.24-.37.1-.41.43,0-.47-.43-.71-.57-1.13h-.2c-.29.36-.88.27-1.09.71,0,.64.48.12.72.55a1,1,0,0,1-.09.35c.24.17-.17.48-.28.8a3,3,0,0,0,.18-.66c-.43.47-1.44-.3-1.83.33l-.23-.43a.69.69,0,0,1,.61.09c.1-.42.94-.15.76-.91a1.32,1.32,0,0,1-1.62,0c.13-.27.73-.18.35-.73l-.12,0c-.12-.9.52-.9.8-1.35a.27.27,0,0,0-.37,0,.89.89,0,0,1,.49-.49,1.59,1.59,0,0,0,0-.3,1.13,1.13,0,0,0,.5.08l0,0,.1.06a7.4,7.4,0,0,1,1.4-.11c0-.15.1-.26.27-.18l-.11.24a.89.89,0,0,1,.36.13c0,.09-.23.29-.09.41h0c.21-.19.92,0,.7-.54a.37.37,0,0,0-.19,0l.72,0V1.35l.29-.08-.06-.06c-.1,0-.18,0-.21-.2l.21.2a.67.67,0,0,0,.2-.16,13.92,13.92,0,0,1-3-.94l.46-.52-.16-.12v0c-2.14.43-1.91-.12-2.13-1.15l-.29-.31a1,1,0,0,1-.9,0l.2.48-.43-.24c.08-.05.28-.09.22-.24a4.3,4.3,0,0,1-.55-.33,1.43,1.43,0,0,1-.6.54.21.21,0,0,1,0,.22l0,0a.85.85,0,0,0,0,.13l-.06,0,.22.39c-.31,0-.09.43-.06.58l-.78-.37c.13-.27.33-.24.1-.67.16.12.34.4.5.28,0-.06,0-.14,0-.21h0a.48.48,0,0,0-.14-.3l.16.29.11-.08c0-.08,0-.16,0-.23a.5.5,0,0,1-.22,0l-.23-.16,0,0s-.06,0-.09,0,.12.26.2.36l-.56-.17a1,1,0,0,1,.12-.15c-.09,0-.13-.13-.16-.25a.28.28,0,0,0-.22.14c-.16-.17-.35-.38-.54-.61l-.16,0,0-.26-.09-.12-.37,1c-.54-.19-.28.15-.86-.2,0,.15.07.31.19.28a.54.54,0,0,0-.75,0,.43.43,0,0,0,.61.5c0,.27-.29.43-.34.59l.1,0a.19.19,0,0,0-.12,0c0,.06,0,.12.17.18a1.28,1.28,0,0,1-.25-.09,3,3,0,0,0-.13.42.76.76,0,0,0-.38-.77h0l-.4-.35a3,3,0,0,0-.3.23l.14-.35a1.19,1.19,0,0,0-1-.26c0,.39.33.65.43.86-.15-.12-.33-.4-.5-.29-.06.33.61.5.25.58a2.34,2.34,0,0,0-1.37-.26c.2.68.9,1,1.22,1.65a.37.37,0,0,1,.06-.08c-.08.05-.11.18,0,.47l-.37-.56a1.38,1.38,0,0,1-1.55.1l.09.46c-.49.1-.33.23-.92.11a2.54,2.54,0,0,0,.3.7,2.4,2.4,0,0,1,.22.2c.22-.22.48-.48.73-.14,0-.15-.05-.34-.05-.59l.72.94-.18.11c.11.37.33.34.55.29a.47.47,0,0,1-.09-.32l1.44.74-.09.07c-.31-.18-.9-.15-1.19-.4a1.13,1.13,0,0,1-1.23-.15,6.65,6.65,0,0,0,.93,1.67l.12-.06a.29.29,0,0,0,0,.16c.11.14.21.28.32.41-.08-.15-.32-.21-.32-.41l-.09-.11-1.23.6c-.2-.63-.66-.36-1-.93.8.4.74-.92,1.16-.56-.29-.57-.24-.72-.81-1.13.06,0,.14-.07.22-.15a2.85,2.85,0,0,1-.16-.26c-.5-.37-1.12-.56-.73-1.33l-.56,0,.1.85c-.71-.09-1.79-.5-2.47.19a.58.58,0,0,0,0,.9,1.72,1.72,0,0,1,.42.26,3.19,3.19,0,0,1,.64,0,4.89,4.89,0,0,0-.47-.84c.58-.28.78.16,1.19.63a.77.77,0,0,0-.6.22.54.54,0,0,1,.28.14.73.73,0,0,0-.19.17c.5.23.68-.09,1,.56l-.36.49.29.06c-.27.4-.19.62,0,.82a9,9,0,0,1,1.16.48c-1.34,1.74,1.48,1.38.74,2.83l.9-.22-.26.58c-.59.11-.89-.19-1.22-.55-.39.43.45.25.11.82l-.41-.88a.31.31,0,0,0,.28,0,2.7,2.7,0,0,0-1-.79c-.34-.3-.3.34-.51.23-.2-.67.61-.29.66-.6,0-.09-.09-.18-.14-.27l-.06-.09h0a3.62,3.62,0,0,0-.26-.46,1.94,1.94,0,0,0-.26.36l-.29-.58c-1,1.43-.67-1.09-1.68.24.51-.67-.9-.35-1-1a2.11,2.11,0,0,1-1.8.12l0,.47-.52-.46.3-.06-.73-.22c.17-.84-.86-1-.12-1.66a5.53,5.53,0,0,0,1.42.19l-.14-.46.55.48a6.33,6.33,0,0,1,.93.08c-.46-.61-.81-.18-1.51-1-.21.29.17.83,0,.64a10.46,10.46,0,0,1-2.61-.74.92.92,0,0,0,0,.09.44.44,0,0,0-.15-.14h0l0,0c-.18-.08-.4,0-.49.35-.59-.41,0-.35-.07-.76a1.55,1.55,0,0,1-.34-.4l-.63.44a.66.66,0,0,0-.36-.42,3.82,3.82,0,0,0-.74,1.18l.19.17c0-1,1.06,0,1.15-.93,0,.49.81.73.31,1.06-.35-.57-1,.42-.83-.49-.21.2-.35.86,0,.95-.52.26-.59-.33-.89-.6a5.64,5.64,0,0,0-.19.65.66.66,0,0,1,.09.37h-.16c0,.12,0,.24-.06.36l-.49-.56-.11.1.15.13-.78-.58a.63.63,0,0,0,.4,0,18.37,18.37,0,0,1-1.25-1.62,2.24,2.24,0,0,1,1.38-.57.78.78,0,0,1,0-.16l-.1-.09.1.06c0-.21.06-.46.33-.36l0,.51h.2a.87.87,0,0,0,.12-.27l.06.28c.34,0,.68,0,1,.09a.15.15,0,0,1,0-.06l-.19-.07h-.18l.07,0-.17-.06,0,.16-.37-.33c.16-.11.31,0,.55,0-.07-.07,0-.4-.2-.44l.86-.06c-.1-.15-.16-.37,0-.49.43,0,.31.26.19.47l.38,0,0-.15c.42.64-.59.5-.4.95a.37.37,0,0,0-.33-.21l.24.35a4,4,0,0,1,.83-.57,2.18,2.18,0,0,1,0-.49.46.46,0,0,0,.63,0l-.1-.3a.32.32,0,0,1-.16-.23c-.36-.19-.78-.57-.92.16-.31-.46-.22-.62-.06-.79a.61.61,0,0,1,.28-.51.51.51,0,0,0,0-.09l.08,0a.38.38,0,0,1,.44.05c-.17-.38-.54-.81-1-.71a.76.76,0,0,0-.1.19,1.17,1.17,0,0,1,0,.58,1,1,0,0,1,0-.58.53.53,0,0,0-.06-.15h0s0,0,0,0c-.24-.3-.86-.11-1.13-.21.19.4.3,1,.63.75a.37.37,0,0,1-.07.11s.05-.05.08-.05l-.26.48.38.34-.09,0,0,.16-.21-.12-.17.05a.61.61,0,0,1-.05-.3h0L1075-1c-.12,0-.2.15-.17.43-.68.55-.49-.71-.95-.6l-.09.17a.4.4,0,0,0,0-.12l-.06,0c0,.15.08.46.27.51-.07.33-.19,0-.26-.11a.64.64,0,0,1,0-.57c-.08-.09-.19-.13-.27,0s0,.25.1.44l-.61-.53a.44.44,0,0,1,0,0V-1.4L1072.2-2a7.28,7.28,0,0,0-.24.84c.6.29.55-.42.84.25l-.5-.07.12.38c-.29.14-.55,0-.86,0l.08.5a3,3,0,0,0,.74,0l-.7.28,0-.27a7.47,7.47,0,0,1-1-.17l.3.13-.09.05-.37-.22a5,5,0,0,0-1.77-.29l-.59-.69c.19.84-.93-.09-1.21.44l.5.47-.67,0c.12,0,.19-.35-.11-.77.45.16.34-1,.64-.18l0-.64c-.14.26.54.78.78.34-.22-.2-.26-1.3-.71-.68.07-.32.52-.16.75-.2l-.14.26c.31,1.22.76-.2,1.26.27l-.19.35c.21.27.39.19.49,0l-.27-.14c0-.15.18-.36-.06-.59a4.31,4.31,0,0,1,.41.35,1,1,0,0,0-.09-.48c.31,0,.21.6.19.84.16.29.69.52.67,0l-.26-.11a1.79,1.79,0,0,1,1.34-.56.25.25,0,0,1,.1-.26.85.85,0,0,0,.14.22.5.5,0,0,0,.42-.3,1.07,1.07,0,0,1,.09.39c.12-.45.59.11.95.12,0,0,0,0,0-.06s-.05-.12-.09-.19h0l0,0c-.1-.21-.24-.45-.38-.48a.76.76,0,0,1,.22-.06l-.07-.11a.24.24,0,0,1,.26.09.53.53,0,0,0,.44-.31l-.21.59.27-.08.09-.21a.48.48,0,0,0,0,.17l.25-.07c-.05-.31-.25-.75-.36-.73.82.49,1.82-.41,2.78.21l-.14-.13c.39-.55.63.44,1.07.2.09-.71.91-.47,1-1-.2-.25-.44-.54-.7,0l.36-.7c-.24.13-.34-.1-.45-.32l0,.06-.24.06,0,0c-.19.11-.42.13-.6.23v-.15a4.55,4.55,0,0,1-1.93-.07c0,1.74-1.26-.64-1.29,1-.41-.25-1.26-.26-1.57-.68l.53,1-.83-.59s0,0-.05,0l-.28-.27.34.24c.32-.11-.11-.45.06-.78-.45-.16-.77.46-1.08,1.22L1070-5.08l-.14.26v-.79l-.45-.16.14.92c-.14.43-.64.38-1,0,0,0-.11-.06-.19-.22a1.34,1.34,0,0,0,.19.22c.18,0,.27-.67.73-.14.14-.26-.24-.36-.21-.6l.51-.56c-.64.11-1-.48-1.38-.89,0,.25,0,.52-.38.28.11-.16.13-.33.24-.41a.79.79,0,0,0-.47-.22c.28.66-.09.56.09,1,0,.24-.26-.51-.42-.8-.26,1.08-1.13-.29-1.5-.38l.16-.5-.58-.3c.4.65-.19.35-.17.89-.14-.13-.23-.35-.47-.32-.05.48.23.36.21.6-.32-.19-.7-.68-.27-1.07-.28-.27-.58-.7-.88-.73.25.52-.54,0-.79.28a.21.21,0,0,0,0,.15c-.24-.18-.25-.59-.82-.57l.08-.73c-.33.21-.8.28-.76.59l-.13-.53c-.8.28-1.9-.43-2.58-.17.11.37.06.46.17.84a.65.65,0,0,0-.33-.22c-.15.25.11.29.21.41.54,0,.5.43.64.84-.32-.42-.58-.38-.88-.61a.43.43,0,0,1,0,.28l0-.28h0c-.12-.25-.55,0-.57-.2.39.14.28-.31.37-.51l-.2,0a1.7,1.7,0,0,1-1.14-.43c.17.45.42.82.36,1.1a3.11,3.11,0,0,0-1.1-1,2.42,2.42,0,0,0-1,.46c-.25,0-.17-.26-.15-.43l-.13-.11-.14,0,.09,0-.49-.42-.1,0,0-.06-.19-.16a.88.88,0,0,1-.37.76l-.44-.22a1.84,1.84,0,0,1-.57.74,4.75,4.75,0,0,1,.41,1c.68.13,1.68.16,2.07.56-.08-.22,0-.4,0-.64.76.3,0,1.53.13,2.17-.16-.32-.35-.53-.62-.36l0,.16c-.38-.31-.62-.56-.92-.75-.09,0-.15.08-.15.35a1.55,1.55,0,0,1-.18-.54,2.89,2.89,0,0,0-.37-.12,1.4,1.4,0,0,1-.07.33.48.48,0,0,1,.1.27,1.16,1.16,0,0,1-.34.15,2.14,2.14,0,0,1-.24.34c0,.19,0,.39-.24.37,0-.08,0-.12,0-.19a4.42,4.42,0,0,1-.54.43l-.22-.08-.06.1c.36,0,.87.75,1,.19,0,.24.05.46-.11.57l.34.35c-.52.14-1.11-.33-1.61,0,.2.3-.55.58-.74.91a2.65,2.65,0,0,0,.52,0c.15.28-.25.9.4.76a.5.5,0,0,0-.11-.68c.88-.41.17,1,.87,1,0,.15,1.69.47,1.91,1.35a14.32,14.32,0,0,1-2.92-.49c-.27.42-.17.61.35.67l-1.11.67c.32-.32-.68-1.08-1.29-1.09a.54.54,0,0,0,0-.22c-.43,0-1.16,1.07-1.55-.08-.45.76.52,1,.66,1.65A4,4,0,0,0,1046-.6l.08-.32c-.52-.41-.89.73-1.54-.37-.77,0-.17.65-.51.85-.11-.52,0-1-.35-1.33a1.47,1.47,0,0,0,.11,1c-.44.19-.61-.08-.78-.41-.33.07-.7.05-.93.33l-.65-.55.41-.67-.24,0c.28-1.37.53.57,1-.44v0c-.18-.14-.71.19-.82-.24a1.2,1.2,0,0,0,.8-.18l0-.58.42,0c0-.39-.21-.92-.4-1a4.05,4.05,0,0,0-.53,1.24c.07.07.08.23.25.13-.52.84-.12-.54-.57-.33.22.37-.17.64-.32.9a.73.73,0,0,0-.76-.5c-.28.73-.5,1.54-.72,2.37a1.08,1.08,0,0,0-1.12.14c0,.1,0,.19,0,.29l.72.19a3.7,3.7,0,0,0-.92.66,1,1,0,0,1,.12.52l-.3-.32-.13.16a7.06,7.06,0,0,1,1.1,1.2c.18-.21.22-.57.77-.33,0,0,0-.06,0-.1a2.42,2.42,0,0,0-.37-.33.35.35,0,0,1,.37.33.5.5,0,0,0,.17.11l.27-.19a3.37,3.37,0,0,1,.89.79.31.31,0,0,0,.09-.1,1.24,1.24,0,0,1,.05-.17s0,0,0,0h0l.11-.28c0,.15,0,.32,0,.45l.21.35.17-.05L1042,1.59a.28.28,0,0,0-.27.28.47.47,0,0,0-.19-.62c-.31,0-.23.73-.58.23l.16-.26c.64-1.41-.76.17-1-.76,0,.16,0,.25.08.23-.3,0-.63-1-.42-.58,1.31,1.11,1.35-1.49,2.69-.62-.33.91.69.31.86.77-.19-.05-.39.28-.72.64l.2.11a.52.52,0,0,1,.18-.26l.28.14a.38.38,0,0,0-.2.26,1.62,1.62,0,0,0,1.29-.07l0-.13a1.73,1.73,0,0,1-.42-.27c-.15.19-.3.35-.39-.21.2-.42.42-.33.62-.19l.54-.12s0,.09,0,.13l0,0s0,0,0,.07c0,.22.2.41.24.6s-.1,0-.16.06c.37.1.74-.17,1-.15a.28.28,0,0,0,0-.13c.21.25.4.45.56.3s-.15-.29-.24-.52l.56.17,0-.16.55.56,0-.39c.34.35-.15,1.36.54,1.11.27-.27,1.5-.1,1.92-.63l.07.63c.42-.53,1.23.71,1.44,1.46.68.15,1.32-.56,1.64,0l-.48.06c0,.32.47.34.38.66-.35,0-.26.46-.29.75a.36.36,0,0,1,.31.18,1.37,1.37,0,0,0,1-.41c.33.43-.22.51-.31.81-.37.39-.48-.1-.71-.4a.45.45,0,0,1-.31-.16.34.34,0,0,1-.09.22c.7-.25.27,1.22,1.18.63-.29.12-.27.82.09.78,0-.32.25-.43.15-.8a6.84,6.84,0,0,1,1.62.25,1.62,1.62,0,0,0,.11-1.12.65.65,0,0,0,1,.31l-.24-.23c-.23,0-.39,0-.35-.34l-.08-.07c-.09.15-.17.39-.59.12.1-.15.33-.18.42-.32l-.05-.06-.08,0a.15.15,0,0,0,0-.11c-.27-.3-.53-.61-.78-.93a.43.43,0,0,1-.21.3c-.75,0-.42-.11-.76-.54l.85.24A2.5,2.5,0,0,1,1054,2l-.16-.24a1.48,1.48,0,0,0-.77-.45l-.26.66c.45-.77-2.08-1-.71-2.07a4.71,4.71,0,0,0,2.67.26c-.3.54.93.39.45,1.17a1.13,1.13,0,0,1,.17.08,2.09,2.09,0,0,1,.32-.1c.07-.26-.32-.83.32-1l.9.44c.07-.08.14-.13.19-.12,0-.15,0-.27,0,0,.29.57.93-.06,1.27.36l-.31.8a1.86,1.86,0,0,0,.38-.15V1.58a.29.29,0,0,1,.11,0l0,0c-.23-.4,0-1-.11-1.23a1.18,1.18,0,0,0-.52.21c.44-.73-1.13-.08-.6-1.14h0c.2-.37,0-.53-.29-.69l-.31.51a.49.49,0,0,1,.21-.57l0,0,.38-.41,1,1,.24-.16c0-.28-.45-.75-.15-.51.15.51.73.1,1,0-.18.35-.1.51,0,.62.52-.06,1.06,0,1.16-.75.63.62,1.18,1.17,1.9,1.06,0,.81-.55,1-.88,1.49l0,0-.06,0a1.14,1.14,0,0,0-.2.62c0-.08,1.19.22.7-.66.6-.08,1.46.89,1.57.32l-.07-.07c.28.28.55.39.76.6,0-.16,0-.31.08-.33.26.51-.11,1.36.77,1.54l0-.31.33.59c-.31,0,0,.24-.37.45.14.13.3.42.55.39s.29-.52.32-.76c.28.67.86.42,1.12.54l-.26.28c.19,0,.31.43.6.3,0-.16-.12-.38,0-.55.67,0,1.17.83,1.68.91-.31,0-.55,0-.29.53l-.63-.45c.29.55-.17.45-.35.58a.16.16,0,0,0-.08.15l0,0,.49.32-.51-.06,0,0c-.6,0-1.36-.77-2.08-.43-.81-.11,0,.94-.17,1.45l-.71-.68.36-.06a.34.34,0,0,1-.24-.3c-.13,0-.24-.07-.25-.35h0a.24.24,0,0,0-.13,0,2.11,2.11,0,0,0-.61.88l-.14-.13v.4c0-.7-.72-.29-.54-.79a6.7,6.7,0,0,0-1.23.13s0,0,0,0l.56.15c0,.33.44.75.25,1.11l.06.29c.28.13.63.34.55-.18l.2.87a1,1,0,0,1-.63-.12l.06.26c-.74-.28-1.14.28-1.53-.26l.6-.3c-.41.07-.14-.56-.39-.5a.79.79,0,0,0,.16-.54c-.08,0-.15-.09-.32-.18l.17-.26.2-.3a.23.23,0,0,1-.3,0l-.39.1c-.13.3-.27.25-.42.11l-.64.19c0,.19.21.42.3.68l.12-.46c.09.12,0,.49.17.61l-.05,0c.1,0,.19,0,.15.31a.45.45,0,0,1-.24-.19,1.54,1.54,0,0,0-.13.25,10.75,10.75,0,0,1,.34,1l-1.12-.87a.64.64,0,0,0-.2.22,1.19,1.19,0,0,1-.34-.64l-.38-.32c-.13.07-.06.22-.17.41l-.14-.09c-.38.5-.92.91-.23,1.42-.74-.41-.36-1,0-1.56l-.54-.32.69.06.1-.19-.34-.29a1,1,0,0,0-1.18,0c-.15.26.2.61.06.47-.35.6-.75-.61-1,.06l-.32-.58c-.18.5-.67,0-1.09,0a1.12,1.12,0,0,1,.28.83l-.41-.42.29-.12c-.42-1-.86,0-1.48-.12l.09.78-.64-.23c-.11-.38.68.15.41-.68-.16-.29-.43,0-.27.27,0-.16-.26-.12-.11-.38a1.64,1.64,0,0,1-.56.54.84.84,0,0,1-.32.46c.27.84.77.11,1.22.65l.08-.13.11.38,0,0c-.84.46.64.85,0,1.3.1,0,.28,0,.23.37-.23-1.07-.72.69-1.16.12-.14-.42-.58-.38-.21-1a.82.82,0,0,0-.73-.1c.51-.19.21-.36.17-.63l-1.1.64.07.07c-.75.39-1.88-.32-2.38.45,0,.09,0,.17-.11.18a.91.91,0,0,1,.11-.18c-.09-.2-.41-.52,0-.63a.9.9,0,0,0-1.33.16c.09-.33-.11-.55.26-1a1,1,0,0,0-.4.09l0,.22a.82.82,0,0,0-.06-.13.87.87,0,0,0-.13.45c-.07.48-.85-.05-1.3-.24l.66-.16-.24-.52a.67.67,0,0,0-.22,0,.45.45,0,0,0-.3.31.86.86,0,0,0,.14.58,3.74,3.74,0,0,0-.6-.08,2.13,2.13,0,0,1,.43,2c.42.11.8.14.92-.31-.05-.09-.15-.28-.24-.23l0,.06c0,.06,0,.12-.09.15l.09-.15c-.06-.21-.51-.57,0-.8l.16.53c.31-.32,1-.86,1.44,0,.06.34-.23.26-.31.56a.86.86,0,0,1-.84-.23l-.15.78.06.09c.42.13,1,.41,1.18-.16.43.36-.3,1.06-.52,1.56l.57.4c-.58.73-.49-.95-.89-.08-.52-.55-.24-.72.06-1.28-.23-.07-.32-.26-.41-.44l-.07,0v-.06a.49.49,0,0,0-.3-.26c-.76.84.29.32-.67.78.19.14.66.59.38.52-.43-.36-.56.09-.64.39-.09-.19-1.08-.71-1.39-.15l.2-1.24-.55.34c-.33-.17-.82-1.12-.41-1.25-.72.69-.17-1-1.07-.22a1.64,1.64,0,0,1,.27.53,1.76,1.76,0,0,1,.46.4c-.21.07-.35-.15-.46-.4-.49-.3-1.15-.4-1.4.29l-.62-.49.33.17c.55-.09.48-.92.65-1.52-.43-.36-.71.94-1.06,0a1.9,1.9,0,0,1-.79,1.73l-1.09-.95a8.64,8.64,0,0,0,1.67,0c.1-.36.1-1,.25-1.53h-.13a.25.25,0,0,0,.13,0,1,1,0,0,1,.61-.73c-.21-.62-.55-1.28-1.25-1.23l0,.4-.18-1.27c-.18.11-.46.28-.26.41-.33.07.07-.79.49-.68-.43-.36-1.06-1.1-1.56-.91l.15.28L1037,3.9l0,.15a1.35,1.35,0,0,1-.21,0,1.55,1.55,0,0,1,0,.26L1036.6,4l-.19.46a.52.52,0,0,1,.05.24l0,0v0l0,0c.1.38.51.26.71.48-.18-.09-.67,0-.79-.12l-.1.5a.47.47,0,0,1-.33-.1c0,.1-.09.2-.14.31l.06-.08.09,1.44c0-.18-.16-.27-.36-.36l-.08,0V6.73l-.12-.06a9,9,0,0,1-1.41,2.1,2,2,0,0,1,.34-.13c.36.16.86.43.71,1l.33-.52a10.72,10.72,0,0,1,.22,2,1.33,1.33,0,0,0-1.07.34l1.18.49s0,.08,0,.12A2.83,2.83,0,0,0,1035.08,12.47Z"/><path d="M1097.4,2.64c-.06-.88-.64,0-.85-.72C1097,1.67,1097.47,2,1097.4,2.64Z"/><polygon points="1097.72 1.33 1098.22 1.03 1097.83 1.46 1097.72 1.33"/><path d="M1096.06.06l.27.55c-.15.15-.23.24-.28.31v.16A.3.3,0,0,0,1096,1c-.09.08-.15.08-.4.06-.15.18,0,.42,0,.51l-.21-.52c-.05,0-.08-.08-.09-.22l.09.22c.15.06.46-.24.62,0l.06-.07Z"/><path d="M1091.88-.69l.23,0c.12-.28.25-.67.46-.72.25.65-.26.48-.46.72a7.71,7.71,0,0,0,.94,0l0-.1c-.09,0-.17-.1-.19-.32l.12.15a.38.38,0,0,1,0-.31.21.21,0,0,0,.17,0,.27.27,0,0,1,.19-.21s0,.07,0,.11a.26.26,0,0,1,.35,0,3.49,3.49,0,0,1,0,.74,2.5,2.5,0,0,1,.27.1h0s0,0,0,0a1.33,1.33,0,0,1,.39.17c-.51.66.61,0,.67.6l-.36.71c0-.74-.52-.81-1.09-.73l.1.19c-1.22,0-.9-.35-2-.44Z"/><path d="M1094.94,2.64c.36,0,.67.73,1-.16-.21-.18-.25.15-.44.05l.45-.57c.19.09.47.13.5.32-.1,0-.21-.18-.36,0-.32.29-.1,1.07,0,.93C1095.8,3.46,1094.87,3.29,1094.94,2.64Z"/><path d="M1088.92-.23c.29.49.68-.07.9.11C1090,.32,1088.58,0,1088.92-.23Z"/><path d="M1090.31.42c-.07-.06-.19,0-.27-.1.35.16.14-.27.46-.5.44,0,.45,1.25,0,.88l0-.15c0,.84-.73.18-1,.3C1089.75.59,1090.32,1,1090.31.42Z"/><polygon points="1090.76 4.82 1090.69 4.34 1090.88 5.01 1090.76 4.82"/><path d="M1086.7,2.17c-.2-.09-.36.61-.6.24C1086.27,2.31,1086.61,1.61,1086.7,2.17Z"/><path d="M1086,4.26l.25.47h-.54C1085.9,4.64,1085.65,4.27,1086,4.26Z"/><path d="M1078.07,4.63c.21-.24.32-.24.41-.19l0-.07c-.49-.31-.31.37-.46.24l-.2-.83c.34.18.78.57.91.55a1,1,0,0,0,0,.23c.1,0,.23,0,.45-.11-.16.25-.18.39-.15.49a.88.88,0,0,1,.46.29.4.4,0,0,1,.23.43,2.16,2.16,0,0,0-.58.42C1078.54,6,1078.87,4.49,1078.07,4.63Z"/><path d="M1074,1.37c0-.14.08-.18.14-.16S1074,1.25,1074,1.37Z"/><path d="M1072.46-.39c.21-.28.6-.29.48-.47a.78.78,0,0,1,.47.54,2.7,2.7,0,0,1,0-.27l.43.79c-.23.07-.33-.11-.38-.32a2.35,2.35,0,0,0,.06.78c.25.05.4-.37.59.05-.13.24-.39,0-.58,0l0,.06c-.27-.11-.51.18-.69.21C1072.91.24,1072.93.09,1072.46-.39Z"/><polygon points="1073.14 1.16 1073.45 1.6 1072.69 1.47 1073.14 1.16"/><path d="M1069.74,1.54c.67.37-.26,1.08.48,1.5l-.77.2C1069.43,2.7,1069,1.59,1069.74,1.54Z"/><path d="M1067.61,2.84c.17-.11.62.05.62.05-.36.06,0,.55,0,.64Z"/><path d="M1039.77,1.05,1039,1c-.06-.63.44-.36.68-.39Z"/><path d="M1045.75.56c-.22-.09-.63,0-.37-.38A2.07,2.07,0,0,1,1045.75.56Z"/><path d="M1047.63,1c.1-.17.24-.58.44-.37C1048.12,1.1,1047.83,1.21,1047.63,1Z"/><polygon points="1047.67 0.31 1047.17 0 1047.76 0.24 1047.67 0.31"/><path d="M1054.51,5.33l-.24-.48.66.1C1055.12,5.33,1054.33,5.43,1054.51,5.33Z"/><path d="M1052.12,2.32c-.55-.55-.46.77-.76.18.06-.48.44-.37.59-.63Z"/><path d="M1050.59.28l-.18-.07c.07-.08.12,0,.18.07l.57.22C1050.92,1,1050.75.51,1050.59.28Z"/><path d="M846.82,3.17l-.49.19v0l.11.09a.33.33,0,0,1,.1.09h0a.6.6,0,0,1,.16-.21,1.22,1.22,0,0,0,.26.38,1.37,1.37,0,0,1,.46-.14l0-.6.07.47.08-.05-.08.18h.17c.31-1,1.11-2.24.69-2.91h.17a4.67,4.67,0,0,0-1.15-.14l.36-.09c-.1-.13-.19-.22-.27-.3a2.82,2.82,0,0,0-.5.17c0,.53.08,1.41-.31,1.38a.39.39,0,0,1-.35,0,7,7,0,0,0-.12.89C846.12,3.27,847,2.65,846.82,3.17Z"/><path d="M778.14,5.15a1,1,0,0,1,0-.52,1.81,1.81,0,0,0-.54.09A.67.67,0,0,1,778,5,.2.2,0,0,1,778.14,5.15Z"/><path d="M807.55,4.92s0,.1,0,.15a.38.38,0,0,0-.15-.22l.31,1.39a.62.62,0,0,0,.28-.73c.23.76.78.51,1.24.83l-.26-.63C808.64,5.82,808.21,5.6,807.55,4.92Z"/><path d="M777.56-.82A1.88,1.88,0,0,0,776-.2c.27.31.13.92.27,1.39l.35.07.21-.46c-.11-.06-.23-.11-.26-.18a.75.75,0,0,0,.29.11Z"/><path d="M809.59,4.84l-.14.29,0,.06C809.63,5.13,809.64,5,809.59,4.84Z"/><path d="M780,.83a1.32,1.32,0,0,0-.28,0,11.17,11.17,0,0,1-.61,1.06h0a1,1,0,0,1,.29.35v0l.08,0,.23-.51c.14.37-.12.51-.36.62a.73.73,0,0,0,.16.42l.26-.21c.79-.34.34.67,1,.78-.51.53-1-.23-1.32.21.17.23.6.36.46.79-.15-.2-.35-.15-.53-.09a.3.3,0,0,0-.19.26l.47,0a2.47,2.47,0,0,1-1,.13c-.08.19-.1.35,0,.33-.11,0-.36.21-.64.38a1.36,1.36,0,0,1-.06.32,1.47,1.47,0,0,1,0,.18h0c-.1.34-.19.7.17,1a.21.21,0,0,1,.1-.06,1.39,1.39,0,0,1,0-.31l.43.29h.07a.41.41,0,0,0,0-.2,2.49,2.49,0,0,0,.23.27.62.62,0,0,1,.43.39c.22.16.46.3.72.46l.08-.08,0,.15.4.25c.11-.46-.11-.74.27-1.35.55.1.36,1.39.82,1.45l.06-.1V8c.1-.18.1-.41-.06-.49.27,0,1.18,0,.75.88,0,.14-.3,0-.5,0,.11.37,0,.72.15.81.73.25.59-.75.86-.66l-.26,1.18c.45.39.64,1.06,1.23.93-.19.4,0,.77-.2,1a3.26,3.26,0,0,1,.69.65c.17-.19-.13-.67-.29-.92.28.5.88,1,1.3.6-.23-.19-.35-.81-.72-.48.07.06.1.21,0,.24l-.23-.83c.49-.34.72-.39,1.13.08.29-.38-.25-1.22-.55-.84l.26-.54L784.7,9a3.51,3.51,0,0,1,.19-.34c-.3-.27-.6-.64-.8-.84l.18-.13c.43.24.3-.35.39-.41,0,.32.57.34,1,.54a2.14,2.14,0,0,0,.26-.7c-.73-.24-.71.16-1.31-.11l.45-.5c-.18-.28-.72.39-.77-.16a.3.3,0,0,1,0-.33L784,5.71s0,0,0,0l-.59.33.33-.95c-.27-.31-.57-.67-.38-.94-.36-.55-1.16.14-1.08-.6a1.71,1.71,0,0,1,.91-.6l-.26-1c.11.28.27.69.45,1.09,0,0,.11,0,.19.1a.73.73,0,0,0-.08.12,4.25,4.25,0,0,0,.56.92l-.67-.33,0,.24.48.07c-.14.2-.51.17-.5.42.55-.33,1.52.85,1.82-.44l0,.64c-.67-.35-.18.85-.79.34.07.05,0,.17-.06.31.22,0,.41.39.29.65.18-.6.66.57.74-.24l-.11.66a2.41,2.41,0,0,0,.55,0l.11-.8c.33-.07.13-.45.42-.61a1.91,1.91,0,0,0,.8.64,6.26,6.26,0,0,1,.74-.82c.49.29-.07.82.63.66l0-.33c.31,0,.44.62.77,1,.61-.86.67.81,1.1-.34-.12,0-.56-.59-.21-.91.71-.41.6.74,1.23,0-.08-.07-.15-.13-.19,0,.67-.86,1.63,1,2.45.1A10.8,10.8,0,0,0,789.53,3a2.55,2.55,0,0,1,.85.76c-.73-.14-2.05-.47-2.35-1.23a10.39,10.39,0,0,1-1.41-.6l.07.49-.28-.33s.06-.14.08-.23A7.87,7.87,0,0,1,784.63.56a4,4,0,0,0,0-.74,1.33,1.33,0,0,0-.87-.24q-.33-.43-.67-.94c-1.19-.51-.44.33-.24,1.15a3.37,3.37,0,0,0-.73.4l.31.44v0a1.07,1.07,0,0,1-.3,0c-.06.55-.23.8-.36,1.48-.66-.34-.09-1.1-.93-1.08l1-.45a2.64,2.64,0,0,1-1.33-2.13,3,3,0,0,0-.3-.13A4.7,4.7,0,0,0,780,.83Zm-1.1,4.61.28-.16.18.23c.16-.12.28,0,.48-.12-.23.32-.46.56-.6.23l0,0Zm5.16,3.28h0c.5.6-.91.23-.59,1.24L783,9.43a6.27,6.27,0,0,1,.76-.48l-.08-.07.38-.15a.33.33,0,0,0-.05-.08Zm-3.63-2.35,0-.51c.18,0,.2.18.37.09C780.67,5.95,780.61,6.18,780.45,6.36Zm.1-2-.69.53.36-1Zm2.58,1.21c-.31.37-.68-.42-.46-.74C783.21,4.83,782.53,5.81,783.13,5.58ZM783,4.28l-.11.06a.71.71,0,0,1,.42.3c-.15,0-.53,0-.58-.21l-.11.06c0,.15.28.08.33.18l-.33.07C782.67,4.5,782.52,4,783,4.28ZM780.75,2h-.84l.59-.36Zm4.18,2.18L784.45,4C784.58,3.51,784.87,3.84,784.93,4.18Zm.14,1.21-.29.46.09-.65C785,5,784.9,5.39,785.07,5.39Z"/><path d="M811.6,6.28a4.66,4.66,0,0,0,1.73.65,2.27,2.27,0,0,1,1.13.66c.32-.32.68-1,1.11-.66a1.44,1.44,0,0,0-.67,1.27c.62.26.65-.39.78-.84-.08.55.54.56.5,1.2.19-.11.51-.18.18-.35a5.11,5.11,0,0,1,2.23,1.7,1,1,0,0,1,.46.15l0-.15c.43.4.05.31.29.66a2,2,0,0,1-.52-.19h0l-.65-.25H818a.28.28,0,0,0,0,.2l-.2-.13a.82.82,0,0,0-.29.28c.31.42,0,1.19.57.93l-.17-.68c.52.23-.08,1,.62.84-.08-.46.34-.46,0-1,.24.35.76.58.8.88.33-.22-.15-.53.22-.84l.13.77a1.11,1.11,0,0,1,.25-.06.65.65,0,0,1,.09.16l.39-.07c-.57-.14-.26-1.15-.68-1.15l.21-.14s0,0,0-.05l.28-.13-.27.19c0,.28.2.4.41.59,0,.47.13.59.32.55.08-.27.28-.56.39-.85a.35.35,0,0,1-.06-.15c0-.11,0,0,.09.08a.6.6,0,0,0-.06-.53c-.16.19-1.26,0-.73-.79l.09.07a2.07,2.07,0,0,1-.15-.26L820,8.73l-.25.22V8.67h0V8.43l.21.16a.78.78,0,0,0,.19-.12,1.44,1.44,0,0,0-.56-.8c-.13.2.05.34.16.53-.72-.44-1.65-.14-2.19-1.19v.24c-.06-.34-.59-.9-.91-.59-.41-1.5,1.75.59,1.35-.91-.14.21-.1-.19-.2-.14,0-.15,0-.24.18-.35,0,.39.67.35.11.68a1.06,1.06,0,0,0,1.08-.26c-.05-.09-.2-.13-.25-.23h.4a1.48,1.48,0,0,1,.08-1.21c-.15.38-.28.14-.42,0-.06.07-.12.07-.14-.15a.44.44,0,0,1,.14.15c.15-.18.34-.89.25-.56.29.14-.08.84.6.47a.57.57,0,0,0,.09-.65l.3.24.3-1.16c.19.09,0,.79.4.37l0-.18c.37.09.71-.09.84.24l-.45.74c.39.11.31.35.18.6.86-.63,2.36-.82,2.55-1.56l0-.1.07,0c0-.32-.19-.73-.75-1.31-.8-.46-2.63.43-4.58,1.21,0,.27.06.53-.33.17,0,0,0,0,0,0a17.45,17.45,0,0,1-1.73.59l0,.51,0-.5c-1.73.48-3.29.47-4-1.11A2.6,2.6,0,0,0,809.93,4c.26.08.55.15.65.5-.11-.38.73-.6,1.14-.58-.08,1.36-1-.47-1.05.8.46-.07.76.36,1-.16.41,0-.32,1,.39,1-.09,0-.21.06-.34.08Zm8.23,4.9-.14-.42.4.28Zm2.83-9.49c0,.18,0,.4,0,.62,0-.27-.48.1-.57,0C822.15,2,822.52,2,822.66,1.69Zm-5.61,1.66c.36,0,.66.24,1-.22l-.1-.05c.34-.18.09.74.23,1.07a.62.62,0,0,0,.15-.11c-.11.29-.25.7.1.67l.07-.14,0,.42.44,0c-.89.78-1.06-.61-1.4-1.23-.26.14-.75.51-.64.65C816.72,4.23,817,3.67,817.06,3.34Zm1.94,5,.14.13c.24.36,0,.09.08.46C818.88,8.73,819,8.62,819,8.31Zm-6.82-5.4c-.43.51-.3,0-.37-.19Zm-.64-.15,0,0a.83.83,0,0,0,0-.12l.08,0a.38.38,0,0,0-.13.08c-.06.17-.14.32-.06.43C811.48,3.09,811.37,3,811.53,2.77Zm1.28,2.11.67.52C813.16,5.61,812.91,5.11,812.81,4.88Zm-.71,0,.46.71-.23,0Z"/><path d="M1316.9.29c-.35.16-.65.22-.87,0l-.35.74a3.1,3.1,0,0,0,1.05.92c-.23,0-.48-.13-.59.15a1.41,1.41,0,0,1,.76,0c.46.27,1,.55,1.39.87l-.86-.17,1.41,1.1c-.09-.16,0-.32,0-.46a1.81,1.81,0,0,1,.57,1.22l-1-1.11c-.7.87-1.56.38-2.37,0l.84-.33c-1.29-.46-.85-1-2-1.58a1.37,1.37,0,0,1,.32,1.63,1,1,0,0,0-.93.31c-1,1.35.42.23,1,1.32,2.84-.73,5.27.34,8.21-.26-.36-.82-1.64.24-2-.73a7.74,7.74,0,0,0,3.71.29l-2.49-.38c-.11-.34.58-.43.76-.5a26.6,26.6,0,0,0-2.57-1.41c.12-.12.26-.26.42-.45.25.32.24,1,.84-.09-.08,1.71,1.42-.26,1.23,1.56,1-.49,2.81-.07,3.07,1.12a1.37,1.37,0,0,0,.73-.13c.86.78,1.31.72,1.93,1.93.6-.16,0-1.07.4-1.57,1.45-.71,3.14.14,4.9.41l-.16-.24c2,1.49,3.93-1,6.2-.13a1.32,1.32,0,0,1,.18.43l.14-.85a2.59,2.59,0,0,0,1.26.41c-.4.28-1.06.44-.26,1.14,1.27-.19.92-1.67,2.7-1l-.1-.13C1346,4.18,1347,5,1348,5.43c.65.3,1.32.57,1.91.85l.36-.15-1.13-.53a3.16,3.16,0,0,0,.86-.18c.39.16.45,1,.94,1.07.52-1-1.7-1.74-.89-2.43L1349.4,4a.68.68,0,0,0-.09.19c-1-.85-2.16.06-3.69-.73a1.92,1.92,0,0,0,.28.4,36.78,36.78,0,0,0-3.77-.39.52.52,0,0,1,.13.45l-.64,0,0-.77.81.27-.74-.69c-.51,1-1.8-.46-1.94.38l-.72-.39a.55.55,0,0,0,0-.22c-.46-.09-2.09-.26-2.49-1.08-.24.94-.82.37-1.37.32a8.19,8.19,0,0,0-4.76-1.78l-.19-.91-.16.31a2.42,2.42,0,0,0-.35-.29c.41.62-1,.78-1,1.55l-1-1,.55.76-.87.24-.24-1.09,1.62,0-.63-.86,0,0a.77.77,0,0,0,.64,0c0-.28-.2-.36-.46-.4l.29-.17c-.14-.49-.68-.28-1.09-.19l-.07-.06,0,.06a.52.52,0,0,1-.23,0,.36.36,0,0,1,.08.24c-1.17-.84,1.54-.72-.47-1.43-.06.28-.29.38-.37.56-.45-1.23-.91,1.1-1-.26a6.68,6.68,0,0,0,0,1c.11,0,.29.19.52.44,0,.25.05.57,0,.75l.3,0c.5.77-.49,1-.73,1.45.38-1.16-.73-.57-1-1.12,1.85,2-2,1.19-.37,3-.9.6-.63-.46-.82-.9a10,10,0,0,0-2-.52c.2-.43.76-.93,0-1.11l-.06.43-.55-.61a1.14,1.14,0,0,1-.58,1A11.69,11.69,0,0,1,1318.8.3a.38.38,0,0,0,0-.29l.51-.22a1.47,1.47,0,0,0-.65-.11,4.68,4.68,0,0,1-.39-.81c1,0,.85,1,1.81,1.44l.21-1.26c-2.09.24-4.81-1.81-5.94-.19l1.28.47a.25.25,0,0,1,.07-.43c.86.18,1.09.86.88,1.28A1.79,1.79,0,0,1,1316.9.29Zm32.61,4.36a.4.4,0,0,1,.15.46l-.56-.26A1,1,0,0,1,1349.51,4.65Zm-22.2-6.5-.17-.05a.29.29,0,0,0-.08-.14l.24.13A.29.29,0,0,1,1327.31-1.84Zm-.81-.61a.6.6,0,0,0-.18-.13l.11-.15A.49.49,0,0,0,1326.51-2.45Zm-.27,0h0L1327-2a.38.38,0,0,0-.31,0l-.27-.09c.07,0,.09.09.14.12C1326.37-1.89,1326.18-1.86,1326.24-2.47Zm0,1.15a2.72,2.72,0,0,0,.35.3.67.67,0,0,1-.45,0A1.49,1.49,0,0,1,1326.29-1.32Zm2.45,2.68a1.6,1.6,0,0,1,.93.62l-.22-.69a4.54,4.54,0,0,0,1.47.69,1.31,1.31,0,0,1,.19.51l-.29,0c-.56-.26-1.29-.1-1.74-.32l.18.42-.38,0-.16-1.14Zm3.86.78.15,0-.1.09Zm-3.84.48-.26,0,.07-.37A.58.58,0,0,1,1328.76,2.62Zm-1,.67.06-.1c.26,0,.52,0,.78,0h0C1328.29,3.73,1328,3.54,1327.72,3.29Zm1.29.24-.05-.34.58,0,0,0C1329.57,3.79,1329.23,3.44,1329,3.53Zm4.17-1.45h.12A.32.32,0,0,1,1333.18,2.08Zm1.28-.22.31-.05.18.74C1334.82,2.13,1334.65,1.94,1334.46,1.86Zm6,2.37c-.57-.35-1.78-.11-2.25-.5,0-.54.33-.59.59-.74C1339.22,3.39,1340,3.64,1340.44,4.23Z"/><path d="M1434.52-3.13a15.41,15.41,0,0,1,1.71,2c-.59.41-1.16.82-1.74,1.23,2,1.82,4.33,2.32,6.78,2.66-.53-1,.84-.77,1.28-1.14-.58,1.56.59.63,1,1.21-.59-2.63,3.08-.27,3.79-2,1.4,3.65,4.8,3.69,6.77,5.4.62-1.32-1,0-1-1.85l1.15-.54c-1-2.52-2.44.62-2.5-2.61,1.3-.79,2.22.6,3.24,1,.14-.27.26-.52,0-.68l1.25,1.33c1.52-2.43,1.75-2.27,3.74-4l1.82,1.46-.69-1.68,2.43-.69-.24-1.33c-1.84-.33-1.3,1.58-3.15.14l.49,1.5C1459-3,1459.77-.17,1458.44-2c2-.66-1.79-1-1.25-3.19-.56,1-1.78.87-2.81,1.56,1.2-1.66-2-2.56-2.91-3.2.89,2.08-2,0-.44,1.48-2.85,1.87-6.74-1.15-8.71-1,.27.86-.68.93.16,1.83-3.07-3.05-7.87-.85-9.27,0,1.3,1.42-.35,1.1,1.3,2.4C1434.35-2.57,1434.1-2.72,1434.52-3.13Z"/><path d="M366.52,5.58a15.41,15.41,0,0,0,1.71-2c-.59-.41-1.16-.82-1.74-1.23,2-1.82,4.33-2.32,6.78-2.66-.53,1,.84.77,1.28,1.14-.58-1.56.59-.63,1-1.21-.59,2.63,3.08.27,3.79,2,1.4-3.65,4.8-3.69,6.77-5.4.62,1.32-1,0-1,1.85l1.15.54c-1,2.52-2.44-.62-2.5,2.61,1.3.79,2.22-.6,3.24-1,.14.27.26.52,0,.68l1.25-1.33C389.76,2,390,1.81,392,3.58l1.82-1.46L393.1,3.8l2.43.69-.24,1.33c-1.84.33-1.3-1.58-3.15-.14l.49-1.5c-1.61,1.26-.86-1.56-2.19.23,2,.66-1.79,1-1.25,3.19-.56-1-1.78-.87-2.81-1.56,1.2,1.66-2,2.56-2.91,3.2.89-2.08-2,0-.44-1.48-2.85-1.87-6.74,1.15-8.71,1,.27-.86-.68-.93.16-1.83-3.07,3.05-7.87.85-9.27,0,1.3-1.42-.35-1.1,1.3-2.4C366.35,5,366.1,5.16,366.52,5.58Z"/><path d="M1890.86,6.76a2.81,2.81,0,0,0,.61,0l-.29.3c.55,1.73,1.52.68,2.53-.2a8,8,0,0,0-.28-.93,1.27,1.27,0,0,0,.78.53c.62-.45,1.2-.55,1.69.27a3,3,0,0,1,.47.15l.73-2.31L1896,4.11l1.33-.07c.41.55-.48,1.73,0,2.57.75-.75,1.69-1.37,1-2.9.37-.37.89,1.55,1.55,1a1.92,1.92,0,0,1,.49-.82,1.82,1.82,0,0,1-.49.82,3.15,3.15,0,0,0,.92,3.15c-.62,2.5-1.87,1.18-2.83,2-.11.3-.22.54-.41.55a1.79,1.79,0,0,1,.41-.55,5.89,5.89,0,0,1,.29-.77c-.37.21-.57.22-.72.17l-2.44,4a1.13,1.13,0,0,1,.61,0l-.05.15a.92.92,0,0,0,.93-.5v1.7c.33.44.6,1.25,1.25,0,.51-1.45.55-4.3,1.36-2.92a4.58,4.58,0,0,0,.08.56,1.77,1.77,0,0,1,2-1.14c-.55.08-.51.79-.59,1.24a2,2,0,0,0,2.29.06c-.1-.12-.11-.35.15-.9l1.3-.34-.25.86c.36.27.94-.61,1.39-1-.52,1.24-1.09,1-1.43,2l2.07-.17c-.35,2-1.45,1.28-2.31,1.24a.63.63,0,0,1,0,.12c.48.57.4,1.48,1,1.11a2.45,2.45,0,0,0,.41-.32,2.45,2.45,0,0,1-.41.32,1.22,1.22,0,0,0-.32.71c.94,1.25,1.59-2.49,2-3.21,1.73-2.91-.62-3.12,0-5.56l3.62-.69a5.32,5.32,0,0,0-.95,2.44c.61,1.26-.33,1.87.85,2,.54-3.3,1.84-1.77,3-3.51.12,1.42.15,1.7-.69,1.58-.32,2.14,1,1.55,1.32,1.81.33-.48.79-.71,1.13-1.13a3.73,3.73,0,0,1,1.18-3.2l.13-.44c-1.08-.81-2.49-3.5-3.66-1.45l.41-1c-1-2.1-3.73,3.25-3.62-.89.35-1.58-.21-.41.24-2.71l-1.36,1.61.4-1-1.84.2.13-.42L1904,5.17a4.93,4.93,0,0,1-.59,2c-.37.44-.59.49-.75.32h0l-.32.77c-.12.44-.22,1.08-.54,1.1-.41.78-.58.9-.09-.07l-.27-.19c.07-1,.38-1,.85-.91l.38-.7h0c-.38-.37-.4-1.86-.82-2.54l1.66,0a7.78,7.78,0,0,0,0-4.81c.33,0,.71-1.31.34-1.58-.12.44-1.26.91-1.11,2.33-1.64.35-3.38-4.56-6.28-1.7,2-1.67-1-2.51,1-2.9-.86-3-1.58,2.5-2.83,1.86,0-1,.71.24,1.32-1.64-2.06-1.46-4.45,3.82-6.46,2.66l.24-2.16-1.47.69c0,3,0,5.72.67,7.4a21.58,21.58,0,0,1,2.07-.69C1892,5.33,1891.07,5.91,1890.86,6.76Zm14.3,2.54c-.09,0-.21,0-.35.25.14-.21.26-.26.35-.25.39-.33.6-.66.83.35C1905.66,10.2,1905.49,9.35,1905.16,9.3ZM1889.1,2.53l1-.35-.9.92Zm1.92.59c.73-2.34.6.67,1,.94C1891.76,3.64,1891,4.12,1891,3.12Z"/><path d="M27.68,5.75c-.09-.23-.64-.25-.29-.71a1.37,1.37,0,0,0,1.44-1.19c-.39-.94-1.35-.15-1.83.25l.13.06a2.45,2.45,0,0,1-2.63.93l.59.62-.9.43.13-.73c-.71.11-1.67-.66-2.4.43-.68-.86.22-.51.51-.6-.8-.89-.33-2.88-1.13-3.78C20.39,2.68,19,3.69,17.8,5l-.23-1.07c0,.79-1.41,1-1.44,2l-.72-1.47c-.32.27-.28.87-.12,1.53l-.45-.57c.74,1.27,0,3,1.18,3.6l.86-1c.55,0-.41.81-.22,1.29.41-.81,1-.39,1.6-1.34.67-.72,1.32.32,1.29,1.28-.64.54-1.76.7-2.27,1.29l.1.23c-1.48,1.53-1.07-1-2.14-.51a.42.42,0,0,1,0,.08c-.07.38-.32.27-.46.22a1.71,1.71,0,0,1,.44-.3c-.26-1.67-1.15.39-1.57-1.12-.32.26-.4,2.39-1,1.17l.58-.17c-.45-.57-1.36-1.7-1.42-1.33l-.58-1.41c.7-.12,1.26.69,2.09.61,1.24-1.68,1-4.14,2.54-5.31l-.42,0,1.29-.29c0-1.58-.81-.11-1.55-.59C15.05,3.36,13.74,3,13,3.53,11.89,6.65,11.55,1.4,10,3l1.48-1.4c-.45,1,.65,1,1,.59L12,1.37c.59.61,1.06-.58.86-1a.9.9,0,0,0-.31-.41.65.65,0,0,1-.38.08c-.48.42-.95,1.82-1.75,1C11,.79,11,.61,10.54,0L12.1-1.13,11.92,0a.88.88,0,0,0,.21,0c.12-.1.25-.16.38-.08a.54.54,0,0,0,.28-.19c-.55-.8.57-1-.3-1.48.52-.6,1.67-1.73,2.29-.51.09-.55.32-1.05.09-1.33,1.45,1.15,1.58-1.95,2.19-1.52.35.34.68.86,1.13.65l-.29-.71c.42,0,.2.47.42.76l-1,.2C18.8-4,18.52-1.6,20.06-1l-.93.63C20.29.86,21.6-2,22.57-.41c-1.67.13.52,1.78-.51,2.16.67,1.65,2.73.88,3.75.5C26,2.54,27,1.56,27.45.75c.38.16.58,1.41,1,.4-.07-.42-.29-.7-.71-.67.42-1.61,1.06,1,1.64.06.09.24,1.92-1.59,2.89-.8-.09.55-2.34,2.4-3,3.12.13.84.39.94.9.36L29.8,5.42C29.8,4.63,28.23,5,27.68,5.75Z"/><path d="M1242.86,2.56c-2.15,2.23-4.49,2.4-7.14,2.75a25.17,25.17,0,0,0,8.55,1.57C1244.66,5.28,1245.88,2.38,1242.86,2.56Z"/><path d="M1214.52-.41c-3.36,2.31-4.05,4.07-4.31,5.66l9.92.7-.68.71,2-.59C1219.16,5.23,1217.53,3.32,1214.52-.41Z"/><polygon points="1205.25 4.87 1208.8 2.63 1209.87 -2.83 1205.25 4.87"/><polygon points="1196.13 1.34 1198.46 3.24 1198.87 -1.51 1196.13 1.34"/><path d="M1157.38,1.62a11,11,0,0,0,2.8,1.57A10.22,10.22,0,0,0,1157.38,1.62Z"/><path d="M1159.74.7c.75.24,1.35.38,1.91.51C1161.94.35,1161.69-.18,1159.74.7Z"/><path d="M1179.59-1.74l-3.33,1.05,0-.51c-3,.14-5.18,2.28-2.06,3.47.73-.72,1.52-.08,2.23-.78l-.11-1.68c1.26.26,1.94,1.16,2.82,1.86C1179,.32,1178.11-1.64,1179.59-1.74Z"/><path d="M980,0q-6.45,0-13,.09c-6,.05-12.13.14-18.2.23a2.82,2.82,0,0,0,1.4,2.37c-.84,0-1.48,1.23-.5,1.45.22-.4,2.93-.9,2.26-2.17,4-.45,9.35,3.83,16,1.07-4.69,1.65,2.91,2.2-2,2.67,2.7,2.6,3.45-2.34,6.71-1.85.07.9-1.79-.17-3,1.56,5.64,1.24,10.51-3.69,15.66-2.78l-.26,1.94,3.55-.69A18.69,18.69,0,0,0,987.82,0h-7.71S980,0,980,0Z"/></svg>